<svg width="40" height="40" viewBox="0 0 40 40" fill="none" xmlns="http://www.w3.org/2000/svg">
<path d="M24.009 16.296L23.8879 15.4598L26.4379 13.867C27.1668 13.1381 28.3485 13.1381 29.0774 13.867C29.8062 14.5959 29.8062 15.7776 29.0774 16.5064L28.8075 16.7763L28.1998 18.1109L26.6483 18.9354L24.009 16.296Z" fill="#FFC98F"/>
<path d="M27.1587 7.98759L19.6192 15.527C19.3125 14.3488 18.1359 10.7784 15.1279 10.7303C14.4042 10.7188 13.8605 11.3908 14.0073 12.0994L15.174 17.733C15.4138 18.8908 15.0547 20.0915 14.2186 20.9276L12.2732 22.873C13.2517 24.5241 15.556 27.1873 16.9761 28.6074C18.1954 29.8267 19.516 30.8826 20.9103 31.7759L26.7679 18.8169L24.188 16.237L29.798 10.627C30.5196 9.90534 30.5274 8.73832 29.8166 8.00705L29.798 7.98836C29.0698 7.26016 27.8881 7.25828 27.1587 7.98759Z" fill="#FFC98F"/>
<path d="M29.3478 21.6375L28.4041 20.6742L31.1651 19.8201C31.894 19.0912 33.0757 19.0912 33.8046 19.8201C34.5335 20.549 34.5335 21.7307 33.8046 22.4596L31.9872 24.277L29.3478 21.6375Z" fill="#FFC98F"/>
<path d="M32.1063 24.1556L27.7101 28.5519C26.8888 29.3732 25.8703 29.6972 24.8218 29.634C24.2845 29.6017 23.7577 29.7918 23.3771 30.1725L21.4432 32.1064C21.2637 31.9992 21.0862 31.8889 20.91 31.7759C19.5158 30.8826 18.1958 29.8273 16.9766 28.6079L28.8074 16.7771C29.1721 16.4124 29.6865 16.222 30.1648 16.2227C30.6418 16.222 31.142 16.4731 31.5061 16.8371C32.2355 17.5665 32.2355 18.7477 31.5068 19.4764L29.467 21.5161L32.1063 24.1556Z" fill="#FFC98F"/>
<path d="M5.71436 27.3867L11.921 21.1801L23.2166 32.4757L17.01 38.6824L5.71436 27.3867Z" fill="#4C7FF7"/>
<path d="M8.64878 6.46878C8.25379 6.27244 8.09276 5.79308 8.28909 5.39809C8.48543 5.0031 8.96479 4.84206 9.35978 5.0384L11.8927 6.29743C12.2877 6.49377 12.4487 6.97313 12.2524 7.36812C12.0561 7.76311 11.5767 7.92415 11.1817 7.72782L8.64878 6.46878Z" fill="#FFB326"/>
<path d="M14.773 1.35717C14.7797 0.916129 15.1427 0.564049 15.5837 0.570779C16.0248 0.577508 16.3769 0.940499 16.3701 1.38154L16.327 4.20979C16.3202 4.65083 15.9573 5.00291 15.5162 4.99618C15.0752 4.98945 14.7231 4.62646 14.7298 4.18542L14.773 1.35717Z" fill="#FFB326"/>
<path d="M19.2655 7.06199C18.968 6.73651 18.9907 6.23148 19.3161 5.93398L21.4033 4.02621C21.7288 3.72871 22.2338 3.75139 22.5313 4.07687C22.8288 4.40235 22.8062 4.90737 22.4807 5.20488L20.3935 7.11265C20.068 7.41015 19.563 7.38747 19.2655 7.06199Z" fill="#FFB326"/>
</svg>
