<svg width="40" height="40" viewBox="0 0 40 40" fill="none" xmlns="http://www.w3.org/2000/svg">
<path d="M28.7358 5.61328C30.2762 5.61328 31.525 6.86021 31.525 8.39838L31.525 31.6001C31.525 33.1382 30.2762 34.3852 28.7358 34.3852L11.2623 34.3852C9.72185 34.3852 8.47306 33.1382 8.47306 31.6001L8.47306 8.39838C8.47306 6.86021 9.72185 5.61328 11.2623 5.61328L28.7358 5.61328Z" fill="#E6E6E6"/>
<path d="M25.766 10.1992L25.8856 10.2055C26.4741 10.2654 26.9328 10.7621 26.9328 11.3656C26.9328 11.969 26.4741 12.4657 25.8856 12.5257L25.766 12.532L14.2396 12.532C13.5948 12.532 13.0715 12.0095 13.0715 11.3656C13.0715 10.7217 13.5948 10.1992 14.2396 10.1992L25.766 10.1992Z" fill="#6C7B9C"/>
<path d="M20.0022 17.1953L20.1218 17.2016C20.7106 17.2612 21.1703 17.758 21.1703 18.3617C21.1703 18.9654 20.7106 19.4622 20.1218 19.5218L20.0022 19.528L14.2396 19.528C13.5948 19.528 13.0715 19.0055 13.0715 18.3617C13.0715 17.7178 13.5948 17.1953 14.2396 17.1953L20.0022 17.1953Z" fill="#6C7B9C"/>
<path d="M5.71423 7.2105L5.71423 5.40816C5.71423 3.99803 6.8585 2.85547 8.27074 2.85547L10.0758 2.85547L10.2268 2.87055C10.5697 2.94044 10.8273 3.24279 10.8273 3.60582C10.8273 3.96884 10.5697 4.27119 10.2268 4.34108L10.0758 4.35616L8.27074 4.35616C7.68923 4.35616 7.21718 4.82751 7.21718 5.40816L7.21717 7.2105C7.21714 7.62521 6.88105 7.96085 6.4657 7.96085C6.05036 7.96085 5.71427 7.62521 5.71423 7.2105Z" fill="#4C7FF7"/>
<path d="M29.9242 2.85547L31.7292 2.85547C33.1415 2.85547 34.2857 3.99803 34.2857 5.40816V7.2105L34.2706 7.36132C34.2007 7.7037 33.8978 7.96085 33.5343 7.96085C33.1707 7.96085 32.8679 7.7037 32.7979 7.36132L32.7828 7.2105V5.40816C32.7828 4.82752 32.3108 4.35616 31.7292 4.35616L29.9242 4.35616C29.5089 4.35613 29.1727 4.02054 29.1727 3.60582C29.1727 3.19109 29.5089 2.85551 29.9242 2.85547Z" fill="#4C7FF7"/>
<path d="M10.0758 37.1444L8.27074 37.1444C6.8585 37.1444 5.71423 36.0019 5.71423 34.5918V32.7894L5.72934 32.6386C5.79933 32.2962 6.10214 32.0391 6.4657 32.0391C6.82927 32.0391 7.13208 32.2962 7.20207 32.6386L7.21717 32.7894V34.5918C7.21717 35.1724 7.68923 35.6437 8.27074 35.6437L10.0758 35.6437C10.4911 35.6438 10.8273 35.9794 10.8273 36.3941C10.8273 36.8088 10.4911 37.1444 10.0758 37.1444Z" fill="#4C7FF7"/>
<path d="M35.7143 30.7137C35.7143 34.2641 32.8362 37.1423 29.2857 37.1423C25.7353 37.1423 22.8572 34.2641 22.8572 30.7137C22.8572 27.1633 25.7353 24.2852 29.2857 24.2852C32.8362 24.2852 35.7143 27.1633 35.7143 30.7137Z" fill="#4C7FF7"/>
<path d="M31.283 28.2157C31.5982 27.8988 32.1099 27.8965 32.4272 28.2112C32.7442 28.5264 32.7466 29.0396 32.4318 29.3569L28.5964 33.2136C28.4445 33.3663 28.2381 33.4531 28.0227 33.4532C27.8071 33.4532 27.5996 33.3665 27.4476 33.2136L26.1401 31.8986L26.0379 31.7719C25.831 31.4569 25.867 31.0289 26.1447 30.7528C26.4221 30.4776 26.8488 30.4443 27.1623 30.6521L27.2905 30.7574L28.0212 31.4928L31.283 28.2157Z" fill="white"/>
</svg>
