<svg width="40" height="40" viewBox="0 0 40 40" fill="none" xmlns="http://www.w3.org/2000/svg">
<path d="M29.5013 19.9992C28.7614 19.9793 28.0727 19.9992 27.812 20.6197C27.7733 20.672 27.7098 20.7027 27.6423 20.7027C27.527 20.7027 27.4336 20.6144 27.4336 20.5056V19.8078C27.4336 18.7598 26.5283 17.8274 25.4192 17.7834C24.6702 17.7536 24.0034 18.0935 23.6062 18.6257C23.5733 18.6698 23.5262 18.7047 23.4703 18.7163C23.3423 18.743 23.2204 18.6618 23.204 18.5451C23.0686 17.5847 22.2264 16.8157 21.177 16.7885C20.3047 16.7659 19.5481 17.2446 19.2065 17.9416C19.1897 17.9759 19.1541 17.9983 19.1142 17.9983C19.0581 17.9983 19.0126 17.9554 19.0126 17.9024V12.3549C19.0126 11.2405 18.0465 10.3072 16.8663 10.3285C15.7225 10.3492 14.8021 11.2309 14.8021 12.3157V20.266H13.7494C12.5867 20.266 11.6442 21.1559 11.6442 22.2535V26.2287C11.6442 30.0707 14.9431 33.1853 19.0126 33.1853H24.2757C28.3452 33.1853 31.4286 30.5274 31.4286 26.6854V22.2535C31.4284 21.191 31.1 20.0423 29.5013 19.9992Z" fill="#FFC98F"/>
<path d="M9.90147 7.89847C9.50648 7.70213 9.34544 7.22277 9.54178 6.82778C9.73811 6.43279 10.2175 6.27175 10.6125 6.46809L13.1454 7.72712C13.5404 7.92346 13.7014 8.40282 13.5051 8.79781C13.3087 9.1928 12.8294 9.35384 12.4344 9.1575L9.90147 7.89847Z" fill="#FFB326"/>
<path d="M16.0264 2.78686C16.0331 2.34582 16.3961 1.99374 16.8372 2.00047C17.2782 2.0072 17.6303 2.37019 17.6235 2.81123L17.5804 5.63948C17.5737 6.08052 17.2107 6.4326 16.7696 6.42587C16.3286 6.41914 15.9765 6.05615 15.9832 5.61511L16.0264 2.78686Z" fill="#FFB326"/>
<path d="M20.518 8.48777C20.2205 8.16229 20.2432 7.65726 20.5687 7.35976L22.6559 5.45199C22.9814 5.15449 23.4864 5.17717 23.7839 5.50265C24.0814 5.82813 24.0587 6.33316 23.7332 6.63066L21.6461 8.53843C21.3206 8.83593 20.8155 8.81325 20.518 8.48777Z" fill="#FFB326"/>
<path d="M13.0728 38.5703L13.0728 31.4275L30.2156 31.4275L30.2156 38.5703L13.0728 38.5703Z" fill="#4C7FF7"/>
</svg>
