<svg width="24" height="24" viewBox="0 0 24 24" fill="none" xmlns="http://www.w3.org/2000/svg">
<path d="M5.12176 21.2559H4.86462C3.90033 21.2559 3.12891 20.4845 3.12891 19.5202V17.5273H6.85748V19.5202C6.85748 20.4845 6.08605 21.2559 5.12176 21.2559Z" fill="#555555"/>
<path d="M19.1354 21.2559H18.8783C17.914 21.2559 17.1426 20.4845 17.1426 19.5202V17.5273H20.9354V19.5202C20.9354 20.4845 20.0997 21.2559 19.1354 21.2559Z" fill="#555555"/>
<path d="M21.0006 18.1707H3.00056C2.29342 18.1707 1.71484 17.5921 1.71484 16.885V12.2564C1.71484 11.5493 2.29342 10.9707 3.00056 10.9707H21.0006C21.7077 10.9707 22.2863 11.5493 22.2863 12.2564V16.885C22.2863 17.5921 21.7077 18.1707 21.0006 18.1707Z" fill="#80B4FB"/>
<path d="M6.02137 16.1131C6.87347 16.1131 7.56423 15.4223 7.56423 14.5702C7.56423 13.7181 6.87347 13.0273 6.02137 13.0273C5.16928 13.0273 4.47852 13.7181 4.47852 14.5702C4.47852 15.4223 5.16928 16.1131 6.02137 16.1131Z" fill="white"/>
<path d="M17.9784 16.1131C18.8305 16.1131 19.5213 15.4223 19.5213 14.5702C19.5213 13.7181 18.8305 13.0273 17.9784 13.0273C17.1263 13.0273 16.4355 13.7181 16.4355 14.5702C16.4355 15.4223 17.1263 16.1131 17.9784 16.1131Z" fill="white"/>
<path d="M14.0578 15.2776H9.94347C9.55776 15.2776 9.23633 14.9561 9.23633 14.5704C9.23633 14.1847 9.55776 13.8633 9.94347 13.8633H14.0578C14.4435 13.8633 14.7649 14.1847 14.7649 14.5704C14.7649 14.9561 14.4435 15.2776 14.0578 15.2776Z" fill="white"/>
<path d="M16.436 2.74219H7.56462C6.34319 2.74219 5.25033 3.5779 4.92891 4.73504L3.12891 10.9708H20.936L19.0718 4.73504C18.7503 3.5779 17.6575 2.74219 16.436 2.74219Z" fill="#9DC6FB"/>
<path d="M5.82812 8.91311L6.8567 5.31311C6.92098 4.99169 7.24241 4.79883 7.49955 4.79883H16.4353C16.7567 4.79883 17.0138 4.99169 17.0781 5.31311L18.1067 8.91311H5.82812Z" fill="white"/>
</svg>
