<svg width="40" height="40" viewBox="0 0 40 40" fill="none" xmlns="http://www.w3.org/2000/svg">
<rect width="40" height="40" rx="20" fill="#F4F4F4"/>
<path fill-rule="evenodd" clip-rule="evenodd" d="M15.4334 17.8215C14.8752 17.2633 13.9701 17.2633 13.4119 17.8215L12.3225 18.9109C9.97461 21.2588 9.97461 25.0654 12.3225 27.4133C14.6703 29.7611 18.477 29.7611 20.8248 27.4133L21.947 26.2911C22.4871 25.751 22.4871 24.8753 21.947 24.3352C21.4069 23.795 20.5312 23.795 19.9911 24.3352L18.9143 25.4119C17.6648 26.6614 15.6389 26.6614 14.3894 25.4119C13.1399 24.1624 13.1399 22.1365 14.3894 20.887L15.4334 19.843C15.9916 19.2848 15.9916 18.3797 15.4334 17.8215ZM23.9092 22.373C23.369 21.8329 23.369 20.9572 23.9092 20.4171L25.3571 18.9691C26.6066 17.7196 26.6066 15.6937 25.3571 14.4442C24.1076 13.1947 22.0817 13.1947 20.8322 14.4442L19.417 15.8594C18.8588 16.4176 17.9537 16.4176 17.3955 15.8594C16.8373 15.3012 16.8373 14.3961 17.3955 13.8379L18.912 12.3214C21.2598 9.97358 25.0665 9.97358 27.4143 12.3214C29.7622 14.6693 29.7622 18.4759 27.4143 20.8238L25.8651 22.373C25.325 22.9131 24.4493 22.9131 23.9092 22.373Z" fill="#4C7FF7"/>
<path d="M16.2974 23.5854C15.7944 23.0825 15.7944 22.2671 16.2974 21.7642L21.7094 16.3521C22.2123 15.8492 23.0278 15.8492 23.5307 16.3521C24.0336 16.855 24.0336 17.6705 23.5307 18.1734L18.1187 23.5855C17.6157 24.0884 16.8003 24.0884 16.2974 23.5854Z" fill="#4C7FF7"/>
</svg>
