<svg width="40" height="40" viewBox="0 0 40 40" fill="none" xmlns="http://www.w3.org/2000/svg">
<rect width="40" height="40" rx="20" fill="#F4F4F4"/>
<path d="M15.4025 19.4131C15.1774 19.4131 14.9559 19.3116 14.8156 19.1204C14.5854 18.8075 14.6617 18.3736 14.9854 18.1511L20.9159 14.2594C21.2396 14.0369 21.6891 14.1106 21.9186 14.4235C22.148 14.7364 22.0725 15.1703 21.7488 15.3928L15.8183 19.2845C15.6917 19.3714 15.5464 19.4131 15.4025 19.4131Z" fill="#94B2FA"/>
<path d="M15.4025 20.5869C15.1774 20.5869 14.9559 20.6884 14.8156 20.8796C14.5854 21.1925 14.6617 21.6264 14.9854 21.8489L20.9159 25.7406C21.2396 25.9631 21.6891 25.8894 21.9186 25.5765C22.148 25.2636 22.0725 24.8298 21.7488 24.6073L15.8183 20.7155C15.6917 20.6286 15.5464 20.5869 15.4025 20.5869Z" fill="#94B2FA"/>
<path d="M14.0656 23.0398C15.8024 23.0398 17.2104 21.6788 17.2104 19.9999C17.2104 18.321 15.8024 16.96 14.0656 16.96C12.3288 16.96 10.9209 18.321 10.9209 19.9999C10.9209 21.6788 12.3288 23.0398 14.0656 23.0398Z" fill="#4C7FF7"/>
<path d="M22.9348 28.9998C24.6716 28.9998 26.0795 27.6388 26.0795 25.9599C26.0795 24.2809 24.6716 22.9199 22.9348 22.9199C21.198 22.9199 19.79 24.2809 19.79 25.9599C19.79 27.6388 21.198 28.9998 22.9348 28.9998Z" fill="#4C7FF7"/>
<path d="M22.9348 17.0799C24.6716 17.0799 26.0795 15.7189 26.0795 14.0399C26.0795 12.361 24.6716 11 22.9348 11C21.198 11 19.79 12.361 19.79 14.0399C19.79 15.7189 21.198 17.0799 22.9348 17.0799Z" fill="#4C7FF7"/>
</svg>
