<svg width="41" height="40" viewBox="0 0 41 40" fill="none" xmlns="http://www.w3.org/2000/svg">
<rect x="1" y="0.5" width="39" height="39" rx="19.5" fill="white"/>
<rect x="1" y="0.5" width="39" height="39" rx="19.5" stroke="#E2E2E2"/>
<path d="M25.1272 23.661C24.8295 23.373 24.3547 23.3808 24.0667 23.6785C23.7787 23.9762 23.7865 24.451 24.0842 24.739L25.1272 23.661ZM26.9785 27.539C27.2762 27.827 27.751 27.8192 28.039 27.5215C28.327 27.2238 28.3192 26.749 28.0215 26.461L26.9785 27.539ZM19.25 22C19.25 22.4142 19.5858 22.75 20 22.75C20.4142 22.75 20.75 22.4142 20.75 22H19.25ZM20.75 17C20.75 16.5858 20.4142 16.25 20 16.25C19.5858 16.25 19.25 16.5858 19.25 17H20.75ZM17.5 18.75C17.0858 18.75 16.75 19.0858 16.75 19.5C16.75 19.9142 17.0858 20.25 17.5 20.25V18.75ZM22.5 20.25C22.9142 20.25 23.25 19.9142 23.25 19.5C23.25 19.0858 22.9142 18.75 22.5 18.75V20.25ZM26.5667 19.5333H25.8167C25.8167 22.7274 23.2274 25.3167 20.0333 25.3167V26.0667V26.8167C24.0558 26.8167 27.3167 23.5558 27.3167 19.5333H26.5667ZM20.0333 26.0667V25.3167C16.8393 25.3167 14.25 22.7274 14.25 19.5333H13.5H12.75C12.75 23.5558 16.0109 26.8167 20.0333 26.8167V26.0667ZM13.5 19.5333H14.25C14.25 16.3393 16.8393 13.75 20.0333 13.75V13V12.25C16.0109 12.25 12.75 15.5109 12.75 19.5333H13.5ZM20.0333 13V13.75C23.2274 13.75 25.8167 16.3393 25.8167 19.5333H26.5667H27.3167C27.3167 15.5109 24.0558 12.25 20.0333 12.25V13ZM24.6057 24.2L24.0842 24.739L26.9785 27.539L27.5 27L28.0215 26.461L25.1272 23.661L24.6057 24.2ZM20 22H20.75V19.5H20H19.25V22H20ZM20 19.5H20.75V17H20H19.25V19.5H20ZM17.5 19.5V20.25H20V19.5V18.75H17.5V19.5ZM20 19.5V20.25H22.5V19.5V18.75H20V19.5Z" fill="#2B2B2B"/>
</svg>
