<svg width="24" height="24" viewBox="0 0 24 24" fill="none" xmlns="http://www.w3.org/2000/svg">
<path d="M24 12.0034C24.0007 9.63002 23.2975 7.30974 21.9795 5.33598C20.6615 3.36222 18.7878 1.82362 16.5953 0.914752C14.4029 0.00588102 11.9901 -0.232445 9.66224 0.22992C7.33434 0.692285 5.19583 1.83457 3.51712 3.51232C1.83842 5.19008 0.694924 7.32795 0.231244 9.65559C-0.232436 11.9832 0.00452218 14.3961 0.912153 16.5891C1.81978 18.782 3.35732 20.6566 5.33034 21.9757C7.30335 23.2949 9.62324 23.9993 11.9966 24C13.5726 24.0009 15.1333 23.6913 16.5896 23.0888C18.0459 22.4863 19.3692 21.6028 20.4839 20.4887C21.5986 19.3746 22.4828 18.0518 23.0862 16.5959C23.6895 15.1399 24 13.5794 24 12.0034Z" fill="#4C7FF7"/>
<path d="M12.0836 12C13.7636 12 15.0836 10.68 15.0836 9C15.0836 7.32 13.7636 6 12.0836 6C10.4036 6 9.08356 7.32 9.08356 9C9.08356 10.68 10.4036 12 12.0836 12ZM17.6635 17.28C16.8835 14.22 13.7636 12.3 10.7036 13.08C8.66356 13.62 7.04356 15.18 6.50356 17.28C6.44356 17.58 6.62356 17.94 6.98356 18C7.04356 18 7.10356 18 7.10356 18H17.0635C17.4235 18 17.6635 17.76 17.6635 17.4C17.6635 17.34 17.6635 17.28 17.6635 17.28Z" fill="white"/>
</svg>
