<svg width="40" height="40" viewBox="0 0 40 40" fill="none" xmlns="http://www.w3.org/2000/svg">
<path d="M0 16C0 7.16344 7.16344 0 16 0H24C32.8366 0 40 7.16344 40 16V24C40 32.8366 32.8366 40 24 40H16C7.16344 40 0 32.8366 0 24V16Z" fill="#FC5F0A"/>
<path fill-rule="evenodd" clip-rule="evenodd" d="M31.6413 21.0181C31.2916 17.6604 27.409 14.9116 22.9669 14.8726C18.5233 14.8385 15.2068 17.5314 15.5566 20.8887C15.9036 24.2494 19.7885 27.0011 24.2299 27.0371C28.6716 27.0717 31.991 24.3788 31.6413 21.0181ZM16.947 20.1798C16.6454 17.4711 19.527 15.2978 23.3884 15.3265C27.2472 15.3566 30.6211 17.5758 30.9227 20.2816C31.2261 22.9918 28.3452 25.1622 24.4842 25.1335C20.6254 25.1049 17.25 22.8871 16.947 20.1798Z" fill="white"/>
<path fill-rule="evenodd" clip-rule="evenodd" d="M16.8306 19.7161C14.2867 22.3329 14.2442 26.3565 16.7358 28.7066C19.2259 31.0519 23.3112 30.8366 25.8506 28.2201C28.3964 25.6043 28.4386 21.5807 25.9454 19.231C23.4553 16.8839 19.373 17.0992 16.8306 19.7161ZM24.9351 27.1033C22.7492 29.3567 19.236 29.5419 17.0941 27.5207C14.9488 25.501 14.985 22.0386 17.1732 19.7877C19.3614 17.5369 22.8749 17.3506 25.018 19.3718C27.1595 21.3926 27.1252 24.8535 24.9351 27.1033Z" fill="white"/>
<mask id="mask0_12032_46485" style="mask-type:luminance" maskUnits="userSpaceOnUse" x="8" y="9" width="22" height="18">
<path fill-rule="evenodd" clip-rule="evenodd" d="M8.33398 9.5H29.0679V26.4632H8.33398V9.5Z" fill="white"/>
</mask>
<g mask="url(#mask0_12032_46485)">
<path fill-rule="evenodd" clip-rule="evenodd" d="M12.8382 12.7352C8.11659 16.416 6.91481 21.7486 10.1514 24.6454C13.3906 27.5423 19.8436 26.9092 24.5641 23.2273C29.2861 19.5481 30.4879 14.2136 27.248 11.3171C24.0088 8.42022 17.5573 9.0545 12.8382 12.7352ZM17.0629 11.2911C21.6128 9.61321 26.1135 11.3114 27.1126 15.0865C28.1155 18.8606 25.2361 23.2833 20.6857 24.9616C16.1343 26.641 11.634 24.9414 10.6356 21.1673C9.6335 17.3936 12.5129 12.9724 17.0629 11.2911Z" fill="white"/>
</g>
</svg>
