<svg width="40" height="40" viewBox="0 0 40 40" fill="none" xmlns="http://www.w3.org/2000/svg">
<path d="M0 16C0 7.16344 7.16344 0 16 0H24C32.8366 0 40 7.16344 40 16V24C40 32.8366 32.8366 40 24 40H16C7.16344 40 0 32.8366 0 24V16Z" fill="#0068FF"/>
<path fill-rule="evenodd" clip-rule="evenodd" d="M11.4081 20.4118H10.3329V15.8335H11.4081V17.6543H12.6654V18.5649H11.4081V20.4118ZM7.92236 23.143H10.333V21.6342H7.92236V23.143ZM6.85547 24.0448H11.4079V20.7238H6.85547V24.0448ZM7.45399 18.452C7.30665 18.79 7.06385 19.1456 6.7602 19.4665C6.44801 19.8046 6.06663 20.0995 5.67649 20.3337L5 19.5445C5.48559 19.2671 5.94512 18.8855 6.29191 18.3999C6.63891 17.9231 6.85565 17.3681 6.85565 16.7437V16.0153H7.98292V16.7264C7.98292 17.342 8.20842 17.8624 8.54646 18.2872C8.8847 18.7296 9.34424 19.0589 9.79523 19.2758L9.18835 20.0995C8.35576 19.6485 7.80953 19.111 7.45399 18.452Z" fill="white"/>
<path fill-rule="evenodd" clip-rule="evenodd" d="M18.264 18.2266H16.7466V17.2727H18.264V15.8333H19.3391V20.4551H18.264V18.2266ZM17.8477 21.6699C17.6482 21.4963 17.3881 21.3923 17.0759 21.3923C16.4516 21.3923 16.0181 21.7912 16.0181 22.381C16.0181 22.9791 16.4516 23.378 17.0759 23.378C17.7001 23.378 18.1511 22.9791 18.1511 22.381C18.1511 22.0946 18.0296 21.8431 17.8477 21.6699ZM18.6109 23.7681C18.2293 24.0891 17.7004 24.2798 17.0762 24.2798C16.4518 24.2798 15.9314 24.0891 15.5586 23.7681C15.1772 23.4301 14.9604 22.9618 14.9604 22.381C14.9604 21.826 15.1772 21.3577 15.5586 21.0194C15.9314 20.6812 16.4518 20.4818 17.0762 20.4818C17.7004 20.4818 18.2293 20.6812 18.6109 21.0194C18.9837 21.3577 19.2092 21.826 19.2092 22.381C19.2092 22.9618 18.9837 23.4301 18.6109 23.7681ZM15.7145 19.4578C15.4111 19.1717 15.1771 18.8683 15.0383 18.5907C14.9082 18.9029 14.6742 19.2409 14.3705 19.5618C14.0585 19.8828 13.6855 20.2123 13.2693 20.4636L12.6016 19.6573C13.1305 19.3105 13.6075 18.9116 13.9283 18.4519C14.2492 18.0011 14.4487 17.4807 14.4487 16.8911V16.0154H15.5932V16.8738C15.5932 17.524 15.8014 18.0269 16.1395 18.4346C16.4604 18.8508 16.92 19.1629 17.3795 19.397L16.7726 20.2383C16.391 20.0301 16.0182 19.7613 15.7145 19.4578Z" fill="white"/>
<path fill-rule="evenodd" clip-rule="evenodd" d="M25.9717 18.504H25.3127V20.2123H24.2721V15.9199H25.3127V17.6022H25.9717V15.8333H27.0123V20.5418H25.9717V18.504ZM24.7836 21.4348C24.1246 21.4348 23.665 21.8079 23.665 22.3628C23.665 22.9262 24.1246 23.2905 24.7836 23.2905C25.4165 23.2905 25.8675 22.9262 25.8675 22.3628C25.8675 21.8079 25.4165 21.4348 24.7836 21.4348ZM26.336 23.7067C25.9544 24.0189 25.408 24.201 24.7838 24.201C24.1506 24.201 23.6044 24.0189 23.223 23.7067C22.8327 23.3859 22.5986 22.9176 22.5986 22.3629C22.5986 21.8337 22.8327 21.3742 23.223 21.0532C23.6044 20.7325 24.1506 20.5418 24.7838 20.5418C25.408 20.5418 25.9544 20.7325 26.336 21.0532C26.7174 21.3742 26.9516 21.8337 26.9516 22.3629C26.9516 22.9176 26.7174 23.3859 26.336 23.7067ZM22.746 19.6746C22.5032 19.4231 22.3037 19.1369 22.1737 18.8596C21.9223 19.4491 21.3847 20.0562 20.7603 20.4983L20.084 19.6919C20.5089 19.3712 20.8991 19.0069 21.1765 18.5561C21.4453 18.1139 21.6101 17.5935 21.6101 16.9691V16.1282H22.6853V16.9518C22.6853 18.1051 23.223 18.9375 24.1248 19.4925L23.5091 20.3076C23.2403 20.1429 22.9802 19.9262 22.746 19.6746Z" fill="white"/>
<path fill-rule="evenodd" clip-rule="evenodd" d="M31.7979 18.4173H33.3501V17.6889H31.7979V18.4173ZM32.9253 21.5477C32.7259 21.3741 32.4658 21.2701 32.1536 21.2701C31.5294 21.2701 31.0957 21.669 31.0957 22.2586C31.0957 22.8569 31.5294 23.2558 32.1536 23.2558C32.778 23.2558 33.2287 22.8569 33.2287 22.2586C33.2287 21.9725 33.1075 21.7209 32.9253 21.5477ZM33.6883 23.646C33.3067 23.9669 32.7777 24.1576 32.1533 24.1576C31.5292 24.1576 31.0088 23.9669 30.6359 23.646C30.2543 23.3079 30.0376 22.8397 30.0376 22.2586C30.0376 21.7038 30.2543 21.2356 30.6359 20.8973C31.0088 20.5591 31.5292 20.3596 32.1533 20.3596C32.7777 20.3596 33.3067 20.5591 33.6883 20.8973C34.0611 21.2356 34.2864 21.7038 34.2864 22.2586C34.2864 22.8397 34.0611 23.3079 33.6883 23.646ZM29.1445 18.981H30.7228V17.0472H29.1445V18.981ZM33.3502 19.3278H31.798V19.8916H28.0781V16.1454H31.798V16.7784H33.3502V15.8333H34.4168V20.403H33.3502V19.3278Z" fill="white"/>
</svg>
