<svg width="20" height="24" viewBox="0 0 20 24" fill="none" xmlns="http://www.w3.org/2000/svg">
<path fill-rule="evenodd" clip-rule="evenodd" d="M11.4608 2.59225C11.5449 2.21709 11.5915 1.87863 11.5915 1.64608C11.5915 0.736847 10.8791 0 10.0003 0C9.12152 0 8.40918 0.736847 8.40918 1.64608C8.40918 1.87863 8.45566 2.21709 8.5399 2.59225L8.68854 3.08977H11.3432L11.4608 2.59225Z" fill="#FF8C09"/>
<path fill-rule="evenodd" clip-rule="evenodd" d="M12.4762 19.751V21.4383C12.4762 22.8528 11.3675 23.9998 9.99981 23.9998C9.31587 23.9998 8.69687 23.7131 8.24882 23.2495C7.80062 22.7859 7.52344 22.1455 7.52344 21.4383V19.751H12.4762Z" fill="#FF8C09"/>
<path fill-rule="evenodd" clip-rule="evenodd" d="M20 19.1285C20 20.0954 19.2422 20.8793 18.3075 20.8793H1.69253C0.757776 20.8793 0 20.0954 0 19.1286C0 18.3827 0.457016 17.7185 1.13847 17.4744L1.31274 17.4119C1.99419 17.1678 2.45121 16.5037 2.45121 15.7577V10.1607C2.45121 5.84808 5.83099 2.35205 10.0001 2.35205C14.1692 2.35205 17.5489 5.848 17.5489 10.1604V15.7576C17.5489 16.5036 18.0059 17.1676 18.6873 17.4119L18.8615 17.4743C19.543 17.7184 20 18.3825 20 19.1285Z" fill="#FBC700"/>
</svg>
