<svg width="28" height="28" viewBox="0 0 28 28" fill="none" xmlns="http://www.w3.org/2000/svg">
<path d="M21.0442 8.29517V10.2042H23.9288V11.3411C23.9289 11.5052 23.8964 11.6677 23.8332 11.8193C23.7699 11.971 23.6772 12.1087 23.5603 12.2248C23.4434 12.3408 23.3047 12.4328 23.1519 12.4956C22.9992 12.5584 22.8355 12.5907 22.6702 12.5906H20.9933C20.9269 13.239 20.793 13.8787 20.5938 14.4997H22.5274C23.1014 14.4996 23.6657 14.3521 24.1652 14.0713C24.6647 13.7905 25.0825 13.3861 25.3779 12.8975C25.6878 12.3845 25.8516 11.7976 25.8519 11.1994V10.2952C25.8519 9.1906 24.9565 8.29517 23.8519 8.29517H21.0442Z" fill="#B39A7C"/>
<path d="M13.5 25C20.4036 25 26 22.8632 26 20.2273C26 17.5914 20.4036 15.4546 13.5 15.4546C6.59644 15.4546 1 17.5914 1 20.2273C1 22.8632 6.59644 25 13.5 25Z" fill="#B39A7C"/>
<path d="M23.1155 6.86328V11.636C23.1155 14.1676 22.1025 16.5955 20.2993 18.3856C18.496 20.1757 16.0503 21.1814 13.5001 21.1814C10.95 21.1814 8.50428 20.1757 6.70105 18.3856C4.89781 16.5955 3.88477 14.1676 3.88477 11.636V6.86328H23.1155Z" fill="#D9CCBC"/>
<path d="M13.5001 9.72724C18.8106 9.72724 23.1155 8.44516 23.1155 6.86362C23.1155 5.28209 18.8106 4 13.5001 4C8.18972 4 3.88477 5.28209 3.88477 6.86362C3.88477 8.44516 8.18972 9.72724 13.5001 9.72724Z" fill="#EBE5DD"/>
<path d="M13.5001 9.72724C18.8106 9.72724 23.1155 8.44516 23.1155 6.86362C23.1155 5.28209 18.8106 4 13.5001 4C8.18972 4 3.88477 5.28209 3.88477 6.86362C3.88477 8.44516 8.18972 9.72724 13.5001 9.72724Z" fill="#EBE5DD"/>
<path d="M13.5001 9.72724C18.8106 9.72724 23.1155 8.44516 23.1155 6.86362C23.1155 5.28209 18.8106 4 13.5001 4C8.18972 4 3.88477 5.28209 3.88477 6.86362C3.88477 8.44516 8.18972 9.72724 13.5001 9.72724Z" fill="#EBE5DD"/>
<path d="M13.5001 9.72724C18.8106 9.72724 23.1155 8.44516 23.1155 6.86362C23.1155 5.28209 18.8106 4 13.5001 4C8.18972 4 3.88477 5.28209 3.88477 6.86362C3.88477 8.44516 8.18972 9.72724 13.5001 9.72724Z" fill="#EFE6DA"/>
<path d="M13.4998 9.7269C17.1733 9.7269 20.3633 9.11313 21.982 8.21109C20.333 7.40785 17.1104 6.86328 13.4998 6.86328C9.88921 6.86328 6.66662 7.40785 5.01758 8.21109C6.63633 9.11313 9.82623 9.7269 13.4998 9.7269Z" fill="#6A563D"/>
</svg>
