<svg width="28" height="28" viewBox="0 0 28 28" fill="none" xmlns="http://www.w3.org/2000/svg">
<path d="M11.8472 15.2678C11.8472 17.9712 9.64286 20.1628 6.92362 20.1628C4.20438 20.1628 2 17.9712 2 15.2678C2 12.5644 4.20438 10.3728 6.92362 10.3728C9.64286 10.3728 11.8472 12.5644 11.8472 15.2678Z" fill="#5B74FF"/>
<path d="M25.9996 15.2678C25.9996 17.9712 23.7952 20.1628 21.076 20.1628C18.3567 20.1628 16.1523 17.9712 16.1523 15.2678C16.1523 12.5644 18.3567 10.3728 21.076 10.3728C23.7952 10.3728 25.9996 12.5644 25.9996 15.2678Z" fill="#FBC700"/>
<path d="M2 15.269H11.8472V22.9998H3.76632C2.79081 22.9998 2 22.2136 2 21.2437V15.269Z" fill="#5B74FF"/>
<path d="M16.1523 15.269H25.9996V21.2437C25.9996 22.2136 25.2088 22.9998 24.2333 22.9998H16.1523V15.269Z" fill="#FBC700"/>
<ellipse cx="6.92229" cy="7.25869" rx="2.2719" ry="2.25869" fill="#5B74FF"/>
<ellipse cx="21.0746" cy="7.25869" rx="2.2719" ry="2.25869" fill="#FBC700"/>
<ellipse cx="14.1196" cy="9.51724" rx="2.2719" ry="2.25869" fill="#FF9C20"/>
<path d="M19.0445 17.5256C19.0445 20.2291 16.8401 22.4206 14.1209 22.4206C11.4016 22.4206 9.19727 20.2291 9.19727 17.5256C9.19727 14.8222 11.4016 12.6306 14.1209 12.6306C16.8401 12.6306 19.0445 14.8222 19.0445 17.5256Z" fill="#FF9C20"/>
<path d="M9.19727 17.5276H19.0445V22.9998H9.19727V17.5276Z" fill="#FF9C20"/>
</svg>
