<svg width="48" height="40" viewBox="0 0 48 40" fill="none" xmlns="http://www.w3.org/2000/svg">
<circle cx="24" cy="20" r="20" fill="url(#paint0_radial_8991_19582)"/>
<g filter="url(#filter0_f_8991_19582)">
<path d="M43.265 21.4439C42.959 22.9973 42.4723 24.4839 41.825 25.8839C41.1517 26.0973 40.3717 26.1573 39.5657 26.0239C37.399 25.6639 35.8583 24.0239 36.1383 22.3706C36.4117 20.7173 38.391 19.6706 40.5657 20.0306C41.6923 20.2173 42.645 20.7506 43.265 21.4439Z" fill="#FF9A61" fill-opacity="0.5"/>
</g>
<g filter="url(#filter1_f_8991_19582)">
<path d="M11.8727 22.3706C12.1527 24.0239 10.6127 25.6639 8.44604 26.0239C7.69937 26.1506 6.97938 26.1039 6.33938 25.9306C5.66604 24.4839 5.16604 22.9439 4.85938 21.3306C5.47271 20.6906 6.38604 20.2106 7.44604 20.0306C9.61937 19.6706 11.5987 20.7173 11.8727 22.3706Z" fill="#FF9A61" fill-opacity="0.5"/>
</g>
<path d="M12.3422 18.6667C11.664 18.6667 11.1924 19.3444 11.3726 20.0276C12.5701 24.5731 17.7574 28.0001 23.9938 28.0001C30.2302 28.0001 35.4758 24.5345 36.6362 19.945C36.8004 19.2948 36.2918 18.6667 35.6506 18.6667H12.3422Z" fill="black"/>
<path d="M24.0021 20.6667C27.5299 20.6667 30.7665 19.9175 33.3327 18.6667H14.666C17.2322 19.9175 20.4688 20.6667 23.9966 20.6667H24.0021Z" fill="black"/>
<path d="M24.0497 25.3392C22.1907 25.3392 20.517 26.1214 19.334 27.3658C20.7405 27.7747 22.2507 27.9999 23.8316 27.9999C25.5435 27.9999 27.1681 27.7333 28.6673 27.2533C27.4897 26.0681 25.8542 25.3333 24.0497 25.3333V25.3392Z" fill="#FF7C5F"/>
<g filter="url(#filter2_f_8991_19582)">
<path d="M43.265 21.4439C42.959 22.9973 42.4723 24.4839 41.825 25.8839C41.1517 26.0973 40.3717 26.1573 39.5657 26.0239C37.399 25.6639 35.8583 24.0239 36.1383 22.3706C36.4117 20.7173 38.391 19.6706 40.5657 20.0306C41.6923 20.2173 42.645 20.7506 43.265 21.4439Z" fill="#FF9A61" fill-opacity="0.5"/>
</g>
<g filter="url(#filter3_f_8991_19582)">
<path d="M11.8727 22.3706C12.1527 24.0239 10.6127 25.6639 8.44604 26.0239C7.69937 26.1506 6.97938 26.1039 6.33938 25.9306C5.66604 24.4839 5.16604 22.9439 4.85938 21.3306C5.47271 20.6906 6.38604 20.2106 7.44604 20.0306C9.61937 19.6706 11.5987 20.7173 11.8727 22.3706Z" fill="#FF9A61" fill-opacity="0.5"/>
</g>
<path d="M4.84095 28.9313C4.28783 27.8007 4.90408 26.4463 6.11986 26.1205L8.2438 25.5513C9.31443 25.2644 10.4142 25.903 10.6958 26.975L12.9494 35.5549C13.229 36.6195 12.5958 37.71 11.5326 37.995L11.1272 38.1036C10.2033 38.3512 9.23345 37.9099 8.81311 37.0507L4.84095 28.9313Z" fill="url(#paint1_radial_8991_19582)"/>
<g filter="url(#filter4_i_8991_19582)">
<circle cx="10.9993" cy="35.6666" r="4.33333" fill="#F0BC05"/>
</g>
<path d="M43.1591 28.9313C43.7122 27.8007 43.0959 26.4463 41.8801 26.1205L39.7562 25.5513C38.6856 25.2644 37.5858 25.903 37.3042 26.975L35.0506 35.5549C34.771 36.6195 35.4042 37.71 36.4674 37.995L36.8728 38.1036C37.7967 38.3512 38.7666 37.9099 39.1869 37.0507L43.1591 28.9313Z" fill="url(#paint2_radial_8991_19582)"/>
<g filter="url(#filter5_i_8991_19582)">
<circle cx="4.33333" cy="4.33333" r="4.33333" transform="matrix(-1 0 0 1 41.334 31.3333)" fill="#F0BC05"/>
</g>
<path d="M11.4136 10.5064L11.4638 10.5169L17.1304 12.0351L17.2092 12.0637C17.3846 12.144 17.5009 12.3203 17.5009 12.5182C17.5009 12.7444 17.349 12.9426 17.1304 13.0012L11.4638 14.5195C11.197 14.5909 10.9226 14.4327 10.8511 14.166C10.7797 13.8993 10.938 13.6248 11.2047 13.5533L15.0679 12.5182L11.2047 11.483L11.1558 11.4674C10.919 11.3773 10.7842 11.1204 10.8511 10.8704C10.9182 10.6204 11.1635 10.4659 11.4136 10.5064Z" fill="black"/>
<path d="M17.3295 12.4695C17.313 12.3581 17.2409 12.2624 17.1387 12.2156H17.1381L17.0814 12.1947L11.4284 10.6798V10.6804L11.3835 10.6706C11.2384 10.6481 11.0964 10.7241 11.0333 10.8542L11.0111 10.9135C10.9668 11.0789 11.055 11.2488 11.2103 11.31L11.2527 11.3236L15.1101 12.3575C15.1828 12.3771 15.2331 12.443 15.2331 12.5183C15.2331 12.5936 15.1828 12.6595 15.1101 12.6791L11.2468 13.7143C11.0691 13.7619 10.9635 13.9452 11.0111 14.1231L11.0346 14.1863C11.1039 14.3248 11.2637 14.4004 11.4193 14.3588L17.086 12.8406L17.1387 12.8217C17.2556 12.7681 17.3327 12.6503 17.3327 12.5183L17.3295 12.4695ZM17.6569 12.629C17.6204 12.8465 17.478 13.0326 17.2774 13.1244L17.1726 13.1622L11.5059 14.6804C11.1726 14.7697 10.8297 14.5901 10.7097 14.2742L10.6889 14.2091C10.5937 13.8536 10.8046 13.488 11.1602 13.3926L14.4232 12.5183L11.1602 11.6439L11.1524 11.642L11.1036 11.6264L11.0951 11.6238V11.6231C10.7793 11.5029 10.5997 11.1607 10.6889 10.8275L10.7084 10.7663C10.8118 10.4889 11.0861 10.3155 11.3764 10.3347L11.4389 10.3419L11.446 10.3432L11.4961 10.3536L11.5059 10.3562L17.1726 11.8744L17.1862 11.8783L17.265 11.907L17.2774 11.9122C17.5112 12.0192 17.6661 12.2543 17.6661 12.5183L17.6569 12.629Z" fill="black"/>
<path d="M36.2543 10.5064L36.2042 10.5169L30.5375 12.0351L30.4588 12.0637C30.2834 12.144 30.1671 12.3203 30.1671 12.5182C30.1671 12.7444 30.319 12.9426 30.5375 13.0012L36.2042 14.5195C36.4709 14.5909 36.7454 14.4327 36.8168 14.166C36.8883 13.8993 36.73 13.6248 36.4633 13.5533L32.6 12.5182L36.4633 11.483L36.5121 11.4674C36.7489 11.3773 36.8838 11.1204 36.8168 10.8704C36.7498 10.6204 36.5045 10.4659 36.2543 10.5064Z" fill="black"/>
<path d="M30.3365 12.4695C30.353 12.3581 30.4251 12.2624 30.5273 12.2156H30.5279L30.5846 12.1947L36.2376 10.6798V10.6804L36.2825 10.6706C36.4276 10.6481 36.5696 10.7241 36.6328 10.8542L36.6549 10.9135C36.6992 11.0789 36.611 11.2488 36.4557 11.31L36.4134 11.3236L32.5559 12.3575C32.4832 12.3771 32.4329 12.443 32.4329 12.5183C32.4329 12.5936 32.4832 12.6595 32.5559 12.6791L36.4192 13.7143C36.5969 13.7619 36.7025 13.9452 36.6549 14.1231L36.6315 14.1863C36.5621 14.3248 36.4023 14.4004 36.2467 14.3588L30.58 12.8406L30.5273 12.8217C30.4105 12.7681 30.3333 12.6503 30.3333 12.5183L30.3365 12.4695ZM30.0091 12.629C30.0456 12.8465 30.188 13.0326 30.3886 13.1244L30.4934 13.1622L36.1601 14.6804C36.4934 14.7697 36.8363 14.5901 36.9563 14.2742L36.9772 14.2091C37.0723 13.8536 36.8614 13.488 36.5058 13.3926L33.2428 12.5183L36.5058 11.6439L36.5136 11.642L36.5625 11.6264L36.5709 11.6238V11.6231C36.8867 11.5029 37.0663 11.1607 36.9772 10.8275L36.9576 10.7663C36.8542 10.4889 36.58 10.3155 36.2897 10.3347L36.2272 10.3419L36.22 10.3432L36.1699 10.3536L36.1601 10.3562L30.4934 11.8744L30.4798 11.8783L30.401 11.907L30.3886 11.9122C30.1548 12.0192 30 12.2543 30 12.5183L30.0091 12.629Z" fill="black"/>
<defs>
<filter id="filter0_f_8991_19582" x="32.1055" y="15.9597" width="15.1602" height="14.135" filterUnits="userSpaceOnUse" color-interpolation-filters="sRGB">
<feFlood flood-opacity="0" result="BackgroundImageFix"/>
<feBlend mode="normal" in="SourceGraphic" in2="BackgroundImageFix" result="shape"/>
<feGaussianBlur stdDeviation="2" result="effect1_foregroundBlur_8991_19582"/>
</filter>
<filter id="filter1_f_8991_19582" x="0.859375" y="15.9597" width="15.0469" height="14.136" filterUnits="userSpaceOnUse" color-interpolation-filters="sRGB">
<feFlood flood-opacity="0" result="BackgroundImageFix"/>
<feBlend mode="normal" in="SourceGraphic" in2="BackgroundImageFix" result="shape"/>
<feGaussianBlur stdDeviation="2" result="effect1_foregroundBlur_8991_19582"/>
</filter>
<filter id="filter2_f_8991_19582" x="32.1055" y="15.9597" width="15.1602" height="14.135" filterUnits="userSpaceOnUse" color-interpolation-filters="sRGB">
<feFlood flood-opacity="0" result="BackgroundImageFix"/>
<feBlend mode="normal" in="SourceGraphic" in2="BackgroundImageFix" result="shape"/>
<feGaussianBlur stdDeviation="2" result="effect1_foregroundBlur_8991_19582"/>
</filter>
<filter id="filter3_f_8991_19582" x="0.859375" y="15.9597" width="15.0469" height="14.136" filterUnits="userSpaceOnUse" color-interpolation-filters="sRGB">
<feFlood flood-opacity="0" result="BackgroundImageFix"/>
<feBlend mode="normal" in="SourceGraphic" in2="BackgroundImageFix" result="shape"/>
<feGaussianBlur stdDeviation="2" result="effect1_foregroundBlur_8991_19582"/>
</filter>
<filter id="filter4_i_8991_19582" x="6.46602" y="31.3333" width="8.86602" height="8.66675" filterUnits="userSpaceOnUse" color-interpolation-filters="sRGB">
<feFlood flood-opacity="0" result="BackgroundImageFix"/>
<feBlend mode="normal" in="SourceGraphic" in2="BackgroundImageFix" result="shape"/>
<feColorMatrix in="SourceAlpha" type="matrix" values="0 0 0 0 0 0 0 0 0 0 0 0 0 0 0 0 0 0 127 0" result="hardAlpha"/>
<feOffset dx="-0.2"/>
<feGaussianBlur stdDeviation="2.5"/>
<feComposite in2="hardAlpha" operator="arithmetic" k2="-1" k3="1"/>
<feColorMatrix type="matrix" values="0 0 0 0 0.917647 0 0 0 0 0.705882 0 0 0 0 0.352941 0 0 0 1 0"/>
<feBlend mode="normal" in2="shape" result="effect1_innerShadow_8991_19582"/>
</filter>
<filter id="filter5_i_8991_19582" x="32.468" y="31.3333" width="8.86602" height="8.66675" filterUnits="userSpaceOnUse" color-interpolation-filters="sRGB">
<feFlood flood-opacity="0" result="BackgroundImageFix"/>
<feBlend mode="normal" in="SourceGraphic" in2="BackgroundImageFix" result="shape"/>
<feColorMatrix in="SourceAlpha" type="matrix" values="0 0 0 0 0 0 0 0 0 0 0 0 0 0 0 0 0 0 127 0" result="hardAlpha"/>
<feOffset dx="-0.2"/>
<feGaussianBlur stdDeviation="2.5"/>
<feComposite in2="hardAlpha" operator="arithmetic" k2="-1" k3="1"/>
<feColorMatrix type="matrix" values="0 0 0 0 0.917647 0 0 0 0 0.705882 0 0 0 0 0.352941 0 0 0 1 0"/>
<feBlend mode="normal" in2="shape" result="effect1_innerShadow_8991_19582"/>
</filter>
<radialGradient id="paint0_radial_8991_19582" cx="0" cy="0" r="1" gradientUnits="userSpaceOnUse" gradientTransform="translate(15.3333 4) rotate(60.9454) scale(41.1825)">
<stop stop-color="#FFDE65"/>
<stop offset="1" stop-color="#FFCE1B"/>
</radialGradient>
<radialGradient id="paint1_radial_8991_19582" cx="0" cy="0" r="1" gradientUnits="userSpaceOnUse" gradientTransform="translate(9.88607 32.709) rotate(75.0013) scale(5.53204 3.31897)">
<stop stop-color="#2D93FF"/>
<stop offset="1" stop-color="#4CA2F7"/>
</radialGradient>
<radialGradient id="paint2_radial_8991_19582" cx="0" cy="0" r="1" gradientUnits="userSpaceOnUse" gradientTransform="translate(38.1139 32.709) rotate(104.999) scale(5.53204 3.31897)">
<stop stop-color="#2D93FF"/>
<stop offset="1" stop-color="#4CA2F7"/>
</radialGradient>
</defs>
</svg>
