<svg width="19" height="18" viewBox="0 0 19 18" fill="none" xmlns="http://www.w3.org/2000/svg">
<path d="M5.8998 4.59018V5.34018C6.16655 5.34018 6.41323 5.19849 6.54764 4.96808L5.8998 4.59018ZM7.1598 2.43018V1.68018C6.89305 1.68018 6.64638 1.82186 6.51197 2.05227L7.1598 2.43018ZM11.8398 2.43018L12.4876 2.05227C12.3532 1.82186 12.1066 1.68018 11.8398 1.68018V2.43018ZM13.0998 4.59018L12.452 4.96808C12.5864 5.19849 12.8331 5.34018 13.0998 5.34018V4.59018ZM2.2998 13.7702H3.0498V6.39017H2.2998H1.5498V13.7702H2.2998ZM4.0998 4.59018V5.34018H5.8998V4.59018V3.84018H4.0998V4.59018ZM5.8998 4.59018L6.54764 4.96808L7.80764 2.80808L7.1598 2.43018L6.51197 2.05227L5.25197 4.21227L5.8998 4.59018ZM7.1598 2.43018V3.18018H11.8398V2.43018V1.68018H7.1598V2.43018ZM11.8398 2.43018L11.192 2.80808L12.452 4.96808L13.0998 4.59018L13.7476 4.21227L12.4876 2.05227L11.8398 2.43018ZM13.0998 4.59018V5.34018H14.8998V4.59018V3.84018H13.0998V4.59018ZM16.6998 6.39018H15.9498V13.7702H16.6998H17.4498V6.39018H16.6998ZM16.6998 13.7702H15.9498C15.9498 14.3501 15.4797 14.8202 14.8998 14.8202V15.5702V16.3202C16.3081 16.3202 17.4498 15.1785 17.4498 13.7702H16.6998ZM14.8998 4.59018V5.34018C15.4797 5.34018 15.9498 5.81028 15.9498 6.39018H16.6998H17.4498C17.4498 4.98185 16.3081 3.84018 14.8998 3.84018V4.59018ZM2.2998 6.39017H3.0498C3.0498 5.81028 3.5199 5.34018 4.0998 5.34018V4.59018V3.84018C2.69148 3.84018 1.5498 4.98185 1.5498 6.39017H2.2998ZM4.0998 15.5702V14.8202C3.51991 14.8202 3.0498 14.3501 3.0498 13.7702H2.2998H1.5498C1.5498 15.1785 2.69148 16.3202 4.0998 16.3202V15.5702ZM12.1998 9.63018H11.4498C11.4498 10.7071 10.5768 11.5802 9.4998 11.5802V12.3302V13.0802C11.4052 13.0802 12.9498 11.5356 12.9498 9.63018H12.1998ZM9.4998 12.3302V11.5802C8.42285 11.5802 7.5498 10.7071 7.5498 9.63018H6.7998H6.0498C6.0498 11.5356 7.59442 13.0802 9.4998 13.0802V12.3302ZM6.7998 9.63018H7.5498C7.5498 8.55322 8.42285 7.68018 9.4998 7.68018V6.93018V6.18018C7.59442 6.18018 6.0498 7.72479 6.0498 9.63018H6.7998ZM9.4998 6.93018V7.68018C10.5768 7.68018 11.4498 8.55322 11.4498 9.63018H12.1998H12.9498C12.9498 7.72479 11.4052 6.18018 9.4998 6.18018V6.93018ZM14.8998 15.5702V14.8202H4.0998V15.5702V16.3202H14.8998V15.5702Z" fill="#555555"/>
</svg>
