<svg width="41" height="40" viewBox="0 0 41 40" fill="none" xmlns="http://www.w3.org/2000/svg">
<g clip-path="url(#clip0_8991_19651)">
<circle cx="20.75" cy="20" r="20" fill="url(#paint0_radial_8991_19651)"/>
<g filter="url(#filter0_f_8991_19651)">
<path d="M40.017 21.4439C39.711 22.9973 39.2243 24.4839 38.577 25.8839C37.9036 26.0973 37.1236 26.1573 36.3176 26.0239C34.151 25.6639 32.6103 24.0239 32.8903 22.3706C33.1636 20.7173 35.143 19.6706 37.3176 20.0306C38.4443 20.2173 39.397 20.7506 40.017 21.4439Z" fill="#FF9A61" fill-opacity="0.5"/>
</g>
<g filter="url(#filter1_f_8991_19651)">
<path d="M8.62271 22.3706C8.90271 24.0239 7.36271 25.6639 5.19604 26.0239C4.44937 26.1506 3.72938 26.1039 3.08938 25.9306C2.41604 24.4839 1.91604 22.9439 1.60938 21.3306C2.22271 20.6906 3.13604 20.2106 4.19604 20.0306C6.36937 19.6706 8.34871 20.7173 8.62271 22.3706Z" fill="#FF9A61" fill-opacity="0.5"/>
</g>
<path d="M20.7622 22.3386C24.2509 22.3386 26.0815 25.636 24.4335 26.8933C22.9988 27.988 22.4382 26.3773 20.7735 26.3773C19.1095 26.3773 18.3468 27.8686 17.0908 26.8933C15.4528 25.622 17.5115 22.3386 20.7622 22.3386Z" fill="black"/>
<path d="M33.472 27.7649C33.472 26.1609 32.868 25.2569 32.468 24.6596C32.1953 24.2516 32.1387 24.1669 32.1387 23.7769C32.1387 23.3856 32.1953 23.3009 32.468 22.8929C32.86 22.3069 33.444 21.4229 33.4673 19.8789C33.0513 20.6742 32.2567 21.2216 31.336 21.2216C30.5507 21.2216 29.8593 20.8222 29.4113 20.2136C29.364 20.3376 29.282 20.4616 29.1427 20.6702C28.7427 21.2682 28.1387 22.1722 28.1387 23.7769C28.1387 25.3809 28.7427 26.2849 29.1427 26.8822C29.4153 27.2902 29.472 27.3749 29.472 27.7649C29.472 28.1562 29.4153 28.2409 29.1427 28.6489C28.7427 29.2469 28.1387 30.1516 28.1387 31.7562C28.1387 33.3609 28.742 34.2662 29.142 34.8642C29.4153 35.2729 29.472 35.3582 29.472 35.7502C29.472 36.1422 29.4153 36.2276 29.142 36.6363C28.7633 37.2036 28.2073 38.0542 28.15 39.5082C30.0893 38.7176 31.874 37.6262 33.4467 36.2902C33.462 36.1196 33.472 35.9409 33.472 35.7509C33.472 34.1462 32.8687 33.2416 32.4687 32.6436C32.1953 32.2349 32.1387 32.1496 32.1387 31.7569C32.1387 31.3656 32.1953 31.2802 32.4687 30.8716C32.868 30.2736 33.472 29.3696 33.472 27.7649Z" fill="#38B6FF"/>
<path d="M7.96875 27.7649C7.96875 26.1609 8.57274 25.2569 8.97274 24.6596C9.2454 24.2516 9.30208 24.1669 9.30208 23.7769C9.30208 23.3856 9.2454 23.3009 8.97274 22.8929C8.58074 22.3069 7.99674 21.4229 7.97341 19.8789C8.38941 20.6742 9.1834 21.2216 10.1047 21.2216C10.8901 21.2216 11.5814 20.8222 12.0294 20.2136C12.0767 20.3376 12.1587 20.4616 12.2981 20.6702C12.6981 21.2682 13.3021 22.1722 13.3021 23.7769C13.3021 25.3809 12.6981 26.2849 12.2981 26.8822C12.0254 27.2902 11.9687 27.3749 11.9687 27.7649C11.9687 28.1562 12.0254 28.2409 12.2981 28.6489C12.6981 29.2469 13.3021 30.1516 13.3021 31.7562C13.3021 33.3609 12.6987 34.2662 12.2987 34.8642C12.0254 35.2729 11.9687 35.3582 11.9687 35.7502C11.9687 36.1422 12.0254 36.2276 12.2987 36.6363C12.6774 37.2036 13.2334 38.0542 13.2908 39.5082C11.3514 38.7176 9.56675 37.6262 7.99408 36.2902C7.97875 36.1196 7.96875 35.9409 7.96875 35.7509C7.96875 34.1462 8.57207 33.2416 8.97207 32.6436C9.2454 32.2349 9.30208 32.1496 9.30208 31.7569C9.30208 31.3656 9.2454 31.2802 8.97207 30.8716C8.57273 30.2736 7.96875 29.3696 7.96875 27.7649Z" fill="#38B6FF"/>
<path d="M10.1003 21.2218C8.75293 21.2218 7.65625 20.0658 7.65625 18.6438C7.65625 18.3678 7.88025 18.1438 8.15625 18.1438C8.43225 18.1438 8.65625 18.3678 8.65625 18.6438C8.65625 19.5145 9.30426 20.2218 10.1003 20.2218C10.8963 20.2218 11.5443 19.5145 11.5443 18.6438C11.5443 18.3678 11.7683 18.1438 12.0443 18.1438C12.3203 18.1438 12.5443 18.3678 12.5443 18.6438C12.5443 20.0658 11.4483 21.2218 10.1003 21.2218Z" fill="black"/>
<path d="M8.49023 18.644C8.49023 18.46 8.34085 18.3106 8.1569 18.3106C7.97295 18.3106 7.82357 18.46 7.82357 18.644C7.82357 19.9824 8.85386 21.0554 10.1009 21.0554C11.3486 21.0554 12.3783 19.9824 12.3783 18.644C12.3783 18.46 12.2289 18.3106 12.0449 18.3106C11.861 18.3106 11.7116 18.46 11.7116 18.644C11.7116 19.5925 11.0025 20.3888 10.1009 20.3888C9.1993 20.3888 8.49023 19.5925 8.49023 18.644ZM12.7116 18.644C12.7116 20.1495 11.5492 21.3888 10.1009 21.3888C8.65329 21.3888 7.49023 20.1496 7.49023 18.644C7.49023 18.2759 7.78885 17.9773 8.1569 17.9773C8.52495 17.9773 8.82357 18.2759 8.82357 18.644C8.82357 19.4368 9.41052 20.0554 10.1009 20.0554C10.7913 20.0554 11.3783 19.4368 11.3783 18.644C11.3783 18.2759 11.6769 17.9773 12.0449 17.9773C12.413 17.9773 12.7116 18.2759 12.7116 18.644Z" fill="black"/>
<path d="M31.3346 21.2218C29.9866 21.2218 28.8906 20.0658 28.8906 18.6438C28.8906 18.3678 29.1146 18.1438 29.3906 18.1438C29.6666 18.1438 29.8906 18.3678 29.8906 18.6438C29.8906 19.5145 30.5386 20.2218 31.3346 20.2218C32.1306 20.2218 32.7786 19.5145 32.7786 18.6438C32.7786 18.3678 33.0026 18.1438 33.2786 18.1438C33.5546 18.1438 33.7786 18.3678 33.7786 18.6438C33.7786 20.0658 32.6819 21.2218 31.3346 21.2218Z" fill="black"/>
<path d="M29.7246 18.644C29.7246 18.46 29.5752 18.3106 29.3913 18.3106C29.2073 18.3106 29.0579 18.46 29.0579 18.644C29.0579 19.9824 30.0876 21.0554 31.3353 21.0554C32.5823 21.0554 33.6126 19.9824 33.6126 18.644C33.6126 18.46 33.4632 18.3107 33.2793 18.3106C33.0953 18.3106 32.946 18.46 32.946 18.644C32.946 19.5925 32.2369 20.3887 31.3353 20.3888C30.4337 20.3888 29.7246 19.5925 29.7246 18.644ZM33.946 18.644C33.946 20.1495 32.7829 21.3887 31.3353 21.3888C29.887 21.3888 28.7246 20.1495 28.7246 18.644C28.7246 18.2759 29.0232 17.9773 29.3913 17.9773C29.7593 17.9773 30.0579 18.2759 30.0579 18.644C30.0579 19.4368 30.6449 20.0554 31.3353 20.0554C32.0257 20.0554 32.6126 19.4367 32.6126 18.644C32.6126 18.2759 32.9112 17.9773 33.2793 17.9773C33.6473 17.9773 33.946 18.2759 33.946 18.644Z" fill="black"/>
</g>
<defs>
<filter id="filter0_f_8991_19651" x="28.8574" y="15.9597" width="15.1602" height="14.135" filterUnits="userSpaceOnUse" color-interpolation-filters="sRGB">
<feFlood flood-opacity="0" result="BackgroundImageFix"/>
<feBlend mode="normal" in="SourceGraphic" in2="BackgroundImageFix" result="shape"/>
<feGaussianBlur stdDeviation="2" result="effect1_foregroundBlur_8991_19651"/>
</filter>
<filter id="filter1_f_8991_19651" x="-2.39062" y="15.9597" width="15.0469" height="14.136" filterUnits="userSpaceOnUse" color-interpolation-filters="sRGB">
<feFlood flood-opacity="0" result="BackgroundImageFix"/>
<feBlend mode="normal" in="SourceGraphic" in2="BackgroundImageFix" result="shape"/>
<feGaussianBlur stdDeviation="2" result="effect1_foregroundBlur_8991_19651"/>
</filter>
<radialGradient id="paint0_radial_8991_19651" cx="0" cy="0" r="1" gradientUnits="userSpaceOnUse" gradientTransform="translate(12.0833 4) rotate(60.9454) scale(41.1825)">
<stop stop-color="#FFDE65"/>
<stop offset="1" stop-color="#FFCE1B"/>
</radialGradient>
<clipPath id="clip0_8991_19651">
<rect x="0.75" width="40" height="40" rx="20" fill="white"/>
</clipPath>
</defs>
</svg>
