<svg width="32" height="32" viewBox="0 0 32 32" fill="none" xmlns="http://www.w3.org/2000/svg">
<path d="M24.2078 7H7.79224C6.25013 7 5 8.21102 5 9.70488V20.9486C5 22.4425 6.25013 23.6535 7.79224 23.6535H11.8477L14.8089 26.522C15.4667 27.1593 16.5332 27.1593 17.1911 26.522L20.1523 23.6535H24.2078C25.7499 23.6535 27 22.4425 27 20.9486V9.70488C27 8.21102 25.7499 7 24.2078 7Z" fill="#9EAAC2"/>
<path d="M16.0022 19.2884C15.4994 19.2884 15.0917 18.8672 15.0917 18.3477V17.9487C15.0917 17.0202 15.6576 16.1897 16.4999 15.882C17.1334 15.6506 17.5417 15.0032 17.4926 14.3079C17.4389 13.5464 16.8422 12.9346 16.1047 12.8847C15.3245 12.8314 14.6295 13.4135 14.5221 14.2088C14.5125 14.2799 14.5076 14.3528 14.5076 14.4254C14.5076 14.9449 14.1 15.3661 13.5972 15.3661C13.0944 15.3661 12.6868 14.9449 12.6868 14.4254C12.6868 14.2661 12.6975 14.1058 12.7187 13.9489C12.9573 12.1826 14.4968 10.8903 16.2236 11.0074C17.863 11.1183 19.1893 12.4784 19.3087 14.1711C19.4172 15.7096 18.5118 17.1425 17.1069 17.6558C16.9907 17.6982 16.9126 17.8159 16.9126 17.9487V18.3478C16.9126 18.8672 16.505 19.2884 16.0022 19.2884Z" fill="#F9F7F8"/>
<path d="M16.0011 21.7749C15.5433 21.7749 15.1722 21.4053 15.1722 20.9494V20.9426C15.1722 20.4868 15.5433 20.1172 16.0011 20.1172C16.4588 20.1172 16.8299 20.4868 16.8299 20.9426V20.9494C16.8299 21.4053 16.4589 21.7749 16.0011 21.7749Z" fill="#F9F7F8"/>
</svg>
