<svg width="48" height="48" viewBox="0 0 48 48" fill="none" xmlns="http://www.w3.org/2000/svg">
<rect width="48" height="48" rx="24" fill="#F4F4F4"/>
<path d="M16.6153 12H26.0293L34 19.5254V33.5308C34 34.1857 33.7245 34.8137 33.234 35.2768C32.7436 35.7399 32.0784 36 31.3847 36H16.6153C15.9216 36 15.2564 35.7399 14.766 35.2768C14.2755 34.8137 14 34.1857 14 33.5308V14.4692C14 13.8143 14.2755 13.1863 14.766 12.7232C15.2564 12.2601 15.9216 12 16.6153 12Z" fill="#FBC700"/>
<path d="M26.1281 18.4008L26.0275 12L33.9939 19.5251H27.2391C26.6325 19.5251 26.1379 19.0247 26.1281 18.4008Z" fill="#FA9F19"/>
</svg>
