<svg width="32" height="32" viewBox="0 0 32 32" fill="none" xmlns="http://www.w3.org/2000/svg">
<path d="M4.00031 16.7304C4.00031 19.6476 5.14017 22.4494 7.15308 24.5406L4.27636 26.7393C3.74325 27.1467 4.03322 28 4.70452 28H15.2925L15.9028 27.5471L15.8558 5.8485L15.2925 5.46094C9.05161 5.46103 4.00031 10.5013 4.00031 16.7304Z" fill="#DFE6EE"/>
<path d="M15.2556 5.44922C15.2555 5.44922 15.2555 5.44922 15.2554 5.44922V27.9883H15.2849C15.2933 27.9883 15.3017 27.9881 15.3101 27.9878C21.5043 27.9584 26.5478 22.9487 26.5478 16.7187C26.5478 10.4904 21.4973 5.44922 15.2556 5.44922Z" fill="#DFE6EE"/>
<path d="M23.0511 6.32715L22.3467 6.6609L18.8064 10.1936C18.7083 10.2915 18.6412 10.4166 18.614 10.5525L18.1163 13.037C18.0676 13.2799 18.1493 13.5084 18.3035 13.6659L19.007 13.5729L24.6522 7.93904L23.0511 6.32715Z" fill="#FFDD46"/>
<path d="M10.3504 12.4805C9.96152 12.4805 9.64624 12.7951 9.64624 13.1833C9.64624 13.5714 9.96152 13.8861 10.3504 13.8861H15.2556L15.8659 13.5757V12.7792L15.2556 12.4805H10.3504Z" fill="#92A1C6"/>
<path d="M16.6858 13.1833C16.6858 12.7951 16.3706 12.4805 15.9816 12.4805H15.2555V13.8861H15.9816C16.3706 13.8861 16.6858 13.5714 16.6858 13.1833Z" fill="#92A1C6"/>
<path d="M10.3504 15.291C9.96152 15.291 9.64624 15.6057 9.64624 15.9938C9.64624 16.3819 9.96152 16.6966 10.3504 16.6966H15.2556L15.8659 16.4272V15.5839L15.2556 15.2911H10.3504V15.291Z" fill="#92A1C6"/>
<path d="M10.3504 18.1025C9.96152 18.1025 9.64624 18.4172 9.64624 18.8053C9.64624 19.1935 9.96152 19.5081 10.3504 19.5081H15.2556L15.8659 19.1568V18.413L15.2556 18.1026H10.3504V18.1025Z" fill="#92A1C6"/>
<path d="M21.6203 18.1025H15.2555V19.5081H21.6203C22.0092 19.5081 22.3245 19.1935 22.3245 18.8053C22.3245 18.4172 22.0092 18.1025 21.6203 18.1025Z" fill="#92A1C6"/>
<path d="M9.64624 21.6169C9.64624 22.005 9.96152 22.3197 10.3504 22.3197H15.2556L15.8659 21.9624V21.1952L15.2556 20.9141H10.3504C9.96152 20.9141 9.64624 21.2287 9.64624 21.6169Z" fill="#92A1C6"/>
<path d="M25.8021 4.20556C25.5269 3.93148 25.0809 3.93148 24.8063 4.20556L23.3425 5.66689L23.0511 6.32689L24.6522 7.93878L26.7686 5.83681L26.7923 5.19387L25.8021 4.20556Z" fill="#FF5959"/>
<path d="M27.794 6.19399L26.7923 5.19434L24.3484 7.63334L25.6456 8.93932L26.3302 8.64902L27.794 7.1877C28.0686 6.91315 28.0686 6.46854 27.794 6.19399Z" fill="#FF3757"/>
<path d="M18.3035 13.6656C18.4615 13.8269 18.6959 13.9135 18.945 13.8637L21.4345 13.367C21.5707 13.3398 21.696 13.2729 21.7942 13.1749L25.3344 9.64225L25.6456 8.9388L24.3484 7.63281L18.3035 13.6656Z" fill="#FFB54C"/>
<path d="M23.3425 5.66699L22.3468 6.66074L23.8347 8.1457L24.4001 8.19055L24.9179 7.67371L24.8305 7.15195L23.3425 5.66699Z" fill="#004381"/>
<path d="M23.8346 8.14609L25.3344 9.64281L26.3301 8.64911L24.8304 7.15234L24.4205 7.56137L24.3868 7.59503L23.8346 8.14609Z" fill="#001C61"/>
<path d="M15.9816 22.3187C16.3706 22.3187 16.6858 22.004 16.6858 21.6159C16.6858 21.2278 16.3706 20.9131 15.9816 20.9131H15.2555V22.3187H15.9816Z" fill="#92A1C6"/>
<path d="M22.3245 15.9938C22.3245 15.6057 22.0092 15.291 21.6203 15.291H15.2555V15.3496V16.6146V16.6966H21.6203C22.0092 16.6966 22.3245 16.3819 22.3245 15.9938Z" fill="#92A1C6"/>
</svg>
