<svg width="36" height="36" viewBox="0 0 36 36" fill="none" xmlns="http://www.w3.org/2000/svg">
<path d="M29.9391 7.71387C31.1561 7.71387 32.1426 8.69875 32.1426 9.91367L32.1426 31.2283C32.1426 32.4432 31.1561 33.4281 29.9391 33.4281L13.7407 33.4281C12.5237 33.4281 11.5372 32.4432 11.5372 31.2283L11.5372 9.91367C11.5372 8.69875 12.5238 7.71387 13.7407 7.71387L29.9391 7.71387Z" fill="#E6E6E6"/>
<path d="M25.5967 28.1631C25.5966 29.574 24.453 30.7188 23.042 30.7188H11.5371V28.3174H20.6201C22.0311 28.3174 23.1747 27.1736 23.1748 25.7627V7.74414H25.5967V28.1631Z" fill="#CCCCCC"/>
<path d="M26.9916 11.7412L27.1059 11.7472C27.6685 11.8044 28.107 12.2791 28.107 12.8559C28.107 13.4327 27.6685 13.9074 27.1059 13.9646L26.9916 13.9706L16.6888 13.9706C16.0725 13.9706 15.5723 13.4713 15.5723 12.8559C15.5723 12.2406 16.0725 11.7412 16.6888 11.7412L26.9916 11.7412Z" fill="#6C7B9C"/>
<path d="M25.601 11.8135V13.8967L15.6465 13.8967L15.6465 11.8135L25.601 11.8135Z" fill="#515F7C"/>
<path d="M20.9743 2.57129C22.1912 2.57129 23.1777 3.55618 23.1777 4.7711L23.1777 26.0858C23.1777 27.3007 22.1912 28.2856 20.9743 28.2856L4.77583 28.2856C3.55891 28.2856 2.5724 27.3007 2.5724 26.0858L2.5724 4.7711C2.5724 3.55618 3.55891 2.57129 4.77583 2.57129L20.9743 2.57129Z" fill="#E6E6E6"/>
<path d="M18.0268 6.60059L18.1411 6.60659C18.7037 6.66379 19.1421 7.13851 19.1421 7.7153C19.1421 8.29208 18.7037 8.7668 18.1411 8.824L18.0268 8.83001L7.72397 8.83001C7.10761 8.83001 6.60742 8.33065 6.60742 7.7153C6.60742 7.09995 7.10761 6.60059 7.72397 6.60059L18.0268 6.60059Z" fill="#6C7B9C"/>
<path d="M12.8748 12.8516L12.9891 12.8576C13.552 12.9145 13.9913 13.3893 13.9913 13.9663C13.9913 14.5433 13.552 15.0181 12.9891 15.075L12.8748 15.081L7.72397 15.081C7.10761 15.081 6.60742 14.5816 6.60742 13.9663C6.60742 13.3509 7.10761 12.8516 7.72397 12.8516L12.8748 12.8516Z" fill="#6C7B9C"/>
</svg>
