<svg width="20" height="20" viewBox="0 0 20 20" fill="none" xmlns="http://www.w3.org/2000/svg">
<path fill-rule="evenodd" clip-rule="evenodd" d="M1 10C1 5.02944 5.02944 1 10 1C14.9706 1 19 5.02944 19 10C19 14.9706 14.9706 19 10 19C5.02944 19 1 14.9706 1 10ZM6.96691 6.96691C7.28643 6.64739 7.80448 6.64739 8.124 6.96691L10 8.84292L11.876 6.96691C12.1955 6.64739 12.7136 6.64739 13.0331 6.96691C13.3526 7.28643 13.3526 7.80448 13.0331 8.124L11.1571 10L13.0331 11.876C13.3526 12.1955 13.3526 12.7136 13.0331 13.0331C12.7136 13.3526 12.1955 13.3526 11.876 13.0331L10 11.1571L8.124 13.0331C7.80448 13.3526 7.28643 13.3526 6.96691 13.0331C6.64739 12.7136 6.64739 12.1955 6.96691 11.876L8.84292 10L6.96691 8.124C6.64739 7.80448 6.64739 7.28643 6.96691 6.96691Z" fill="#555555"/>
</svg>
