<svg width="48" height="48" viewBox="0 0 48 48" fill="none" xmlns="http://www.w3.org/2000/svg">
<rect width="48" height="48" rx="24" fill="#F4F4F4"/>
<path d="M23.9999 11.4287C18.9586 11.4287 14.8571 15.3615 14.8571 20.1957C14.8571 27.3125 23.1874 36.0131 23.542 36.3798C23.6601 36.502 23.8258 36.5714 23.9993 36.5716C24.1727 36.5716 24.3389 36.5024 24.457 36.3806C24.8116 36.0152 33.1428 27.346 33.1428 20.1957C33.1428 15.3615 29.0412 11.4287 23.9999 11.4287ZM23.9999 15.1801C26.8687 15.1801 29.2026 17.4181 29.2026 20.1688C29.2026 22.9196 26.8687 25.1575 23.9999 25.1575C21.1312 25.1575 18.7973 22.9196 18.7973 20.1688C18.7973 17.418 21.1312 15.1801 23.9999 15.1801Z" fill="#00B160"/>
<path d="M26.0427 18.878C26.4674 18.878 26.8116 19.2222 26.8116 19.6468V20.239C26.8116 20.6636 26.4674 21.0079 26.0427 21.0079H25.0983V21.8752C25.0983 22.2998 24.754 22.644 24.3294 22.644H23.6599C23.2353 22.644 22.891 22.2998 22.891 21.8752V21.0079H21.9566C21.532 21.0079 21.1877 20.6636 21.1877 20.239V19.6468C21.1877 19.2222 21.532 18.878 21.9566 18.878H22.891V18.0204C22.891 17.5957 23.2353 17.2515 23.6599 17.2515H24.3294C24.754 17.2515 25.0983 17.5957 25.0983 18.0204V18.878H26.0427Z" fill="#00B160"/>
</svg>
