<svg width="32" height="32" viewBox="0 0 32 32" fill="none" xmlns="http://www.w3.org/2000/svg">
<path d="M21.6692 4C18.1817 4 15.3409 6.84065 15.3409 10.3283C15.3409 11.3971 15.6222 12.4518 16.1566 13.4081L15.3832 15.7284C15.2987 15.9815 15.355 16.2628 15.5519 16.4456C15.7365 16.6508 16.0435 16.7047 16.269 16.6143L18.5895 15.8409C19.5457 16.3753 20.6005 16.6566 21.6692 16.6566C25.1568 16.6566 27.9975 13.8158 27.9975 10.3283C27.9975 6.84065 25.1568 4 21.6692 4Z" fill="#FFDA2D"/>
<path d="M18.8561 11.0313C19.2444 11.0313 19.5592 10.7165 19.5592 10.3281C19.5592 9.93981 19.2444 9.625 18.8561 9.625C18.4678 9.625 18.153 9.93981 18.153 10.3281C18.153 10.7165 18.4678 11.0313 18.8561 11.0313Z" fill="#575F64"/>
<path d="M22.3741 10.3281C22.3741 10.7219 22.0647 11.0313 21.6709 11.0313C21.2771 11.0313 20.9678 10.7219 20.9678 10.3281C20.9678 9.93434 21.2771 9.625 21.6709 9.625C22.0647 9.625 22.3741 9.93434 22.3741 10.3281Z" fill="#575F64"/>
<path d="M24.4829 11.0313C24.8713 11.0313 25.1861 10.7165 25.1861 10.3281C25.1861 9.93981 24.8713 9.625 24.4829 9.625C24.0946 9.625 23.7798 9.93981 23.7798 10.3281C23.7798 10.7165 24.0946 11.0313 24.4829 11.0313Z" fill="#575F64"/>
<path d="M13.4184 12.5812C13.6931 12.3066 13.6931 11.8616 13.4184 11.5869L8.44695 6.61475C8.18327 6.35107 7.71633 6.35107 7.45266 6.61475L5.46375 8.60371L8.21758 12.5317L11.4294 14.5702L13.4184 12.5812Z" fill="#80A7FF"/>
<path d="M25.3457 24.5134L23.3628 26.4963C23.3628 26.4963 22.5518 26.2244 21.6706 25.9282C20.621 25.5761 19.4707 25.1899 19.4674 25.1885L17.4001 20.5337L19.383 18.5508C19.6643 18.2695 20.1002 18.2695 20.3815 18.5508L25.3457 23.515C25.6269 23.7962 25.6269 24.2462 25.3457 24.5134Z" fill="#80A7FF"/>
<path d="M23.3619 26.4964L23.3197 26.5385C22.8378 27.0204 22.28 27.4001 21.6696 27.6406C21.6542 27.6472 21.6387 27.6533 21.6228 27.6594C21.6073 27.6659 21.5918 27.672 21.5759 27.6776C20.3929 28.1213 19.1321 28.1229 17.9055 27.5933C10.3397 24.176 6.41612 18.3821 4.44732 14.121C3.58949 12.2788 3.99731 10.0709 5.44578 8.62246L5.45985 8.6084L11.4225 14.5711L10.8178 15.1898C12.2803 17.6368 14.3194 19.6899 16.7805 21.1525L17.3992 20.5337L23.3619 26.4964Z" fill="#4C7FF7"/>
</svg>
