<svg width="48" height="49" viewBox="0 0 48 49" fill="none" xmlns="http://www.w3.org/2000/svg">
<rect y="0.5" width="48" height="48" rx="24" fill="#4C7FF7"/>
<path d="M32.6638 31.271C32.6638 31.271 31.5052 32.409 31.2212 32.7427C30.7587 33.2363 30.2137 33.4693 29.4992 33.4693C29.4305 33.4693 29.3573 33.4693 29.2886 33.4648C27.9284 33.3779 26.6644 32.8478 25.7164 32.3953C23.1243 31.143 20.8482 29.3652 18.9568 27.112C17.3951 25.2336 16.3509 23.4969 15.6594 21.6322C15.2335 20.4942 15.0778 19.6075 15.1465 18.7711C15.1923 18.2364 15.3984 17.7931 15.7785 17.4137L17.3401 15.8553C17.5646 15.645 17.8027 15.5308 18.0363 15.5308C18.3248 15.5308 18.5583 15.7044 18.7049 15.8507C18.7095 15.8553 18.7141 15.8598 18.7186 15.8644C18.998 16.1249 19.2636 16.3946 19.543 16.6825C19.685 16.8287 19.8315 16.975 19.9781 17.1258L21.2283 18.3735C21.7138 18.858 21.7138 19.3059 21.2283 19.7903C21.0955 19.9229 20.9673 20.0554 20.8345 20.1834C20.4498 20.5764 20.752 20.2748 20.3535 20.6313C20.3444 20.6405 20.3352 20.645 20.3306 20.6542C19.9368 21.0472 20.01 21.4311 20.0925 21.6916C20.0971 21.7054 20.1016 21.7191 20.1062 21.7328C20.4314 22.5189 20.8894 23.2593 21.5855 24.1413L21.59 24.1459C22.854 25.6998 24.1867 26.911 25.6568 27.8387C25.8446 27.9576 26.0369 28.0536 26.2201 28.145C26.385 28.2272 26.5407 28.3049 26.6735 28.3872C26.6918 28.3963 26.7101 28.41 26.7285 28.4192C26.8842 28.4969 27.0307 28.5334 27.1819 28.5334C27.562 28.5334 27.8001 28.2958 27.878 28.2181L28.7757 27.3222C28.9314 27.1668 29.1787 26.9795 29.4672 26.9795C29.7511 26.9795 29.9847 27.1577 30.1267 27.3131C30.1312 27.3177 30.1312 27.3177 30.1358 27.3222L32.6592 29.8405C33.1309 30.3067 32.6638 31.271 32.6638 31.271Z" stroke="white" stroke-width="1.8" stroke-linecap="round" stroke-linejoin="round"/>
</svg>
