<svg width="36" height="36" viewBox="0 0 36 36" fill="none" xmlns="http://www.w3.org/2000/svg">
<path d="M25.8627 5.05273C27.2491 5.05273 28.373 6.17497 28.373 7.55932L28.373 28.4408C28.373 29.8252 27.2491 30.9474 25.8627 30.9474L10.1366 30.9474C8.75019 30.9474 7.62628 29.8252 7.62628 28.4408L7.62628 7.55932C7.62628 6.17497 8.75019 5.05273 10.1366 5.05273L25.8627 5.05273Z" fill="#E6E6E6"/>
<path d="M23.1887 9.18066L23.2963 9.18632C23.8259 9.24026 24.2388 9.68729 24.2388 10.2304C24.2388 10.7735 23.8259 11.2205 23.2963 11.2745L23.1887 11.2801L12.815 11.2801C12.2346 11.2801 11.7637 10.8099 11.7637 10.2304C11.7637 9.65092 12.2346 9.18066 12.815 9.18066L23.1887 9.18066Z" fill="#6C7B9C"/>
<path d="M18.0013 15.4775L18.1089 15.4832C18.6389 15.5368 19.0526 15.9839 19.0526 16.5273C19.0526 17.0706 18.6389 17.5177 18.1089 17.5713L18.0013 17.577L12.815 17.577C12.2346 17.577 11.7637 17.1067 11.7637 16.5273C11.7637 15.9478 12.2346 15.4775 12.815 15.4775L18.0013 15.4775Z" fill="#6C7B9C"/>
<path d="M5.14258 6.49179L5.14258 4.86968C5.14258 3.60057 6.17242 2.57227 7.44344 2.57227L9.06797 2.57227L9.20392 2.58584C9.51252 2.64874 9.7443 2.92086 9.7443 3.24758C9.7443 3.5743 9.51252 3.84642 9.20392 3.90932L9.06797 3.92289L7.44344 3.92289C6.92008 3.92289 6.49523 4.34711 6.49523 4.86968L6.49523 6.49179C6.49519 6.86503 6.19271 7.1671 5.8189 7.1671C5.44509 7.1671 5.14261 6.86503 5.14258 6.49179Z" fill="#4C7FF7"/>
<path d="M26.9322 2.57227L28.5567 2.57227C29.8277 2.57227 30.8576 3.60057 30.8576 4.86969V6.49179L30.844 6.62753C30.781 6.93567 30.5085 7.16711 30.1813 7.16711C29.854 7.16711 29.5815 6.93567 29.5185 6.62753L29.5049 6.49179V4.86969C29.5049 4.34711 29.0801 3.92289 28.5567 3.92289L26.9322 3.92289C26.5584 3.92286 26.2559 3.62083 26.2559 3.24758C26.2559 2.87433 26.5584 2.5723 26.9322 2.57227Z" fill="#4C7FF7"/>
<path d="M9.06797 33.4288L7.44344 33.4288C6.17242 33.4288 5.14258 32.4005 5.14258 31.1314V29.5093L5.15617 29.3736C5.21917 29.0654 5.49169 28.834 5.8189 28.834C6.14611 28.834 6.41864 29.0654 6.48163 29.3736L6.49523 29.5093V31.1314C6.49523 31.654 6.92008 32.0782 7.44344 32.0782L9.06797 32.0782C9.44178 32.0782 9.7443 32.3803 9.7443 32.7535C9.7443 33.1268 9.44178 33.4288 9.06797 33.4288Z" fill="#4C7FF7"/>
<path d="M32.1437 27.6422C32.1437 30.8375 29.5533 33.4279 26.358 33.4279C23.1626 33.4279 20.5723 30.8375 20.5723 27.6422C20.5723 24.4468 23.1626 21.8564 26.358 21.8564C29.5533 21.8564 32.1437 24.4468 32.1437 27.6422Z" fill="#4C7FF7"/>
<path d="M28.1541 25.3949C28.4377 25.1097 28.8983 25.1076 29.1839 25.3908C29.4692 25.6745 29.4713 26.1364 29.188 26.422L25.7361 29.8931C25.5994 30.0305 25.4137 30.1085 25.2199 30.1086C25.0258 30.1086 24.839 30.0307 24.7022 29.8931L23.5255 28.7095L23.4335 28.5955C23.2473 28.312 23.2797 27.9268 23.5296 27.6783C23.7793 27.4306 24.1633 27.4007 24.4454 27.5877L24.5608 27.6824L25.2185 28.3443L28.1541 25.3949Z" fill="white"/>
</svg>
