<svg width="32" height="32" viewBox="0 0 32 32" fill="none" xmlns="http://www.w3.org/2000/svg">
<path d="M16.501 5C23.183 5 28.5996 9.23695 28.5996 14.4658C28.5993 19.6944 23.1808 23.9306 16.499 23.9307C15.7316 23.9307 14.9811 23.8753 14.2529 23.7686C12.9116 24.6687 9.80413 26.7601 9.5957 26.8984C9.33087 27.0729 8.9266 27.0797 9.09082 26.4297C9.22334 25.9052 9.88808 23.4526 10.1406 22.5186C6.69554 20.8517 4.4006 17.8674 4.40039 14.4658C4.40039 9.23701 9.81658 5.00011 16.501 5ZM21.3828 11.5684C21.0544 11.5684 20.7187 11.7016 20.7256 11.9609C20.7378 12.4316 20.7109 16.68 20.7109 16.9961C20.7109 17.4935 21.9907 17.4911 21.9883 16.9961V15.3242L22.3633 15.0264L24.0068 17.2441C24.3382 17.6776 25.3817 16.8942 25.0508 16.46L23.3076 14.1865C23.3076 14.1865 24.4921 12.9195 24.958 12.4609C25.2298 12.1939 24.3864 11.3528 24.1143 11.6221C23.8502 11.8809 22.0223 13.6918 21.9961 13.7178C21.9964 13.6949 22.0131 12.5595 21.9961 11.9277C21.9887 11.6851 21.6893 11.5684 21.3828 11.5684ZM13.9395 11.5654C13.6477 11.5655 13.3614 11.6726 13.2412 11.9346C12.9347 12.6017 11.829 15.755 11.4609 16.5928C11.1961 17.1969 12.3404 17.6897 12.6055 17.0859L12.8555 16.2246H15.1338C15.13 16.227 15.0641 16.2818 15.3574 17.0488C15.6026 17.6893 16.7864 17.2459 16.5391 16.6055C16.1884 15.6908 14.9797 12.401 14.7588 11.9346C14.6583 11.7186 14.2926 11.5654 13.9395 11.5654ZM17.6582 11.5654C17.3223 11.5654 16.9835 11.7549 16.9834 12.1309L16.9883 16.6611C16.9869 16.6708 16.8927 17.3477 17.4844 17.3477C18.0805 17.3477 19.3994 17.3408 19.9854 17.3408C20.5712 17.3405 20.566 16.1074 19.9824 16.1074C19.4028 16.1074 18.3447 16.1007 18.3301 16.1006C18.3301 16.1006 18.3345 12.9059 18.332 12.1289C18.332 11.7529 17.9941 11.5655 17.6582 11.5654ZM8.05371 11.5391C7.32301 11.5391 7.32546 12.7207 8.05371 12.7207L9.30469 12.7236C9.30476 12.755 9.312 16.111 9.30469 16.8965C9.30469 17.4715 10.5983 17.4791 10.5986 16.9043L10.6035 12.7666C10.6035 12.7666 11.0207 12.7695 11.8418 12.7695C12.6167 12.7695 12.6167 11.5635 11.8418 11.5635C10.9682 11.5635 8.05371 11.5391 8.05371 11.5391ZM14.7119 15.0908H13.2676L14.0186 12.9414L14.7119 15.0908Z" fill="#1C2023"/>
</svg>
