<svg width="24" height="24" viewBox="0 0 24 24" fill="none" xmlns="http://www.w3.org/2000/svg">
<rect x="3.42749" y="1.71289" width="17.1447" height="20.5714" rx="3.6" fill="#FAF7FC"/>
<path d="M12.6585 4.3329C12.3493 3.85518 11.6503 3.85518 11.3411 4.3329C11.1642 4.60634 10.8366 4.742 10.5181 4.67379C9.96171 4.55462 9.46746 5.04887 9.58663 5.6053C9.65484 5.9238 9.51918 6.25131 9.24574 6.42829C8.76802 6.73748 8.76802 7.43645 9.24574 7.74564C9.51918 7.92262 9.65484 8.25014 9.58663 8.56863C9.46746 9.12506 9.96171 9.61931 10.5181 9.50014C10.8366 9.43193 11.1642 9.56759 11.3411 9.84103C11.6503 10.3188 12.3493 10.3188 12.6585 9.84103C12.8355 9.56759 13.163 9.43193 13.4815 9.50014C14.0379 9.61931 14.5322 9.12506 14.413 8.56863C14.3448 8.25014 14.4804 7.92262 14.7539 7.74564C15.2316 7.43645 15.2316 6.73748 14.7539 6.42829C14.4804 6.25131 14.3448 5.9238 14.413 5.6053C14.5322 5.04887 14.0379 4.55462 13.4815 4.67379C13.163 4.742 12.8355 4.60634 12.6585 4.3329Z" fill="#FBC700"/>
<path d="M16.7143 11.6914L16.7929 11.6956C17.182 11.735 17.486 12.0637 17.486 12.4632C17.486 12.8627 17.182 13.1913 16.7929 13.2307L16.7143 13.2349H7.28568C6.85963 13.2349 6.51392 12.8892 6.51392 12.4632C6.51392 12.0371 6.85963 11.6914 7.28568 11.6914H16.7143Z" fill="#D6D9EF"/>
<path d="M16.7143 14.8008L16.7929 14.805C17.182 14.8444 17.486 15.1731 17.486 15.5725C17.486 15.972 17.182 16.3007 16.7929 16.3401L16.7143 16.3443H7.28568C6.85963 16.3443 6.51392 15.9986 6.51392 15.5725C6.51392 15.1465 6.85963 14.8008 7.28568 14.8008H16.7143Z" fill="#D6D9EF"/>
<path d="M12 17.9082L12.0786 17.9124C12.4677 17.9518 12.7717 18.2805 12.7717 18.68C12.7717 19.0795 12.4677 19.4081 12.0786 19.4475L12 19.4517H7.28568C6.85963 19.4517 6.51392 19.106 6.51392 18.68C6.51392 18.2539 6.85963 17.9082 7.28568 17.9082H12Z" fill="#D6D9EF"/>
</svg>
