<svg width="72" height="72" viewBox="0 0 72 72" fill="none" xmlns="http://www.w3.org/2000/svg">
<circle cx="36" cy="36" r="27" fill="#F1F1F1"/>
<path d="M36.0172 48.3749C35.5066 48.3749 35.0626 48.1862 34.6852 47.8088C34.3078 47.4314 34.1191 46.9874 34.1191 46.4768V32.957C34.1191 32.4464 34.3078 32.0024 34.6852 31.625C35.0626 31.2476 35.5066 31.0589 36.0172 31.0589H36.883C37.3936 31.0589 37.8376 31.2476 38.215 31.625C38.5924 32.0024 38.7811 32.4464 38.7811 32.957V46.4768C38.7811 46.9874 38.5924 47.4314 38.215 47.8088C37.8376 48.1862 37.3936 48.3749 36.883 48.3749H36.0172ZM36.0172 27.3959C35.5066 27.3959 35.0626 27.2072 34.6852 26.8298C34.3078 26.4524 34.1191 26.0084 34.1191 25.4978V25.298C34.1191 24.7874 34.3078 24.3434 34.6852 23.966C35.0626 23.5886 35.5066 23.3999 36.0172 23.3999H36.883C37.3936 23.3999 37.8376 23.5886 38.215 23.966C38.5924 24.3434 38.7811 24.7874 38.7811 25.298V25.4978C38.7811 26.0084 38.5924 26.4524 38.215 26.8298C37.8376 27.2072 37.3936 27.3959 36.883 27.3959H36.0172Z" fill="#AABEE9"/>
</svg>
