<svg width="24" height="24" viewBox="0 0 24 24" fill="none" xmlns="http://www.w3.org/2000/svg">
<path d="M11.9996 22.2858C17.6802 22.2858 22.2853 17.6807 22.2853 12.0001C22.2853 6.31943 17.6802 1.71436 11.9996 1.71436C6.31894 1.71436 1.71387 6.31943 1.71387 12.0001C1.71387 17.6807 6.31894 22.2858 11.9996 22.2858Z" fill="#F9C41C"/>
<path d="M8.89972 7.64217C9.29434 7.36452 9.80196 7.38125 10.2139 7.63631L15.8799 11.1411L15.9653 11.198C16.3775 11.4947 16.5784 11.9647 16.5604 12.4025C16.5406 12.8828 16.2274 13.4299 15.5669 13.5057H15.566L13.1787 13.7778L12.1081 15.9399L12.109 15.9407C11.9757 16.2104 11.7539 16.4059 11.4837 16.4999C11.2242 16.59 10.9587 16.5738 10.7329 16.5015C10.314 16.3673 9.94369 16.0148 9.80792 15.5264L9.78365 15.4268L8.44687 8.87431C8.34999 8.40133 8.5062 7.9193 8.89972 7.64217Z" fill="white"/>
</svg>
