<svg width="24" height="24" viewBox="0 0 24 24" fill="none" xmlns="http://www.w3.org/2000/svg">
<path d="M11.9996 22.2858C17.6802 22.2858 22.2853 17.6807 22.2853 12.0001C22.2853 6.31943 17.6802 1.71436 11.9996 1.71436C6.31894 1.71436 1.71387 6.31943 1.71387 12.0001C1.71387 17.6807 6.31894 22.2858 11.9996 22.2858Z" fill="#5B74FF"/>
<g clip-path="url(#clip0_13990_13393)">
<path d="M8.89844 15.1023L9.41942 13.192C9.45341 13.0674 9.4704 13.0051 9.49649 12.947C9.51966 12.8954 9.54812 12.8463 9.58143 12.8006C9.61893 12.7491 9.6646 12.7035 9.75595 12.6121L13.9737 8.39441C14.0545 8.31359 14.0949 8.27317 14.1415 8.25804C14.1825 8.24472 14.2266 8.24472 14.2676 8.25804C14.3142 8.27317 14.3546 8.31359 14.4355 8.39441L15.6063 9.56527C15.6871 9.64609 15.7275 9.68651 15.7427 9.7331C15.756 9.77409 15.756 9.81824 15.7427 9.85923C15.7275 9.90583 15.6871 9.94624 15.6063 10.0271L11.3886 14.2448C11.2973 14.3361 11.2516 14.3818 11.2001 14.4193C11.1544 14.4526 11.1053 14.4811 11.0538 14.5042C10.9956 14.5303 10.9333 14.5473 10.8087 14.5813L8.89844 15.1023Z" fill="white"/>
<path d="M13.9574 7.42035C14.12 7.38143 14.2895 7.38131 14.4521 7.42035L14.5324 7.44295L14.653 7.49066C14.7631 7.54302 14.8433 7.60565 14.8932 7.64802C14.9521 7.69806 15.011 7.75825 15.0414 7.78865L16.2124 8.95969L16.3522 9.10784C16.4086 9.17436 16.5008 9.29449 16.5573 9.46778L16.5807 9.54897C16.6262 9.73879 16.618 9.93823 16.5573 10.1249C16.5008 10.2982 16.4086 10.4183 16.3522 10.4848L16.2124 10.633L11.9945 14.8509C11.958 14.8874 11.9149 14.9311 11.8664 14.9764L11.7049 15.112C11.6111 15.1803 11.5105 15.2388 11.4052 15.2861C11.3387 15.316 11.2703 15.3402 11.2068 15.3598L11.0344 15.4083L9.12339 15.929C8.8268 16.0098 8.50964 15.9261 8.2922 15.7088C8.0747 15.4913 7.99028 15.1736 8.07122 14.8768L8.59186 12.9667L8.64125 12.7942C8.66091 12.7306 8.68416 12.6625 8.71407 12.5958L8.79359 12.4418C8.82263 12.3918 8.85404 12.3431 8.88818 12.2962L9.02378 12.1346C9.06913 12.0861 9.11281 12.0431 9.14934 12.0066L13.3673 7.78865L13.5154 7.64802C13.582 7.59151 13.7026 7.49938 13.8762 7.44295L13.9574 7.42035ZM10.2777 13.3032C10.275 13.3121 10.2721 13.324 10.2676 13.34L10.2459 13.4178L10.1195 13.8807L10.6602 13.7334C10.6762 13.7289 10.6881 13.7243 10.6971 13.7217C10.7038 13.7152 10.7136 13.7075 10.7255 13.6957C10.7412 13.6803 10.7591 13.6621 10.7824 13.6388L14.6245 9.7959L14.2043 9.3757L10.2777 13.3032Z" fill="white"/>
</g>
<defs>
<clipPath id="clip0_13990_13393">
<rect width="9.79592" height="9.79592" fill="white" transform="translate(7.10156 7.10205)"/>
</clipPath>
</defs>
</svg>
