<svg width="48" height="48" viewBox="0 0 48 48" fill="none" xmlns="http://www.w3.org/2000/svg">
<path d="M32.5714 3.42871C33.3604 3.42871 34 4.0683 34 4.85728V24.0535C34 24.427 33.8538 24.7856 33.5926 25.0526L25.9997 32.8137L25.0209 33.814C24.4607 34.3865 23.5393 34.3866 22.9789 33.8141L21.9998 32.8137L14.4074 25.0526C14.1462 24.7856 14 24.427 14 24.0536V4.85728C14 4.0683 14.6396 3.42871 15.4286 3.42871H32.5714Z" fill="url(#paint0_linear_7423_69849)"/>
<path d="M24.0003 46.2857C33.468 46.2857 41.1431 38.6106 41.1431 29.1429C41.1431 19.6751 33.468 12 24.0003 12C14.5325 12 6.85742 19.6751 6.85742 29.1429C6.85742 38.6106 14.5325 46.2857 24.0003 46.2857Z" fill="url(#paint1_linear_7423_69849)"/>
<path d="M23.9999 40.5715C30.3117 40.5715 35.4284 35.4548 35.4284 29.1429C35.4284 22.8311 30.3117 17.7144 23.9999 17.7144C17.688 17.7144 12.5713 22.8311 12.5713 29.1429C12.5713 35.4548 17.688 40.5715 23.9999 40.5715Z" fill="url(#paint2_linear_7423_69849)"/>
<path d="M28.5716 31.3144C28.5716 32.1905 28.3716 32.9429 27.9716 33.5715C27.5811 34.2001 27.043 34.6715 26.3573 34.9858C25.6716 35.3096 24.9001 35.4715 24.043 35.4715C23.3763 35.4715 22.7287 35.3525 22.1001 35.1144C21.4811 34.8763 21.0097 34.5429 20.6859 34.1144C20.5144 33.8858 20.4287 33.6286 20.4287 33.3429C20.4287 33.1715 20.462 33.0048 20.5287 32.8429C20.6049 32.681 20.7097 32.5382 20.843 32.4144C21.0811 32.2048 21.343 32.1001 21.6287 32.1001C21.7906 32.1001 21.9478 32.1286 22.1001 32.1858C22.2239 32.2334 22.3525 32.3001 22.4859 32.3858C22.6287 32.4715 22.762 32.5525 22.8859 32.6286C23.1811 32.7905 23.562 32.8715 24.0287 32.8715C24.562 32.8715 24.9859 32.7239 25.3001 32.4286C25.6144 32.1334 25.7716 31.7286 25.7716 31.2144C25.7716 30.681 25.5906 30.2763 25.2287 30.0001C24.8763 29.7239 24.3954 29.5858 23.7859 29.5858H23.0144C22.7478 29.5858 22.5192 29.5144 22.3287 29.3715C22.1382 29.2191 22.0144 29.0382 21.9573 28.8286C21.9287 28.6953 21.9144 28.5715 21.9144 28.4572C21.9144 28.1144 22.0859 27.7763 22.4287 27.4429L24.8001 25.1001H21.8144C21.4239 25.1001 21.1287 24.981 20.9287 24.7429C20.7382 24.5048 20.643 24.2286 20.643 23.9144C20.643 23.6001 20.743 23.3239 20.943 23.0858C21.143 22.8382 21.4335 22.7144 21.8144 22.7144H26.543C27.0287 22.7144 27.4192 22.8858 27.7144 23.2286C28.0192 23.562 28.1716 23.9477 28.1716 24.3858C28.1716 24.8525 28.0144 25.2382 27.7001 25.5429L25.5001 27.7144C26.0811 27.781 26.6049 27.9667 27.0716 28.2715C27.5382 28.5763 27.9049 28.9905 28.1716 29.5144C28.4382 30.0286 28.5716 30.6286 28.5716 31.3144Z" fill="#672700"/>
<defs>
<linearGradient id="paint0_linear_7423_69849" x1="24.7143" y1="3.42871" x2="24.7143" y2="16.2859" gradientUnits="userSpaceOnUse">
<stop stop-color="#7099F9"/>
<stop offset="0.99" stop-color="#3E68CB"/>
</linearGradient>
<linearGradient id="paint1_linear_7423_69849" x1="24.0003" y1="12.1682" x2="24.0003" y2="44.9564" gradientUnits="userSpaceOnUse">
<stop stop-color="#FFC591"/>
<stop offset="1" stop-color="#D3824F"/>
</linearGradient>
<linearGradient id="paint2_linear_7423_69849" x1="23.9999" y1="42.629" x2="23.9999" y2="16.1486" gradientUnits="userSpaceOnUse">
<stop stop-color="#FFC591"/>
<stop offset="1" stop-color="#D3824F"/>
</linearGradient>
</defs>
</svg>
