<svg width="46" height="24" viewBox="0 0 46 24" fill="none" xmlns="http://www.w3.org/2000/svg">
<rect width="46" height="24" rx="12" fill="#535E5A"/>
<path d="M15.684 12.792H17.154V14.682H15.684V12.792ZM10.658 11.938H22.194V13.03H10.658V11.938ZM15.684 6.31H17.14V7.85H15.684V6.31ZM15.614 7.962H16.902V8.186C16.902 8.67133 16.7713 9.10533 16.51 9.488C16.258 9.86133 15.8987 10.188 15.432 10.468C14.9653 10.748 14.4053 10.972 13.752 11.14C13.108 11.2987 12.394 11.406 11.61 11.462L11.19 10.37C11.89 10.3327 12.5107 10.2533 13.052 10.132C13.5933 10.0107 14.0553 9.85667 14.438 9.67C14.8207 9.474 15.11 9.25 15.306 8.998C15.5113 8.746 15.614 8.47533 15.614 8.186V7.962ZM15.936 7.962H17.224V8.186C17.224 8.47533 17.322 8.746 17.518 8.998C17.7233 9.25 18.0127 9.474 18.386 9.67C18.7687 9.85667 19.2307 10.0107 19.772 10.132C20.3227 10.2533 20.948 10.3327 21.648 10.37L21.228 11.462C20.4347 11.406 19.716 11.2987 19.072 11.14C18.428 10.972 17.8727 10.748 17.406 10.468C16.9393 10.188 16.5753 9.86133 16.314 9.488C16.062 9.10533 15.936 8.67133 15.936 8.186V7.962ZM11.792 7.416H21.06V8.508H11.792V7.416ZM12.002 14.024H20.752V16.978H13.472V18.378H12.03V15.97H19.31V15.088H12.002V14.024ZM12.03 17.944H21.116V19.036H12.03V17.944ZM23.6909 6.898H25.1469V8.592H28.2689V6.898H29.7249V12.484H23.6909V6.898ZM25.1469 9.712V11.336H28.2689V9.712H25.1469ZM31.7689 6.366H33.2249V12.918H31.7689V6.366ZM32.6229 8.984H35.0309V10.188H32.6229V8.984ZM24.9649 13.478H33.2249V16.754H26.4349V18.49H24.9929V15.676H31.7829V14.612H24.9649V13.478ZM24.9929 17.888H33.6449V19.036H24.9929V17.888Z" fill="white"/>
</svg>
