<svg width="48" height="48" viewBox="0 0 48 48" fill="none" xmlns="http://www.w3.org/2000/svg">
<path d="M32.5714 3.42871C33.3604 3.42871 34 4.0683 34 4.85728V24.0535C34 24.427 33.8538 24.7856 33.5926 25.0526L25.9997 32.8137L25.0209 33.814C24.4607 34.3865 23.5393 34.3866 22.9789 33.8141L21.9998 32.8137L14.4074 25.0526C14.1462 24.7856 14 24.427 14 24.0536V4.85728C14 4.0683 14.6396 3.42871 15.4286 3.42871H32.5714Z" fill="url(#paint0_linear_7423_69833)"/>
<path d="M24.0003 46.2857C33.468 46.2857 41.1431 38.6106 41.1431 29.1429C41.1431 19.6751 33.468 12 24.0003 12C14.5325 12 6.85742 19.6751 6.85742 29.1429C6.85742 38.6106 14.5325 46.2857 24.0003 46.2857Z" fill="url(#paint1_linear_7423_69833)"/>
<path d="M23.9999 40.5715C30.3117 40.5715 35.4284 35.4548 35.4284 29.1429C35.4284 22.8311 30.3117 17.7144 23.9999 17.7144C17.688 17.7144 12.5713 22.8311 12.5713 29.1429C12.5713 35.4548 17.688 40.5715 23.9999 40.5715Z" fill="url(#paint2_linear_7423_69833)"/>
<path d="M22.0576 35.4715C21.5147 35.4715 21.0814 35.3239 20.7576 35.0286C20.4433 34.7334 20.2861 34.3191 20.2861 33.7858V33.6286C20.2861 33.0096 20.348 32.4905 20.4718 32.0715C20.5957 31.6525 20.7766 31.2858 21.0147 30.9715C21.2623 30.6572 21.6099 30.2953 22.0576 29.8858L24.4433 27.6858C24.748 27.4096 24.9671 27.1667 25.1004 26.9572C25.2433 26.7382 25.3147 26.5001 25.3147 26.2429C25.3147 25.9477 25.2099 25.7191 25.0004 25.5572C24.7909 25.3953 24.5433 25.3144 24.2576 25.3144C23.9433 25.3144 23.6861 25.3715 23.4861 25.4858C23.2957 25.5905 23.1099 25.7382 22.929 25.9286C22.6433 26.2525 22.3957 26.4429 22.1861 26.5001C22.0718 26.5382 21.9385 26.5572 21.7861 26.5572C21.4433 26.5572 21.1338 26.4477 20.8576 26.2286C20.5814 26.0096 20.4433 25.7048 20.4433 25.3144C20.4433 25.0286 20.5195 24.7572 20.6718 24.5001C21.0338 23.9096 21.5385 23.4667 22.1861 23.1715C22.8338 22.8667 23.6004 22.7144 24.4861 22.7144C25.1718 22.7144 25.7957 22.8382 26.3576 23.0858C26.929 23.3334 27.3814 23.7048 27.7147 24.2001C28.0576 24.6858 28.229 25.2715 28.229 25.9572C28.229 26.462 28.1433 26.9191 27.9718 27.3286C27.8004 27.7286 27.5766 28.0953 27.3004 28.4286C27.0242 28.7525 26.6433 29.1525 26.1576 29.6286L24.329 31.4001C24.0528 31.6572 23.9004 31.7953 23.8718 31.8144C23.6623 31.9953 23.5147 32.1429 23.429 32.2572C23.3433 32.3715 23.3004 32.5144 23.3004 32.6858V32.7858C23.3004 32.9286 23.3718 33.0001 23.5147 33.0001H28.3433V35.4715H22.0576Z" fill="#3F3F3F"/>
<defs>
<linearGradient id="paint0_linear_7423_69833" x1="24.7143" y1="3.42871" x2="24.7143" y2="16.2859" gradientUnits="userSpaceOnUse">
<stop stop-color="#7099F9"/>
<stop offset="0.99" stop-color="#3E68CB"/>
</linearGradient>
<linearGradient id="paint1_linear_7423_69833" x1="24.0003" y1="12.1682" x2="24.0003" y2="44.9564" gradientUnits="userSpaceOnUse">
<stop stop-color="#E2E2E2"/>
<stop offset="1" stop-color="#AFAFAF"/>
</linearGradient>
<linearGradient id="paint2_linear_7423_69833" x1="23.9999" y1="42.629" x2="23.9999" y2="16.1486" gradientUnits="userSpaceOnUse">
<stop stop-color="#E2E2E2"/>
<stop offset="1" stop-color="#AFAFAF"/>
</linearGradient>
</defs>
</svg>
