<svg width="28" height="28" viewBox="0 0 28 28" fill="none" xmlns="http://www.w3.org/2000/svg">
<path d="M26 14C26 20.6274 20.6274 26 14 26C7.37258 26 2 20.6274 2 14C2 7.37258 7.37258 2 14 2C20.6274 2 26 7.37258 26 14Z" fill="#C4D6FF"/>
<path d="M23.8182 14C23.8182 8.57757 19.4224 4.18182 14 4.18182C8.57757 4.18182 4.18182 8.57757 4.18182 14C4.18182 19.4224 8.57757 23.8182 14 23.8182V26C7.37258 26 2 20.6274 2 14C2 7.37258 7.37258 2 14 2C20.6274 2 26 7.37258 26 14C26 20.6274 20.6274 26 14 26V23.8182C19.4224 23.8182 23.8182 19.4224 23.8182 14Z" fill="white"/>
<path d="M19.9908 12.8052C20.0507 12.4907 19.8109 12.1134 19.5111 12.1134L16.0938 11.6103L14.535 8.34019C14.475 8.21442 14.4151 8.15153 14.2951 8.08864C13.9954 7.89998 13.6357 8.02575 13.4558 8.34019L11.9569 11.6103L8.53958 12.1134C8.35972 12.1134 8.23982 12.1763 8.17986 12.3021C7.94005 12.5536 7.94005 12.9309 8.17986 13.1825L10.638 15.6979L10.0384 19.2825C10.0384 19.4083 10.0384 19.534 10.0984 19.6598C10.2782 19.9742 10.638 20.1 10.9377 19.9114L13.9954 18.2134L17.053 19.9114C17.113 19.9742 17.2329 19.9742 17.3528 19.9742C17.4127 19.9742 17.4127 19.9742 17.4727 19.9742C17.7725 19.9114 18.0123 19.5969 17.9523 19.2196L17.3528 15.6351L19.8109 13.1196C19.9308 13.0567 19.9908 12.9309 19.9908 12.8052Z" fill="#4C7FF7"/>
</svg>
