<svg width="81" height="80" viewBox="0 0 81 80" fill="none" xmlns="http://www.w3.org/2000/svg">
<path d="M49.4091 50H57.5909C60.4842 50 63.259 51.1589 65.3048 53.2218C67.3507 55.2847 68.5 58.0826 68.5 61V65.25C68.5 65.9793 68.2127 66.6788 67.7012 67.1945C67.1897 67.7102 66.496 68 65.7727 68H41.2273C40.504 68 39.8103 67.7102 39.2988 67.1945C38.7873 66.6788 38.5 65.9793 38.5 65.25V61C38.5 58.0826 39.6493 55.2847 41.6952 53.2218C43.741 51.1589 46.5158 50 49.4091 50Z" fill="#F1F1F1"/>
<path d="M53.5 48C57.9183 48 61.5 44.4183 61.5 40C61.5 35.5817 57.9183 32 53.5 32C49.0817 32 45.5 35.5817 45.5 40C45.5 44.4183 49.0817 48 53.5 48Z" fill="#F1F1F1"/>
<path d="M24.5909 46H34.4091C37.881 46 41.2108 47.3696 43.6658 49.8076C46.1208 52.2456 47.5 55.5522 47.5 59V64.75C47.5 65.612 47.1552 66.4386 46.5414 67.048C45.9277 67.6575 45.0953 68 44.2273 68H14.7727C13.9047 68 13.0723 67.6575 12.4586 67.048C11.8448 66.4386 11.5 65.612 11.5 64.75V59C11.5 55.5522 12.8792 52.2456 15.3342 49.8076C17.7893 47.3696 21.119 46 24.5909 46Z" fill="#C6D4F3"/>
<path d="M30 43C35.2467 43 39.5 38.7467 39.5 33.5C39.5 28.2533 35.2467 24 30 24C24.7533 24 20.5 28.2533 20.5 33.5C20.5 38.7467 24.7533 43 30 43Z" fill="#C6D4F3"/>
</svg>
