<svg width="48" height="48" viewBox="0 0 48 48" fill="none" xmlns="http://www.w3.org/2000/svg">
<path d="M32.5714 3.42871C33.3604 3.42871 34 4.06831 34 4.85729V24.0536C34 24.4271 33.8538 24.7857 33.5926 25.0526L25.9997 32.8138L25.0209 33.8141C24.4607 34.3866 23.5393 34.3867 22.9789 33.8142L21.9998 32.8138L14.4074 25.0526C14.1462 24.7857 14 24.4271 14 24.0536V4.85729C14 4.06831 14.6396 3.42871 15.4286 3.42871H32.5714Z" fill="url(#paint0_linear_7423_58392)"/>
<path d="M24.0003 46.2857C33.468 46.2857 41.1431 38.6106 41.1431 29.1429C41.1431 19.6751 33.468 12 24.0003 12C14.5325 12 6.85742 19.6751 6.85742 29.1429C6.85742 38.6106 14.5325 46.2857 24.0003 46.2857Z" fill="url(#paint1_linear_7423_58392)"/>
<path d="M23.9999 40.5711C30.3117 40.5711 35.4284 35.4543 35.4284 29.1425C35.4284 22.8306 30.3117 17.7139 23.9999 17.7139C17.688 17.7139 12.5713 22.8306 12.5713 29.1425C12.5713 35.4543 17.688 40.5711 23.9999 40.5711Z" fill="url(#paint2_linear_7423_58392)"/>
<path d="M23.3661 23.607C23.4744 23.3095 23.6368 23.0887 23.8534 22.9447C24.0798 22.7911 24.3505 22.7144 24.6655 22.7144C25.1084 22.7144 25.4628 22.8439 25.7286 23.1031C26.0042 23.3527 26.142 23.7078 26.142 24.1685V35.5715H23.1889V27.1777H21.9486C21.5155 27.1777 21.1512 27.0721 20.8559 26.8609C20.5705 26.6497 20.4277 26.3522 20.4277 25.9682C20.4277 25.6515 20.5262 25.3875 20.723 25.1764C20.9298 24.9652 21.1857 24.8356 21.4909 24.7876C21.9437 24.73 22.3374 24.6101 22.6721 24.4277C23.0068 24.2357 23.2381 23.9622 23.3661 23.607Z" fill="#7A2D00"/>
<defs>
<linearGradient id="paint0_linear_7423_58392" x1="24.7143" y1="3.42871" x2="24.7143" y2="16.2859" gradientUnits="userSpaceOnUse">
<stop stop-color="#7099F9"/>
<stop offset="0.99" stop-color="#3E68CB"/>
</linearGradient>
<linearGradient id="paint1_linear_7423_58392" x1="24.0003" y1="12.1682" x2="24.0003" y2="44.9564" gradientUnits="userSpaceOnUse">
<stop stop-color="#E9DD49"/>
<stop offset="1" stop-color="#FF9B36"/>
</linearGradient>
<linearGradient id="paint2_linear_7423_58392" x1="23.9999" y1="42.6286" x2="23.9999" y2="16.1481" gradientUnits="userSpaceOnUse">
<stop stop-color="#E9DD49"/>
<stop offset="1" stop-color="#FF9B36"/>
</linearGradient>
</defs>
</svg>
