<svg width="192" height="152" viewBox="0 0 192 152" fill="none" xmlns="http://www.w3.org/2000/svg">
<path fill-rule="evenodd" clip-rule="evenodd" d="M45.3149 45.7114C45.0684 45.7114 44.8186 45.6562 44.5824 45.5422C43.7267 45.1349 43.3639 44.1028 43.7712 43.2433C48.9976 32.1592 60.2137 25 72.3437 25C78.6346 25 84.7167 26.864 89.9328 30.3919C90.7166 30.92 90.9254 31.9901 90.4017 32.784C89.8746 33.5711 88.8102 33.792 88.0264 33.2569C83.3784 30.1123 77.9569 28.4519 72.3437 28.4519C61.5281 28.4519 51.5236 34.8414 46.8619 44.7276C46.5676 45.3489 45.9549 45.7114 45.3149 45.7114ZM93.4274 66.4262C93.3829 66.4262 93.3384 66.4262 93.2939 66.4228C92.3526 66.3503 91.6476 65.5184 91.7195 64.5691C91.9214 61.8766 92.0241 59.305 92.0241 56.9335C92.0241 45.9875 83.1936 37.0851 72.3437 37.0851C68.6027 37.0851 64.9541 38.1621 61.7848 40.2022C60.9838 40.7096 59.9297 40.4749 59.4231 39.674C58.9131 38.8732 59.1459 37.8065 59.9434 37.2922C63.6638 34.8966 67.949 33.6332 72.3437 33.6332C85.0829 33.6332 95.4467 44.0855 95.4467 56.9335C95.4467 59.3947 95.3406 62.0492 95.1319 64.8315C95.0634 65.7393 94.3104 66.4262 93.4274 66.4262ZM59.074 66.4262C59.0124 66.4262 58.9542 66.4228 58.896 66.4159C57.9548 66.3227 57.2737 65.4735 57.3661 64.5242C57.6536 61.7109 57.7973 59.1565 57.7973 56.9335C57.7973 48.8423 64.3244 42.2629 72.3437 42.2629C74.8217 42.2629 77.221 42.9154 79.4766 44.2098C80.298 44.6827 80.5855 45.7356 80.1166 46.564C79.6511 47.389 78.6072 47.6859 77.7857 47.213C76.0505 46.2154 74.2193 45.7148 72.3437 45.7148C66.2103 45.7148 61.22 50.7477 61.22 56.9335C61.22 59.2739 61.0694 61.9457 60.7751 64.8763C60.6827 65.7669 59.9399 66.4262 59.074 66.4262ZM40.7113 73.8754C40.6121 73.8754 40.5128 73.8685 40.4102 73.8478C39.4792 73.6856 38.8597 72.7881 39.0274 71.8492C40.1227 65.5909 40.6806 60.5753 40.6806 56.9335C40.6806 54.7864 40.8962 52.6394 41.3206 50.5475C41.5088 49.612 42.4124 49.0114 43.34 49.2013C44.2641 49.3911 44.8631 50.3024 44.6748 51.2379C44.2949 53.1019 44.1032 55.0177 44.1032 56.9335C44.1032 60.772 43.5316 65.9947 42.3953 72.4498C42.2481 73.2886 41.526 73.8754 40.7113 73.8754ZM66.3027 76.7819C66.2103 76.7819 66.1144 76.775 66.0186 76.7578C65.0842 76.599 64.4579 75.7084 64.6153 74.7695C65.7687 67.8726 66.354 61.9319 66.354 57.1061C66.354 53.775 69.0408 51.0653 72.3437 51.0653C75.6466 51.0653 78.3334 53.775 78.3334 57.1061L78.3231 57.5618C78.282 58.5041 77.4195 59.2808 76.5604 59.3706C75.6226 59.3429 74.8765 58.7181 74.8902 57.7689C74.8902 57.7551 74.9004 57.434 74.9039 57.4237C74.9107 55.6805 73.7607 54.5172 72.3437 54.5172C70.9267 54.5172 69.7767 55.6805 69.7767 57.1061C69.7767 62.1217 69.1743 68.2592 67.9901 75.3425C67.8463 76.1848 67.1241 76.7819 66.3027 76.7819ZM100.461 79.754C100.375 79.754 100.29 79.7471 100.201 79.7333C99.2664 79.5883 98.6264 78.7081 98.7702 77.7657C99.9715 69.9334 100.577 62.9226 100.577 56.9335C100.577 49.7052 97.8666 42.8083 92.9482 37.5062C92.3013 36.8124 92.3355 35.7181 93.0269 35.0657C93.7183 34.4202 94.7999 34.4513 95.4467 35.1451C100.964 41.0893 104 48.825 104 56.9335C104 63.1021 103.381 70.2855 102.152 78.2904C102.022 79.1465 101.293 79.754 100.461 79.754ZM47.5122 83.6478C47.389 83.6478 47.2658 83.6339 47.1391 83.6098C46.2184 83.4027 45.6332 82.481 45.8385 81.5525C47.389 74.4519 49.2407 64.4172 49.2407 56.9335C49.2407 51.6072 51.0786 46.3914 54.4089 42.2526C55.0044 41.5173 56.086 41.3965 56.815 42.0041C57.5509 42.6047 57.6604 43.6886 57.0683 44.4307C54.1864 48.0069 52.6633 52.3287 52.6633 56.9335C52.6633 64.7313 50.7706 75.0284 49.1791 82.2946C49.0045 83.0989 48.296 83.6478 47.5122 83.6478ZM90.104 89.1363C89.991 89.1363 89.8746 89.1259 89.7583 89.1018C88.8307 88.9119 88.2352 87.9972 88.4268 87.0617C89.5324 81.6042 90.4086 76.3297 91.0212 71.3866C91.141 70.4442 92.0001 69.7504 92.9345 69.8919C93.8723 70.0093 94.5363 70.8723 94.4199 71.8181C93.7936 76.851 92.9037 82.2118 91.7776 87.759C91.6133 88.5736 90.898 89.1363 90.104 89.1363ZM54.9771 89.371C54.8436 89.371 54.7101 89.3606 54.5766 89.3261C53.6593 89.1018 53.0912 88.1732 53.3102 87.2446C54.2206 83.4061 55.5076 77.531 56.4693 71.3383C56.6199 70.3925 57.4722 69.7642 58.4271 69.8988C59.3615 70.0473 59.9981 70.931 59.8544 71.8699C58.8721 78.1765 57.5646 84.1483 56.6405 88.0489C56.4488 88.8394 55.7506 89.371 54.9771 89.371ZM63.0169 92.7366C62.8834 92.7366 62.7465 92.7194 62.6096 92.6848C61.6923 92.4639 61.1276 91.5284 61.3535 90.6033C61.9525 88.1111 62.6541 84.9975 63.3421 81.6111C63.5303 80.6791 64.4408 80.075 65.358 80.2684C66.2856 80.4582 66.8845 81.373 66.6929 82.3084C65.9946 85.7396 65.2861 88.8946 64.6769 91.418C64.4887 92.2085 63.787 92.7366 63.0169 92.7366ZM80.4897 93.0438C80.363 93.0438 80.2364 93.03 80.1097 92.999C79.1856 92.7884 78.6106 91.8633 78.8228 90.9347C80.9415 81.5835 83.4674 68.0935 83.4674 56.9335C83.4674 55.0419 82.9677 53.1951 81.9819 51.445C81.5165 50.6165 81.804 49.5603 82.6254 49.0908C83.4503 48.6179 84.4908 48.9113 84.9597 49.7398C86.2397 52.018 86.8901 54.4378 86.8901 56.9335C86.8901 68.4145 84.3162 82.1772 82.1565 91.701C81.9751 92.5019 81.27 93.0438 80.4897 93.0438ZM71.5257 94C71.3922 94 71.2587 93.9827 71.1252 93.9551C70.2045 93.7273 69.6398 92.7987 69.8623 91.8702C71.5325 84.8766 73.7025 74.4588 74.5479 64.5519C74.6232 63.6026 75.4686 62.9157 76.3961 62.9812C77.3374 63.0606 78.039 63.8994 77.9569 64.8487C77.0978 74.9731 74.8902 85.5705 73.1891 92.6779C72.9974 93.4719 72.2992 94 71.5257 94Z" fill="#4C7FF7"/>
<rect width="71" height="44" transform="translate(33 75)" fill="white" fill-opacity="0.7"/>
<rect x="33" y="75" width="71" height="4" rx="2" fill="#94B2FA"/>
<circle cx="122" cy="89" r="37" fill="#EAF1FF"/>
<path d="M106 78.8542V83.8014C106 84.8254 106.775 85.6556 107.731 85.6556C108.686 85.6556 109.461 84.8254 109.461 83.8014V78.8542C109.461 77.8301 108.686 77 107.731 77C106.775 77 106 77.8301 106 78.8542Z" fill="#4C7FF7"/>
<path d="M134.539 78.8542V83.8014C134.539 84.8254 135.314 85.6556 136.269 85.6556C137.225 85.6556 138 84.8254 138 83.8014V78.8542C138 77.8301 137.225 77 136.269 77C135.314 77 134.539 77.8301 134.539 78.8542Z" fill="#4C7FF7"/>
<path d="M109.615 103.835C112.99 106.985 117.079 108.575 121.787 108.575C126.496 108.575 130.585 106.985 133.96 103.835C134.696 103.148 134.735 101.995 134.049 101.26C133.363 100.524 132.21 100.485 131.474 101.171C128.778 103.688 125.579 104.932 121.787 104.932C117.995 104.932 114.797 103.688 112.101 101.171C111.365 100.485 110.212 100.524 109.526 101.26C108.84 101.995 108.879 103.148 109.615 103.835Z" fill="#4C7FF7"/>
<path d="M121.787 78.8216V91.5731C121.787 92.3891 121.389 92.7875 120.569 92.7875H119.359C118.353 92.7875 117.537 93.6031 117.537 94.6091C117.537 95.6152 118.353 96.4307 119.359 96.4307H120.569C123.4 96.4307 125.431 94.4022 125.431 91.5731V78.8216C125.431 77.8156 124.615 77 123.609 77C122.603 77 121.787 77.8156 121.787 78.8216Z" fill="#4C7FF7"/>
</svg>
