<svg width="97" height="96" viewBox="0 0 97 96" fill="none" xmlns="http://www.w3.org/2000/svg">
<rect x="1" y="0.5" width="95" height="95" rx="47.5" fill="white"/>
<rect x="1" y="0.5" width="95" height="95" rx="47.5" stroke="#EEEEEE"/>
<path d="M49.4998 43.418V53.1773H63.062C62.4664 56.3158 60.6793 58.9734 57.999 60.7602L66.1775 67.1061C70.9426 62.7077 73.6917 56.2473 73.6917 48.5728C73.6917 46.7859 73.5314 45.0675 73.2335 43.4182L49.4998 43.418Z" fill="#4285F4"/>
<path d="M35.3767 52.7969L33.5322 54.2089L27.0029 59.2946C31.1495 67.5189 39.6482 73.2004 49.499 73.2004C56.3029 73.2004 62.0072 70.9553 66.1768 67.1067L57.9982 60.7608C55.7531 62.2728 52.8894 63.1893 49.499 63.1893C42.947 63.1893 37.3803 58.7679 35.387 52.8114L35.3767 52.7969Z" fill="#34A853"/>
<path d="M27.0031 36.707C25.285 40.0974 24.3 43.9233 24.3 48.0011C24.3 52.0788 25.285 55.9047 27.0031 59.2951C27.0031 59.3179 35.388 52.7889 35.388 52.7889C34.884 51.2769 34.5861 49.6734 34.5861 48.0008C34.5861 46.3282 34.884 44.7247 35.388 43.2127L27.0031 36.707Z" fill="#FBBC05"/>
<path d="M49.4995 32.835C53.2109 32.835 56.5098 34.1178 59.1443 36.592L66.3606 29.3758C61.985 25.298 56.3037 22.8008 49.4995 22.8008C39.6487 22.8008 31.1495 28.4593 27.0029 36.7066L35.3876 43.2128C37.3806 37.2564 42.9476 32.835 49.4995 32.835Z" fill="#EA4335"/>
</svg>
