<svg width="24" height="24" viewBox="0 0 24 24" fill="none" xmlns="http://www.w3.org/2000/svg">
<path d="M15.347 8.05118C15.7066 7.84567 15.8316 7.38753 15.6261 7.0279C15.4206 6.66826 14.9624 6.54331 14.6028 6.74882L15.347 8.05118ZM8.98577 13.1319C8.63059 12.9188 8.16989 13.0339 7.95678 13.3891C7.74367 13.7443 7.85884 14.205 8.21403 14.4181L8.98577 13.1319ZM19.2249 6.125H18.4749C18.4749 6.88439 17.8593 7.5 17.0999 7.5V8.25V9C18.6877 9 19.9749 7.71282 19.9749 6.125H19.2249ZM17.0999 8.25V7.5C16.3405 7.5 15.7249 6.88439 15.7249 6.125H14.9749H14.2249C14.2249 7.71282 15.5121 9 17.0999 9V8.25ZM14.9749 6.125H15.7249C15.7249 5.36561 16.3405 4.75 17.0999 4.75V4V3.25C15.5121 3.25 14.2249 4.53718 14.2249 6.125H14.9749ZM17.0999 4V4.75C17.8593 4.75 18.4749 5.36561 18.4749 6.125H19.2249H19.9749C19.9749 4.53718 18.6877 3.25 17.0999 3.25V4ZM9.0249 12.075H8.2749C8.2749 12.8344 7.65929 13.45 6.8999 13.45V14.2V14.95C8.48772 14.95 9.7749 13.6628 9.7749 12.075H9.0249ZM6.8999 14.2V13.45C6.14051 13.45 5.5249 12.8344 5.5249 12.075H4.7749H4.0249C4.0249 13.6628 5.31208 14.95 6.8999 14.95V14.2ZM4.7749 12.075H5.5249C5.5249 11.3156 6.14051 10.7 6.8999 10.7V9.95V9.2C5.31208 9.2 4.0249 10.4872 4.0249 12.075H4.7749ZM6.8999 9.95V10.7C7.65929 10.7 8.2749 11.3156 8.2749 12.075H9.0249H9.7749C9.7749 10.4872 8.48772 9.2 6.8999 9.2V9.95ZM9.0249 10.8L9.39701 11.4512L15.347 8.05118L14.9749 7.4L14.6028 6.74882L8.6528 10.1488L9.0249 10.8ZM14.9749 17.6L15.3608 16.9569L8.98577 13.1319L8.5999 13.775L8.21403 14.4181L14.589 18.2431L14.9749 17.6ZM19.2249 18.875H18.4749C18.4749 19.6344 17.8593 20.25 17.0999 20.25V21V21.75C18.6877 21.75 19.9749 20.4628 19.9749 18.875H19.2249ZM17.0999 21V20.25C16.3405 20.25 15.7249 19.6344 15.7249 18.875H14.9749H14.2249C14.2249 20.4628 15.5121 21.75 17.0999 21.75V21ZM14.9749 18.875H15.7249C15.7249 18.1156 16.3405 17.5 17.0999 17.5V16.75V16C15.5121 16 14.2249 17.2872 14.2249 18.875H14.9749ZM17.0999 16.75V17.5C17.8593 17.5 18.4749 18.1156 18.4749 18.875H19.2249H19.9749C19.9749 17.2872 18.6877 16 17.0999 16V16.75Z" fill="#2B2B2B"/>
</svg>
