<svg width="80" height="80" viewBox="0 0 80 80" fill="none" xmlns="http://www.w3.org/2000/svg">
<rect width="80" height="80" rx="40" fill="#EEEEEE"/>
<path d="M35.0909 40H44.9091C48.381 40 51.7108 41.3696 54.1658 43.8076C56.6208 46.2456 58 49.5522 58 53V58.75C58 59.612 57.6552 60.4386 57.0414 61.048C56.4277 61.6575 55.5953 62 54.7273 62H25.2727C24.4047 62 23.5723 61.6575 22.9586 61.048C22.3448 60.4386 22 59.612 22 58.75V53C22 49.5522 23.3792 46.2456 25.8342 43.8076C28.2893 41.3696 31.619 40 35.0909 40Z" fill="white"/>
<circle cx="40" cy="28" r="9" fill="white"/>
</svg>
