<svg width="100" height="100" viewBox="0 0 100 100" fill="none" xmlns="http://www.w3.org/2000/svg">
<mask id="mask0_4483_1186" style="mask-type:alpha" maskUnits="userSpaceOnUse" x="0" y="0" width="100" height="100">
<rect width="100" height="100" rx="16" fill="#0054D1"/>
</mask>
<g mask="url(#mask0_4483_1186)">
<rect width="100" height="100" rx="16" fill="#EAF2FE"/>
<mask id="mask1_4483_1186" style="mask-type:luminance" maskUnits="userSpaceOnUse" x="0" y="36" width="100" height="65">
<path d="M100 36.25H0V100.25H100V36.25Z" fill="white"/>
</mask>
<g mask="url(#mask1_4483_1186)">
<path d="M16.4574 75.485C16.386 75.1279 12.5587 63.1579 11.9834 54.3403C11.802 51.5603 12.628 47.9435 8.75469 48.0001C4.55069 48.0614 3.55936 54.1164 3.67469 56.0627C3.98336 61.2908 6.23136 70.5668 10.7687 76.6351C12.4634 78.9007 16.9794 78.1051 16.4574 75.485Z" fill="#23417C"/>
</g>
<mask id="mask2_4483_1186" style="mask-type:luminance" maskUnits="userSpaceOnUse" x="2" y="50" width="88" height="51">
<path d="M14.9981 69.9497C8.70343 79.6382 3.93809 90.6161 2.24609 100.251H89.8761C89.9309 95.9437 89.7103 91.6378 89.2154 87.359C86.6001 64.7037 76.3421 56.5851 58.3028 52.3459L58.2841 52.3412L58.2661 52.3372C54.0002 51.2669 49.6257 50.689 45.2281 50.6147C33.6241 50.6147 24.2068 55.7742 14.9968 69.9497" fill="white"/>
</mask>
<g mask="url(#mask2_4483_1186)">
<path d="M65.5987 11.3526L-19.9912 64.3918L26.5995 139.501L112.189 86.4613L65.5987 11.3526Z" fill="url(#paint0_linear_4483_1186)"/>
</g>
<mask id="mask3_4483_1186" style="mask-type:luminance" maskUnits="userSpaceOnUse" x="0" y="36" width="100" height="65">
<path d="M100 36.25H0V100.25H100V36.25Z" fill="white"/>
</mask>
<g mask="url(#mask3_4483_1186)">
<path d="M18.28 71.4271C19.1514 68.7661 20.5392 66.3029 22.3638 64.1784C24.1885 62.054 26.4143 60.3099 28.914 59.046C32.502 57.2195 36.4287 56.7398 40.402 56.6798C45.8061 56.6823 51.1888 57.3587 56.4253 58.6935C61.7094 59.8264 66.8314 61.6137 71.6727 64.0141C75.206 65.8352 78.508 68.0121 80.9087 71.2412C82.5849 73.4845 83.8022 76.0362 84.4908 78.7502C85.1795 81.4642 85.326 84.2873 84.922 87.058C84.6585 89.3828 83.8997 91.6242 82.6967 93.6313C81.4681 95.6082 79.6836 97.1791 77.5663 98.1474C75.4491 99.1157 73.0932 99.4385 70.7933 99.0753C68.3157 98.7324 65.9339 97.8885 63.7933 96.5952C54.5405 90.9803 43.7424 88.4482 32.9567 89.3641C30.4643 89.5703 27.956 89.2672 25.5847 88.4732C23.363 87.7758 21.3965 86.4389 19.9313 84.6299C18.4661 82.8209 17.5673 80.6201 17.3473 78.303C17.1633 75.9707 17.4809 73.6261 18.28 71.4271Z" fill="white"/>
</g>
<mask id="mask4_4483_1186" style="mask-type:luminance" maskUnits="userSpaceOnUse" x="0" y="36" width="100" height="65">
<path d="M100 36.25H0V100.25H100V36.25Z" fill="white"/>
</mask>
<g mask="url(#mask4_4483_1186)">
<path d="M70.894 76.9177C74.5087 77.8079 75.9707 81.5633 75.3473 84.3859C75.1906 85.0842 74.8954 85.7439 74.4792 86.3261C74.0629 86.9083 73.5342 87.4012 72.9241 87.7757C72.314 88.1502 71.635 88.3986 70.9272 88.5062C70.2195 88.6139 69.4973 88.5787 68.8033 88.4026C64.5053 87.3724 62.7653 84.4106 63.5493 81.2828C63.9984 79.7643 65.0043 78.4712 66.366 77.6619C67.7276 76.8526 69.3447 76.5868 70.894 76.9177Z" fill="#23417C"/>
<path d="M67.9973 80.4659C68.1627 80.4926 68.3208 80.5537 68.4612 80.6451C68.6016 80.7366 68.7212 80.8564 68.8125 80.9969C68.9037 81.1374 68.9645 81.2954 68.991 81.4608C69.0174 81.6262 69.0089 81.7953 68.966 81.9572C68.8581 82.2546 68.6496 82.505 68.3765 82.6649C68.1034 82.8248 67.7829 82.8842 67.4706 82.8328C67.3075 82.8154 67.1504 82.7614 67.011 82.675C66.8716 82.5885 66.7535 82.4718 66.6655 82.3334C66.5775 82.195 66.5218 82.0386 66.5026 81.8757C66.4834 81.7129 66.5012 81.5478 66.5546 81.3928C66.5752 81.2307 66.6311 81.075 66.7183 80.9368C66.8055 80.7986 66.922 80.6812 67.0595 80.5928C67.1971 80.5045 67.3523 80.4473 67.5143 80.4254C67.6764 80.4035 67.8412 80.4173 67.9973 80.4659Z" fill="#F7FBFD"/>
<path d="M33.9453 68.2507C37.56 69.1409 39.022 72.8964 38.3987 75.719C38.2419 76.4172 37.9467 77.0769 37.5305 77.6591C37.1143 78.2413 36.5855 78.7342 35.9754 79.1087C35.3653 79.4832 34.6863 79.7316 33.9786 79.8393C33.2708 79.9469 32.5486 79.9117 31.8547 79.7356C27.5567 78.7055 25.8167 75.7436 26.6007 72.6158C27.0499 71.0974 28.0558 69.8044 29.4174 68.9951C30.7791 68.1859 32.3961 67.92 33.9453 68.2507Z" fill="#23417C"/>
<path d="M31.0513 71.7989C31.2168 71.8256 31.3748 71.8866 31.5152 71.9781C31.6556 72.0695 31.7752 72.1893 31.8665 72.3298C31.9578 72.4703 32.0186 72.6283 32.045 72.7937C32.0714 72.9591 32.0629 73.1282 32.02 73.2901C31.9122 73.5876 31.7036 73.8379 31.4305 73.9978C31.1574 74.1578 30.837 74.2171 30.5247 74.1657C30.3615 74.1483 30.2044 74.0944 30.065 74.0079C29.9256 73.9215 29.8075 73.8047 29.7195 73.6663C29.6315 73.528 29.5758 73.3715 29.5566 73.2087C29.5374 73.0459 29.5552 72.8808 29.6087 72.7258C29.6292 72.5636 29.6851 72.408 29.7723 72.2698C29.8596 72.1315 29.976 72.0141 30.1135 71.9257C30.2511 71.8372 30.4063 71.78 30.5683 71.758C30.7303 71.736 30.8952 71.7504 31.0513 71.7989Z" fill="#F7FBFD"/>
<path d="M57.502 53.2762L59.4507 53.6093C60.0063 51.4093 60.9742 49.3346 62.3033 47.4951C64.7407 43.9055 65.5873 42.9047 65.596 42.8974L64.0947 41.612C64.0593 41.6533 63.1973 42.6635 60.6673 46.3896C58.0493 50.2437 57.5233 53.1549 57.5027 53.2775" fill="#23417C"/>
</g>
<mask id="mask5_4483_1186" style="mask-type:luminance" maskUnits="userSpaceOnUse" x="52" y="50" width="10" height="5">
<path d="M52.428 51.9701C52.3046 52.5072 55.3413 53.3028 57.146 53.7692C58.7553 54.1844 61.59 54.9606 61.7406 54.3076C61.87 53.7473 62.1866 51.2685 57.9786 50.299C57.2599 50.1239 56.5237 50.0304 55.784 50.0204C53.3446 50.0204 52.584 51.3058 52.4273 51.9715" fill="white"/>
</mask>
<g mask="url(#mask5_4483_1186)">
<path d="M59.4101 46.2467L50.0826 52.0734L55.0802 60.0655L64.4076 54.2388L59.4101 46.2467Z" fill="url(#paint1_linear_4483_1186)"/>
</g>
<mask id="mask6_4483_1186" style="mask-type:luminance" maskUnits="userSpaceOnUse" x="0" y="36" width="100" height="65">
<path d="M100 36.25H0V100.25H100V36.25Z" fill="white"/>
</mask>
<g mask="url(#mask6_4483_1186)">
<path d="M65.7286 39.6457C66.4748 40.0806 67.0251 40.7855 67.2657 41.6147C67.5063 42.4438 67.4188 43.3336 67.0213 44.1001C66.21 45.6866 64.8373 46.2164 63.5626 45.536C61.4826 44.4253 60.522 42.4189 61.3486 40.9097C61.785 40.1861 62.4785 39.6538 63.2905 39.4191C64.1025 39.1844 64.9732 39.2646 65.7286 39.6437" fill="#23417C"/>
<path d="M88.9613 101.357C91.3613 101.308 95.6093 101.317 95.524 99.8682C95.4507 98.6268 95.2753 94.2603 89.0513 94.6275C82.8273 94.9946 81.5547 98.4383 81.664 100.291C81.734 101.481 86.2693 101.413 88.9613 101.357Z" fill="#23417C"/>
</g>
</g>
<mask id="mask7_4483_1186" style="mask-type:alpha" maskUnits="userSpaceOnUse" x="10" y="12" width="80" height="24">
<rect x="10" y="12" width="80" height="23.4146" fill="#D9D9D9"/>
</mask>
<g mask="url(#mask7_4483_1186)">
<path d="M16.7526 33.4634C16.2346 33.4805 15.7186 33.3924 15.2356 33.2046C14.7526 33.0168 14.3127 32.7332 13.9422 32.3707C13.5769 32.0106 13.2888 31.5798 13.0956 31.1046C12.9024 30.6294 12.808 30.1197 12.8184 29.6068C12.8028 29.0945 12.8932 28.5845 13.0839 28.1087C13.2746 27.6329 13.5615 27.2017 13.9266 26.842C14.297 26.4795 14.737 26.1958 15.22 26.008C15.703 25.8202 16.219 25.7322 16.737 25.7493H25.8909C26.4087 25.7323 26.9246 25.8203 27.4074 26.0081C27.8902 26.1959 28.33 26.4796 28.7003 26.842C29.0658 27.2014 29.353 27.6326 29.5438 28.1084C29.7347 28.5843 29.8252 29.0944 29.8094 29.6068C29.8251 30.1191 29.7347 30.6291 29.5438 31.1048C29.353 31.5804 29.0657 32.0114 28.7003 32.3707C28.33 32.7331 27.8902 33.0168 27.4074 33.2046C26.9246 33.3924 26.4087 33.4804 25.8909 33.4634H16.7526ZM24.6384 30.0722C24.7312 30.0891 24.827 30.0783 24.9137 30.0412C25.0004 30.004 25.0742 29.9422 25.1261 29.8634C25.1777 29.7842 25.2052 29.6917 25.2052 29.5971C25.2052 29.5025 25.1777 29.41 25.1261 29.3307C25.074 29.2522 25.0001 29.1907 24.9134 29.1537C24.8267 29.1168 24.7311 29.1061 24.6384 29.1229H17.9904C17.8978 29.1069 17.8024 29.1179 17.7159 29.1548C17.6294 29.1916 17.5553 29.2528 17.5027 29.3307C17.4511 29.41 17.4236 29.5025 17.4236 29.5971C17.4236 29.6917 17.4511 29.7842 17.5027 29.8634C17.5552 29.9416 17.6292 30.0029 17.7157 30.0399C17.8023 30.077 17.8977 30.0882 17.9904 30.0722H24.6384ZM64.1114 33.4478V14.4498H68.7995V33.4478H64.1114ZM38.1761 33.4478V28.7698H31.5585V25.0254H49.5074V28.7707H42.8741V33.4478H38.1761ZM51.2633 32.7083V28.9473H63.3593V32.7083H51.2633ZM51.5208 21.9883V20.3483C51.5208 16.5447 53.3355 14.6429 56.965 14.6429C57.714 14.586 58.4668 14.6836 59.1766 14.9297C59.8864 15.1757 60.5381 15.5649 61.0913 16.0732V16.0888C62.0923 17.2726 62.5884 18.8023 62.4726 20.3483V22.0068C62.5886 23.5529 62.0925 25.0827 61.0913 26.2664C60.5381 26.7746 59.8864 27.1639 59.1766 27.4099C58.4668 27.6559 57.714 27.7535 56.965 27.6966C53.3355 27.6946 51.5208 25.7919 51.5208 21.9883ZM56.0334 19.3542V23.0029C56.0141 23.1305 56.0247 23.2609 56.0645 23.3837C56.1042 23.5065 56.1721 23.6183 56.2626 23.7103C56.353 23.8023 56.4638 23.872 56.5858 23.9138C56.7079 23.9556 56.8381 23.9684 56.9659 23.9512C57.0938 23.9683 57.2238 23.9553 57.3457 23.9134C57.4677 23.8716 57.5782 23.8019 57.6686 23.7099C57.759 23.6179 57.8267 23.5061 57.8665 23.3834C57.9062 23.2607 57.9168 23.1305 57.8975 23.0029V19.3542C57.9168 19.2266 57.9062 19.0964 57.8665 18.9737C57.8267 18.851 57.759 18.7392 57.6686 18.6472C57.5782 18.5552 57.4677 18.4855 57.3457 18.4437C57.2238 18.4018 57.0938 18.3888 56.9659 18.4059C56.8382 18.3886 56.7081 18.4012 56.5861 18.4429C56.464 18.4845 56.3534 18.554 56.2628 18.6458C56.1722 18.7376 56.1043 18.8492 56.0643 18.9718C56.0243 19.0944 56.0134 19.2247 56.0324 19.3522L56.0334 19.3542ZM12.7062 24.9473L11.9512 21.4576C12.7141 21.4961 13.4641 21.2495 14.0553 20.7659C14.6404 20.1895 15.0234 19.4393 15.1469 18.6273H12.3044V15.2039H15.3235V13.9512H20.0126V15.2049H23.0483V18.6283H20.1736C20.2963 19.4406 20.6793 20.191 21.2651 20.7668C21.856 21.2506 22.6057 21.4972 23.3683 21.4585L22.6133 24.9464C21.6914 24.949 20.7788 24.7628 19.9317 24.399C19.0818 24.0408 18.312 23.5164 17.6676 22.8566C17.021 23.5262 16.2451 24.0573 15.3869 24.4176C14.5464 24.7678 13.645 24.9482 12.7345 24.9483L12.7062 24.9473ZM25.0881 24.9473V21.3307H23.5468V17.8264H25.0881V14.4507H29.7772V24.9454L25.0881 24.9473ZM44.3373 23.1444V18.4517H32.0521V14.6907H49.0196L48.7631 23.1444H44.3373Z" fill="#0066FF"/>
<path d="M76.0269 23.1327C75.3755 23.7921 74.6005 24.3166 73.7462 24.6761C72.8915 25.0323 71.9739 25.2128 71.0481 25.2068L70.053 21.4576C70.5355 21.4654 71.014 21.3705 71.457 21.1793C71.9 20.988 72.2973 20.7048 72.6225 20.3483C73.383 19.4198 73.7568 18.234 73.6662 17.0371V14.7073H78.3398V17.0215C78.2493 18.2184 78.623 19.4042 79.3836 20.3327C79.7089 20.6891 80.1064 20.9723 80.5496 21.1634C80.9927 21.3544 81.4714 21.4491 81.954 21.441L80.9785 25.202C80.0526 25.2083 79.1349 25.0278 78.2803 24.6712C77.4355 24.3143 76.6721 23.7891 76.0367 23.1278M75.7635 26.3259V29.7015H88.0488V33.4468H71.049V26.3249L75.7635 26.3259ZM83.3333 14.4498H88.0225V26.8254H83.3333V14.4498Z" fill="#FF9200"/>
</g>
<defs>
<linearGradient id="paint0_linear_4483_1186" x1="112.143" y1="86.3862" x2="65.5198" y2="11.2975" gradientUnits="userSpaceOnUse">
<stop stop-color="#2C78E7"/>
<stop offset="1" stop-color="#52AFE7"/>
</linearGradient>
<linearGradient id="paint1_linear_4483_1186" x1="55.0709" y1="60.0713" x2="50.0775" y2="52.0322" gradientUnits="userSpaceOnUse">
<stop stop-color="#FF9800"/>
<stop offset="0.15" stop-color="#FF9800"/>
<stop offset="1" stop-color="#FFC107"/>
</linearGradient>
</defs>
</svg>
