<svg width="32" height="32" viewBox="0 0 32 32" fill="none" xmlns="http://www.w3.org/2000/svg">
<path d="M23.7911 10.5734C26.077 12.6345 27.4886 15.5925 27.4265 18.868C27.3114 24.9367 22.1009 29.8029 15.8266 29.7128C9.59468 29.6232 4.57129 24.7098 4.57129 18.6604C4.57129 16.7715 5.06091 14.9931 5.92496 13.438C6.06167 13.1919 6.41036 13.1509 6.60549 13.3569C7.17625 13.9597 8.32773 14.9879 9.59001 15.0509C9.59001 15.0509 8.12372 5.16054 17.9284 1.17601C18.2937 1.02761 18.6514 1.40153 18.4669 1.74063C17.8027 2.96191 16.9352 5.12544 17.6959 7.13227C18.6184 9.56602 21.4094 9.33155 21.4723 14.1787C21.4723 14.1787 22.6139 12.9548 23.0908 10.7877C23.159 10.4775 23.5512 10.3572 23.7911 10.5734Z" fill="#EA433F"/>
<path d="M21.6381 24.2628C21.6381 25.7686 21.0068 27.1311 19.9868 28.1178C18.9669 29.1044 17.5571 29.7138 16.0005 29.7138C12.8882 29.7138 10.365 27.2744 10.3639 24.2639C10.3639 24.2628 10.3639 24.2628 10.3639 24.2618C10.3505 23.2106 10.5672 21.982 11.1598 20.5694C11.2415 20.3745 11.4613 20.2699 11.6699 20.3289L13.6141 20.8786C13.6795 17.5478 16.1683 15.8846 17.2963 15.3007C17.5545 15.167 17.8702 15.3219 17.9124 15.6023C18.0968 16.8243 18.4721 18.0028 19.1549 19.082C19.7261 19.9836 20.2662 20.7558 20.8908 21.6207C21.4322 22.3714 21.6427 23.3624 21.6381 24.2628Z" fill="#FFE177"/>
</svg>
