<svg width="32" height="32" viewBox="0 0 32 32" fill="none" xmlns="http://www.w3.org/2000/svg">
<path d="M29.714 22.7903V23.2373H20.0868C19.4834 23.2373 18.9074 23.0417 18.4411 22.6786L3.5752 11.3234L8.27908 3.82316C9.41733 2.11919 10.967 2.17506 11.0219 2.39853C11.5293 4.21423 12.2698 9.00491 18.6468 7.97135C18.9485 7.91548 19.2639 8.06912 19.3874 8.36242L22.6787 15.8348C22.7884 16.0862 23.0353 16.2538 23.2958 16.2538C26.8478 16.2538 29.714 19.1729 29.714 22.7903Z" fill="#FFC8EA"/>
<path d="M29.7142 23.2393V25.3344C29.7142 26.4936 28.7954 27.4294 27.6571 27.4294H18.7156C18.1259 27.4294 17.5499 27.2339 17.0699 26.8707L3.38343 16.4095C2.23146 15.5435 1.94347 13.9094 2.72517 12.6803L3.57543 11.3255L18.4413 22.6806C18.9076 23.0438 19.4836 23.2393 20.087 23.2393H29.7142ZM20.1007 9.9707H16.0003C15.438 9.9707 14.9717 10.4456 14.9717 11.0182C14.9717 11.5909 15.438 12.0657 16.0003 12.0657H21.0196L20.1007 9.9707ZM21.6367 13.4624H17.3717C16.8094 13.4624 16.3431 13.9373 16.3431 14.51C16.3431 15.0826 16.8094 15.5575 17.3717 15.5575H22.5555L21.6367 13.4624Z" fill="#FF8CD2"/>
</svg>
