<svg width="32" height="32" viewBox="0 0 32 32" fill="none" xmlns="http://www.w3.org/2000/svg">
<path d="M3.15824 19.608L25.95 19.608V5.17188L3.15824 5.17188C2.79267 5.17171 2.46616 5.39513 2.34166 5.73067C2.21715 6.0662 2.32133 6.44192 2.6022 6.67034L8.83401 11.7389C9.03092 11.8999 9.14468 12.1377 9.14468 12.3885C9.14468 12.6392 9.03092 12.8771 8.83401 13.0381L2.6022 18.1066C2.31891 18.3345 2.21309 18.7117 2.33789 19.0487C2.4627 19.3857 2.79116 19.6096 3.15824 19.608Z" fill="#FFD32C"/>
<path d="M25.9495 29.7137C25.1328 29.7137 24.4707 29.0674 24.4707 28.2701V3.72877C24.4707 2.93148 25.1328 2.28516 25.9495 2.28516C26.7663 2.28516 27.4284 2.93148 27.4284 3.72877V28.2701C27.4284 29.0674 26.7663 29.7137 25.9495 29.7137Z" fill="#FD9246"/>
</svg>
