<svg width="28" height="28" viewBox="0 0 28 28" fill="none" xmlns="http://www.w3.org/2000/svg">
<path d="M13.3574 2.24969C13.7229 1.91677 14.2771 1.91677 14.6426 2.24969L17.1411 4.52554C17.3259 4.69388 17.5677 4.78316 17.816 4.77468L21.1724 4.66003C21.6634 4.64326 22.0879 5.00451 22.1568 5.4978L22.6284 8.86995C22.6632 9.11938 22.7919 9.34545 22.9875 9.50079L25.6313 11.601C26.018 11.9082 26.1143 12.4617 25.8544 12.8845L24.0784 15.7751C23.947 15.9889 23.9023 16.246 23.9536 16.4925L24.6478 19.8248C24.7493 20.3123 24.4723 20.799 24.0052 20.9536L20.8126 22.01C20.5764 22.0882 20.3793 22.256 20.2624 22.4783L18.6821 25.4835C18.4509 25.9231 17.9302 26.1153 17.4744 25.9293L14.3591 24.6573C14.1287 24.5632 13.8713 24.5632 13.6409 24.6573L10.5256 25.9293C10.0698 26.1153 9.5491 25.9231 9.31793 25.4835L7.73763 22.4783C7.62074 22.256 7.42357 22.0882 7.18742 22.01L3.99478 20.9536C3.52775 20.799 3.25067 20.3123 3.35221 19.8248L4.04637 16.4925C4.09772 16.246 4.05302 15.9889 3.92165 15.7751L2.14555 12.8845C1.88573 12.4617 1.98196 11.9082 2.36871 11.601L5.01252 9.50079C5.20808 9.34545 5.33677 9.11938 5.37165 8.86995L5.84315 5.4978C5.91213 5.00451 6.33663 4.64326 6.82762 4.66003L10.184 4.77468C10.4323 4.78316 10.6741 4.69388 10.859 4.52554L13.3574 2.24969Z" fill="#FF9C20"/>
<path d="M21.5014 14.5144C21.5014 18.6569 18.1432 22.0151 14.0007 22.0151C9.85817 22.0151 6.5 18.6569 6.5 14.5144C6.5 10.3718 9.85817 7.01367 14.0007 7.01367C18.1432 7.01367 21.5014 10.3718 21.5014 14.5144Z" fill="#F9D171"/>
</svg>
