<svg width="28" height="28" viewBox="0 0 28 28" fill="none" xmlns="http://www.w3.org/2000/svg">
<path d="M13.3417 2.25576C13.7161 1.91475 14.2839 1.91475 14.6583 2.25576L16.8576 4.2588C17.0469 4.43123 17.2947 4.52268 17.549 4.51399L20.5035 4.41309C21.0065 4.39591 21.4414 4.76595 21.5121 5.27124L21.9271 8.23916C21.9629 8.49466 22.0947 8.72622 22.295 8.88534L24.6223 10.7338C25.0185 11.0485 25.1171 11.6154 24.8509 12.0485L23.2875 14.5926C23.1529 14.8116 23.1071 15.075 23.1597 15.3274L23.7707 18.2603C23.8748 18.7596 23.5909 19.2582 23.1124 19.4165L20.3021 20.3463C20.0602 20.4264 19.8582 20.5983 19.7384 20.826L18.3474 23.4709C18.1105 23.9213 17.5771 24.1181 17.1102 23.9276L14.3679 22.8081C14.1318 22.7117 13.8682 22.7117 13.6321 22.8081L10.8898 23.9276C10.4229 24.1181 9.88947 23.9213 9.65264 23.4709L8.26157 20.826C8.14182 20.5983 7.93983 20.4264 7.6979 20.3463L4.88756 19.4165C4.4091 19.2582 4.12524 18.7596 4.22927 18.2603L4.84031 15.3274C4.89291 15.075 4.84712 14.8116 4.71253 14.5926L3.14911 12.0485C2.88294 11.6154 2.98152 11.0485 3.37773 10.7338L5.70496 8.88534C5.9053 8.72622 6.03715 8.49466 6.07288 8.23916L6.48792 5.27124C6.55858 4.76595 6.99347 4.39591 7.49648 4.41309L10.451 4.51399C10.7053 4.52268 10.9531 4.43123 11.1424 4.2588L13.3417 2.25576Z" fill="#FF9C20"/>
<path d="M21 13C21 16.866 17.866 20 14 20C10.134 20 7 16.866 7 13C7 9.13401 10.134 6 14 6C17.866 6 21 9.13401 21 13Z" fill="#F9D171"/>
<path d="M17.3671 12.2334L2.03955 20.3582C0.234925 21.3148 0.928167 24 2.97976 24H24.02C25.6126 24 26.5513 22.2483 25.6475 20.9629L19.9347 12.8382C19.3619 12.0235 18.2549 11.7628 17.3671 12.2334Z" fill="#1DA768"/>
</svg>
