<svg width="28" height="28" viewBox="0 0 28 28" fill="none" xmlns="http://www.w3.org/2000/svg">
<path d="M9.18133 2.27605C9.18133 2.27605 16.0766 2.62973 15.4661 9.68116C15.4661 9.68116 10.0504 11.0948 9.18133 2.27605Z" fill="#1A8A57"/>
<path d="M18.4775 7.63776C16.0742 7.72536 14.7102 9.2139 14.0011 9.2139C13.2919 9.2139 11.9279 7.72536 9.52461 7.63776C7.12134 7.55017 3 9.36842 3 14.9576C3 20.5468 7.4772 25.0009 9.76934 25.0009C12.0615 25.0009 12.8597 24.3466 14 24.3466C15.1403 24.3466 15.9374 25.0009 18.2307 25.0009C20.5239 25.0009 25 20.5465 25 14.9576C25 9.36873 20.8808 7.55017 18.4775 7.63776Z" fill="#E21B1B"/>
</svg>
