<svg width="28" height="28" viewBox="0 0 28 28" fill="none" xmlns="http://www.w3.org/2000/svg">
<g clip-path="url(#clip0_4912_12605)">
<path d="M16.3551 13.445L16.448 13.424C17.0794 13.2809 17.6738 13.0067 18.1925 12.6193C18.7113 12.232 19.143 11.7399 19.4595 11.1751C19.7761 10.6103 19.9705 9.98534 20.0302 9.34064C20.0899 8.69593 20.0135 8.04587 19.806 7.43254C19.6321 6.92638 19.5918 6.3839 19.6889 5.85758C19.786 5.33126 20.0172 4.8389 20.3603 4.42811C20.7033 4.01732 21.1466 3.702 21.6472 3.51265C22.1478 3.3233 22.6887 3.26632 23.2178 3.34722C23.9675 3.4626 24.4939 3.5428 24.4939 3.5428C24.4205 4.68027 24.578 5.82082 24.9568 6.89586C25.3356 7.9709 25.928 8.95822 26.6982 9.79843L27.3809 10.5433C25.6346 12.66 24.7551 15.3596 24.9196 18.0987L24.9318 18.3006C24.1627 18.2096 23.383 18.2998 22.655 18.5639C21.9271 18.8281 21.271 19.2589 20.7392 19.822L18.8699 21.8004L16.3551 13.445Z" fill="#494D56"/>
<path d="M12.891 15.4452L12.8264 15.5151C12.3867 15.9904 11.8521 16.368 11.2572 16.6236C10.6624 16.8792 10.0204 17.007 9.37303 16.9988C8.72562 16.9905 8.08716 16.8464 7.49898 16.5757C6.9108 16.3051 6.38602 15.9139 5.95861 15.4275C5.6072 15.0239 5.15759 14.7177 4.65323 14.5386C4.14887 14.3595 3.60685 14.3136 3.07956 14.4053C2.55228 14.497 2.05758 14.7232 1.6433 15.0621C1.22903 15.4009 0.909197 15.8409 0.714735 16.3396C0.439809 17.0465 0.246064 17.5425 0.246064 17.5425C1.26782 18.0477 2.17683 18.7543 2.91844 19.6199C3.66004 20.4855 4.21891 21.4921 4.56144 22.5793L4.86522 23.5429C7.5714 23.089 10.3491 23.6771 12.639 25.1891L12.8077 25.3006C13.1135 24.5891 13.5814 23.9589 14.1742 23.4606C14.7669 22.9622 15.4681 22.6094 16.2215 22.4304L18.8696 21.8008L12.891 15.4452Z" fill="#494D56"/>
<path d="M13.6671 13.1599C12.7012 13.8002 12.0222 14.7911 11.7738 15.923C11.5254 17.055 11.7272 18.2391 12.3363 19.225C14.031 21.954 17.881 23.9145 19.7577 24.7453C19.8839 24.8011 20.0215 24.8261 20.1592 24.8184C20.2969 24.8107 20.4309 24.7704 20.55 24.7009C20.6692 24.6314 20.7701 24.5347 20.8446 24.4186C20.9191 24.3025 20.965 24.1704 20.9786 24.0331C21.202 21.943 21.432 17.4869 19.8026 14.6648C19.5075 14.1537 19.1121 13.7075 18.64 13.3532C18.168 12.9989 17.6292 12.7438 17.0559 12.6032C16.4827 12.4626 15.887 12.4394 15.3046 12.5351C14.7222 12.6308 14.1652 12.8433 13.6671 13.1599Z" fill="#63666E"/>
<path d="M12.7213 3.64228C12.5384 3.68488 12.3741 3.78525 12.2527 3.92854C12.1314 4.07182 12.0594 4.25039 12.0474 4.4378L11.957 5.83974C11.9316 6.23317 11.8095 6.61426 11.6015 6.94917C11.3935 7.28408 11.106 7.56246 10.7646 7.75958C10.4232 7.9567 10.0383 8.06648 9.64429 8.07916C9.25025 8.09184 8.85917 8.00704 8.50576 7.83228L7.2461 7.20984C7.07777 7.12663 6.88714 7.09978 6.70237 7.13326C6.5176 7.16673 6.34851 7.25877 6.22007 7.39575C6.09164 7.53274 6.01069 7.70741 5.98917 7.89395C5.96766 8.08049 6.00673 8.269 6.1006 8.43163L8.72552 12.9781C9.30567 13.983 10.2612 14.7162 11.382 15.0165C12.5027 15.3168 13.6968 15.1596 14.7016 14.5795C15.7065 13.9993 16.4397 13.0438 16.74 11.923C17.0403 10.8023 16.883 9.60816 16.3029 8.60333L13.678 4.05683C13.5841 3.89424 13.4404 3.76615 13.2681 3.6915C13.0959 3.61685 12.9041 3.59959 12.7213 3.64228Z" fill="#7D8086"/>
<path d="M11.0263 12.1542C11.4448 11.9126 11.5881 11.3775 11.3465 10.959C11.1049 10.5405 10.5698 10.3971 10.1513 10.6387C9.73281 10.8803 9.58942 11.4154 9.83104 11.8339C10.0727 12.2524 10.6078 12.3958 11.0263 12.1542Z" fill="#494D56"/>
<path d="M14.4364 10.1854C14.8549 9.94383 14.9983 9.4087 14.7567 8.99021C14.5151 8.57172 13.9799 8.42833 13.5614 8.66994C13.143 8.91156 12.9996 9.44668 13.2412 9.86517C13.4828 10.2837 14.0179 10.4271 14.4364 10.1854Z" fill="#494D56"/>
</g>
<defs>
<clipPath id="clip0_4912_12605">
<rect width="28" height="28" fill="white"/>
</clipPath>
</defs>
</svg>
