<svg width="24" height="24" viewBox="0 0 24 24" fill="none" xmlns="http://www.w3.org/2000/svg">
<path fill-rule="evenodd" clip-rule="evenodd" d="M16.2415 6.84069C16.3488 6.77822 16.4739 6.75301 16.5971 6.769C16.7203 6.78498 16.8347 6.84127 16.9226 6.92909C17.0105 7.01691 17.0669 7.13133 17.0829 7.25452C17.099 7.37771 17.0739 7.50276 17.0115 7.61018L13.1491 14.2667C12.9519 14.6147 12.6757 14.9115 12.3427 15.1332C12.0098 15.3549 11.6294 15.4952 11.2323 15.543C11.1142 15.5584 10.9953 15.5662 10.8762 15.5664C10.537 15.567 10.2011 15.4999 9.88815 15.3688C9.57526 15.2378 9.29169 15.0456 9.05411 14.8035L9.05134 14.8006C8.76879 14.5184 8.5549 14.1749 8.42618 13.7969C8.29746 13.4188 8.25735 13.0162 8.30896 12.6201C8.36057 12.2241 8.50251 11.8452 8.72382 11.5128C8.94513 11.1803 9.23989 10.9032 9.58533 10.7027L16.2415 6.84069Z" fill="#3B667A"/>
<path fill-rule="evenodd" clip-rule="evenodd" d="M23.4376 12.1552H21.0067C20.864 12.1553 20.7266 12.2096 20.6224 12.3071C20.5181 12.4045 20.4547 12.5379 20.445 12.6803C20.1424 17.15 16.3921 20.6512 11.9073 20.6512C7.18853 20.6512 3.34956 16.8122 3.34956 12.0934C3.34956 7.63699 6.6916 3.97296 11.1235 3.57086C11.2634 3.55823 11.3936 3.49368 11.4884 3.38991C11.5832 3.28614 11.6357 3.15066 11.6356 3.01012V0.578062C11.6357 0.500262 11.6196 0.423299 11.5884 0.352028C11.5572 0.280757 11.5115 0.216725 11.4544 0.163972C11.3972 0.111219 11.3297 0.0708892 11.2561 0.0455272C11.1826 0.0201653 11.1046 0.0103215 11.027 0.0166168C8.73364 0.205279 6.54269 1.04874 4.71482 2.44666C2.88695 3.84458 1.49909 5.73812 0.716319 7.90205C-0.0664504 10.066 -0.211178 12.4092 0.299352 14.653C0.809882 16.8968 1.95418 18.9468 3.59613 20.559C5.23809 22.1713 7.30858 23.2779 9.56133 23.7474C11.8141 24.2168 14.1543 24.0293 16.3035 23.2071C18.4528 22.385 20.3206 20.9627 21.6849 19.1096C23.0492 17.2565 23.8525 15.0505 23.9992 12.754C24.004 12.6773 23.9931 12.6003 23.967 12.528C23.941 12.4556 23.9004 12.3894 23.8478 12.3333C23.7952 12.2772 23.7316 12.2325 23.6611 12.2019C23.5905 12.1713 23.5145 12.1553 23.4376 12.1552Z" fill="#82BB3F"/>
<path fill-rule="evenodd" clip-rule="evenodd" d="M17.6571 5.57677C17.5278 5.57685 17.4025 5.53224 17.3024 5.45051C15.9869 4.37783 14.3806 3.72324 12.6901 3.57094C12.5502 3.5583 12.42 3.49376 12.3252 3.39001C12.2303 3.28626 12.1778 3.1508 12.1777 3.01024V0.562707C12.1778 0.485804 12.1936 0.409726 12.2242 0.339163C12.2547 0.2686 12.2994 0.20505 12.3555 0.152431C12.4116 0.0998121 12.4779 0.0592398 12.5502 0.0332164C12.6226 0.00719299 12.6995 -0.00372985 12.7763 0.00112148C15.3555 0.157954 17.8137 1.14996 19.7793 2.82726C19.8386 2.87761 19.8868 2.9397 19.9209 3.00961C19.955 3.07951 19.9742 3.15573 19.9774 3.23344C19.9805 3.31116 19.9676 3.38868 19.9393 3.46114C19.911 3.53359 19.868 3.5994 19.813 3.65441L18.0555 5.41213C18.0032 5.46444 17.9411 5.50591 17.8727 5.53416C17.8043 5.56241 17.7311 5.57689 17.6571 5.57677Z" fill="#FFC107"/>
<path fill-rule="evenodd" clip-rule="evenodd" d="M20.4093 11.1137C20.2181 9.42702 19.5266 7.83616 18.4236 6.54587C18.3317 6.43822 18.2839 6.29988 18.2895 6.15846C18.2952 6.01705 18.3539 5.88297 18.4541 5.783L20.2085 4.02819C20.2629 3.97375 20.3279 3.93105 20.3995 3.9027C20.4711 3.87436 20.5477 3.86099 20.6246 3.86341C20.7016 3.86582 20.7772 3.88398 20.8468 3.91676C20.9165 3.94954 20.9787 3.99625 21.0296 4.054C22.7426 5.98862 23.7795 8.4282 23.9836 11.0042C23.9898 11.0817 23.9799 11.1597 23.9545 11.2332C23.9291 11.3068 23.8887 11.3742 23.836 11.4314C23.7832 11.4886 23.7192 11.5342 23.648 11.5654C23.5767 11.5966 23.4998 11.6127 23.422 11.6128H20.969C20.8307 11.6129 20.6972 11.562 20.594 11.47C20.4907 11.3779 20.425 11.2511 20.4093 11.1137Z" fill="#F44336"/>
</svg>
