<svg width="28" height="28" viewBox="0 0 28 28" fill="none" xmlns="http://www.w3.org/2000/svg">
<path d="M22.8209 15.1527H22.8203C27.9984 9.01491 19.9135 1.85187 14.4009 6.52573C14.1578 6.73181 13.8021 6.73622 13.5559 6.53389C7.61201 1.64991 0.138086 9.49597 5.14398 15.1527C5.24104 15.253 11.6943 21.9227 13.5119 23.8012C13.7683 24.0662 14.196 24.0663 14.4524 23.8013C16.2582 21.935 22.5994 15.3815 22.8209 15.1527Z" fill="#FF4A4A"/>
<path d="M15.5399 19.3992C15.2317 19.3992 14.9591 19.2008 14.8678 18.9093L13.4723 14.4541H11.7226C11.4174 14.4541 11.147 14.2596 11.0531 13.9724L10.2025 11.3707L9.25936 14.1144C9.16239 14.3965 8.89449 14.5862 8.59314 14.5862H2.70365C2.31505 14.5862 2 14.2747 2 13.8905C2 13.5062 2.31505 13.1947 2.70365 13.1947H8.08914L9.55306 8.93613C9.65068 8.65216 9.92032 8.46004 10.2245 8.4643C10.5278 8.46653 10.7955 8.6607 10.8888 8.94601L12.2347 13.0626H13.9911C14.2995 13.0626 14.572 13.2612 14.6632 13.5525L15.5188 16.2843L17.5701 9.3117C17.6585 9.01146 17.9376 8.80769 18.2548 8.81033C18.571 8.81432 18.8457 9.02639 18.9262 9.32873L20.0685 13.6143H25.2963C25.6849 13.6143 26 13.9259 26 14.3101C26 14.6944 25.6849 15.0059 25.2963 15.0059H19.5263C19.2067 15.0059 18.9273 14.793 18.8459 14.4874L18.2124 12.1107L16.2156 18.8978C16.1288 19.1928 15.8567 19.3965 15.546 19.3992C15.544 19.3992 15.5419 19.3992 15.5399 19.3992Z" fill="#FFF5F5"/>
<path d="M14.8689 18.9089C14.9602 19.2005 15.2329 19.3989 15.541 19.3988H15.5471C15.8578 19.3962 16.1299 19.1924 16.2167 18.8974L18.2135 12.1103L18.8469 14.4871C18.9284 14.7926 19.2078 15.0055 19.5274 15.0055H25.2974C25.686 15.0055 26.0011 14.694 26.0011 14.3097C26.0011 13.9255 25.686 13.614 25.2974 13.614H20.0696L18.9273 9.32836C18.8468 9.02598 18.5721 8.81395 18.2559 8.80996C17.9388 8.80732 17.6596 9.01109 17.5713 9.31133L15.5199 16.2839L14.6643 13.5521C14.5731 13.2608 14.3006 13.0622 13.9922 13.0622V16.1098L14.8689 18.9089Z" fill="#F4F1F1"/>
</svg>
