<svg width="28" height="28" viewBox="0 0 28 28" fill="none" xmlns="http://www.w3.org/2000/svg">
<path d="M12.4387 1.54977C13.3505 0.816742 14.6495 0.816743 15.5613 1.54977L17.691 3.26189C18.0618 3.55995 18.5101 3.74566 18.9831 3.79707L21.6996 4.09235C22.8627 4.21877 23.7812 5.13729 23.9077 6.30037L24.2029 9.01695C24.2543 9.48988 24.44 9.93822 24.7381 10.309L26.4502 12.4387C27.1833 13.3505 27.1833 14.6495 26.4502 15.5613L24.7381 17.691C24.44 18.0618 24.2543 18.5101 24.2029 18.9831L23.9077 21.6996C23.7812 22.8627 22.8627 23.7812 21.6996 23.9077L18.9831 24.2029C18.5101 24.2543 18.0618 24.44 17.691 24.7381L15.5613 26.4502C14.6495 27.1833 13.3505 27.1833 12.4387 26.4502L10.309 24.7381C9.93822 24.44 9.48988 24.2543 9.01695 24.2029L6.30037 23.9077C5.13729 23.7812 4.21877 22.8627 4.09235 21.6996L3.79707 18.9831C3.74566 18.5101 3.55995 18.0618 3.26189 17.691L1.54977 15.5613C0.816742 14.6495 0.816743 13.3505 1.54977 12.4387L3.26189 10.309C3.55995 9.93822 3.74566 9.48988 3.79707 9.01695L4.09235 6.30037C4.21877 5.13729 5.13729 4.21877 6.30037 4.09235L9.01695 3.79707C9.48988 3.74566 9.93822 3.55995 10.309 3.26189L12.4387 1.54977Z" fill="#FBC700"/>
<circle cx="13.999" cy="13.9997" r="8.72162" fill="#FFE582"/>
<path d="M15.2278 9.77712L15.6619 10.654C15.8894 11.1136 16.3293 11.4323 16.8381 11.506L17.8089 11.6466C18.9324 11.8093 19.381 13.1857 18.568 13.9757L17.8656 14.6583C17.4974 15.0161 17.3294 15.5316 17.4163 16.0368L17.5821 17.0006C17.774 18.1162 16.5995 18.9669 15.5946 18.4402L14.7264 17.9852C14.2713 17.7466 13.7275 17.7466 13.2725 17.9852L12.4043 18.4402C11.3993 18.9669 10.2249 18.1162 10.4167 17.0006L10.5825 16.0368C10.6694 15.5316 10.5014 15.0161 10.1332 14.6583L9.43079 13.9757C8.61779 13.1857 9.0664 11.8093 10.19 11.6466L11.1607 11.506C11.6695 11.4323 12.1094 11.1137 12.337 10.654L12.7711 9.77712C13.2736 8.76212 14.7253 8.76212 15.2278 9.77712Z" fill="#FF5E00"/>
</svg>
