<svg width="20" height="20" viewBox="0 0 20 20" fill="none" xmlns="http://www.w3.org/2000/svg">
<path d="M15.2435 18.5714H4.75702C3.70791 18.5714 2.85742 17.6987 2.85742 16.6222V3.37781C2.85745 2.30129 3.70791 1.42857 4.75702 1.42857H15.2435C16.2926 1.42857 17.1431 2.30129 17.1431 3.37781V16.6222C17.1431 17.6987 16.2926 18.5714 15.2435 18.5714Z" fill="#9DC6FB"/>
<path d="M7.18392 18.5714H4.75696C3.70785 18.5714 2.85742 17.6987 2.85742 16.6222V3.37774C2.85742 2.30122 3.70788 1.42857 4.75696 1.42857H7.18392C6.13448 1.42857 5.28402 2.30125 5.28402 3.37774V16.6222C5.28402 17.6987 6.13448 18.5714 7.18392 18.5714Z" fill="#80B4FB"/>
<path d="M7.881 6.55383L7.26107 6.12974C7.02336 5.96712 6.7137 5.96712 6.476 6.12974L5.85607 6.55383C5.38578 6.87553 4.75586 6.52962 4.75586 5.94964V1.42857H8.9812V5.94961C8.98117 6.52959 8.35126 6.87553 7.881 6.55383Z" fill="#DD5790"/>
<path d="M5.80865 6.58349C5.34476 6.85252 4.75586 6.51037 4.75586 5.94951V1.42857H5.44562V5.94954C5.44562 6.23478 5.59787 6.46346 5.80865 6.58349Z" fill="#DA387D"/>
<path d="M12.9182 10.9537H7.08322C6.36093 10.9537 5.77539 10.3529 5.77539 9.61175C5.77539 8.87058 6.36093 8.26974 7.08322 8.26974H12.9182C13.6405 8.26974 14.226 8.87058 14.226 9.61175C14.2261 10.3529 13.6405 10.9537 12.9182 10.9537Z" fill="#F9F6F9"/>
</svg>
