<svg width="28" height="28" viewBox="0 0 28 28" fill="none" xmlns="http://www.w3.org/2000/svg">
<path d="M22 22C26.4183 17.5817 26.4183 10.4183 22 6C17.5817 1.58172 10.4183 1.58172 6 6C1.58172 10.4183 1.58172 17.5817 6 22C10.4183 26.4183 17.5817 26.4183 22 22Z" fill="#FF6C6C"/>
<path d="M15.2378 21.4143C19.3326 20.729 22.0967 16.8539 21.4114 12.759C20.7262 8.66412 16.8511 5.90005 12.7562 6.5853C8.66135 7.27055 5.8973 11.1456 6.58256 15.2405C7.26781 19.3354 11.1429 22.0995 15.2378 21.4143Z" fill="#F0F7FF"/>
<path d="M17.3231 15.6945C18.2569 13.862 17.5282 11.6194 15.6957 10.6857C13.8631 9.75191 11.6206 10.4805 10.6868 12.3131C9.75306 14.1456 10.4817 16.3882 12.3142 17.3219C14.1468 18.2557 16.3893 17.5271 17.3231 15.6945Z" fill="#FF6C6C"/>
<path d="M10.2622 5.40399L6.93737 2.07911C6.77195 1.9136 6.5336 1.84365 6.30497 1.89343C6.07635 1.94321 5.88869 2.10588 5.80697 2.32516L5.12645 4.15102L5.32084 5.31773L4.15413 5.12334L2.32831 5.80381C2.10904 5.88554 1.94637 6.07319 1.89659 6.30182C1.84686 6.53045 1.91676 6.76875 2.08227 6.93421L5.40714 10.2591C5.53723 10.3892 5.71259 10.4605 5.89328 10.4605C5.93403 10.4605 5.97505 10.4569 6.01593 10.4495L9.30286 9.85363C9.58484 9.80248 9.80558 9.58173 9.85674 9.29975L10.4526 6.01283C10.4928 5.79098 10.4217 5.56345 10.2622 5.40399Z" fill="#29376D"/>
<path d="M14.4872 13.513L5.12466 4.15051L4.86069 4.85886L4.15234 5.12283L13.5149 14.4854C13.6491 14.6196 13.8251 14.6867 14.001 14.6867C14.177 14.6867 14.3529 14.6196 14.4871 14.4854C14.7557 14.2169 14.7557 13.7815 14.4872 13.513Z" fill="#47568C"/>
</svg>
