<svg width="66" height="60" viewBox="0 0 66 60" fill="none" xmlns="http://www.w3.org/2000/svg">
<circle cx="32.999" cy="30" r="30" fill="url(#paint0_radial_9527_46668)"/>
<g filter="url(#filter0_f_9527_46668)">
<path d="M61.8985 32.1658C61.4395 34.4958 60.7095 36.7258 59.7385 38.8258C58.7285 39.1458 57.5585 39.2358 56.3495 39.0358C53.0995 38.4958 50.7885 36.0358 51.2085 33.5558C51.6185 31.0758 54.5875 29.5058 57.8495 30.0458C59.5395 30.3258 60.9685 31.1258 61.8985 32.1658Z" fill="#FF9A61" fill-opacity="0.5"/>
</g>
<g filter="url(#filter1_f_9527_46668)">
<path d="M14.8081 33.5558C15.2281 36.0358 12.9181 38.4958 9.66808 39.0358C8.54808 39.2258 7.46809 39.1558 6.50809 38.8958C5.49809 36.7258 4.74809 34.4158 4.28809 31.9958C5.20809 31.0358 6.57808 30.3158 8.16808 30.0458C11.4281 29.5058 14.3971 31.0758 14.8081 33.5558Z" fill="#FF9A61" fill-opacity="0.5"/>
</g>
<path d="M33.875 35C39.3101 35 44.8252 36.362 53.5137 39L55.2939 39.5439L55.3906 39.5791C55.8573 39.7764 56.1081 40.2992 55.9561 40.7939C55.8037 41.289 55.3019 41.5801 54.8047 41.4805L54.7061 41.4561L52.9228 40.9102C44.2387 38.2746 38.9869 37 33.875 37C28.7693 37 23.7405 38.272 15.5 40.9062L13.8086 41.4512C13.2833 41.6216 12.7192 41.3339 12.5488 40.8086C12.3784 40.2833 12.6661 39.7192 13.1914 39.5488L14.8828 39.0039C23.1355 36.3647 28.4338 35 33.875 35Z" fill="black"/>
<path d="M22.9199 27.5542C21.6906 27.5542 20.4505 27.1829 19.4096 26.4516L19.3881 26.4364C19.0669 26.211 18.6272 25.9003 18.3831 25.5612C18.1857 25.2846 18.2359 24.8924 18.4979 24.6821C18.7599 24.4718 19.1315 24.5267 19.3307 24.8033C19.4527 24.9738 19.8403 25.2448 20.0467 25.3907L20.0682 25.4058C21.626 26.5008 23.7311 26.6012 25.3086 25.6559C25.6926 25.4247 25.9851 25.1747 26.2059 24.8867C26.4123 24.6177 26.7855 24.5741 27.0421 24.792C27.297 25.0099 27.3365 25.4039 27.1319 25.6748C26.8178 26.086 26.4141 26.4364 25.8972 26.7452C24.9999 27.2833 23.9644 27.5504 22.9217 27.5504L22.9199 27.5542Z" fill="#060D15"/>
<path d="M18.3418 24.4868C18.7192 24.1842 19.2533 24.269 19.5332 24.6577H19.5342L19.6338 24.7612C19.6807 24.8038 19.7402 24.854 19.8105 24.9087C19.9431 25.0117 20.0869 25.1121 20.1914 25.186H20.1904L20.2119 25.2016L20.4951 25.3852C21.94 26.2497 23.7838 26.2782 25.1797 25.4419L25.4346 25.2749C25.6722 25.1057 25.8596 24.9281 26.0078 24.7348L26.0645 24.6675C26.3446 24.3695 26.7933 24.3149 27.1328 24.5473L27.2041 24.601L27.2051 24.602L27.2686 24.6616C27.568 24.9748 27.5956 25.4753 27.3311 25.8257L27.3301 25.8266C27.036 26.2115 26.6709 26.5434 26.2227 26.8364L26.0254 26.9594C25.133 27.4945 24.1126 27.7683 23.082 27.7944L23.0781 27.8042H22.9199C21.721 27.8042 20.5118 27.4646 19.4717 26.7944L19.2656 26.6557L19.2441 26.6411C18.9713 26.4496 18.5712 26.1689 18.292 25.8471L18.1807 25.7075L18.1797 25.7065C17.9074 25.3251 17.9735 24.7824 18.3418 24.4868ZM19.127 24.9477C19.0084 24.7847 18.8004 24.7602 18.6543 24.8774C18.4988 25.0024 18.4645 25.2439 18.5869 25.4155H18.5859C18.8004 25.7134 19.2007 25.9999 19.5312 26.2319H19.5322L19.5527 26.2466H19.5537C20.5067 26.9161 21.6349 27.271 22.7627 27.3012L22.7637 27.3003H22.9219C23.9223 27.3002 24.9127 27.0439 25.7686 26.5307L25.9492 26.4184C26.3564 26.1524 26.6781 25.8573 26.9336 25.5229C27.0594 25.3548 27.0312 25.1113 26.8799 24.9819V24.9829C26.7532 24.8754 26.5776 24.8776 26.4541 24.9858L26.4043 25.0385C26.1604 25.3567 25.8419 25.6262 25.4375 25.8696V25.8706C23.7715 26.869 21.5597 26.7591 19.9248 25.6098H19.9238L19.9023 25.5952C19.8005 25.5232 19.6473 25.4147 19.5039 25.3032C19.3687 25.198 19.212 25.0676 19.127 24.9487V24.9477Z" fill="black"/>
<path d="M44.0878 27.5523C42.9293 27.5523 41.7806 27.2852 40.7816 26.7471C40.2093 26.4383 39.7606 26.0878 39.4097 25.6767C39.1804 25.4077 39.2242 25.0118 39.5074 24.7939C39.7905 24.576 40.2073 24.6177 40.4366 24.8867C40.6819 25.1728 41.0069 25.4248 41.4337 25.6559C43.1845 26.6013 45.5256 26.5009 47.2565 25.4058L47.2804 25.3907C47.5117 25.2448 47.9404 24.9739 48.076 24.8034C48.2954 24.5268 48.7102 24.4718 49.0013 24.6821C49.2925 24.8905 49.3483 25.2846 49.1289 25.5612C48.8577 25.9003 48.3691 26.2091 48.0122 26.4364L47.9903 26.4516C46.8337 27.1829 45.4558 27.5542 44.0898 27.5542L44.0878 27.5523Z" fill="#060D15"/>
<path d="M47.9404 24.5796C48.2548 24.2569 48.7753 24.2105 49.1475 24.479L49.1465 24.48C49.552 24.7706 49.634 25.3266 49.3252 25.7163L49.3242 25.7173C49.0237 26.0931 48.4983 26.4215 48.1533 26.6411L48.1543 26.6421L48.1328 26.6568L48.124 26.6636L48.123 26.6626C46.9238 27.4207 45.4995 27.8042 44.0898 27.8042H43.9902L43.9844 27.7993C42.9727 27.7859 41.9685 27.577 41.0596 27.1636L40.6631 26.9673C40.1431 26.6867 39.7141 26.3694 39.3643 26.0005L39.2197 25.8394C38.896 25.4596 38.9606 24.8997 39.3545 24.5962C39.7413 24.2986 40.3097 24.3522 40.6269 24.7242H40.626C40.8469 24.9818 41.1461 25.2158 41.5527 25.4361L41.8721 25.5933C43.4995 26.3213 45.5695 26.1777 47.123 25.1949L47.1465 25.1792H47.1475L47.5703 24.9019C47.7263 24.7926 47.8376 24.7009 47.8799 24.648L47.9404 24.5796ZM48.8545 24.8843C48.6924 24.7676 48.4709 24.7829 48.3281 24.9019L48.2715 24.9585C48.1779 25.0762 48.0072 25.2061 47.8574 25.3111L47.4141 25.6021L47.3906 25.6167H47.3896C45.6978 26.687 43.4499 26.8482 41.665 26.0484L41.3144 25.8755C40.8678 25.6336 40.5167 25.3638 40.2471 25.0493H40.2461C40.1047 24.8835 39.8395 24.854 39.6602 24.9917C39.4883 25.124 39.4652 25.3561 39.5996 25.5142L39.7275 25.6558C40.0353 25.9803 40.4189 26.2671 40.9004 26.5269L41.2666 26.7085C42.1366 27.1042 43.107 27.3023 44.0879 27.3023H44.1875C45.4738 27.2851 46.7631 26.9289 47.8477 26.2456L47.8701 26.231L47.8779 26.2251L48.165 26.0406C48.4577 25.847 48.7539 25.6295 48.9336 25.4048C49.0622 25.2416 49.0315 25.0113 48.8555 24.8853H48.8545L49.001 24.6822L48.8545 24.8843Z" fill="black"/>
<path d="M29.564 22.5542C29.3826 22.5542 29.1991 22.4788 29.062 22.3325C27.5794 20.7274 25.521 19.9115 23.256 20.0357L20.0461 20.4481C19.6601 20.4968 19.3142 20.2108 19.2678 19.8096C19.2214 19.4061 19.4935 19.0403 19.8774 18.9915L23.1104 18.5747C23.1252 18.5747 23.1421 18.5703 23.1568 18.5703C25.8374 18.4151 28.2923 19.3883 30.0659 21.3082C30.3338 21.5987 30.3275 22.0643 30.0512 22.3458C29.9162 22.4855 29.7412 22.5542 29.564 22.5542Z" fill="#060D15"/>
<path d="M37.898 22.5542C37.7388 22.5542 37.5796 22.4855 37.455 22.3458C37.2038 22.0642 37.1981 21.5986 37.4416 21.3081C39.0543 19.388 41.2863 18.4169 43.7236 18.5699C43.737 18.5699 43.7523 18.5721 43.7657 18.5743L46.7054 18.9911C47.0524 19.0399 47.3017 19.4058 47.2576 19.8093C47.2155 20.2128 46.8991 20.4988 46.5501 20.4478L43.6315 20.0354C41.5739 19.9113 39.6986 20.725 38.3524 22.3325C38.2278 22.481 38.0629 22.5542 37.896 22.5542H37.898Z" fill="#060D15"/>
<path d="M28.4366 50.7254C28.5586 50.3587 28.6275 49.9659 28.6275 49.5549C28.6275 48.7026 28.3442 47.9249 27.8739 47.3205L29.6527 32.6912C29.9577 30.9101 27.9211 29.8101 26.7955 31.1479L17.01 42.757C15.3827 42.757 14.0427 44.0767 13.842 45.7812C13.4819 45.5354 13.0568 45.3903 12.5984 45.3903C11.3075 45.3903 10.2627 46.5246 10.2627 47.9229C10.2627 48.9122 10.7861 49.7664 11.5476 50.1835C11.0222 50.937 10.7074 51.8718 10.7074 52.8893C10.7074 55.3735 12.5649 57.3883 14.8573 57.3883C15.5657 57.3883 16.2328 57.1949 16.8172 56.8544C16.8132 56.9108 16.8093 56.9652 16.8093 57.0216C16.8093 58.4199 17.8542 59.5542 19.145 59.5542C20.2214 59.5542 21.1245 58.7644 21.3961 57.6925C22.0533 58.3494 22.9289 58.7543 23.8931 58.7543C25.6346 58.7543 27.0907 57.4427 27.4784 55.6818C27.624 55.712 27.7735 55.7302 27.927 55.7302C29.2178 55.7302 30.2627 54.5958 30.2627 53.1976C30.2627 51.9887 29.4795 50.9793 28.4347 50.7275L28.4366 50.7254Z" fill="#F8EACE"/>
<path d="M38.9975 50.7254C38.8816 50.3587 38.8161 49.9659 38.8161 49.5549C38.8161 48.7026 39.0872 47.9249 39.5321 47.3205L37.8422 32.6912C37.5525 30.9101 39.4872 29.8101 40.5565 31.1479L49.8527 42.757C51.3987 42.757 52.6717 44.0767 52.8624 45.7812C53.2045 45.5354 53.6082 45.3903 54.0438 45.3903C55.2701 45.3903 56.2627 46.5246 56.2627 47.9229C56.2627 48.9122 55.7654 49.7664 55.042 50.1835C55.5411 50.937 55.8402 51.8718 55.8402 52.8893C55.8402 55.3735 54.0756 57.3883 51.8978 57.3883C51.2248 57.3883 50.5911 57.1949 50.0359 56.8544C50.0397 56.9108 50.0434 56.9652 50.0434 57.0216C50.0434 58.4199 49.0508 59.5542 47.8245 59.5542C46.802 59.5542 45.9439 58.7644 45.686 57.6925C45.0616 58.3494 44.2297 58.7543 43.3137 58.7543C41.6594 58.7543 40.2742 57.4427 39.9078 55.6818C39.7695 55.712 39.6274 55.7302 39.4816 55.7302C38.2553 55.7302 37.2627 54.5958 37.2627 53.1976C37.2627 51.9887 38.0067 50.9793 38.9993 50.7275L38.9975 50.7254Z" fill="#F8EACE"/>
<defs>
<filter id="filter0_f_9527_46668" x="47.1592" y="25.9395" width="18.7393" height="17.2024" filterUnits="userSpaceOnUse" color-interpolation-filters="sRGB">
<feFlood flood-opacity="0" result="BackgroundImageFix"/>
<feBlend mode="normal" in="SourceGraphic" in2="BackgroundImageFix" result="shape"/>
<feGaussianBlur stdDeviation="2" result="effect1_foregroundBlur_9527_46668"/>
</filter>
<filter id="filter1_f_9527_46668" x="0.288086" y="25.9395" width="18.5693" height="17.2041" filterUnits="userSpaceOnUse" color-interpolation-filters="sRGB">
<feFlood flood-opacity="0" result="BackgroundImageFix"/>
<feBlend mode="normal" in="SourceGraphic" in2="BackgroundImageFix" result="shape"/>
<feGaussianBlur stdDeviation="2" result="effect1_foregroundBlur_9527_46668"/>
</filter>
<radialGradient id="paint0_radial_9527_46668" cx="0" cy="0" r="1" gradientUnits="userSpaceOnUse" gradientTransform="translate(19.999 6) rotate(60.9454) scale(61.7738)">
<stop stop-color="#FF6954"/>
<stop offset="1" stop-color="#FFCE1B"/>
</radialGradient>
</defs>
</svg>
