<svg width="66" height="60" viewBox="0 0 66 60" fill="none" xmlns="http://www.w3.org/2000/svg">
<circle cx="32.9987" cy="30" r="30" fill="url(#paint0_radial_6395_43549)"/>
<g filter="url(#filter0_f_6395_43549)">
<path d="M61.8981 32.1658C61.4391 34.4958 60.7091 36.7258 59.7381 38.8258C58.7281 39.1458 57.5581 39.2358 56.3491 39.0358C53.0991 38.4958 50.7881 36.0358 51.2081 33.5558C51.6181 31.0758 54.5871 29.5058 57.8491 30.0458C59.5391 30.3258 60.9681 31.1258 61.8981 32.1658Z" fill="#EE0800" fill-opacity="0.5"/>
</g>
<g filter="url(#filter1_f_6395_43549)">
<path d="M14.8077 33.5558C15.2277 36.0358 12.9177 38.4958 9.66772 39.0358C8.54772 39.2258 7.46772 39.1558 6.50772 38.8958C5.49772 36.7258 4.74772 34.4158 4.28772 31.9958C5.20772 31.0358 6.57772 30.3158 8.16772 30.0458C11.4277 29.5058 14.3967 31.0758 14.8077 33.5558Z" fill="#EE0800" fill-opacity="0.5"/>
</g>
<path d="M37.7241 33.9409H29.4961C29.0821 33.9409 28.7461 33.6049 28.7461 33.1909C28.7461 32.7769 29.0821 32.4409 29.4961 32.4409H37.7241C38.1381 32.4409 38.4741 32.7769 38.4741 33.1909C38.4741 33.6049 38.1381 33.9409 37.7241 33.9409Z" fill="black"/>
<path d="M20.6893 29.1C20.4973 29.1 20.3053 29.027 20.1593 28.88L13.1143 21.835C12.8213 21.542 12.8213 21.0669 13.1143 20.7739C13.4073 20.4809 13.8823 20.4809 14.1753 20.7739L21.2203 27.8189C21.5133 28.1119 21.5133 28.587 21.2203 28.88C21.0733 29.026 20.8823 29.1 20.6893 29.1Z" fill="black"/>
<path d="M13.6443 29.1C13.4523 29.1 13.2603 29.027 13.1143 28.88C12.8213 28.587 12.8213 28.1119 13.1143 27.8189L20.1593 20.7739C20.4523 20.4809 20.9273 20.4809 21.2203 20.7739C21.5133 21.0669 21.5133 21.542 21.2203 21.835L14.1753 28.88C14.0273 29.026 13.8363 29.1 13.6443 29.1Z" fill="black"/>
<path d="M52.7205 29.1C52.5285 29.1 52.3365 29.027 52.1905 28.88L45.1455 21.835C44.8525 21.542 44.8525 21.0669 45.1455 20.7739C45.4385 20.4809 45.9135 20.4809 46.2065 20.7739L53.2515 27.8189C53.5445 28.1119 53.5445 28.587 53.2515 28.88C53.1035 29.026 52.9125 29.1 52.7205 29.1Z" fill="black"/>
<path d="M45.6755 29.1C45.4835 29.1 45.2915 29.027 45.1455 28.88C44.8525 28.587 44.8525 28.1119 45.1455 27.8189L52.1905 20.7739C52.4835 20.4809 52.9585 20.4809 53.2515 20.7739C53.5445 21.0669 53.5445 21.542 53.2515 21.835L46.2065 28.88C46.0595 29.026 45.8675 29.1 45.6755 29.1Z" fill="black"/>
<defs>
<filter id="filter0_f_6395_43549" x="47.1588" y="25.9395" width="18.7393" height="17.2024" filterUnits="userSpaceOnUse" color-interpolation-filters="sRGB">
<feFlood flood-opacity="0" result="BackgroundImageFix"/>
<feBlend mode="normal" in="SourceGraphic" in2="BackgroundImageFix" result="shape"/>
<feGaussianBlur stdDeviation="2" result="effect1_foregroundBlur_6395_43549"/>
</filter>
<filter id="filter1_f_6395_43549" x="0.28772" y="25.9395" width="18.5693" height="17.2041" filterUnits="userSpaceOnUse" color-interpolation-filters="sRGB">
<feFlood flood-opacity="0" result="BackgroundImageFix"/>
<feBlend mode="normal" in="SourceGraphic" in2="BackgroundImageFix" result="shape"/>
<feGaussianBlur stdDeviation="2" result="effect1_foregroundBlur_6395_43549"/>
</filter>
<radialGradient id="paint0_radial_6395_43549" cx="0" cy="0" r="1" gradientUnits="userSpaceOnUse" gradientTransform="translate(19.9987 6) rotate(60.9454) scale(61.7738)">
<stop stop-color="#FF9F68"/>
<stop offset="1" stop-color="#FF6F69"/>
</radialGradient>
</defs>
</svg>
