<svg width="60" height="60" viewBox="0 0 60 60" fill="none" xmlns="http://www.w3.org/2000/svg">
<circle cx="29.9987" cy="30" r="29.5" fill="#F6F9FF" stroke="#DBE5FD" stroke-linecap="round"/>
<path d="M29.9529 37.1604C29.8692 37.2443 29.7733 37.341 29.6667 37.4407L29.2634 37.7795C29.0292 37.9502 28.7776 38.0967 28.5144 38.2151C28.3482 38.2897 28.177 38.3506 28.0183 38.3997L27.5867 38.5208L22.8093 39.8225C22.0679 40.0244 21.2747 39.8149 20.7312 39.2717C20.1876 38.728 19.9771 37.9334 20.1794 37.1917L21.4802 32.4163L21.6042 31.9856C21.6534 31.8266 21.7111 31.6561 21.7859 31.4895L21.9851 31.1047C22.0577 30.9797 22.1361 30.8576 22.2214 30.7405L22.5603 30.3362C22.6604 30.2291 22.7574 30.133 22.8416 30.0491L29.9529 37.1604ZM34.8943 18.551C35.3008 18.4537 35.7251 18.4534 36.1316 18.551L36.3318 18.6067L36.6335 18.7268C36.9087 18.8576 37.1093 19.0135 37.2341 19.1194C37.3813 19.2443 37.5282 19.3949 37.6042 19.4709L40.532 22.3987L40.8816 22.7698C41.0227 22.9361 41.2533 23.2362 41.3943 23.6692L41.4529 23.8723C41.5666 24.3467 41.5461 24.8453 41.3943 25.3118C41.2532 25.745 41.0227 26.0459 40.8816 26.2122L40.532 26.5823L30.6599 36.4534L23.5476 29.3411L33.4187 19.4709L33.7898 19.1194C33.9563 18.9781 34.2576 18.7477 34.6912 18.6067L34.8943 18.551Z" fill="#94B2FA"/>
</svg>
