<svg width="66" height="60" viewBox="0 0 66 60" fill="none" xmlns="http://www.w3.org/2000/svg">
<circle cx="32.9985" cy="30" r="30" fill="url(#paint0_radial_9527_45544)"/>
<g filter="url(#filter0_f_9527_45544)">
<path d="M61.898 32.1658C61.439 34.4958 60.709 36.7258 59.738 38.8258C58.728 39.1458 57.558 39.2358 56.349 39.0358C53.099 38.4958 50.788 36.0358 51.208 33.5558C51.618 31.0758 54.587 29.5058 57.849 30.0458C59.539 30.3258 60.968 31.1258 61.898 32.1658Z" fill="#FF9A61" fill-opacity="0.5"/>
</g>
<g filter="url(#filter1_f_9527_45544)">
<path d="M14.8076 33.5558C15.2276 36.0358 12.9176 38.4958 9.66759 39.0358C8.5476 39.2258 7.4676 39.1558 6.5076 38.8958C5.4976 36.7258 4.7476 34.4158 4.2876 31.9958C5.2076 31.0358 6.57759 30.3158 8.16759 30.0458C11.4276 29.5058 14.3966 31.0758 14.8076 33.5558Z" fill="#FF9A61" fill-opacity="0.5"/>
</g>
<path d="M50.0698 3.56483C50.8599 1.07173 53.0329 -0.468119 54.9233 0.128308C55.4838 0.301714 55.9591 0.650542 56.3228 1.09901C56.3737 1.16377 56.4248 1.23408 56.4712 1.30116C57.4511 2.74437 57.3908 4.2588 56.8325 5.69276C56.1884 7.34653 54.8772 8.88969 53.7466 10.0971C53.1675 10.7168 52.5746 11.3251 51.9585 11.9125C51.7732 12.0952 51.5854 12.2736 51.3931 12.4447C51.1591 12.336 50.9226 12.2176 50.6909 12.1019C49.931 11.7296 49.1803 11.3249 48.439 10.9086C47.0002 10.099 45.2874 9.01634 44.1753 7.63319C43.8001 7.16842 43.4947 6.67317 43.2886 6.13905C42.9597 5.29499 42.8901 4.36328 43.1958 3.3412C43.3904 2.70051 43.7684 2.13824 44.3198 1.75428C45.944 0.616509 48.4764 1.43483 49.98 3.57655C50.0008 3.60658 50.024 3.63956 50.0425 3.67421C50.0494 3.63489 50.0582 3.59953 50.0698 3.56483Z" fill="#FF667B"/>
<path d="M10.0693 47.5659C10.8594 45.0725 13.0332 43.5316 14.9238 44.1284C15.4844 44.3019 15.9596 44.6514 16.3232 45.1C16.3741 45.1647 16.4245 45.2343 16.4707 45.3012C17.4508 46.7445 17.3914 48.2598 16.833 49.6938C16.1889 51.3475 14.8767 52.8898 13.7461 54.0971C13.167 54.7169 12.5742 55.3252 11.958 55.9125C11.7727 56.0952 11.5848 56.2737 11.3926 56.4448C11.1586 56.3361 10.9221 56.2186 10.6904 56.103C9.93056 55.7306 9.17982 55.3259 8.43848 54.9096C6.9998 54.1001 5.2879 53.0172 4.17578 51.6342C3.8005 51.1694 3.49429 50.6743 3.28808 50.1401C2.95909 49.2959 2.88951 48.3636 3.19531 47.3413C3.38993 46.7006 3.76791 46.1383 4.31933 45.7543C5.94345 44.6167 8.4759 45.4351 9.97949 47.5766C10.0003 47.6067 10.0235 47.6396 10.042 47.6743C10.0489 47.6351 10.0578 47.6004 10.0693 47.5659Z" fill="#FF667B"/>
<path d="M55.0693 44.5649C55.8594 42.0716 58.0332 40.5317 59.9238 41.1284C60.4844 41.3019 60.9596 41.6505 61.3233 42.0991C61.3742 42.1639 61.4254 42.2333 61.4717 42.3003C62.4517 43.7435 62.3913 45.2589 61.833 46.6929C61.1889 48.3466 59.8777 49.8898 58.7471 51.0972C58.1679 51.717 57.5743 52.3251 56.958 52.9126C56.7727 53.0953 56.5849 53.2737 56.3926 53.4448C56.1586 53.3361 55.9221 53.2177 55.6904 53.1021C54.9306 52.7297 54.1798 52.325 53.4385 51.9087C51.9997 51.0992 50.2879 50.0164 49.1758 48.6333C48.8005 48.1684 48.4943 47.6734 48.2881 47.1392C47.9592 46.295 47.8895 45.3626 48.1953 44.3403C48.39 43.6998 48.7681 43.1383 49.3193 42.7544C50.9435 41.6164 53.4758 42.4349 54.9795 44.5767C55.0003 44.6066 55.0235 44.6388 55.042 44.6733C55.0489 44.6342 55.0578 44.5995 55.0693 44.5649Z" fill="#FF667B"/>
<path d="M32.6428 37.2048C28.1063 37.2048 26.452 33.3074 26.3825 33.1409C26.2227 32.75 26.408 32.3013 26.8019 32.1417C27.1935 31.9798 27.6429 32.1672 27.8028 32.5604C27.8561 32.6853 29.1536 35.6736 32.6428 35.6736C36.1321 35.6736 37.5083 32.5742 37.5199 32.5442C37.689 32.1579 38.1408 31.9798 38.5301 32.1487C38.917 32.3175 39.0954 32.7685 38.9262 33.1571C38.8544 33.3213 37.1005 37.2048 32.6428 37.2048Z" fill="#060D15"/>
<path d="M26.708 31.9107C27.2258 31.6975 27.8188 31.9438 28.0322 32.4625H28.0332C28.0847 32.583 29.3233 35.4233 32.6426 35.4234C34.305 35.4234 35.4614 34.6876 36.209 33.9429C36.9441 33.2107 37.2753 32.4775 37.2861 32.4546L37.291 32.4439L37.3369 32.3511C37.5727 31.9334 38.0737 31.7363 38.5322 31.8824L38.6299 31.9195L38.7227 31.9654C39.1411 32.2006 39.3391 32.7011 39.1924 33.1597L39.1553 33.2574C39.0799 33.4298 37.2661 37.4546 32.6426 37.4546C27.9376 37.4545 26.2243 33.4117 26.1514 33.2369V33.2359C25.9397 32.7183 26.1845 32.1219 26.708 31.9097V31.9107ZM26.9981 32.3423L26.8975 32.3726L26.8955 32.3736C26.6321 32.4805 26.5066 32.7808 26.6133 33.0445L26.7119 33.2584C27.1214 34.0826 28.821 36.9545 32.6426 36.9546C36.9328 36.9546 38.6278 33.2159 38.6973 33.0572L38.7285 32.9576C38.7783 32.7226 38.6586 32.4772 38.4307 32.3775V32.3785C38.1677 32.2644 37.863 32.3845 37.749 32.6441L37.7481 32.6431C37.704 32.745 37.3375 33.5245 36.5615 34.2974C35.7458 35.1099 34.4692 35.9234 32.6426 35.9234C28.9893 35.9233 27.6323 32.797 27.5733 32.6588L27.5713 32.6548C27.4772 32.4235 27.2339 32.2973 26.9981 32.3423Z" fill="black"/>
<path d="M15.3495 27.6336C15.1897 27.6336 15.0298 27.5851 14.8931 27.4833C14.5548 27.2312 14.483 26.7547 14.7332 26.4147C14.7981 26.3268 16.362 24.2498 18.8735 23.9421C20.4398 23.7502 21.9944 24.2798 23.4958 25.515C23.8224 25.7833 23.8688 26.2667 23.6 26.5928C23.3312 26.9189 22.847 26.9652 22.5203 26.6969C21.3619 25.7416 20.2011 25.3276 19.0728 25.4618C17.2216 25.6838 15.9774 27.3121 15.9658 27.3283C15.8152 27.5296 15.5835 27.636 15.3495 27.636V27.6336Z" fill="#060D15"/>
<path d="M19.1523 23.6656C20.695 23.5655 22.2097 24.1335 23.6543 25.3218L23.7314 25.3921C24.0941 25.7577 24.1269 26.3461 23.793 26.7515C23.4585 27.1574 22.8737 27.2363 22.4453 26.9517L22.3613 26.8902C21.3083 26.0219 20.2801 25.6357 19.2978 25.6929L19.1025 25.7105C18.2408 25.8139 17.5104 26.2466 16.9863 26.6675C16.7244 26.8779 16.5183 27.0809 16.3789 27.231L16.1689 27.4742L16.166 27.4781C15.966 27.7453 15.6586 27.8862 15.3496 27.8863H15.0996V27.8492C15.0267 27.8308 14.9544 27.8073 14.8857 27.772L14.7441 27.6841C14.296 27.3501 14.2002 26.7172 14.5322 26.2661L14.6328 26.1382C14.8029 25.9303 15.1786 25.5051 15.7305 25.065C16.4654 24.4789 17.5264 23.8552 18.8428 23.6939L19.1523 23.6656ZM19.1816 24.1646L18.9043 24.19C17.7096 24.3363 16.733 24.9054 16.042 25.4566C15.5241 25.8696 15.1736 26.2668 15.0205 26.4536L14.9346 26.563C14.7661 26.7919 14.8146 27.1125 15.043 27.2827H15.042C15.1334 27.3508 15.2408 27.3833 15.3496 27.3833H15.375C15.4854 27.378 15.5933 27.34 15.6806 27.2681L15.7656 27.1783C15.8049 27.126 16.1304 26.7126 16.6728 26.2769C17.2365 25.8242 18.0536 25.3321 19.043 25.2134L19.2715 25.1939C20.4119 25.128 21.5598 25.581 22.6787 26.5035L22.7666 26.562C22.9792 26.674 23.2492 26.6258 23.4072 26.4341C23.5658 26.2417 23.5611 25.9679 23.4101 25.7818L23.3369 25.7085C21.9664 24.5811 20.5726 24.0737 19.1816 24.1646Z" fill="black"/>
<path d="M49.9662 27.6358C49.7322 27.6358 49.5005 27.5294 49.3499 27.3259C49.3337 27.3051 48.0918 25.6791 46.2429 25.4593C45.1146 25.3229 43.9538 25.7392 42.7954 26.6944C42.4687 26.9628 41.9845 26.9165 41.7157 26.5904C41.447 26.2642 41.4933 25.7808 41.82 25.5125C43.3213 24.2774 44.876 23.7477 46.4422 23.9397C48.9537 24.2473 50.5176 26.3244 50.5825 26.4123C50.835 26.7523 50.7632 27.2311 50.4226 27.4832C50.2859 27.5849 50.1261 27.6335 49.9685 27.6335L49.9662 27.6358Z" fill="#060D15"/>
<path d="M41.9512 25.0898C43.405 23.9843 44.9263 23.5018 46.4727 23.6914L46.7168 23.7275C47.9209 23.9311 48.897 24.5129 49.5859 25.0625C50.3202 25.6481 50.7415 26.2071 50.7832 26.2636L50.8408 26.3496C51.1051 26.7925 50.9945 27.3713 50.5713 27.6845L50.5703 27.6835C50.4212 27.7943 50.2516 27.8549 50.0801 27.874L50.0693 27.8857H49.9658C49.6582 27.8856 49.3524 27.746 49.1523 27.4785V27.4794C49.1441 27.4687 48.8442 27.0773 48.3271 26.6621C47.8035 26.2415 47.0742 25.8103 46.2139 25.708L46.2129 25.707C45.2376 25.5891 44.2146 25.9154 43.165 26.7197L42.9541 26.8876C42.5213 27.2431 41.8793 27.1819 41.5225 26.749C41.1664 26.3165 41.2276 25.6755 41.6611 25.3193L41.9512 25.0898ZM46.4121 24.1875C45.0218 24.017 43.6263 24.4434 42.2529 25.4882L41.9785 25.706C41.7592 25.8864 41.7272 26.2119 41.9082 26.4316C42.0663 26.6235 42.337 26.6718 42.5498 26.5595L42.6367 26.5009C43.83 25.5171 45.0574 25.0638 46.2734 25.2109H46.2725C47.2609 25.3284 48.0772 25.8199 48.6406 26.2724C48.9235 26.4996 49.1468 26.72 49.3008 26.8857C49.3779 26.9687 49.4378 27.0389 49.4795 27.0888C49.5003 27.1137 49.5168 27.1339 49.5283 27.1484C49.534 27.1555 49.5387 27.1617 49.542 27.166C49.5436 27.168 49.5449 27.1696 49.5459 27.1708L49.5469 27.1718L49.5508 27.1767L49.6357 27.2675C49.7251 27.3418 49.836 27.3801 49.9492 27.3837H49.9687C50.0748 27.3837 50.1818 27.3504 50.2734 27.2822L50.3516 27.2119C50.5124 27.0331 50.5303 26.7615 50.3818 26.5615V26.5605C50.3574 26.5274 49.9646 26.0046 49.2744 25.4541C48.6265 24.9372 47.7272 24.4046 46.6328 24.2197L46.4121 24.1875Z" fill="black"/>
<defs>
<filter id="filter0_f_9527_45544" x="47.1587" y="25.9395" width="18.7393" height="17.2024" filterUnits="userSpaceOnUse" color-interpolation-filters="sRGB">
<feFlood flood-opacity="0" result="BackgroundImageFix"/>
<feBlend mode="normal" in="SourceGraphic" in2="BackgroundImageFix" result="shape"/>
<feGaussianBlur stdDeviation="2" result="effect1_foregroundBlur_9527_45544"/>
</filter>
<filter id="filter1_f_9527_45544" x="0.287598" y="25.9395" width="18.5693" height="17.2041" filterUnits="userSpaceOnUse" color-interpolation-filters="sRGB">
<feFlood flood-opacity="0" result="BackgroundImageFix"/>
<feBlend mode="normal" in="SourceGraphic" in2="BackgroundImageFix" result="shape"/>
<feGaussianBlur stdDeviation="2" result="effect1_foregroundBlur_9527_45544"/>
</filter>
<radialGradient id="paint0_radial_9527_45544" cx="0" cy="0" r="1" gradientUnits="userSpaceOnUse" gradientTransform="translate(19.9985 6) rotate(60.9454) scale(61.7738)">
<stop stop-color="#FFDE65"/>
<stop offset="1" stop-color="#FFCE1B"/>
</radialGradient>
</defs>
</svg>
