<svg width="66" height="60" viewBox="0 0 66 60" fill="none" xmlns="http://www.w3.org/2000/svg">
<circle cx="32.9985" cy="30" r="30" fill="url(#paint0_radial_9527_46670)"/>
<g filter="url(#filter0_f_9527_46670)">
<path d="M61.898 32.1658C61.439 34.4958 60.709 36.7258 59.738 38.8258C58.728 39.1458 57.558 39.2358 56.349 39.0358C53.099 38.4958 50.788 36.0358 51.208 33.5558C51.618 31.0758 54.587 29.5058 57.849 30.0458C59.539 30.3258 60.968 31.1258 61.898 32.1658Z" fill="#9E8B80" fill-opacity="0.5"/>
</g>
<g filter="url(#filter1_f_9527_46670)">
<path d="M14.8076 33.5558C15.2276 36.0358 12.9176 38.4958 9.66759 39.0358C8.5476 39.2258 7.4676 39.1558 6.5076 38.8958C5.4976 36.7258 4.7476 34.4158 4.2876 31.9958C5.2076 31.0358 6.57759 30.3158 8.16759 30.0458C11.4276 29.5058 14.3966 31.0758 14.8076 33.5558Z" fill="#9E8B80" fill-opacity="0.5"/>
</g>
<path d="M38.299 42.8761C37.885 42.8761 37.549 42.5401 37.549 42.1261C37.549 40.1011 35.781 38.4531 33.609 38.4531C31.436 38.4531 29.668 40.1001 29.668 42.1261C29.668 42.5401 29.332 42.8761 28.918 42.8761C28.504 42.8761 28.168 42.5401 28.168 42.1261C28.168 39.2731 30.609 36.9531 33.609 36.9531C36.609 36.9531 39.049 39.2731 39.049 42.1261C39.049 42.5401 38.713 42.8761 38.299 42.8761Z" fill="black"/>
<path d="M38.7988 42.126C38.7987 39.423 36.4831 37.2033 33.6094 37.2031C30.7354 37.2031 28.4181 39.4229 28.418 42.126C28.418 42.4019 28.642 42.626 28.918 42.626C29.1939 42.626 29.418 42.4019 29.418 42.126C29.4181 39.9457 31.3153 38.2031 33.6094 38.2031C35.9024 38.2033 37.7987 39.9469 37.7988 42.126C37.7988 42.4019 38.023 42.6259 38.2988 42.626C38.5748 42.626 38.7988 42.4019 38.7988 42.126ZM39.2988 42.126C39.2988 42.678 38.8509 43.126 38.2988 43.126C37.7468 43.1259 37.2988 42.678 37.2988 42.126C37.2987 40.2555 35.6599 38.7033 33.6094 38.7031C31.5576 38.7031 29.9181 40.2544 29.918 42.126C29.918 42.678 29.47 43.126 28.918 43.126C28.3659 43.126 27.918 42.678 27.918 42.126C27.9181 39.1232 30.4834 36.7031 33.6094 36.7031C36.7352 36.7033 39.2987 39.1234 39.2988 42.126Z" fill="black"/>
<path d="M19.6094 32.2754H12.6094C12.1954 32.2754 11.8594 31.9394 11.8594 31.5254C11.8594 31.1114 12.1954 30.7754 12.6094 30.7754H19.6094C20.0234 30.7754 20.3594 31.1114 20.3594 31.5254C20.3594 31.9404 20.0234 32.2754 19.6094 32.2754Z" fill="black"/>
<path d="M20.1094 31.5254C20.1094 31.2495 19.8853 31.0254 19.6094 31.0254H12.6094C12.3334 31.0254 12.1094 31.2495 12.1094 31.5254C12.1094 31.8013 12.3334 32.0254 12.6094 32.0254H19.6094C19.8855 32.0254 20.1094 31.8021 20.1094 31.5254ZM20.6094 31.5254C20.6094 32.0787 20.1612 32.5254 19.6094 32.5254H12.6094C12.0573 32.5254 11.6094 32.0775 11.6094 31.5254C11.6094 30.9733 12.0573 30.5254 12.6094 30.5254H19.6094C20.1614 30.5254 20.6094 30.9733 20.6094 31.5254Z" fill="black"/>
<path d="M54.6094 32.2754H47.6094C47.1954 32.2754 46.8594 31.9394 46.8594 31.5254C46.8594 31.1114 47.1954 30.7754 47.6094 30.7754H54.6094C55.0234 30.7754 55.3594 31.1114 55.3594 31.5254C55.3594 31.9404 55.0234 32.2754 54.6094 32.2754Z" fill="black"/>
<path d="M55.1094 31.5254C55.1094 31.2495 54.8853 31.0254 54.6094 31.0254H47.6094C47.3334 31.0254 47.1094 31.2495 47.1094 31.5254C47.1094 31.8013 47.3334 32.0254 47.6094 32.0254H54.6094C54.8855 32.0254 55.1094 31.8021 55.1094 31.5254ZM55.6094 31.5254C55.6094 32.0787 55.1612 32.5254 54.6094 32.5254H47.6094C47.0573 32.5254 46.6094 32.0775 46.6094 31.5254C46.6094 30.9733 47.0573 30.5254 47.6094 30.5254H54.6094C55.1614 30.5254 55.6094 30.9733 55.6094 31.5254Z" fill="black"/>
<defs>
<filter id="filter0_f_9527_46670" x="47.1587" y="25.9395" width="18.7393" height="17.2024" filterUnits="userSpaceOnUse" color-interpolation-filters="sRGB">
<feFlood flood-opacity="0" result="BackgroundImageFix"/>
<feBlend mode="normal" in="SourceGraphic" in2="BackgroundImageFix" result="shape"/>
<feGaussianBlur stdDeviation="2" result="effect1_foregroundBlur_9527_46670"/>
</filter>
<filter id="filter1_f_9527_46670" x="0.287598" y="25.9395" width="18.5693" height="17.2041" filterUnits="userSpaceOnUse" color-interpolation-filters="sRGB">
<feFlood flood-opacity="0" result="BackgroundImageFix"/>
<feBlend mode="normal" in="SourceGraphic" in2="BackgroundImageFix" result="shape"/>
<feGaussianBlur stdDeviation="2" result="effect1_foregroundBlur_9527_46670"/>
</filter>
<radialGradient id="paint0_radial_9527_46670" cx="0" cy="0" r="1" gradientUnits="userSpaceOnUse" gradientTransform="translate(19.9985 6) rotate(60.9454) scale(61.7738)">
<stop stop-color="#A8ACC3"/>
<stop offset="1" stop-color="#D5D7E0"/>
</radialGradient>
</defs>
</svg>
