<svg width="66" height="60" viewBox="0 0 66 60" fill="none" xmlns="http://www.w3.org/2000/svg">
<circle cx="32.999" cy="30" r="30" fill="url(#paint0_radial_9527_45547)"/>
<g filter="url(#filter0_f_9527_45547)">
<path d="M61.8985 32.1658C61.4395 34.4958 60.7095 36.7258 59.7385 38.8258C58.7285 39.1458 57.5585 39.2358 56.3495 39.0358C53.0995 38.4958 50.7885 36.0358 51.2085 33.5558C51.6185 31.0758 54.5875 29.5058 57.8495 30.0458C59.5395 30.3258 60.9685 31.1258 61.8985 32.1658Z" fill="#FF9A61" fill-opacity="0.5"/>
</g>
<g filter="url(#filter1_f_9527_45547)">
<path d="M14.8081 33.5558C15.2281 36.0358 12.9181 38.4958 9.66808 39.0358C8.54808 39.2258 7.46809 39.1558 6.50809 38.8958C5.49809 36.7258 4.74809 34.4158 4.28809 31.9958C5.20809 31.0358 6.57808 30.3158 8.16808 30.0458C11.4281 29.5058 14.3971 31.0758 14.8081 33.5558Z" fill="#FF9A61" fill-opacity="0.5"/>
</g>
<path d="M20.9267 30.3953C20.5127 30.3953 20.1767 30.0593 20.1767 29.6453C20.1767 28.3393 19.2048 27.2783 18.0107 27.2783C16.8157 27.2783 15.8438 28.3403 15.8438 29.6453C15.8438 30.0593 15.5078 30.3953 15.0938 30.3953C14.6797 30.3953 14.3438 30.0593 14.3438 29.6453C14.3438 27.5123 15.9887 25.7783 18.0107 25.7783C20.0317 25.7783 21.6767 27.5123 21.6767 29.6453C21.6767 30.0593 21.3407 30.3953 20.9267 30.3953Z" fill="black" stroke="black" stroke-width="0.5"/>
<path d="M52.7783 30.3953C52.3643 30.3953 52.0283 30.0593 52.0283 29.6453C52.0283 28.3393 51.0563 27.2783 49.8623 27.2783C48.6673 27.2783 47.6953 28.3403 47.6953 29.6453C47.6953 30.0593 47.3593 30.3953 46.9453 30.3953C46.5313 30.3953 46.1953 30.0593 46.1953 29.6453C46.1953 27.5123 47.8403 25.7783 49.8623 25.7783C51.8833 25.7783 53.5283 27.5123 53.5283 29.6453C53.5283 30.0593 53.1923 30.3953 52.7783 30.3953Z" fill="black" stroke="black" stroke-width="0.5"/>
<path d="M28.1397 36C28.0487 36.8828 28 37.7953 28 38.7318C28 46.0593 30.9109 52 34.5 52C38.0891 52 41 46.0593 41 38.7318C41 37.7953 40.9512 36.8828 40.8602 36H28.1397Z" fill="#FF7C5F"/>
<path d="M34.2979 43.9127C34.0219 43.9127 33.7979 43.6887 33.7979 43.4127V42.9717C33.7979 42.6957 34.0219 42.4717 34.2979 42.4717C34.5739 42.4717 34.7979 42.6957 34.7979 42.9717V43.4127C34.7979 43.6897 34.5739 43.9127 34.2979 43.9127Z" fill="black" stroke="black" stroke-width="0.5"/>
<path d="M34.2979 41.4141C34.0219 41.4141 33.7979 41.1901 33.7979 40.9141V36.0781C33.7979 35.8021 34.0219 35.5781 34.2979 35.5781C34.5739 35.5781 34.7979 35.8021 34.7979 36.0781V40.9141C34.7979 41.1901 34.5739 41.4141 34.2979 41.4141Z" fill="black" stroke="black" stroke-width="0.5"/>
<path d="M42.7979 36.8281H25.7979C25.3839 36.8281 25.0479 36.4921 25.0479 36.0781C25.0479 35.6641 25.3839 35.3281 25.7979 35.3281H42.7979C43.2119 35.3281 43.5479 35.6641 43.5479 36.0781C43.5479 36.4921 43.2119 36.8281 42.7979 36.8281Z" fill="black" stroke="black" stroke-width="0.5"/>
<defs>
<filter id="filter0_f_9527_45547" x="47.1592" y="25.9395" width="18.7393" height="17.2024" filterUnits="userSpaceOnUse" color-interpolation-filters="sRGB">
<feFlood flood-opacity="0" result="BackgroundImageFix"/>
<feBlend mode="normal" in="SourceGraphic" in2="BackgroundImageFix" result="shape"/>
<feGaussianBlur stdDeviation="2" result="effect1_foregroundBlur_9527_45547"/>
</filter>
<filter id="filter1_f_9527_45547" x="0.288086" y="25.9395" width="18.5693" height="17.2041" filterUnits="userSpaceOnUse" color-interpolation-filters="sRGB">
<feFlood flood-opacity="0" result="BackgroundImageFix"/>
<feBlend mode="normal" in="SourceGraphic" in2="BackgroundImageFix" result="shape"/>
<feGaussianBlur stdDeviation="2" result="effect1_foregroundBlur_9527_45547"/>
</filter>
<radialGradient id="paint0_radial_9527_45547" cx="0" cy="0" r="1" gradientUnits="userSpaceOnUse" gradientTransform="translate(19.999 6) rotate(60.9454) scale(61.7738)">
<stop stop-color="#FFDE65"/>
<stop offset="1" stop-color="#FFCE1B"/>
</radialGradient>
</defs>
</svg>
