<svg width="60" height="60" viewBox="0 0 60 60" fill="none" xmlns="http://www.w3.org/2000/svg">
<g clip-path="url(#clip0_9527_46669)">
<circle cx="29.9985" cy="30" r="30" fill="url(#paint0_radial_9527_46669)"/>
<g filter="url(#filter0_f_9527_46669)">
<path d="M58.8985 32.1658C58.4395 34.4958 57.7095 36.7258 56.7385 38.8258C55.7285 39.1458 54.5585 39.2358 53.3495 39.0358C50.0995 38.4958 47.7885 36.0358 48.2085 33.5558C48.6185 31.0758 51.5875 29.5058 54.8495 30.0458C56.5395 30.3258 57.9685 31.1258 58.8985 32.1658Z" fill="#EE5E36"/>
</g>
<g filter="url(#filter1_f_9527_46669)">
<path d="M11.8076 33.5558C12.2276 36.0358 9.91759 38.4958 6.66759 39.0358C5.5476 39.2258 4.4676 39.1558 3.5076 38.8958C2.4976 36.7258 1.7476 34.4158 1.2876 31.9958C2.2076 31.0358 3.57759 30.3158 5.16759 30.0458C8.4276 29.5058 11.3966 31.0758 11.8076 33.5558Z" fill="#EE5E36"/>
</g>
<path d="M50.3174 21.5131C50.2409 21.5131 50.1645 21.5016 50.0857 21.4784C47.7665 20.7499 45.9802 19.184 45.058 17.0722C44.8889 16.6837 45.0673 16.2326 45.4542 16.0638C45.8435 15.8949 46.2953 16.073 46.4644 16.4593C47.2058 18.1593 48.6562 19.4222 50.5468 20.0166C50.9499 20.1439 51.1747 20.5741 51.0472 20.9765C50.943 21.3027 50.6418 21.5131 50.3151 21.5131H50.3174Z" fill="#060D15"/>
<path d="M45.4521 15.7979C45.9434 15.6414 46.4829 15.8788 46.6934 16.3594L46.835 16.6602C47.5797 18.1376 48.9094 19.2399 50.6221 19.7784L50.7197 19.8145C51.1918 20.0181 51.4438 20.5505 51.2852 21.0518V21.0528C51.1474 21.4835 50.7499 21.7608 50.3174 21.7618V21.7627H50.3154V21.7618C50.2139 21.7616 50.1144 21.7478 50.0156 21.7188L50.0107 21.7168C47.7756 21.0147 46.0141 19.5525 45.0176 17.5743L44.8291 17.1719C44.6048 16.6565 44.8414 16.0589 45.3545 15.835V15.834L45.4521 15.7979ZM46.2354 16.5596C46.1216 16.2999 45.8167 16.1782 45.5537 16.292L45.5547 16.293C45.2939 16.4068 45.1732 16.7109 45.2871 16.9727L45.4639 17.3487C46.3956 19.1987 48.0442 20.5737 50.1553 21.2383H50.1562C50.2138 21.2552 50.2662 21.2617 50.3164 21.2618C50.5354 21.2612 50.7379 21.1211 50.8086 20.9014L50.8301 20.7989C50.8511 20.5952 50.7475 20.3959 50.5674 20.2959L50.4717 20.2549C48.6397 19.6789 47.1982 18.4916 46.3887 16.8858L46.2354 16.5596Z" fill="black"/>
<path d="M10.7971 21.5247C10.4704 21.5247 10.1692 21.3165 10.065 20.9881C9.93755 20.5833 10.1623 20.1554 10.5654 20.0282C12.456 19.4338 13.9064 18.1709 14.6478 16.4709C14.817 16.0823 15.2687 15.9065 15.658 16.0754C16.0472 16.2442 16.2233 16.6952 16.0542 17.0838C15.1321 19.1955 13.348 20.7614 11.0265 21.49C10.95 21.5131 10.8713 21.5247 10.7971 21.5247Z" fill="#060D15"/>
<path d="M14.419 16.3707C14.6439 15.8547 15.2435 15.6232 15.7578 15.8463C16.2743 16.0705 16.5069 16.6689 16.2832 17.1832V17.1842C15.3304 19.366 13.4879 20.9802 11.1016 21.7291H11.0986C10.9995 21.7591 10.8962 21.775 10.7969 21.775C10.4185 21.7749 10.0656 21.5634 9.89063 21.2193L9.82715 21.0641L9.82618 21.0631C9.65728 20.5261 9.95624 19.9582 10.4902 19.7897L10.8281 19.6744C12.4888 19.0615 13.7531 17.8974 14.419 16.3707ZM15.5586 16.3053C15.3275 16.205 15.0655 16.2837 14.9277 16.4801L14.877 16.5709C14.1528 18.2315 12.7806 19.4864 11.002 20.1432L10.6406 20.2672C10.3687 20.3531 10.2182 20.6404 10.3037 20.9127L10.3359 20.9918C10.4249 21.1671 10.6039 21.2749 10.7969 21.275C10.8458 21.275 10.9004 21.2668 10.9541 21.2506C13.2095 20.542 14.9341 19.0247 15.8252 16.984L15.8574 16.8844C15.9077 16.6489 15.7874 16.4047 15.5586 16.3053Z" fill="black"/>
<path d="M43.4934 28.2625C42.138 28.2625 40.7989 27.7236 39.4968 26.6527C39.1701 26.3844 39.1237 25.901 39.3925 25.5748C39.6613 25.2487 40.1455 25.2025 40.4722 25.4708C41.6306 26.4237 42.7914 26.84 43.9197 26.7059C45.7709 26.4838 47.0151 24.8555 47.0267 24.8393C47.2815 24.5016 47.7611 24.4322 48.0994 24.682C48.4377 24.9342 48.5095 25.4106 48.2593 25.7506C48.1944 25.8385 46.6305 27.9156 44.119 28.2232C43.9105 28.2486 43.6996 28.2625 43.4911 28.2625H43.4934Z" fill="#060D15"/>
<path d="M46.8936 24.6095C47.2195 24.2573 47.7505 24.1797 48.1621 24.4239L48.248 24.4806L48.249 24.4815L48.3291 24.5479C48.7072 24.8942 48.7717 25.4758 48.4609 25.8985L48.46 25.8995C48.4177 25.9567 47.9962 26.5146 47.2627 27.0997C46.5737 27.6492 45.5977 28.232 44.3936 28.4356L44.1494 28.4718C43.9324 28.4982 43.712 28.5117 43.4932 28.5118V28.5128H43.4912V28.5118C42.1549 28.5113 40.847 28.013 39.5889 27.046L39.3379 26.8458C38.9044 26.4896 38.8431 25.8485 39.1992 25.4161C39.556 24.9832 40.198 24.922 40.6309 25.2774L40.8408 25.4444C41.8906 26.2473 42.9139 26.5739 43.8896 26.4581L44.0498 26.4347C44.8421 26.3004 45.5154 25.8957 46.0068 25.5011C46.5152 25.0927 46.8114 24.7094 46.8232 24.6944L46.8271 24.6886L46.8936 24.6095ZM47.9502 24.8819C47.7226 24.7147 47.3988 24.7621 47.2266 24.9903L47.2256 24.9893C47.1846 25.0437 46.8601 25.4564 46.3193 25.8907C45.7909 26.3151 45.0398 26.7743 44.1328 26.9278L43.9492 26.9542C42.8094 27.0897 41.6597 26.7001 40.5371 25.8419L40.3135 25.6642C40.093 25.483 39.7657 25.5142 39.585 25.7335C39.4039 25.9532 39.4357 26.2797 39.6553 26.4601L39.8936 26.6495C41.0838 27.5645 42.2878 28.0113 43.4912 28.0118C43.6887 28.0118 43.8896 27.999 44.0889 27.9747L44.3096 27.9425C45.4039 27.7575 46.3032 27.2259 46.9512 26.7091C47.6383 26.161 48.03 25.64 48.0576 25.6026L48.1113 25.5128C48.2117 25.2958 48.1498 25.0318 47.9502 24.8829V24.8819Z" fill="black"/>
<path d="M17.1852 28.348C16.9072 28.348 16.6268 28.3249 16.3488 28.2787C13.8512 27.867 12.3753 25.7275 12.3151 25.6373C12.0787 25.2857 12.1691 24.8115 12.5213 24.5733C12.8711 24.3351 13.3484 24.4276 13.5847 24.7768C13.6033 24.8046 14.7756 26.4746 16.6106 26.7706C17.732 26.9533 18.909 26.5856 20.1068 25.6789C20.4451 25.4245 20.9247 25.4892 21.1818 25.8269C21.4367 26.1646 21.3718 26.6434 21.0336 26.9001C19.7593 27.8623 18.4687 28.348 17.1852 28.348Z" fill="#060D15"/>
<path d="M12.4697 24.312C12.893 24.0831 13.4219 24.186 13.7295 24.5542L13.792 24.6372L13.793 24.6381L13.9971 24.896C14.1311 25.0526 14.3286 25.2645 14.5811 25.4848C15.0866 25.926 15.7964 26.3861 16.6504 26.5239L16.8457 26.5493C17.8238 26.6482 18.867 26.3042 19.9561 25.4799V25.479L20.043 25.4213C20.4536 25.1728 20.9846 25.2441 21.3135 25.5961L21.3809 25.6753L21.3818 25.6762L21.4395 25.7622C21.7067 26.2018 21.605 26.78 21.1846 27.0991V27.1001C19.8778 28.0868 18.5355 28.598 17.1855 28.5981C16.8937 28.5981 16.5991 28.5734 16.3076 28.5249V28.5239C14.9985 28.3079 13.9637 27.6418 13.2539 27.0258C12.5455 26.411 12.1485 25.8357 12.1084 25.7758L12.1074 25.7768C11.7948 25.3117 11.9143 24.6826 12.3809 24.3667L12.4697 24.312ZM13.377 24.9145C13.2375 24.7105 12.9744 24.6382 12.7539 24.7299L12.6621 24.7797L12.6611 24.7807C12.4538 24.9212 12.3809 25.1824 12.4727 25.4047L12.5225 25.4975L12.5234 25.4985L12.6035 25.6108C12.748 25.8032 13.0818 26.2148 13.582 26.6489C14.2078 27.1919 15.0838 27.7605 16.1699 27.9907L16.3896 28.0317L16.5889 28.061C16.7877 28.0857 16.9875 28.0981 17.1855 28.0981C18.4025 28.098 19.6413 27.6381 20.8828 26.7006L20.959 26.6294C21.1179 26.4486 21.1331 26.1766 20.9824 25.977V25.976C20.8088 25.7499 20.4852 25.706 20.2568 25.8774L20.2578 25.8784C19.1011 26.7539 17.9349 27.1619 16.7978 27.0473L16.5703 27.017C15.5897 26.8587 14.7958 26.3364 14.252 25.8618C13.7073 25.3865 13.3958 24.9437 13.377 24.9155V24.9145Z" fill="black"/>
<path d="M43.8524 41.9183C43.8779 41.3354 43.8455 40.7525 43.7945 40.1696C43.7551 37.9839 43.8176 35.7889 43.8176 33.6054C43.8176 32.7936 42.9766 32.1367 41.941 32.1367H18.6144C17.5788 32.1367 16.7377 32.7936 16.7377 33.6054C16.7377 35.7889 16.8003 37.9839 16.7609 40.1696C16.7122 40.7525 16.6798 41.3377 16.703 41.9183C16.703 41.9553 16.7007 41.9923 16.6983 42.027C16.6659 42.6676 16.7447 43.1973 16.9903 43.6322C17.215 44.03 17.5788 44.3492 18.1256 44.599C21.8164 46.2944 25.8964 47.0738 29.951 47.0392C30.0599 47.0392 30.1665 47.0345 30.2754 47.0322C30.3843 47.0322 30.4908 47.0392 30.5997 47.0392C34.6543 47.0738 38.7321 46.2944 42.4252 44.599C42.972 44.3492 43.3357 44.03 43.5605 43.6322C43.8061 43.1973 43.8848 42.6676 43.8524 42.027C43.8524 41.9899 43.8501 41.9529 43.8478 41.9183H43.8524Z" fill="white"/>
<path d="M20.5864 35.1251C4.42834 35.1251 -2.56175 25.7877 -2.85368 25.3875C-3.10159 25.0452 -3.02744 24.5664 -2.68454 24.3189C-2.34164 24.0691 -1.86204 24.1455 -1.61413 24.4878C-1.53768 24.5919 5.26011 33.5962 20.598 33.5962C20.7254 33.5962 20.8528 33.5962 20.9826 33.5962H20.9895C21.4089 33.5962 21.7518 33.9339 21.7564 34.3549C21.7611 34.7782 21.4205 35.1228 20.9965 35.1274C20.8598 35.1274 20.7208 35.1274 20.5864 35.1274V35.1251Z" fill="white"/>
<path d="M0.116879 48.7113C-0.223705 48.7113 -0.534173 48.4823 -0.624532 48.1376C-0.731109 47.7282 -0.485505 47.3096 -0.0754133 47.2032L19.229 42.1887C19.6391 42.08 20.0584 42.3275 20.165 42.7369C20.2716 43.1463 20.026 43.5649 19.6159 43.6713L0.311505 48.6858C0.246632 48.702 0.181752 48.7113 0.116879 48.7113Z" fill="white"/>
<path d="M40.0373 35.125C39.9006 35.125 39.7639 35.125 39.6272 35.125C39.2032 35.1203 38.8626 34.7757 38.8672 34.3524C38.8719 33.9292 39.224 33.5845 39.6411 33.5938C39.7708 33.5938 39.9006 33.5938 40.028 33.5938C55.4238 33.5938 62.1706 24.5778 62.2378 24.4853C62.488 24.143 62.9676 24.069 63.3082 24.3165C63.6511 24.564 63.7276 25.0451 63.4774 25.3851C63.1854 25.7852 56.193 35.1226 40.0373 35.1226V35.125Z" fill="white"/>
<path d="M60.5066 48.7113C60.4417 48.7113 60.3769 48.7043 60.312 48.6858L41.0076 43.6713C40.5975 43.5649 40.3519 43.1463 40.4585 42.7369C40.5651 42.3275 40.9821 42.08 41.3945 42.1887L60.6989 47.2032C61.109 47.3096 61.3546 47.7282 61.248 48.1376C61.1577 48.4823 60.8472 48.7113 60.5066 48.7113Z" fill="white"/>
</g>
<defs>
<filter id="filter0_f_9527_46669" x="44.1592" y="25.9395" width="18.7393" height="17.2024" filterUnits="userSpaceOnUse" color-interpolation-filters="sRGB">
<feFlood flood-opacity="0" result="BackgroundImageFix"/>
<feBlend mode="normal" in="SourceGraphic" in2="BackgroundImageFix" result="shape"/>
<feGaussianBlur stdDeviation="2" result="effect1_foregroundBlur_9527_46669"/>
</filter>
<filter id="filter1_f_9527_46669" x="-2.7124" y="25.9395" width="18.5693" height="17.2041" filterUnits="userSpaceOnUse" color-interpolation-filters="sRGB">
<feFlood flood-opacity="0" result="BackgroundImageFix"/>
<feBlend mode="normal" in="SourceGraphic" in2="BackgroundImageFix" result="shape"/>
<feGaussianBlur stdDeviation="2" result="effect1_foregroundBlur_9527_46669"/>
</filter>
<radialGradient id="paint0_radial_9527_46669" cx="0" cy="0" r="1" gradientUnits="userSpaceOnUse" gradientTransform="translate(16.9985 6) rotate(60.9454) scale(61.7738)">
<stop stop-color="#9ED7FF"/>
<stop offset="1" stop-color="#68C4FF"/>
</radialGradient>
<clipPath id="clip0_9527_46669">
<rect width="60" height="60" rx="30" fill="white"/>
</clipPath>
</defs>
</svg>
