<svg width="60" height="60" viewBox="0 0 60 60" fill="none" xmlns="http://www.w3.org/2000/svg">
<circle cx="29.9987" cy="30" r="29.5" fill="#F6F9FF" stroke="#DBE5FD" stroke-linecap="round"/>
<path d="M30 16C37.732 16 44 22.268 44 30C44 37.732 37.732 44 30 44C22.268 44 16 37.732 16 30C16 22.268 22.268 16 30 16ZM25.417 34.0781C25.1853 33.7772 24.7587 33.6946 24.4287 33.8984C24.0984 34.1029 23.9818 34.5224 24.1484 34.8643L24.1855 34.9307L24.4238 35.292C25.6705 37.0553 27.7 38.2118 30 38.2119C32.4533 38.2118 34.5984 36.8953 35.8145 34.9307C36.0321 34.5786 35.924 34.1165 35.5723 33.8984C35.2201 33.6805 34.7571 33.7895 34.5391 34.1416C33.5777 35.6946 31.8992 36.7118 30 36.7119C28.2195 36.7118 26.6329 35.8181 25.6494 34.4268L25.4609 34.1416L25.417 34.0781ZM25.5205 24.7656C25.1324 24.7656 24.8131 25.0605 24.7744 25.4385L24.7705 25.5156V25.6348C24.7705 26.049 25.1063 26.3848 25.5205 26.3848H25.6689L25.7451 26.3809C26.0981 26.345 26.3792 26.0649 26.415 25.7119L26.4189 25.6348V25.5156C26.4189 25.1273 26.1233 24.8079 25.7451 24.7695L25.6689 24.7656H25.5205ZM34.4805 24.7656C34.0923 24.7656 33.773 25.0605 33.7344 25.4385L33.7305 25.5156V25.6348C33.7305 26.049 34.0663 26.3848 34.4805 26.3848H34.6123C35.0005 26.3846 35.32 26.09 35.3584 25.7119L35.3623 25.6348V25.5156C35.3623 25.1276 35.0673 24.8083 34.6895 24.7695L34.6123 24.7656H34.4805Z" fill="#94B2FA"/>
</svg>
