<svg width="66" height="60" viewBox="0 0 66 60" fill="none" xmlns="http://www.w3.org/2000/svg">
<circle cx="32.9985" cy="30" r="30" fill="url(#paint0_radial_9527_45545)"/>
<g filter="url(#filter0_f_9527_45545)">
<path d="M61.8985 32.1658C61.4395 34.4958 60.7095 36.7258 59.7385 38.8258C58.7285 39.1458 57.5585 39.2358 56.3495 39.0358C53.0995 38.4958 50.7885 36.0358 51.2085 33.5558C51.6185 31.0758 54.5875 29.5058 57.8495 30.0458C59.5395 30.3258 60.9685 31.1258 61.8985 32.1658Z" fill="#FF9A61" fill-opacity="0.5"/>
</g>
<g filter="url(#filter1_f_9527_45545)">
<path d="M14.8076 33.5558C15.2276 36.0358 12.9176 38.4958 9.66759 39.0358C8.5476 39.2258 7.4676 39.1558 6.5076 38.8958C5.4976 36.7258 4.7476 34.4158 4.2876 31.9958C5.2076 31.0358 6.57759 30.3158 8.16759 30.0458C11.4276 29.5058 14.3966 31.0758 14.8076 33.5558Z" fill="#FF9A61" fill-opacity="0.5"/>
</g>
<path d="M17.2967 27.4838C17.2967 28.7808 16.2447 29.8338 14.9467 29.8338C13.6497 29.8338 12.5967 28.7808 12.5967 27.4838C12.5967 26.1858 13.6487 25.1338 14.9467 25.1338C16.2447 25.1348 17.2967 26.1868 17.2967 27.4838Z" fill="black"/>
<path d="M53.5985 27.4838C53.5985 28.7808 52.5465 29.8338 51.2475 29.8338C49.9505 29.8338 48.8975 28.7808 48.8975 27.4838C48.8975 26.1858 49.9505 25.1338 51.2475 25.1338C52.5465 25.1348 53.5985 26.1868 53.5985 27.4838Z" fill="black"/>
<path d="M33 41.943C30.243 41.943 28 39.043 28 35.478C28 35.064 28.336 34.728 28.75 34.728C29.164 34.728 29.5 35.064 29.5 35.478C29.5 38.215 31.07 40.443 33 40.443C34.931 40.443 36.502 38.215 36.502 35.478C36.502 35.064 36.838 34.728 37.252 34.728C37.666 34.728 38.002 35.064 38.002 35.478C38.002 39.043 35.757 41.943 33 41.943Z" fill="black"/>
<path d="M29.25 35.478C29.25 35.2021 29.0259 34.978 28.75 34.978C28.4741 34.978 28.25 35.2021 28.25 35.478C28.25 38.9685 30.437 41.6929 33 41.6929C35.4829 41.6929 37.6152 39.1361 37.7461 35.8032L37.752 35.478C37.752 35.2021 37.5279 34.978 37.252 34.978C36.976 34.9781 36.752 35.2021 36.752 35.478C36.752 36.8921 36.3468 38.1854 35.6797 39.1313C35.0131 40.0764 34.0688 40.6929 33 40.6929C31.9317 40.6929 30.9884 40.0762 30.3223 39.1313C29.6555 38.1854 29.25 36.8921 29.25 35.478ZM38.2451 35.8179C38.1072 39.3071 35.8586 42.1929 33 42.1929C30.049 42.1929 27.75 39.1176 27.75 35.478C27.75 34.926 28.1979 34.478 28.75 34.478C29.3021 34.478 29.75 34.926 29.75 35.478C29.75 36.801 30.1297 37.9909 30.7305 38.8433C31.3318 39.6963 32.1385 40.1929 33 40.1929C33.862 40.1929 34.6689 39.6961 35.2705 38.8433C35.8716 37.991 36.252 36.8009 36.252 35.478C36.252 34.926 36.6999 34.4781 37.252 34.478C37.804 34.478 38.252 34.926 38.252 35.478L38.2451 35.8179Z" fill="black"/>
<defs>
<filter id="filter0_f_9527_45545" x="47.1592" y="25.9395" width="18.7393" height="17.2024" filterUnits="userSpaceOnUse" color-interpolation-filters="sRGB">
<feFlood flood-opacity="0" result="BackgroundImageFix"/>
<feBlend mode="normal" in="SourceGraphic" in2="BackgroundImageFix" result="shape"/>
<feGaussianBlur stdDeviation="2" result="effect1_foregroundBlur_9527_45545"/>
</filter>
<filter id="filter1_f_9527_45545" x="0.287598" y="25.9395" width="18.5693" height="17.2041" filterUnits="userSpaceOnUse" color-interpolation-filters="sRGB">
<feFlood flood-opacity="0" result="BackgroundImageFix"/>
<feBlend mode="normal" in="SourceGraphic" in2="BackgroundImageFix" result="shape"/>
<feGaussianBlur stdDeviation="2" result="effect1_foregroundBlur_9527_45545"/>
</filter>
<radialGradient id="paint0_radial_9527_45545" cx="0" cy="0" r="1" gradientUnits="userSpaceOnUse" gradientTransform="translate(19.9985 6) rotate(60.9454) scale(61.7738)">
<stop stop-color="#FFDE65"/>
<stop offset="1" stop-color="#FFCE1B"/>
</radialGradient>
</defs>
</svg>
