<svg width="60" height="60" viewBox="0 0 60 60" fill="none" xmlns="http://www.w3.org/2000/svg">
<g clip-path="url(#clip0_8165_82287)">
<circle cx="30" cy="30" r="30" fill="url(#paint0_radial_8165_82287)"/>
<g filter="url(#filter0_f_8165_82287)">
<path d="M58.8994 32.1658C58.4404 34.4958 57.7105 36.7258 56.7395 38.8258C55.7295 39.1458 54.5595 39.2358 53.3505 39.0358C50.1005 38.4958 47.7894 36.0358 48.2094 33.5558C48.6194 31.0758 51.5885 29.5058 54.8505 30.0458C56.5405 30.3258 57.9694 31.1258 58.8994 32.1658Z" fill="#FF9A61" fill-opacity="0.5"/>
</g>
<g filter="url(#filter1_f_8165_82287)">
<path d="M11.8091 33.5558C12.2291 36.0358 9.91906 38.4958 6.66906 39.0358C5.54906 39.2258 4.46906 39.1558 3.50906 38.8958C2.49906 36.7258 1.74906 34.4158 1.28906 31.9958C2.20906 31.0358 3.57906 30.3158 5.16906 30.0458C8.42906 29.5058 11.3981 31.0758 11.8091 33.5558Z" fill="#FF9A61" fill-opacity="0.5"/>
</g>
<path d="M30.0183 33.5078C35.2513 33.5078 37.9973 38.4538 35.5253 40.3398C33.3733 41.9818 32.5323 39.5658 30.0353 39.5658C27.5393 39.5658 26.3953 41.8028 24.5113 40.3398C22.0543 38.4328 25.1423 33.5078 30.0183 33.5078Z" fill="black"/>
<path d="M49.082 41.6474C49.082 39.2414 48.176 37.8854 47.576 36.9894C47.167 36.3774 47.082 36.2504 47.082 35.6654C47.082 35.0784 47.167 34.9514 47.576 34.3394C48.164 33.4604 49.04 32.1344 49.075 29.8184C48.451 31.0114 47.259 31.8324 45.878 31.8324C44.7 31.8324 43.663 31.2334 42.991 30.3204C42.92 30.5064 42.797 30.6924 42.588 31.0054C41.988 31.9024 41.082 33.2584 41.082 35.6654C41.082 38.0714 41.988 39.4274 42.588 40.3234C42.997 40.9354 43.082 41.0624 43.082 41.6474C43.082 42.2344 42.997 42.3614 42.588 42.9734C41.988 43.8704 41.082 45.2274 41.082 47.6344C41.082 50.0414 41.987 51.3994 42.587 52.2964C42.997 52.9094 43.082 53.0374 43.082 53.6254C43.082 54.2134 42.997 54.3414 42.587 54.9544C42.019 55.8054 41.185 57.0814 41.099 59.2624C44.008 58.0764 46.685 56.4394 49.044 54.4354C49.067 54.1794 49.082 53.9114 49.082 53.6264C49.082 51.2194 48.177 49.8624 47.577 48.9654C47.167 48.3524 47.082 48.2244 47.082 47.6354C47.082 47.0484 47.167 46.9204 47.577 46.3074C48.176 45.4104 49.082 44.0544 49.082 41.6474Z" fill="#38B6FF"/>
<path d="M10.8281 41.6474C10.8281 39.2414 11.7341 37.8854 12.3341 36.9894C12.7431 36.3774 12.8281 36.2504 12.8281 35.6654C12.8281 35.0784 12.7431 34.9514 12.3341 34.3394C11.7461 33.4604 10.8701 32.1344 10.8351 29.8184C11.4591 31.0114 12.6501 31.8324 14.0321 31.8324C15.2101 31.8324 16.2471 31.2334 16.9191 30.3204C16.9901 30.5064 17.1131 30.6924 17.3221 31.0054C17.9221 31.9024 18.8281 33.2584 18.8281 35.6654C18.8281 38.0714 17.9221 39.4274 17.3221 40.3234C16.9131 40.9354 16.8281 41.0624 16.8281 41.6474C16.8281 42.2344 16.9131 42.3614 17.3221 42.9734C17.9221 43.8704 18.8281 45.2274 18.8281 47.6344C18.8281 50.0414 17.9231 51.3994 17.3231 52.2964C16.9131 52.9094 16.8281 53.0374 16.8281 53.6254C16.8281 54.2134 16.9131 54.3414 17.3231 54.9544C17.8911 55.8054 18.7251 57.0814 18.8111 59.2624C15.9021 58.0764 13.2251 56.4394 10.8661 54.4354C10.8431 54.1794 10.8281 53.9114 10.8281 53.6264C10.8281 51.2194 11.7331 49.8624 12.3331 48.9654C12.7431 48.3524 12.8281 48.2244 12.8281 47.6354C12.8281 47.0484 12.7431 46.9204 12.3331 46.3074C11.7341 45.4104 10.8281 44.0544 10.8281 41.6474Z" fill="#38B6FF"/>
<path d="M14.0254 31.8328C12.0044 31.8328 10.3594 30.0988 10.3594 27.9658C10.3594 27.5518 10.6954 27.2158 11.1094 27.2158C11.5234 27.2158 11.8594 27.5518 11.8594 27.9658C11.8594 29.2718 12.8314 30.3328 14.0254 30.3328C15.2194 30.3328 16.1914 29.2718 16.1914 27.9658C16.1914 27.5518 16.5274 27.2158 16.9414 27.2158C17.3554 27.2158 17.6914 27.5518 17.6914 27.9658C17.6914 30.0988 16.0474 31.8328 14.0254 31.8328Z" fill="black"/>
<path d="M11.6094 27.9658C11.6094 27.6899 11.3853 27.4658 11.1094 27.4658C10.8334 27.4658 10.6094 27.6899 10.6094 27.9658C10.6094 29.9734 12.1548 31.583 14.0254 31.583C15.8969 31.583 17.4414 29.9735 17.4414 27.9658C17.4414 27.6899 17.2173 27.4658 16.9414 27.4658C16.6655 27.4658 16.4414 27.6899 16.4414 27.9658C16.4414 29.3886 15.3778 30.583 14.0254 30.583C12.673 30.583 11.6094 29.3886 11.6094 27.9658ZM17.9414 27.9658C17.9414 30.2242 16.1979 32.083 14.0254 32.083C11.854 32.083 10.1094 30.2242 10.1094 27.9658C10.1094 27.4137 10.5573 26.9658 11.1094 26.9658C11.6614 26.9658 12.1094 27.4137 12.1094 27.9658C12.1094 29.155 12.9898 30.083 14.0254 30.083C15.061 30.083 15.9414 29.155 15.9414 27.9658C15.9414 27.4137 16.3893 26.9658 16.9414 26.9658C17.4935 26.9658 17.9414 27.4138 17.9414 27.9658Z" fill="black"/>
<path d="M45.8769 31.8328C43.8549 31.8328 42.2109 30.0988 42.2109 27.9658C42.2109 27.5518 42.5469 27.2158 42.9609 27.2158C43.3749 27.2158 43.7109 27.5518 43.7109 27.9658C43.7109 29.2718 44.6829 30.3328 45.8769 30.3328C47.0709 30.3328 48.0429 29.2718 48.0429 27.9658C48.0429 27.5518 48.3789 27.2158 48.7929 27.2158C49.2069 27.2158 49.5429 27.5518 49.5429 27.9658C49.5429 30.0988 47.8979 31.8328 45.8769 31.8328Z" fill="black"/>
<path d="M43.4609 27.9658C43.4609 27.6899 43.2369 27.4658 42.9609 27.4658C42.685 27.4658 42.4609 27.6899 42.4609 27.9658C42.4609 29.9735 44.0054 31.583 45.877 31.583C47.7475 31.583 49.293 29.9734 49.293 27.9658C49.293 27.6899 49.0689 27.4659 48.793 27.4658C48.517 27.4658 48.293 27.6899 48.293 27.9658C48.293 29.3886 47.2294 30.583 45.877 30.583C44.5245 30.583 43.4609 29.3886 43.4609 27.9658ZM49.793 27.9658C49.793 30.2242 48.0484 32.083 45.877 32.083C43.7045 32.083 41.9609 30.2242 41.9609 27.9658C41.9609 27.4137 42.4089 26.9658 42.9609 26.9658C43.513 26.9658 43.9609 27.4137 43.9609 27.9658C43.9609 29.155 44.8414 30.083 45.877 30.083C46.9125 30.083 47.793 29.155 47.793 27.9658C47.793 27.4137 48.2409 26.9658 48.793 26.9658C49.345 26.9659 49.793 27.4138 49.793 27.9658Z" fill="black"/>
</g>
<defs>
<filter id="filter0_f_8165_82287" x="44.1602" y="25.9395" width="18.7393" height="17.2024" filterUnits="userSpaceOnUse" color-interpolation-filters="sRGB">
<feFlood flood-opacity="0" result="BackgroundImageFix"/>
<feBlend mode="normal" in="SourceGraphic" in2="BackgroundImageFix" result="shape"/>
<feGaussianBlur stdDeviation="2" result="effect1_foregroundBlur_8165_82287"/>
</filter>
<filter id="filter1_f_8165_82287" x="-2.71094" y="25.9395" width="18.5693" height="17.2041" filterUnits="userSpaceOnUse" color-interpolation-filters="sRGB">
<feFlood flood-opacity="0" result="BackgroundImageFix"/>
<feBlend mode="normal" in="SourceGraphic" in2="BackgroundImageFix" result="shape"/>
<feGaussianBlur stdDeviation="2" result="effect1_foregroundBlur_8165_82287"/>
</filter>
<radialGradient id="paint0_radial_8165_82287" cx="0" cy="0" r="1" gradientUnits="userSpaceOnUse" gradientTransform="translate(17 6) rotate(60.9454) scale(61.7738)">
<stop stop-color="#FFDE65"/>
<stop offset="1" stop-color="#FFCE1B"/>
</radialGradient>
<clipPath id="clip0_8165_82287">
<rect width="60" height="60" rx="30" fill="white"/>
</clipPath>
</defs>
</svg>
