<svg width="66" height="61" viewBox="0 0 66 61" fill="none" xmlns="http://www.w3.org/2000/svg">
<circle cx="32.999" cy="30" r="30" fill="url(#paint0_radial_9527_45531)"/>
<g filter="url(#filter0_f_9527_45531)">
<path d="M49.7301 43.1528C49.1903 42.2808 48.0434 42.0102 47.1699 42.5492L40.4949 46.6662C40.3883 46.4928 40.1219 46.088 40.0038 45.9214L48.9099 40.0905C49.7533 39.5053 49.9641 38.3488 49.3779 37.5046C48.7917 36.6626 47.6333 36.4522 46.7876 37.0374L37.4389 43.516C37.0335 43.2477 36.9431 43.1066 36.4983 42.9007C39.2021 41.018 42.7817 38.5755 43.8058 37.8538C44.6445 37.2617 44.802 36.0405 44.2089 35.2032C43.6158 34.3636 42.2488 33.9819 41.4101 34.5741C37.7911 37.1276 31.8367 41.3094 31.2575 41.661C31.0953 41.7581 30.9586 41.883 30.8381 42.0172C30.7385 42.031 30.6411 42.0472 30.5438 42.0611C30.7176 39.3226 30.8219 35.8809 30.3817 34.5555C30.0712 33.6211 29.6148 33.103 29.0263 33.0128C28.2084 32.8902 27.6014 33.6859 27.5365 33.7761C27.4994 33.827 27.4716 33.8825 27.4554 33.9426L23.475 47.3717C23.1691 48.1627 23 49.0069 23 49.8859C23 54.2874 27.789 58.6613 32.9163 58.6613C35.5182 58.6613 39.5148 56.2581 39.6098 56.2026L47.8627 51.306C48.6574 50.8342 48.9192 49.8095 48.4465 49.0139C47.9739 48.2205 46.9451 47.9592 46.1504 48.431L41.7368 51.0493C41.7368 50.9776 41.7414 50.9059 41.7414 50.8319C41.7414 50.6445 41.7298 50.4595 41.7159 50.2721L49.1207 45.7064C49.9942 45.1674 50.2653 44.0225 49.7255 43.1505L49.7301 43.1528Z" fill="#F1C222"/>
</g>
<path d="M47.7301 44.1528C47.1903 43.2808 46.0434 43.0102 45.1699 43.5492L38.4949 47.6662C38.3883 47.4928 38.1219 47.088 38.0038 46.9214L46.9099 41.0905C47.7533 40.5053 47.9641 39.3488 47.3779 38.5046C46.7917 37.6626 45.6333 37.4522 44.7876 38.0374L35.4389 44.516C35.0335 44.2477 34.9431 44.1066 34.4983 43.9007C37.2021 42.018 40.7817 39.5755 41.8058 38.8538C42.6445 38.2617 42.802 37.0405 42.2089 36.2032C41.6158 35.3636 40.2488 34.9819 39.4101 35.5741C35.7911 38.1276 29.8367 42.3094 29.2575 42.661C29.0953 42.7581 28.9586 42.883 28.8381 43.0172C28.7385 43.031 28.6411 43.0472 28.5438 43.0611C28.7176 40.3226 28.8219 36.8809 28.3817 35.5555C28.0712 34.6211 27.6148 34.103 27.0263 34.0128C26.2084 33.8902 25.6014 34.6859 25.5365 34.7761C25.4994 34.827 25.4716 34.8825 25.4554 34.9426L21.475 48.3717C21.1691 49.1627 21 50.0069 21 50.8859C21 55.2874 25.789 59.6613 30.9163 59.6613C33.5182 59.6613 37.5148 57.2581 37.6098 57.2026L45.8627 52.306C46.6574 51.8342 46.9192 50.8095 46.4465 50.0139C45.9739 49.2205 44.9451 48.9592 44.1504 49.431L39.7368 52.0493C39.7368 51.9776 39.7414 51.9059 39.7414 51.8319C39.7414 51.6445 39.7298 51.4595 39.7159 51.2721L47.1207 46.7064C47.9942 46.1674 48.2653 45.0225 47.7255 44.1505L47.7301 44.1528Z" fill="#FFEA9E"/>
<g filter="url(#filter1_f_9527_45531)">
<path d="M61.8985 32.1658C61.4395 34.4958 60.7095 36.7258 59.7385 38.8258C58.7285 39.1458 57.5585 39.2358 56.3495 39.0358C53.0995 38.4958 50.7885 36.0358 51.2085 33.5558C51.6185 31.0758 54.5875 29.5058 57.8495 30.0458C59.5395 30.3258 60.9685 31.1258 61.8985 32.1658Z" fill="#FF9A61" fill-opacity="0.5"/>
</g>
<g filter="url(#filter2_f_9527_45531)">
<path d="M14.8081 33.5558C15.2281 36.0358 12.9181 38.4958 9.66808 39.0358C8.54808 39.2258 7.46809 39.1558 6.50809 38.8958C5.49809 36.7258 4.74809 34.4158 4.28809 31.9958C5.20809 31.0358 6.57808 30.3158 8.16808 30.0458C11.4281 29.5058 14.3971 31.0758 14.8081 33.5558Z" fill="#FF9A61" fill-opacity="0.5"/>
</g>
<path d="M22 24.5C22 26.9855 20.4321 29 18.4993 29C16.5665 29 15 26.9855 15 24.5C15 22.0164 16.5665 20 18.4993 20C20.4321 20 22 22.0145 22 24.5Z" fill="black"/>
<path d="M51 24.5C51 26.9855 49.4321 29 47.4993 29C45.5665 29 44 26.9855 44 24.5C44 22.0164 45.5665 20 47.4993 20C49.4321 20 51 22.0145 51 24.5Z" fill="black"/>
<defs>
<filter id="filter0_f_9527_45531" x="21" y="31" width="31.0032" height="29.6614" filterUnits="userSpaceOnUse" color-interpolation-filters="sRGB">
<feFlood flood-opacity="0" result="BackgroundImageFix"/>
<feBlend mode="normal" in="SourceGraphic" in2="BackgroundImageFix" result="shape"/>
<feGaussianBlur stdDeviation="1" result="effect1_foregroundBlur_9527_45531"/>
</filter>
<filter id="filter1_f_9527_45531" x="47.1592" y="25.9395" width="18.7393" height="17.2024" filterUnits="userSpaceOnUse" color-interpolation-filters="sRGB">
<feFlood flood-opacity="0" result="BackgroundImageFix"/>
<feBlend mode="normal" in="SourceGraphic" in2="BackgroundImageFix" result="shape"/>
<feGaussianBlur stdDeviation="2" result="effect1_foregroundBlur_9527_45531"/>
</filter>
<filter id="filter2_f_9527_45531" x="0.288086" y="25.9395" width="18.5693" height="17.2041" filterUnits="userSpaceOnUse" color-interpolation-filters="sRGB">
<feFlood flood-opacity="0" result="BackgroundImageFix"/>
<feBlend mode="normal" in="SourceGraphic" in2="BackgroundImageFix" result="shape"/>
<feGaussianBlur stdDeviation="2" result="effect1_foregroundBlur_9527_45531"/>
</filter>
<radialGradient id="paint0_radial_9527_45531" cx="0" cy="0" r="1" gradientUnits="userSpaceOnUse" gradientTransform="translate(19.999 6) rotate(60.9454) scale(61.7738)">
<stop stop-color="#FFDE65"/>
<stop offset="1" stop-color="#FFCE1B"/>
</radialGradient>
</defs>
</svg>
