<svg width="60" height="60" viewBox="0 0 60 60" fill="none" xmlns="http://www.w3.org/2000/svg">
<circle cx="29.9986" cy="30" r="30" fill="url(#paint0_radial_6395_44383)"/>
<path d="M30.3917 46.895C33.7497 46.895 36.5267 50.027 35.0297 51.895C34.1647 52.974 26.6187 52.974 25.7547 51.895C24.2567 50.026 27.2637 46.895 30.3917 46.895Z" fill="black"/>
<path d="M15.0455 42.4485C13.0225 42.4485 11.3775 40.7135 11.3775 38.5815C11.3775 38.1675 11.7135 37.8315 12.1275 37.8315C12.5415 37.8315 12.8775 38.1675 12.8775 38.5815C12.8775 39.8865 13.8505 40.9485 15.0455 40.9485C16.2385 40.9485 17.2115 39.8865 17.2115 38.5815C17.2115 38.1675 17.5475 37.8315 17.9615 37.8315C18.3755 37.8315 18.7115 38.1675 18.7115 38.5815C18.7115 40.7135 17.0665 42.4485 15.0455 42.4485Z" fill="black"/>
<path d="M46.8971 42.4485C44.8741 42.4485 43.2291 40.7135 43.2291 38.5815C43.2291 38.1675 43.5651 37.8315 43.9791 37.8315C44.3931 37.8315 44.7291 38.1675 44.7291 38.5815C44.7291 39.8865 45.7021 40.9485 46.8971 40.9485C48.0901 40.9485 49.0631 39.8865 49.0631 38.5815C49.0631 38.1675 49.3991 37.8315 49.8131 37.8315C50.2271 37.8315 50.5631 38.1675 50.5631 38.5815C50.5631 40.7135 48.9191 42.4485 46.8971 42.4485Z" fill="black"/>
<g filter="url(#filter0_f_6395_44383)">
<path d="M50.738 46.2263C50.279 48.5563 49.549 50.7863 48.578 52.8863C47.568 53.2063 46.398 53.2963 45.189 53.0963C41.939 52.5563 39.6279 50.0963 40.0479 47.6163C40.4579 45.1363 43.427 43.5663 46.689 44.1063C48.379 44.3863 49.808 45.1863 50.738 46.2263Z" fill="#E0CBC0" fill-opacity="0.5"/>
</g>
<g filter="url(#filter1_f_6395_44383)">
<path d="M20.5186 47.6163C20.9386 50.0963 18.6286 52.5563 15.3786 53.0963C14.2586 53.2863 13.1786 53.2163 12.2186 52.9563C11.2086 50.7863 10.4586 48.4763 9.99863 46.0563C10.9186 45.0963 12.2886 44.3763 13.8786 44.1063C17.1386 43.5663 20.1076 45.1363 20.5186 47.6163Z" fill="#E0CBC0" fill-opacity="0.5"/>
</g>
<defs>
<filter id="filter0_f_6395_44383" x="35.9987" y="40" width="18.7393" height="17.2024" filterUnits="userSpaceOnUse" color-interpolation-filters="sRGB">
<feFlood flood-opacity="0" result="BackgroundImageFix"/>
<feBlend mode="normal" in="SourceGraphic" in2="BackgroundImageFix" result="shape"/>
<feGaussianBlur stdDeviation="2" result="effect1_foregroundBlur_6395_44383"/>
</filter>
<filter id="filter1_f_6395_44383" x="5.99863" y="40" width="18.5693" height="17.2041" filterUnits="userSpaceOnUse" color-interpolation-filters="sRGB">
<feFlood flood-opacity="0" result="BackgroundImageFix"/>
<feBlend mode="normal" in="SourceGraphic" in2="BackgroundImageFix" result="shape"/>
<feGaussianBlur stdDeviation="2" result="effect1_foregroundBlur_6395_44383"/>
</filter>
<radialGradient id="paint0_radial_6395_44383" cx="0" cy="0" r="1" gradientUnits="userSpaceOnUse" gradientTransform="translate(16.9986 6) rotate(60.9454) scale(61.7738)">
<stop stop-color="#EAE7E2"/>
<stop offset="1" stop-color="#E2DCD0"/>
</radialGradient>
</defs>
</svg>
