<svg width="66" height="60" viewBox="0 0 66 60" fill="none" xmlns="http://www.w3.org/2000/svg">
<circle cx="33" cy="30" r="30" fill="url(#paint0_radial_8165_82296)"/>
<path d="M33.1794 36.2031C30.5156 36.2031 28.3141 37.8202 29.5015 38.7855C30.1875 39.3423 36.1713 39.3423 36.8573 38.7855C38.0447 37.8197 35.6605 36.2031 33.1794 36.2031Z" fill="black"/>
<path d="M55.133 20.467C51.866 20.467 49 17.795 49 14.75C49 14.336 49.336 14 49.75 14C50.164 14 50.5 14.336 50.5 14.75C50.5 16.74 52.481 18.967 55.133 18.967C55.547 18.967 55.883 19.303 55.883 19.717C55.883 20.131 55.547 20.467 55.133 20.467Z" fill="black"/>
<path d="M50.25 14.75C50.25 14.4741 50.0259 14.25 49.75 14.25C49.4741 14.25 49.25 14.4741 49.25 14.75C49.25 17.6406 51.9871 20.2167 55.1328 20.2168C55.4087 20.2168 55.6328 19.9927 55.6328 19.7168C55.6327 19.441 55.4087 19.2168 55.1328 19.2168C52.349 19.2167 50.25 16.8841 50.25 14.75ZM50.75 14.75C50.75 16.5958 52.6128 18.7167 55.1328 18.7168C55.6848 18.7168 56.1327 19.1648 56.1328 19.7168C56.1328 20.2689 55.6849 20.7168 55.1328 20.7168C51.7446 20.7167 48.75 17.9493 48.75 14.75C48.75 14.1979 49.1979 13.75 49.75 13.75C50.3021 13.75 50.75 14.1979 50.75 14.75Z" fill="black"/>
<path d="M10.867 20.467C14.134 20.467 17 17.795 17 14.75C17 14.336 16.664 14 16.25 14C15.836 14 15.5 14.336 15.5 14.75C15.5 16.74 13.519 18.967 10.867 18.967C10.453 18.967 10.117 19.303 10.117 19.717C10.117 20.131 10.453 20.467 10.867 20.467Z" fill="black"/>
<path d="M15.75 14.75C15.75 14.4741 15.9741 14.25 16.25 14.25C16.5259 14.25 16.75 14.4741 16.75 14.75C16.75 17.6406 14.0129 20.2167 10.8672 20.2168C10.5913 20.2168 10.3672 19.9927 10.3672 19.7168C10.3673 19.441 10.5913 19.2168 10.8672 19.2168C13.651 19.2167 15.75 16.8841 15.75 14.75ZM15.25 14.75C15.25 16.5958 13.3872 18.7167 10.8672 18.7168C10.3152 18.7168 9.86729 19.1648 9.86719 19.7168C9.86719 20.2689 10.3151 20.7168 10.8672 20.7168C14.2554 20.7167 17.25 17.9493 17.25 14.75C17.25 14.1979 16.8021 13.75 16.25 13.75C15.6979 13.75 15.25 14.1979 15.25 14.75Z" fill="black"/>
<path d="M19.149 32.3117C22.3379 32.3117 24.923 29.7266 24.923 26.5377C24.923 23.3488 22.3379 20.7637 19.149 20.7637C15.9601 20.7637 13.375 23.3488 13.375 26.5377C13.375 29.7266 15.9601 32.3117 19.149 32.3117Z" fill="black"/>
<path d="M24.9248 25.8071C24.9248 27.0381 23.9258 28.0371 22.6948 28.0371C21.4638 28.0371 20.4648 27.0381 20.4648 25.8071C20.4648 24.5761 21.4638 23.5771 22.6948 23.5771C23.9258 23.5771 24.9248 24.5761 24.9248 25.8071Z" fill="white"/>
<path d="M18.4648 32.0264C19.1552 32.0264 19.7148 31.4667 19.7148 30.7764C19.7148 30.086 19.1552 29.5264 18.4648 29.5264C17.7745 29.5264 17.2148 30.086 17.2148 30.7764C17.2148 31.4667 17.7745 32.0264 18.4648 32.0264Z" fill="white"/>
<path d="M47.5787 32.3117C50.7676 32.3117 53.3527 29.7266 53.3527 26.5377C53.3527 23.3488 50.7676 20.7637 47.5787 20.7637C44.3898 20.7637 41.8047 23.3488 41.8047 26.5377C41.8047 29.7266 44.3898 32.3117 47.5787 32.3117Z" fill="black"/>
<path d="M53.3545 25.8071C53.3545 27.0381 52.3555 28.0371 51.1245 28.0371C49.8935 28.0371 48.8945 27.0381 48.8945 25.8071C48.8945 24.5761 49.8935 23.5771 51.1245 23.5771C52.3555 23.5771 53.3545 24.5761 53.3545 25.8071Z" fill="white"/>
<path d="M46.8945 32.0264C47.5849 32.0264 48.1445 31.4667 48.1445 30.7764C48.1445 30.086 47.5849 29.5264 46.8945 29.5264C46.2042 29.5264 45.6445 30.086 45.6445 30.7764C45.6445 31.4667 46.2042 32.0264 46.8945 32.0264Z" fill="white"/>
<g filter="url(#filter0_f_8165_82296)">
<path d="M61.8994 32.1658C61.4404 34.4958 60.7105 36.7258 59.7395 38.8258C58.7295 39.1458 57.5595 39.2358 56.3505 39.0358C53.1005 38.4958 50.7894 36.0358 51.2094 33.5558C51.6194 31.0758 54.5885 29.5058 57.8505 30.0458C59.5405 30.3258 60.9694 31.1258 61.8994 32.1658Z" fill="#FF9A61" fill-opacity="0.5"/>
</g>
<g filter="url(#filter1_f_8165_82296)">
<path d="M14.8091 33.5558C15.2291 36.0358 12.9191 38.4958 9.66906 39.0358C8.54906 39.2258 7.46906 39.1558 6.50906 38.8958C5.49906 36.7258 4.74906 34.4158 4.28906 31.9958C5.20906 31.0358 6.57906 30.3158 8.16906 30.0458C11.4291 29.5058 14.3981 31.0758 14.8091 33.5558Z" fill="#FF9A61" fill-opacity="0.5"/>
</g>
<defs>
<filter id="filter0_f_8165_82296" x="47.1602" y="25.9395" width="18.7393" height="17.2024" filterUnits="userSpaceOnUse" color-interpolation-filters="sRGB">
<feFlood flood-opacity="0" result="BackgroundImageFix"/>
<feBlend mode="normal" in="SourceGraphic" in2="BackgroundImageFix" result="shape"/>
<feGaussianBlur stdDeviation="2" result="effect1_foregroundBlur_8165_82296"/>
</filter>
<filter id="filter1_f_8165_82296" x="0.289062" y="25.9395" width="18.5693" height="17.2041" filterUnits="userSpaceOnUse" color-interpolation-filters="sRGB">
<feFlood flood-opacity="0" result="BackgroundImageFix"/>
<feBlend mode="normal" in="SourceGraphic" in2="BackgroundImageFix" result="shape"/>
<feGaussianBlur stdDeviation="2" result="effect1_foregroundBlur_8165_82296"/>
</filter>
<radialGradient id="paint0_radial_8165_82296" cx="0" cy="0" r="1" gradientUnits="userSpaceOnUse" gradientTransform="translate(20 6) rotate(60.9454) scale(61.7738)">
<stop stop-color="#FFDE65"/>
<stop offset="1" stop-color="#FFCE1B"/>
</radialGradient>
</defs>
</svg>
