<svg width="66" height="60" viewBox="0 0 66 60" fill="none" xmlns="http://www.w3.org/2000/svg">
<circle cx="32.9985" cy="30" r="30" fill="url(#paint0_radial_9527_46671)"/>
<g filter="url(#filter0_f_9527_46671)">
<path d="M61.898 32.1658C61.439 34.4958 60.709 36.7258 59.738 38.8258C58.728 39.1458 57.558 39.2358 56.349 39.0358C53.099 38.4958 50.788 36.0358 51.208 33.5558C51.618 31.0758 54.587 29.5058 57.849 30.0458C59.539 30.3258 60.968 31.1258 61.898 32.1658Z" fill="#FF9A61" fill-opacity="0.5"/>
</g>
<g filter="url(#filter1_f_9527_46671)">
<path d="M14.8076 33.5558C15.2276 36.0358 12.9176 38.4958 9.66759 39.0358C8.5476 39.2258 7.4676 39.1558 6.5076 38.8958C5.4976 36.7258 4.7476 34.4158 4.2876 31.9958C5.2076 31.0358 6.57759 30.3158 8.16759 30.0458C11.4276 29.5058 14.3966 31.0758 14.8076 33.5558Z" fill="#FF9A61" fill-opacity="0.5"/>
</g>
<path d="M16.5509 27.1821C17.3939 27.5391 17.9849 28.3731 17.9849 29.3461C17.9849 30.6441 16.9329 31.6961 15.6349 31.6961C14.3839 31.6961 13.3699 30.7161 13.2979 29.4831L16.5509 27.1821Z" fill="black"/>
<path d="M52.039 27.1821C51.196 27.5391 50.605 28.3731 50.605 29.3461C50.605 30.6441 51.657 31.6961 52.955 31.6961C54.206 31.6961 55.22 30.7161 55.292 29.4831L52.039 27.1821Z" fill="black"/>
<path d="M41.9199 38.4258C40.3899 38.4258 39.5709 37.7818 38.9139 37.2658C38.3179 36.7968 37.8469 36.4258 36.8349 36.4258C35.8239 36.4258 35.3529 36.7968 34.7569 37.2648C34.0999 37.7818 33.2819 38.4258 31.7509 38.4258C30.2209 38.4258 29.4029 37.7818 28.7459 37.2648C28.1499 36.7958 27.6799 36.4258 26.6699 36.4258C26.2559 36.4258 25.9199 36.0898 25.9199 35.6758C25.9199 35.2618 26.2559 34.9258 26.6699 34.9258C28.1999 34.9258 29.0169 35.5688 29.6739 36.0868C30.2699 36.5558 30.7399 36.9258 31.7509 36.9258C32.7619 36.9258 33.2329 36.5548 33.8289 36.0868C34.4859 35.5698 35.3039 34.9258 36.8349 34.9258C38.3659 34.9258 39.1849 35.5688 39.8419 36.0868C40.4379 36.5558 40.9079 36.9258 41.9199 36.9258C42.3339 36.9258 42.6699 37.2618 42.6699 37.6758C42.6699 38.0898 42.3349 38.4258 41.9199 38.4258Z" fill="black"/>
<path d="M25.6699 35.6758C25.6699 35.1237 26.1179 34.6758 26.6699 34.6758C28.288 34.6758 29.1623 35.3649 29.8291 35.8906H29.8281C30.1299 36.1281 30.3753 36.319 30.6641 36.4561C30.9459 36.5899 31.2791 36.6758 31.751 36.6758C32.2225 36.6758 32.5558 36.5899 32.8379 36.4561C33.127 36.3188 33.3729 36.1277 33.6748 35.8906L33.9355 35.6875C34.5717 35.2041 35.4185 34.6758 36.835 34.6758C38.4539 34.6758 39.3301 35.3647 39.9971 35.8906H39.9961C40.2979 36.1281 40.5432 36.319 40.832 36.4561C41.114 36.5899 41.4475 36.6758 41.9199 36.6758C42.472 36.6758 42.9199 37.1237 42.9199 37.6758C42.9199 38.2276 42.4732 38.6758 41.9199 38.6758C40.3022 38.6758 39.4263 37.9863 38.7598 37.4629V37.4619C38.4579 37.2244 38.212 37.0328 37.9229 36.8955C37.6407 36.7616 37.3071 36.6758 36.835 36.6758C36.3632 36.6758 36.0293 36.7615 35.7471 36.8955C35.6026 36.9641 35.469 37.0461 35.334 37.1406L34.9111 37.4609C34.2445 37.9855 33.37 38.6758 31.751 38.6758C30.3353 38.6758 29.4887 38.1475 28.8525 37.6641L28.5918 37.4609C28.29 37.2234 28.0445 37.0326 27.7559 36.8955C27.4741 36.7617 27.1413 36.6758 26.6699 36.6758C26.1179 36.6758 25.6699 36.2279 25.6699 35.6758ZM26.1699 35.6758C26.1699 35.9517 26.394 36.1758 26.6699 36.1758C27.2086 36.1758 27.616 36.2749 27.9707 36.4434C28.3184 36.6085 28.6063 36.8369 28.9004 37.0684L29.1494 37.2617C29.7486 37.7176 30.489 38.1758 31.751 38.1758C33.1939 38.1758 33.9552 37.5778 34.6025 37.0684L34.8232 36.8965C35.0447 36.7272 35.2722 36.5682 35.5332 36.4443C35.8883 36.2758 36.2958 36.1758 36.835 36.1758C37.3746 36.1758 37.7825 36.2756 38.1377 36.4443C38.4859 36.6097 38.7743 36.8379 39.0684 37.0693L39.3174 37.2627C39.9168 37.7179 40.6581 38.1758 41.9199 38.1758C42.1966 38.1758 42.4199 37.9519 42.4199 37.6758C42.4199 37.3999 42.1959 37.1758 41.9199 37.1758C41.3806 37.1758 40.9731 37.0765 40.6182 36.9082C40.3571 36.7843 40.1296 36.6246 39.9082 36.4551L39.6875 36.2832C39.0405 35.7731 38.278 35.1758 36.835 35.1758C35.5721 35.1758 34.8316 35.634 34.2324 36.0898L33.9834 36.2832C33.6893 36.5141 33.4008 36.742 33.0527 36.9072C32.6977 37.0758 32.2902 37.1758 31.751 37.1758C31.2119 37.1758 30.8041 37.0767 30.4492 36.9082C30.1884 36.7844 29.9616 36.6245 29.7402 36.4551L29.5195 36.2832C28.8724 35.773 28.1118 35.1758 26.6699 35.1758C26.394 35.1758 26.1699 35.3999 26.1699 35.6758Z" fill="black"/>
<defs>
<filter id="filter0_f_9527_46671" x="47.1587" y="25.9395" width="18.7393" height="17.2024" filterUnits="userSpaceOnUse" color-interpolation-filters="sRGB">
<feFlood flood-opacity="0" result="BackgroundImageFix"/>
<feBlend mode="normal" in="SourceGraphic" in2="BackgroundImageFix" result="shape"/>
<feGaussianBlur stdDeviation="2" result="effect1_foregroundBlur_9527_46671"/>
</filter>
<filter id="filter1_f_9527_46671" x="0.287598" y="25.9395" width="18.5693" height="17.2041" filterUnits="userSpaceOnUse" color-interpolation-filters="sRGB">
<feFlood flood-opacity="0" result="BackgroundImageFix"/>
<feBlend mode="normal" in="SourceGraphic" in2="BackgroundImageFix" result="shape"/>
<feGaussianBlur stdDeviation="2" result="effect1_foregroundBlur_9527_46671"/>
</filter>
<radialGradient id="paint0_radial_9527_46671" cx="0" cy="0" r="1" gradientUnits="userSpaceOnUse" gradientTransform="translate(19.9985 6) rotate(60.9454) scale(61.7738)">
<stop stop-color="#E6A22F"/>
<stop offset="1" stop-color="#FFCE1B"/>
</radialGradient>
</defs>
</svg>
