<svg width="32" height="32" viewBox="0 0 32 32" fill="none" xmlns="http://www.w3.org/2000/svg">
<g clip-path="url(#clip0_12880_73529)">
<path d="M25.779 10.5H6.221C5.55 10.5 5 11.028 5 11.677V27H27V11.677C27 11.028 26.45 10.5 25.779 10.5Z" fill="#D2D2D2"/>
<path d="M8.30005 7.2C8.30005 5.99 9.29005 5 10.5 5H21.5C22.71 5 23.7 5.99 23.7 7.2V27H8.30005V7.2Z" fill="#EEEEEE"/>
<path d="M13.8 18.1992H18.2C18.805 18.1992 19.3 18.6942 19.3 19.2992V26.9992H12.7V19.2992C12.7 18.6942 13.195 18.1992 13.8 18.1992Z" fill="#919191"/>
<path d="M18.7 10.6824C19.0313 10.6824 19.3 10.9571 19.3 11.2959V12.694C19.3 13.0328 19.0313 13.3075 18.7 13.3075H17.2892V14.7106C17.2892 15.0494 17.0206 15.3241 16.6892 15.3241H15.2989C14.9675 15.3241 14.6989 15.0494 14.6989 14.7106V13.3075H13.3C12.9686 13.3075 12.7 13.0328 12.7 12.694V11.2959C12.7 10.9571 12.9686 10.6824 13.3 10.6824H14.6989V9.29125C14.6989 8.95241 14.9675 8.67773 15.2989 8.67773H16.6892C17.0206 8.67773 17.2892 8.95241 17.2892 9.29125V10.6824H18.7Z" fill="#F14960"/>
</g>
<defs>
<clipPath id="clip0_12880_73529">
<rect width="22" height="22" fill="white" transform="translate(5 5)"/>
</clipPath>
</defs>
</svg>
