<svg width="48" height="48" viewBox="0 0 48 48" fill="none" xmlns="http://www.w3.org/2000/svg">
<rect width="48" height="48" rx="24" fill="#F4F4F4"/>
<g clip-path="url(#clip0_12880_73550)">
<path d="M22.9266 16.1446L20.8687 14.5687C20.3812 14.1976 19.7953 14 19.1906 14H13.4062C12.6281 14 12 14.6458 12 15.4458V32.5542C12 33.3542 12.6281 34 13.4062 34H34.5938C35.3719 34 36 33.3542 36 32.5542V18.1639C36 17.3639 35.3719 16.7181 34.5938 16.7181H24.6047C24 16.7133 23.4141 16.5157 22.9266 16.1446Z" fill="#FA9F19"/>
<path d="M16.0312 18.106H32.9062C33.2953 18.106 33.6094 18.4289 33.6094 18.8289V28.4675C33.6094 28.8675 33.2953 29.1904 32.9062 29.1904H16.0312C15.6422 29.1904 15.3281 28.8675 15.3281 28.4675V18.8289C15.3281 18.4289 15.6422 18.106 16.0312 18.106Z" fill="#FFEAC5"/>
<path d="M15.0938 19.0699H31.9688C32.3578 19.0699 32.6719 19.3928 32.6719 19.7928V29.4313C32.6719 29.8313 32.3578 30.1542 31.9688 30.1542H15.0938C14.7047 30.1542 14.3906 29.8313 14.3906 29.4313V19.7928C14.3906 19.3928 14.7047 19.0699 15.0938 19.0699Z" fill="#FFF7E6"/>
<path d="M13.4062 20.5542H34.5938C35.3719 20.5542 36 21.2 36 22V32.5542C36 33.3542 35.3719 34 34.5938 34H13.4062C12.6281 34 12 33.3542 12 32.5542V22C12 21.2 12.6281 20.5542 13.4062 20.5542Z" fill="#FBC700"/>
</g>
<defs>
<clipPath id="clip0_12880_73550">
<rect width="28" height="28" fill="white" transform="translate(10 10)"/>
</clipPath>
</defs>
</svg>
