<svg width="24" height="24" viewBox="0 0 24 24" fill="none" xmlns="http://www.w3.org/2000/svg">
<rect width="24" height="24" rx="12" fill="#4F5561"/>
<path d="M11.9746 17.127C9.95605 17.127 8.50879 16.0098 8.4707 14.4102H10.4004C10.4385 15.0957 11.0986 15.5527 11.9873 15.5527C12.9014 15.5527 13.5615 15.0322 13.5488 14.2959C13.5615 13.5469 12.8887 13.0137 11.8096 13.0137H10.959V11.6045H11.8096C12.7109 11.6045 13.3457 11.1094 13.3457 10.3857C13.3457 9.6875 12.8125 9.20508 12 9.20508C11.1875 9.20508 10.5146 9.66211 10.4893 10.3604H8.66113C8.68652 8.77344 10.1211 7.68164 12 7.68164C13.917 7.68164 15.1992 8.81152 15.1865 10.2715C15.1992 11.2998 14.4756 12.0361 13.4473 12.2139V12.29C14.793 12.4551 15.542 13.2803 15.5293 14.4229C15.542 15.9971 14.0439 17.127 11.9746 17.127Z" fill="white"/>
</svg>
