<svg width="32" height="32" viewBox="0 0 32 32" fill="none" xmlns="http://www.w3.org/2000/svg">
<path d="M22.9886 4.49023C24.2209 4.49023 25.22 5.48778 25.22 6.71831L25.22 25.2797C25.22 26.5102 24.2209 27.5077 22.9886 27.5077L9.0098 27.5077C7.77743 27.5077 6.7784 26.5102 6.7784 25.2797L6.7784 6.71831C6.7784 5.48778 7.77743 4.49023 9.0098 4.49023L22.9886 4.49023Z" fill="#E6E6E6"/>
<path d="M20.6128 8.16016L20.7085 8.16518C21.1793 8.21313 21.5463 8.61049 21.5463 9.09325C21.5463 9.57601 21.1793 9.97337 20.7085 10.0213L20.6128 10.0263L11.3918 10.0263C10.8759 10.0263 10.4573 9.60834 10.4573 9.09325C10.4573 8.57816 10.8759 8.16016 11.3918 8.16016L20.6128 8.16016Z" fill="#6C7B9C"/>
<path d="M16.0018 13.7559L16.0975 13.7609C16.5686 13.8085 16.9363 14.206 16.9363 14.689C16.9363 15.1719 16.5686 15.5694 16.0975 15.617L16.0018 15.622L11.3918 15.622C10.8759 15.622 10.4573 15.204 10.4573 14.689C10.4573 14.1739 10.8759 13.7559 11.3918 13.7559L16.0018 13.7559Z" fill="#6C7B9C"/>
<path d="M4.57153 5.76918L4.57153 4.32731C4.57153 3.1992 5.48695 2.28516 6.61674 2.28516L8.06077 2.28516L8.18161 2.29722C8.45592 2.35313 8.66195 2.59501 8.66195 2.88543C8.66195 3.17585 8.45592 3.41773 8.18161 3.47365L8.06077 3.48571L6.61674 3.48571C6.15153 3.48571 5.77389 3.86279 5.77389 4.32731L5.77389 5.76918C5.77386 6.10095 5.50498 6.36946 5.17271 6.36946C4.84044 6.36946 4.57156 6.10095 4.57153 5.76918Z" fill="#4C7FF7"/>
<path d="M23.9393 2.28516L25.3833 2.28516C26.5131 2.28516 27.4286 3.1992 27.4286 4.32731V5.76918L27.4165 5.88984C27.3605 6.16374 27.1182 6.36946 26.8274 6.36946C26.5365 6.36946 26.2943 6.16374 26.2383 5.88984L26.2262 5.76918V4.32731C26.2262 3.86279 25.8486 3.48571 25.3833 3.48571L23.9393 3.48571C23.607 3.48568 23.3381 3.21721 23.3381 2.88543C23.3381 2.55366 23.607 2.28519 23.9393 2.28516Z" fill="#4C7FF7"/>
<path d="M8.06077 29.7132H6.61674C5.48695 29.7132 4.57153 28.7992 4.57153 27.6711V26.2292L4.58362 26.1085C4.63961 25.8346 4.88185 25.6289 5.17271 25.6289C5.46356 25.6289 5.70581 25.8346 5.7618 26.1085L5.77389 26.2292V27.6711C5.77389 28.1356 6.15153 28.5127 6.61674 28.5127L8.06077 28.5127C8.39304 28.5127 8.66195 28.7812 8.66195 29.1129C8.66195 29.4447 8.39304 29.7132 8.06077 29.7132Z" fill="#4C7FF7"/>
<path d="M28.5714 24.5706C28.5714 27.4109 26.2688 29.7134 23.4285 29.7134C20.5882 29.7134 18.2856 27.4109 18.2856 24.5706C18.2856 21.7303 20.5882 19.4277 23.4285 19.4277C26.2688 19.4277 28.5714 21.7303 28.5714 24.5706Z" fill="#4C7FF7"/>
<path d="M25.0265 22.5741C25.2786 22.3206 25.688 22.3187 25.9419 22.5705C26.1955 22.8227 26.1974 23.2333 25.9455 23.4871L22.8772 26.5725C22.7557 26.6946 22.5906 26.764 22.4183 26.7641C22.2458 26.7641 22.0798 26.6948 21.9582 26.5725L20.9122 25.5204L20.8304 25.4191C20.6649 25.1671 20.6937 24.8247 20.9159 24.6038C21.1378 24.3837 21.4791 24.357 21.7299 24.5233L21.8325 24.6075L22.4171 25.1958L25.0265 22.5741Z" fill="white"/>
</svg>
