<svg width="20" height="20" viewBox="0 0 20 20" fill="none" xmlns="http://www.w3.org/2000/svg">
<rect width="20" height="20" rx="10" fill="#4F5561"/>
<path d="M10.0938 14.6172C8.33594 14.6055 6.67188 13.5625 6.67188 10.457C6.67188 7.59766 8.04297 5.89844 10.1641 5.89844C11.875 5.89844 13.0352 6.97656 13.2109 8.37109H11.4766C11.3359 7.77344 10.8438 7.41016 10.1641 7.41016C9.01562 7.41016 8.40625 8.45312 8.39453 10.1172H8.47656C8.86328 9.36719 9.70703 8.92188 10.6445 8.92188C12.168 8.92188 13.3047 10.0703 13.3047 11.6641C13.3047 13.3867 12.0039 14.6289 10.0938 14.6172ZM10.082 13.2227C10.9492 13.2227 11.5938 12.5664 11.5938 11.7109C11.5938 10.8672 10.9727 10.1992 10.1055 10.1992C9.23828 10.1992 8.58203 10.8789 8.57031 11.7109C8.58203 12.543 9.21484 13.2227 10.082 13.2227Z" fill="white"/>
</svg>
