<svg width="24" height="24" viewBox="0 0 24 24" fill="none" xmlns="http://www.w3.org/2000/svg">
<path d="M0 12C0 5.37258 5.37258 0 12 0C18.6274 0 24 5.37258 24 12C24 18.6274 18.6274 24 12 24C5.37258 24 0 18.6274 0 12Z" fill="#4F5561"/>
<path d="M8.75635 17L8.74365 15.6162L12.0444 12.582C12.9077 11.7568 13.3647 11.249 13.3647 10.5254C13.3647 9.71289 12.7427 9.20508 11.9048 9.20508C11.0415 9.20508 10.4829 9.75098 10.4829 10.627H8.66748C8.65479 8.82422 9.98779 7.68164 11.9302 7.68164C13.8979 7.68164 15.2056 8.79883 15.2056 10.3984C15.2056 11.4395 14.6978 12.3027 12.8062 14.0166L11.4097 15.375V15.4258H15.3325V17H8.75635Z" fill="white"/>
</svg>
