<svg width="20" height="20" viewBox="0 0 20 20" fill="none" xmlns="http://www.w3.org/2000/svg">
<rect width="20" height="20" rx="10" fill="#4F5561"/>
<path d="M10.0234 14.6172C8.25391 14.6172 6.96484 13.5742 6.92969 12.1094H8.64062C8.67578 12.7773 9.28516 13.2227 10.0234 13.2227C10.9023 13.2227 11.5234 12.6016 11.5234 11.7227C11.5234 10.8203 10.8906 10.1992 10 10.1875C9.36719 10.1875 8.92188 10.4219 8.66406 10.9023H7.07031L7.52734 6.01562H12.7539V7.45703H8.98047L8.74609 9.60156H8.81641C9.13281 9.17969 9.76562 8.88672 10.5156 8.88672C12.0742 8.88672 13.2344 10.0469 13.2344 11.6758C13.2344 13.3867 11.9336 14.6172 10.0234 14.6172Z" fill="white"/>
</svg>
