<svg width="20" height="20" viewBox="0 0 20 20" fill="none" xmlns="http://www.w3.org/2000/svg">
<path d="M0 10C0 4.47715 4.47715 0 10 0C15.5228 0 20 4.47715 20 10C20 15.5228 15.5228 20 10 20C4.47715 20 0 15.5228 0 10Z" fill="#8FC534"/>
<path d="M6.49067 14C6.36172 14 6.23604 13.9494 6.14375 13.8572C6.03051 13.7449 5.97945 13.5852 6.0076 13.4282L6.35452 11.4777C6.37154 11.3797 6.41998 11.2888 6.49067 11.2181L11.3508 6.39939C11.9478 5.80614 12.5343 5.96646 12.855 6.2845L13.6647 7.0874C14.1118 7.53007 14.1118 8.25054 13.6647 8.69385L8.80456 13.5132C8.73386 13.5839 8.64222 13.6313 8.54273 13.6482L6.57576 13.9922C6.54762 13.9974 6.51882 14 6.49067 14Z" fill="white"/>
</svg>
