<svg width="66" height="60" viewBox="0 0 66 60" fill="none" xmlns="http://www.w3.org/2000/svg">
<circle cx="32.999" cy="30" r="30" fill="url(#paint0_radial_9527_45551)"/>
<g filter="url(#filter0_f_9527_45551)">
<path d="M61.8985 32.1658C61.4395 34.4958 60.7095 36.7258 59.7385 38.8258C58.7285 39.1458 57.5585 39.2358 56.3495 39.0358C53.0995 38.4958 50.7885 36.0358 51.2085 33.5558C51.6185 31.0758 54.5875 29.5058 57.8495 30.0458C59.5395 30.3258 60.9685 31.1258 61.8985 32.1658Z" fill="#D50F0F" fill-opacity="0.5"/>
</g>
<g filter="url(#filter1_f_9527_45551)">
<path d="M14.8081 33.5558C15.2281 36.0358 12.9181 38.4958 9.66808 39.0358C8.54808 39.2258 7.46809 39.1558 6.50809 38.8958C5.49809 36.7258 4.74809 34.4158 4.28809 31.9958C5.20809 31.0358 6.57808 30.3158 8.16808 30.0458C11.4281 29.5058 14.3971 31.0758 14.8081 33.5558Z" fill="#D50F0F" fill-opacity="0.5"/>
</g>
<path d="M32.8548 23.2158C40.8748 23.2158 45.7648 29.4558 44.6648 33.6258C38.7348 28.2458 27.6048 27.0058 21.1048 33.6258C20.1448 29.4458 25.3758 23.2158 32.8548 23.2158Z" fill="white"/>
<path d="M44.6655 33.6262C44.4455 34.5252 43.9355 35.3262 43.1155 35.9462C39.1055 39.0062 37.5355 34.5062 32.8855 34.5062C28.2355 34.5062 26.1055 38.6762 22.5955 35.9462C21.7955 35.3152 21.3055 34.5152 21.1055 33.6262C27.6055 27.0062 38.7355 28.2462 44.6655 33.6262Z" fill="white"/>
<path d="M40.4462 38.0127C39.1402 38.0127 38.0302 37.4087 36.9572 36.8237C35.7692 36.1767 34.5412 35.5067 32.8882 35.5067C31.1822 35.5067 29.8412 36.1517 28.5452 36.7747C27.3702 37.3397 26.2612 37.8737 24.9972 37.8737C23.9522 37.8737 22.9652 37.5027 21.9822 36.7397C20.1062 35.2827 19.5112 32.8757 20.3942 30.2997C21.7362 26.3837 26.5592 22.2207 32.8552 22.2207C39.6632 22.2207 44.1452 26.3097 45.4292 30.1097C46.3252 32.7647 45.6872 35.2457 43.7212 36.7447C42.6012 37.5977 41.5302 38.0127 40.4462 38.0127ZM32.8882 33.5057C35.0512 33.5057 36.6392 34.3707 37.9152 35.0677C38.8462 35.5747 39.6502 36.0127 40.4462 36.0127C41.0842 36.0127 41.7402 35.7397 42.5092 35.1537C43.7792 34.1847 44.1532 32.5797 43.5352 30.7487C42.4392 27.5047 38.4192 24.2207 32.8562 24.2207C27.4882 24.2207 23.4042 27.6867 22.2872 30.9487C21.9342 31.9797 21.5842 33.8977 23.2102 35.1597C23.8372 35.6467 24.4062 35.8737 24.9992 35.8737C25.8072 35.8737 26.6752 35.4567 27.6802 34.9737C29.0362 34.3177 30.7252 33.5057 32.8882 33.5057Z" fill="black"/>
<path d="M44.6692 34.3781C44.4892 34.3781 44.3092 34.3141 44.1662 34.1841C38.5202 29.0691 27.8802 27.7971 21.6422 34.1541C21.3532 34.4491 20.8782 34.4551 20.5812 34.1641C20.2852 33.8741 20.2812 33.3991 20.5712 33.1031C27.4052 26.1411 39.0222 27.4991 45.1732 33.0731C45.4802 33.3511 45.5042 33.8251 45.2252 34.1331C45.0772 34.2951 44.8732 34.3781 44.6692 34.3781Z" fill="black"/>
<path d="M13.1879 18.7012C12.3449 19.0582 11.7539 19.8922 11.7539 20.8652C11.7539 22.1642 12.8059 23.2162 14.1039 23.2162C15.3549 23.2162 16.3689 22.2372 16.4409 21.0032L13.1879 18.7012Z" fill="black"/>
<path d="M52.3136 18.7012C53.1566 19.0582 53.7475 19.8922 53.7475 20.8652C53.7475 22.1642 52.6956 23.2162 51.3976 23.2162C50.1466 23.2162 49.1325 22.2372 49.0605 21.0032L52.3136 18.7012Z" fill="black"/>
<defs>
<filter id="filter0_f_9527_45551" x="47.1592" y="25.9395" width="18.7393" height="17.2024" filterUnits="userSpaceOnUse" color-interpolation-filters="sRGB">
<feFlood flood-opacity="0" result="BackgroundImageFix"/>
<feBlend mode="normal" in="SourceGraphic" in2="BackgroundImageFix" result="shape"/>
<feGaussianBlur stdDeviation="2" result="effect1_foregroundBlur_9527_45551"/>
</filter>
<filter id="filter1_f_9527_45551" x="0.288086" y="25.9395" width="18.5693" height="17.2041" filterUnits="userSpaceOnUse" color-interpolation-filters="sRGB">
<feFlood flood-opacity="0" result="BackgroundImageFix"/>
<feBlend mode="normal" in="SourceGraphic" in2="BackgroundImageFix" result="shape"/>
<feGaussianBlur stdDeviation="2" result="effect1_foregroundBlur_9527_45551"/>
</filter>
<radialGradient id="paint0_radial_9527_45551" cx="0" cy="0" r="1" gradientUnits="userSpaceOnUse" gradientTransform="translate(19.999 6) rotate(60.9454) scale(61.7738)">
<stop stop-color="#FF7B69"/>
<stop offset="1" stop-color="#F14F32"/>
</radialGradient>
</defs>
</svg>
