<svg width="66" height="60" viewBox="0 0 66 60" fill="none" xmlns="http://www.w3.org/2000/svg">
<rect x="57.1187" y="47.1172" width="5" height="5" transform="rotate(-91.3596 57.1187 47.1172)" fill="#F14960"/>
<path d="M8.50391 33L3.07598 2.13262C2.68407 0.869398 3.86933 -0.315648 5.13279 0.0761892L36.0039 5.5L8.50391 33Z" fill="#F14960"/>
<mask id="mask0_8165_82273" style="mask-type:alpha" maskUnits="userSpaceOnUse" x="2" y="0" width="35" height="33">
<path d="M8.50391 33L3.07598 2.13262C2.68407 0.869398 3.86933 -0.315648 5.13279 0.0761892L36.0039 5.5L8.50391 33Z" fill="#F14960"/>
</mask>
<g mask="url(#mask0_8165_82273)">
<path d="M6.12994 22.9985L4 16.0143C6.07551 12.0212 8.76587 8.17791 12.0005 4.58472C12.5418 3.98261 13.1581 3.32508 13.8465 2.62412C14.6585 1.79734 15.569 0.915147 16.5781 0L22 1.71496C19.2361 3.98711 17.065 6.18436 15.5337 7.88435C11.265 12.6233 8.1216 17.6814 6.12994 23V22.9985Z" fill="#A136FF"/>
<path d="M3.57162 10L3 6.09426C4.34021 4.30104 5.85262 2.55807 7.52521 0.882515C7.80554 0.603052 8.10588 0.30888 8.42892 0L12 0.228596C11.0723 1.0437 10.274 1.80364 9.60791 2.47043C7.19847 4.88386 5.18414 7.39658 3.57162 9.99877L3.57162 10Z" fill="#A136FF"/>
</g>
<circle cx="33" cy="30" r="30" fill="url(#paint0_radial_8165_82273)"/>
<path d="M50.893 2.13657L53.1478 1.44844C53.6357 3.09323 53.1399 4.21674 52.7766 5.03721C52.4623 5.74867 52.2726 6.1767 52.5115 6.97955C52.7493 7.78215 53.1418 8.03371 53.7908 8.45057C54.5408 8.93158 55.5668 9.59059 56.0559 11.2356C56.5449 12.8807 56.048 14.0039 55.6847 14.8244C55.3704 15.5359 55.1804 15.965 55.4196 16.7667C55.6585 17.5696 56.05 17.8209 56.7 18.238C57.4501 18.719 58.4772 19.3783 58.9651 21.0231L56.7104 21.7112C56.4714 20.9083 56.08 20.657 55.4299 20.2399C54.6799 19.7589 53.6528 19.0997 53.1648 17.4549C52.6769 15.8101 53.1727 14.6866 53.536 13.8661C53.8503 13.1546 54.0403 12.7255 53.8011 11.9238C53.5633 11.1212 53.1708 10.8696 52.5218 10.4527C51.7718 9.97172 50.7458 9.31272 50.2567 7.66768C49.7685 6.02402 50.2657 4.89963 50.6279 4.0789C50.9422 3.36745 51.1319 2.93942 50.893 2.13657Z" fill="#9143F7"/>
<path d="M9.15868 58.0487L8.21066 55.8903C9.78682 55.2127 10.9608 55.5731 11.8182 55.8376C12.5616 56.0662 13.009 56.2045 13.7782 55.873C14.5474 55.5426 14.7511 55.1232 15.0889 54.4298C15.4786 53.6285 16.0126 52.5323 17.5889 51.8535C19.1652 51.1748 20.339 51.5364 21.1964 51.8009C21.9398 52.0295 22.3883 52.1678 23.1564 51.8362C23.9257 51.5047 24.1293 51.0865 24.4673 50.392C24.8569 49.5906 25.3911 48.4933 26.9672 47.8157L27.9152 49.9741C27.146 50.3055 26.9423 50.7238 26.6044 51.4183C26.2148 52.2197 25.6806 53.317 24.1045 53.9946C22.5283 54.6722 21.3544 54.3118 20.4969 54.0473C19.7535 53.8187 19.305 53.6803 18.5369 54.0119C17.7677 54.3423 17.564 54.7617 17.2262 55.4551C16.8365 56.2564 16.3025 57.3526 14.7262 58.0314C13.1512 58.7091 11.9763 58.3474 11.1187 58.084C10.3753 57.8554 9.92794 57.7172 9.15868 58.0487Z" fill="#FA4E6A"/>
<g filter="url(#filter0_f_8165_82273)">
<path d="M61.8994 32.1658C61.4404 34.4958 60.7105 36.7258 59.7395 38.8258C58.7295 39.1458 57.5595 39.2358 56.3505 39.0358C53.1005 38.4958 50.7894 36.0358 51.2094 33.5558C51.6194 31.0758 54.5885 29.5058 57.8505 30.0458C59.5405 30.3258 60.9694 31.1258 61.8994 32.1658Z" fill="#FF9A61" fill-opacity="0.5"/>
</g>
<g filter="url(#filter1_f_8165_82273)">
<path d="M14.8091 33.5558C15.2291 36.0358 12.9191 38.4958 9.66906 39.0358C8.54906 39.2258 7.46906 39.1558 6.50906 38.8958C5.49906 36.7258 4.74906 34.4158 4.28906 31.9958C5.20906 31.0358 6.57906 30.3158 8.16906 30.0458C11.4291 29.5058 14.3981 31.0758 14.8091 33.5558Z" fill="#FF9A61" fill-opacity="0.5"/>
</g>
<path d="M34.405 41.6262C33.358 41.6262 32.214 41.1152 31.221 40.1312C30.928 39.8392 30.926 39.3642 31.217 39.0702C31.508 38.7772 31.985 38.7732 32.278 39.0662C33.159 39.9392 34.489 40.5352 35.333 39.7842C35.688 39.4662 35.774 39.1202 35.61 38.6632C35.297 37.7992 34.27 37.0792 33.964 37.0672C33.55 37.0662 33.216 36.7312 33.216 36.3172C33.216 35.9082 33.544 35.5752 33.95 35.5672C33.952 35.5672 33.952 35.5672 33.954 35.5672H33.956C33.956 35.5672 33.958 35.5672 33.96 35.5672C33.96 35.5672 33.96 35.5672 33.962 35.5672C33.964 35.5672 33.964 35.5672 33.966 35.5672C34.271 35.5552 35.3 34.8362 35.611 33.9702C35.775 33.5132 35.691 33.1672 35.334 32.8502C34.523 32.1242 33.266 32.6392 32.381 33.4722C32.078 33.7552 31.604 33.7412 31.32 33.4392C31.037 33.1372 31.05 32.6632 31.353 32.3792C33.015 30.8152 35.017 30.5562 36.333 31.7312C37.157 32.4672 37.399 33.4902 37.001 34.5372C36.747 35.2002 36.239 35.8452 35.661 36.3172C36.239 36.7902 36.747 37.4342 36.999 38.0972C37.399 39.1432 37.157 40.1652 36.333 40.9022C35.79 41.3882 35.12 41.6262 34.405 41.6262Z" fill="black"/>
<path d="M31.5078 31.9093C33.1634 30.5471 35.1403 30.332 36.499 31.545H36.5L36.6611 31.7003C37.4328 32.4935 37.6412 33.5559 37.2344 34.6261V34.627C36.9958 35.2496 36.5538 35.847 36.042 36.3175C36.5536 36.7882 36.9955 37.3849 37.2324 38.0079L37.3057 38.2218C37.6109 39.2182 37.3815 40.1926 36.6611 40.9337L36.5 41.0889C35.9085 41.6183 35.1779 41.876 34.4053 41.8761C33.348 41.8761 32.2237 41.3938 31.2402 40.4942L31.0449 40.3087C30.6546 39.9197 30.6512 39.2867 31.0391 38.8946L31.04 38.8936L31.1152 38.8253C31.5054 38.505 32.0866 38.522 32.4541 38.8888L32.6162 39.0411C33.0033 39.3867 33.4551 39.6642 33.8916 39.795C34.3869 39.9433 34.8298 39.8965 35.166 39.5977L35.2656 39.4981C35.3522 39.4002 35.4012 39.3074 35.4238 39.2159C35.4465 39.1241 35.4467 39.0174 35.416 38.8868L35.375 38.7481C35.2385 38.3715 34.9377 38.0088 34.6211 37.7345C34.4647 37.5989 34.3102 37.4908 34.1816 37.4171C34.1176 37.3803 34.0629 37.3538 34.0195 37.337C33.9758 37.32 33.9553 37.3177 33.9541 37.3175V37.3165C33.4066 37.3102 32.9659 36.866 32.9658 36.3175C32.9658 35.7723 33.4032 35.3281 33.9453 35.3175H33.9561C33.9563 35.3173 33.9768 35.3153 34.0215 35.2979C34.0648 35.2811 34.1195 35.2546 34.1836 35.2179C34.3121 35.1442 34.4666 35.036 34.6231 34.9005C34.9399 34.6261 35.2405 34.2631 35.376 33.8858L35.418 33.7462C35.4487 33.6156 35.4473 33.5085 35.4248 33.4171C35.4023 33.3262 35.3541 33.2341 35.2676 33.1368L35.167 33.0362C34.8427 32.7461 34.4214 32.6912 33.9502 32.8184C33.4744 32.947 32.9743 33.2577 32.5527 33.6544L32.5518 33.6554C32.174 34.0081 31.595 34.0142 31.2119 33.6817L31.1377 33.6104C30.7612 33.2087 30.7775 32.5766 31.1816 32.1973L31.5078 31.9093ZM33.4658 36.3175C33.4659 36.5936 33.6888 36.8168 33.9649 36.8175H33.9736L34.0908 36.835C34.129 36.8446 34.1658 36.8578 34.2002 36.8712C34.2727 36.8994 34.3508 36.9377 34.4307 36.9835C34.5905 37.0751 34.7706 37.2026 34.9482 37.3565C35.2997 37.6611 35.6682 38.091 35.8447 38.5782L35.8457 38.5792L35.9033 38.7725C35.9485 38.9648 35.9545 39.1528 35.9092 39.336C35.8486 39.5808 35.7038 39.7882 35.5 39.9708H35.499C34.9915 40.4224 34.3485 40.4534 33.7481 40.2735C33.1509 40.0946 32.563 39.7015 32.1016 39.2442V39.2432C31.9319 39.0736 31.6666 39.0529 31.4727 39.1817L31.3945 39.2462C31.2007 39.4421 31.2019 39.7593 31.3975 39.9542L31.5781 40.1261C32.4901 40.9602 33.4995 41.3761 34.4053 41.3761C35.0624 41.376 35.6717 41.1583 36.166 40.7159L36.2998 40.588C36.8939 39.9786 37.082 39.1915 36.8272 38.3643L36.7656 38.1866C36.5323 37.5727 36.0545 36.9623 35.5029 36.5108L35.2656 36.3175L35.5029 36.1241C36.0541 35.674 36.5321 35.0627 36.7676 34.4483L36.8281 34.2706C37.0818 33.442 36.8941 32.6537 36.2998 32.045L36.166 31.918C35.0572 30.9282 33.3609 31.0294 31.8281 32.293L31.5244 32.5616C31.3234 32.7501 31.3127 33.0655 31.501 33.2677H31.502C31.6674 33.4436 31.9308 33.4741 32.1299 33.3516L32.21 33.2891C32.6732 32.8533 33.2441 32.4907 33.8203 32.335C34.4011 32.1783 35.0136 32.2283 35.5 32.6632L35.6426 32.8048C35.7727 32.9514 35.8649 33.1142 35.9102 33.2979C35.9553 33.4813 35.9496 33.6693 35.9043 33.8614L35.8467 34.0548C35.6712 34.5435 35.3019 34.9738 34.9502 35.2784C34.7725 35.4323 34.5924 35.5599 34.4326 35.6514C34.3528 35.6972 34.2746 35.7356 34.2022 35.7638C34.1333 35.7905 34.0537 35.8144 33.9756 35.8175H33.9551L33.8565 35.8292C33.6337 35.879 33.4658 36.0787 33.4658 36.3175Z" fill="black"/>
<path d="M19.914 28.0926C19.5 28.0926 19.164 27.7566 19.164 27.3426C19.164 26.0376 18.192 24.9756 16.998 24.9756C15.804 24.9756 14.832 26.0376 14.832 27.3426C14.832 27.7566 14.496 28.0926 14.082 28.0926C13.668 28.0926 13.332 27.7566 13.332 27.3426C13.332 25.2106 14.977 23.4756 16.998 23.4756C19.02 23.4756 20.664 25.2106 20.664 27.3426C20.664 27.7566 20.328 28.0926 19.914 28.0926Z" fill="black"/>
<path d="M20.4141 27.3428C20.4141 25.3361 18.8695 23.7256 16.998 23.7256C15.1275 23.7256 13.582 25.3361 13.582 27.3428C13.5821 27.6186 13.8062 27.8428 14.082 27.8428C14.3579 27.8428 14.5819 27.6186 14.582 27.3428C14.582 25.921 15.6456 24.7256 16.998 24.7256C18.3505 24.7256 19.4141 25.921 19.4141 27.3428C19.4142 27.6186 19.6382 27.8428 19.9141 27.8428C20.1899 27.8428 20.414 27.6186 20.4141 27.3428ZM20.9141 27.3428C20.914 27.8947 20.4661 28.3428 19.9141 28.3428C19.3621 28.3428 18.9142 27.8948 18.9141 27.3428C18.9141 26.1545 18.0336 25.2256 16.998 25.2256C15.9625 25.2256 15.082 26.1545 15.082 27.3428C15.0819 27.8948 14.634 28.3428 14.082 28.3428C13.53 28.3428 13.0821 27.8948 13.082 27.3428C13.082 25.0854 14.8266 23.2256 16.998 23.2256C19.1705 23.2256 20.9141 25.0855 20.9141 27.3428Z" fill="black"/>
<path d="M51.7656 28.0926C51.3516 28.0926 51.0156 27.7566 51.0156 27.3426C51.0156 26.0376 50.0436 24.9756 48.8496 24.9756C47.6556 24.9756 46.6836 26.0376 46.6836 27.3426C46.6836 27.7566 46.3476 28.0926 45.9336 28.0926C45.5196 28.0926 45.1836 27.7566 45.1836 27.3426C45.1836 25.2106 46.8286 23.4756 48.8496 23.4756C50.8716 23.4756 52.5156 25.2106 52.5156 27.3426C52.5156 27.7566 52.1796 28.0926 51.7656 28.0926Z" fill="black"/>
<path d="M52.2656 27.3428C52.2656 25.3361 50.7211 23.7256 48.8496 23.7256C46.9791 23.7256 45.4336 25.3361 45.4336 27.3428C45.4337 27.6186 45.6577 27.8428 45.9336 27.8428C46.2095 27.8428 46.4335 27.6186 46.4336 27.3428C46.4336 25.921 47.4971 24.7256 48.8496 24.7256C50.2021 24.7256 51.2656 25.921 51.2656 27.3428C51.2657 27.6186 51.4898 27.8428 51.7656 27.8428C52.0415 27.8428 52.2655 27.6186 52.2656 27.3428ZM52.7656 27.3428C52.7655 27.8947 52.3176 28.3428 51.7656 28.3428C51.2136 28.3428 50.7657 27.8948 50.7656 27.3428C50.7656 26.1545 49.8851 25.2256 48.8496 25.2256C47.8141 25.2256 46.9336 26.1545 46.9336 27.3428C46.9335 27.8948 46.4856 28.3428 45.9336 28.3428C45.3816 28.3428 44.9337 27.8948 44.9336 27.3428C44.9336 25.0854 46.6781 23.2256 48.8496 23.2256C51.0221 23.2256 52.7656 25.0855 52.7656 27.3428Z" fill="black"/>
<rect x="10.4023" y="34" width="5" height="5" transform="rotate(25.1756 10.4023 34)" fill="#FF4901"/>
<rect x="39" y="2.40918" width="5" height="5" transform="rotate(-16.3704 39 2.40918)" fill="#2252FF"/>
<rect x="3" y="21.4092" width="5" height="5" transform="rotate(-16.3704 3 21.4092)" fill="#2252FF"/>
<rect x="23.7593" width="5" height="5" transform="rotate(8.73433 23.7593 0)" fill="#FB22FF"/>
<rect x="49" y="52.7627" width="5" height="5" transform="rotate(-20.6417 49 52.7627)" fill="#22CBFF"/>
<rect x="30.4498" y="8" width="5" height="5" transform="rotate(43.6279 30.4498 8)" fill="#7416EF"/>
<defs>
<filter id="filter0_f_8165_82273" x="47.1602" y="25.9395" width="18.7393" height="17.2024" filterUnits="userSpaceOnUse" color-interpolation-filters="sRGB">
<feFlood flood-opacity="0" result="BackgroundImageFix"/>
<feBlend mode="normal" in="SourceGraphic" in2="BackgroundImageFix" result="shape"/>
<feGaussianBlur stdDeviation="2" result="effect1_foregroundBlur_8165_82273"/>
</filter>
<filter id="filter1_f_8165_82273" x="0.289062" y="25.9395" width="18.5693" height="17.2041" filterUnits="userSpaceOnUse" color-interpolation-filters="sRGB">
<feFlood flood-opacity="0" result="BackgroundImageFix"/>
<feBlend mode="normal" in="SourceGraphic" in2="BackgroundImageFix" result="shape"/>
<feGaussianBlur stdDeviation="2" result="effect1_foregroundBlur_8165_82273"/>
</filter>
<radialGradient id="paint0_radial_8165_82273" cx="0" cy="0" r="1" gradientUnits="userSpaceOnUse" gradientTransform="translate(20 6) rotate(60.9454) scale(61.7738)">
<stop stop-color="#FFDE65"/>
<stop offset="1" stop-color="#FFCE1B"/>
</radialGradient>
</defs>
</svg>
