<svg width="66" height="60" viewBox="0 0 66 60" fill="none" xmlns="http://www.w3.org/2000/svg">
<circle cx="32.999" cy="30" r="30" fill="url(#paint0_radial_9527_45550)"/>
<g filter="url(#filter0_f_9527_45550)">
<path d="M61.8985 32.1658C61.4395 34.4958 60.7095 36.7258 59.7385 38.8258C58.7285 39.1458 57.5585 39.2358 56.3495 39.0358C53.0995 38.4958 50.7885 36.0358 51.2085 33.5558C51.6185 31.0758 54.5875 29.5058 57.8495 30.0458C59.5395 30.3258 60.9685 31.1258 61.8985 32.1658Z" fill="#FF9A61" fill-opacity="0.5"/>
</g>
<g filter="url(#filter1_f_9527_45550)">
<path d="M14.8081 33.5558C15.2281 36.0358 12.9181 38.4958 9.66808 39.0358C8.54808 39.2258 7.46809 39.1558 6.50809 38.8958C5.49809 36.7258 4.74809 34.4158 4.28809 31.9958C5.20809 31.0358 6.57808 30.3158 8.16808 30.0458C11.4281 29.5058 14.3971 31.0758 14.8081 33.5558Z" fill="#FF9A61" fill-opacity="0.5"/>
</g>
<path d="M38.3743 38.5098H30.6943C30.2803 38.5098 29.9443 38.1738 29.9443 37.7598C29.9443 37.3458 30.2803 37.0098 30.6943 37.0098H38.3743C38.7883 37.0098 39.1243 37.3458 39.1243 37.7598C39.1243 38.1738 38.7883 38.5098 38.3743 38.5098Z" fill="black"/>
<path d="M38.874 37.7598C38.874 37.4838 38.65 37.2598 38.374 37.2598H30.6943C30.4184 37.2598 30.1943 37.4838 30.1943 37.7598C30.1943 38.0357 30.4184 38.2598 30.6943 38.2598H38.374C38.65 38.2598 38.874 38.0357 38.874 37.7598ZM39.374 37.7598C39.374 38.3118 38.9261 38.7598 38.374 38.7598H30.6943C30.1423 38.7598 29.6943 38.3118 29.6943 37.7598C29.6943 37.2077 30.1423 36.7598 30.6943 36.7598H38.374C38.9261 36.7598 39.374 37.2077 39.374 37.7598Z" fill="black"/>
<path d="M16.1462 33.8182C15.9542 33.8182 15.7622 33.7452 15.6162 33.5982C15.3232 33.3052 15.3232 32.8302 15.6162 32.5372L19.6712 28.4812L15.6162 24.4272C15.3232 24.1342 15.3232 23.6592 15.6162 23.3662C15.9092 23.0732 16.3842 23.0732 16.6772 23.3662L21.7922 28.4802L16.6772 33.5962C16.5302 33.7452 16.3382 33.8182 16.1462 33.8182Z" fill="black"/>
<path d="M15.4395 23.1895C15.8301 22.7988 16.4639 22.7988 16.8545 23.1895L22.1455 28.4805L16.8545 33.7734L16.8535 33.7725C16.6576 33.9705 16.4016 34.0683 16.1465 34.0684C15.8911 34.0684 15.6337 33.9709 15.4385 33.7744C15.0491 33.3837 15.0493 32.7506 15.4395 32.3604L19.3174 28.4815L15.4395 24.6045C15.0488 24.2139 15.0488 23.5801 15.4395 23.1895ZM16.5 23.543C16.3046 23.3479 15.9883 23.3477 15.793 23.543C15.5977 23.7383 15.5979 24.0546 15.793 24.25L20.0244 28.4815L15.793 32.7139C15.5976 32.9092 15.5976 33.2265 15.793 33.4219L15.8711 33.4863C15.9538 33.5412 16.05 33.5684 16.1465 33.5684C16.2746 33.5683 16.4013 33.5198 16.499 33.4209L21.4385 28.4805L16.5 23.543Z" fill="black"/>
<path d="M20.7311 29.2319H14.7471C14.3331 29.2319 13.9971 28.8959 13.9971 28.4819C13.9971 28.0679 14.3331 27.7319 14.7471 27.7319H20.7311C21.1451 27.7319 21.4811 28.0679 21.4811 28.4819C21.4811 28.8969 21.1451 29.2319 20.7311 29.2319Z" fill="black"/>
<path d="M21.2314 28.4819C21.2314 28.2061 21.0072 27.9821 20.7314 27.9819H14.7471C14.4711 27.9819 14.2471 28.206 14.2471 28.4819C14.2471 28.7579 14.4711 28.9819 14.7471 28.9819H20.7314C21.0074 28.9817 21.2314 28.7585 21.2314 28.4819ZM21.7314 28.4819C21.7314 29.0351 21.2831 29.4817 20.7314 29.4819H14.7471C14.195 29.4819 13.7471 29.034 13.7471 28.4819C13.7471 27.9299 14.195 27.4819 14.7471 27.4819H20.7314C21.2833 27.4821 21.7314 27.93 21.7314 28.4819Z" fill="black"/>
<path d="M51.5464 33.8182C51.3534 33.8182 51.1614 33.7452 51.0154 33.5982L45.9004 28.4822L51.0154 23.3682C51.3084 23.0752 51.7834 23.0752 52.0764 23.3682C52.3694 23.6612 52.3694 24.1362 52.0764 24.4292L48.0214 28.4832L52.0764 32.5392C52.3694 32.8322 52.3694 33.3072 52.0764 33.6002C51.9294 33.7452 51.7374 33.8182 51.5464 33.8182Z" fill="black"/>
<path d="M50.915 23.123C51.3079 22.8027 51.8867 22.8253 52.2529 23.1914C52.6435 23.582 52.6434 24.2148 52.2529 24.6054L48.375 28.4834L52.2529 32.3623L52.3223 32.4384C52.6425 32.8313 52.6191 33.4112 52.2529 33.7773L52.252 33.7783C52.0567 33.9708 51.8012 34.0682 51.5469 34.0683C51.2907 34.0683 51.0332 33.971 50.8379 33.7744L45.5469 28.4824L50.8389 23.1914L50.915 23.123ZM51.8994 23.5449C51.7285 23.3741 51.4646 23.3523 51.2705 23.4804L51.1924 23.5449L46.2539 28.4824L51.1924 33.4218L51.2705 33.4863C51.3531 33.541 51.4496 33.5683 51.5469 33.5683C51.6422 33.5682 51.7379 33.5407 51.8213 33.4863L51.9004 33.4218C52.0704 33.2508 52.092 32.9877 51.9639 32.7939L51.8994 32.7158L47.668 28.4834L51.8994 24.2519L51.9639 24.1738C52.092 23.9796 52.0703 23.7158 51.8994 23.5449Z" fill="black"/>
<path d="M52.944 29.2319H46.96C46.546 29.2319 46.21 28.8959 46.21 28.4819C46.21 28.0679 46.546 27.7319 46.96 27.7319H52.944C53.358 27.7319 53.694 28.0679 53.694 28.4819C53.694 28.8969 53.358 29.2319 52.944 29.2319Z" fill="black"/>
<path d="M53.4443 28.4819C53.4443 28.2061 53.2201 27.9821 52.9443 27.9819H46.96C46.684 27.9819 46.46 28.206 46.46 28.4819C46.46 28.7579 46.684 28.9819 46.96 28.9819H52.9443C53.2203 28.9817 53.4443 28.7585 53.4443 28.4819ZM53.9443 28.4819C53.9443 29.0351 53.496 29.4817 52.9443 29.4819H46.96C46.4079 29.4819 45.96 29.034 45.96 28.4819C45.96 27.9299 46.4079 27.4819 46.96 27.4819H52.9443C53.4962 27.4821 53.9443 27.93 53.9443 28.4819Z" fill="black"/>
<defs>
<filter id="filter0_f_9527_45550" x="47.1592" y="25.9395" width="18.7393" height="17.2024" filterUnits="userSpaceOnUse" color-interpolation-filters="sRGB">
<feFlood flood-opacity="0" result="BackgroundImageFix"/>
<feBlend mode="normal" in="SourceGraphic" in2="BackgroundImageFix" result="shape"/>
<feGaussianBlur stdDeviation="2" result="effect1_foregroundBlur_9527_45550"/>
</filter>
<filter id="filter1_f_9527_45550" x="0.288086" y="25.9395" width="18.5693" height="17.2041" filterUnits="userSpaceOnUse" color-interpolation-filters="sRGB">
<feFlood flood-opacity="0" result="BackgroundImageFix"/>
<feBlend mode="normal" in="SourceGraphic" in2="BackgroundImageFix" result="shape"/>
<feGaussianBlur stdDeviation="2" result="effect1_foregroundBlur_9527_45550"/>
</filter>
<radialGradient id="paint0_radial_9527_45550" cx="0" cy="0" r="1" gradientUnits="userSpaceOnUse" gradientTransform="translate(19.999 6) rotate(60.9454) scale(61.7738)">
<stop stop-color="#FF6D65"/>
<stop offset="1" stop-color="#FFCE1B"/>
</radialGradient>
</defs>
</svg>
