<svg width="66" height="60" viewBox="0 0 66 60" fill="none" xmlns="http://www.w3.org/2000/svg">
<circle cx="32.9985" cy="30" r="30" fill="url(#paint0_radial_9527_45549)"/>
<g filter="url(#filter0_f_9527_45549)">
<path d="M61.8985 32.1658C61.4395 34.4958 60.7095 36.7258 59.7385 38.8258C58.7285 39.1458 57.5585 39.2358 56.3495 39.0358C53.0995 38.4958 50.7885 36.0358 51.2085 33.5558C51.6185 31.0758 54.5875 29.5058 57.8495 30.0458C59.5395 30.3258 60.9685 31.1258 61.8985 32.1658Z" fill="#FF9A61" fill-opacity="0.5"/>
</g>
<g filter="url(#filter1_f_9527_45549)">
<path d="M14.8076 33.5558C15.2276 36.0358 12.9176 38.4958 9.66759 39.0358C8.5476 39.2258 7.4676 39.1558 6.5076 38.8958C5.4976 36.7258 4.7476 34.4158 4.2876 31.9958C5.2076 31.0358 6.57759 30.3158 8.16759 30.0458C11.4276 29.5058 14.3966 31.0758 14.8076 33.5558Z" fill="#FF9A61" fill-opacity="0.5"/>
</g>
<path d="M39.7882 44.9836C39.4528 44.9836 39.1174 44.8648 38.8519 44.6133C37.5872 43.4324 35.8613 42.7406 33.9816 42.6707C31.8994 42.5869 29.9289 43.2926 28.5593 44.5993C28.0073 45.1233 27.1409 45.1024 26.6168 44.5573C26.0927 44.0053 26.1137 43.1389 26.6657 42.6148C28.5733 40.7981 31.2775 39.8198 34.0864 39.9246C36.6159 40.0225 38.9777 40.9728 40.7246 42.6009C41.2766 43.1179 41.3115 43.9913 40.7944 44.5434C40.5219 44.8368 40.1586 44.9766 39.7882 44.9766V44.9836Z" fill="black"/>
<path d="M15.4294 20.6953C15.1919 20.6953 14.9473 20.5975 14.7796 20.3948C14.4721 20.0385 14.5141 19.5005 14.8774 19.193C16.8269 17.516 19.3145 16.4679 21.8719 16.2373C22.3471 16.2024 22.7523 16.5448 22.8012 17.0129C22.8432 17.4811 22.4938 17.8934 22.0256 17.9423C19.8176 18.1379 17.6654 19.0463 15.9814 20.4927C15.8207 20.6324 15.6251 20.6953 15.4294 20.6953Z" fill="black"/>
<path d="M21.9668 15.9849C22.4901 15.9977 22.9293 16.3679 23.0332 16.8765L23.0498 16.9868V16.9907L23.0547 17.104C23.0474 17.6635 22.6139 18.1321 22.0517 18.1909H22.0478C19.892 18.3819 17.789 19.2698 16.1445 20.6821C15.9342 20.8646 15.6791 20.9457 15.4297 20.9458C15.1266 20.9458 14.8097 20.8208 14.5898 20.5571V20.5581C14.1913 20.0959 14.2473 19.3991 14.7158 19.0024C16.7048 17.292 19.2411 16.224 21.8496 15.9888L21.8535 15.9878L21.9668 15.9849ZM21.8896 16.4858C19.3855 16.7126 16.9487 17.7405 15.04 19.3823L15.0391 19.3843C14.8134 19.5753 14.7635 19.889 14.8994 20.1323L14.9687 20.2319L14.9726 20.2358L15.0176 20.2847C15.13 20.3917 15.2801 20.4458 15.4297 20.4458C15.5709 20.4457 15.7066 20.4005 15.8174 20.3042L15.8183 20.3032L16.1475 20.0317C17.7064 18.7974 19.6112 17.994 21.581 17.7397L22.0039 17.6929C22.3381 17.6557 22.5808 17.362 22.5517 17.0356V17.0347C22.5149 16.7029 22.2291 16.4621 21.8906 16.4868L21.8896 16.4858Z" fill="black"/>
<path d="M51.967 20.6955C51.7714 20.6955 51.5757 20.6256 51.415 20.4928C49.731 19.0464 47.5789 18.1451 45.3708 17.9424C44.9027 17.9005 44.5533 17.4882 44.5952 17.0131C44.6371 16.5449 45.0494 16.2095 45.5245 16.2375C48.082 16.4681 50.5695 17.5162 52.526 19.1932C52.8824 19.5006 52.9243 20.0386 52.6169 20.395C52.4492 20.5906 52.2116 20.6955 51.967 20.6955Z" fill="black"/>
<path d="M45.5391 15.9878L45.5469 15.9888L46.0352 16.0425C48.471 16.36 50.8173 17.3996 52.6885 19.0034H52.6895L52.7705 19.0815C53.1287 19.4596 53.1751 20.0413 52.876 20.4692L52.8066 20.5581C52.5908 20.8097 52.2833 20.9458 51.9668 20.9458C51.7117 20.9457 51.4601 20.8546 51.2559 20.686L51.252 20.6821C49.6081 19.2703 47.5053 18.389 45.3486 18.1909V18.1919C44.7436 18.1377 44.2916 17.6038 44.3457 16.9907H44.3467L44.3623 16.8784C44.4616 16.3642 44.9103 16.0053 45.4277 15.9868L45.5391 15.9878ZM45.5039 16.4868C45.1577 16.4694 44.8735 16.7118 44.8437 17.0337L44.8447 17.0347C44.8187 17.3298 45.0045 17.5902 45.2734 17.6704L45.3936 17.6938L45.8164 17.7407C47.9244 18.018 49.9586 18.9139 51.5742 20.3003L51.666 20.3638C51.761 20.4182 51.8649 20.4458 51.9668 20.4458C52.1393 20.4458 52.3072 20.3714 52.4268 20.2319H52.4277L52.4971 20.1323C52.6332 19.8887 52.5839 19.5742 52.3633 19.3833L51.998 19.0825C50.1418 17.6151 47.8524 16.6989 45.5039 16.4868Z" fill="black"/>
<path d="M52.9665 28.619C52.9665 32.2734 50.1086 35.2292 46.5799 35.2292C43.0512 35.2292 40.1934 32.2734 40.1934 28.619C40.1934 24.9645 43.0512 22.0088 46.5799 22.0088C50.1086 22.0088 52.9665 24.9645 52.9665 28.619Z" fill="white"/>
<path d="M49.3127 28.6188C49.3127 30.177 48.0899 31.4418 46.5876 31.4418C45.0853 31.4418 43.8555 30.177 43.8555 28.6188C43.8555 27.0606 45.0783 25.7959 46.5876 25.7959C48.0969 25.7959 49.3127 27.0606 49.3127 28.6188Z" fill="black"/>
<path d="M27.197 28.619C27.197 32.2734 24.3391 35.2292 20.8104 35.2292C17.2817 35.2292 14.4238 32.2734 14.4238 28.619C14.4238 24.9645 17.2817 22.0088 20.8104 22.0088C24.3391 22.0088 27.197 24.9645 27.197 28.619Z" fill="white"/>
<path d="M23.5422 28.6188C23.5422 30.177 22.3194 31.4418 20.8171 31.4418C19.3148 31.4418 18.085 30.177 18.085 28.6188C18.085 27.0606 19.3078 25.7959 20.8171 25.7959C22.3264 25.7959 23.5422 27.0606 23.5422 28.6188Z" fill="black"/>
<defs>
<filter id="filter0_f_9527_45549" x="47.1592" y="25.9395" width="18.7393" height="17.2024" filterUnits="userSpaceOnUse" color-interpolation-filters="sRGB">
<feFlood flood-opacity="0" result="BackgroundImageFix"/>
<feBlend mode="normal" in="SourceGraphic" in2="BackgroundImageFix" result="shape"/>
<feGaussianBlur stdDeviation="2" result="effect1_foregroundBlur_9527_45549"/>
</filter>
<filter id="filter1_f_9527_45549" x="0.287598" y="25.9395" width="18.5693" height="17.2041" filterUnits="userSpaceOnUse" color-interpolation-filters="sRGB">
<feFlood flood-opacity="0" result="BackgroundImageFix"/>
<feBlend mode="normal" in="SourceGraphic" in2="BackgroundImageFix" result="shape"/>
<feGaussianBlur stdDeviation="2" result="effect1_foregroundBlur_9527_45549"/>
</filter>
<radialGradient id="paint0_radial_9527_45549" cx="0" cy="0" r="1" gradientUnits="userSpaceOnUse" gradientTransform="translate(19.9985 6) rotate(60.9454) scale(61.7738)">
<stop stop-color="#3FA2ED"/>
<stop offset="0.668269" stop-color="#FFCE1B"/>
</radialGradient>
</defs>
</svg>
