<svg width="66" height="60" viewBox="0 0 66 60" fill="none" xmlns="http://www.w3.org/2000/svg">
<circle cx="33" cy="30" r="30" fill="url(#paint0_radial_9527_45514)"/>
<g filter="url(#filter0_f_9527_45514)">
<path d="M61.8994 32.1658C61.4404 34.4958 60.7105 36.7258 59.7395 38.8258C58.7295 39.1458 57.5595 39.2358 56.3505 39.0358C53.1005 38.4958 50.7894 36.0358 51.2094 33.5558C51.6194 31.0758 54.5885 29.5058 57.8505 30.0458C59.5405 30.3258 60.9694 31.1258 61.8994 32.1658Z" fill="#FF9A61" fill-opacity="0.5"/>
</g>
<g filter="url(#filter1_f_9527_45514)">
<path d="M14.8091 33.5558C15.2291 36.0358 12.9191 38.4958 9.66906 39.0358C8.54906 39.2258 7.46906 39.1558 6.50906 38.8958C5.49906 36.7258 4.74906 34.4158 4.28906 31.9958C5.20906 31.0358 6.57906 30.3158 8.16906 30.0458C11.4291 29.5058 14.3981 31.0758 14.8091 33.5558Z" fill="#FF9A61" fill-opacity="0.5"/>
</g>
<path d="M29.9159 33.276C27.9989 33.276 26.9089 31.89 26.8239 30.52C26.7509 29.357 27.4029 28.457 28.4079 28.332C28.8189 28.281 29.1939 28.572 29.2449 28.983C29.2959 29.394 29.0049 29.769 28.5939 29.82C28.2879 29.858 28.3189 30.404 28.3209 30.427C28.3519 30.928 28.7229 31.776 29.9159 31.776C32.4719 31.775 32.6119 29.156 32.6159 29.044C32.6339 28.631 32.9839 28.314 33.3969 28.326C33.8109 28.343 34.1319 28.693 34.1149 29.107C34.0549 30.549 33.0989 33.276 29.9159 33.276Z" fill="black"/>
<path d="M33.4072 28.0766L33.5088 28.0854C33.9778 28.1524 34.335 28.5429 34.3633 29.0151L34.3642 29.1176C34.3325 29.8781 34.0671 30.9721 33.3867 31.8823C32.698 32.8034 31.5908 33.5258 29.916 33.5258C27.9841 33.5258 26.8189 32.2071 26.6045 30.8149L26.5742 30.5356C26.4949 29.2717 27.2122 28.2283 28.3769 28.0834L28.4795 28.0766C28.9856 28.0654 29.4293 28.4384 29.4931 28.9526C29.5607 29.4984 29.1751 29.9967 28.6289 30.0668C28.628 30.0679 28.6272 30.0699 28.626 30.0717C28.6134 30.0896 28.5985 30.125 28.5869 30.1801C28.5752 30.2358 28.5705 30.2928 28.5693 30.3354L28.5703 30.4057V30.4116L28.5937 30.5776C28.6322 30.7534 28.7178 30.9533 28.8691 31.1225C29.064 31.3403 29.3854 31.5258 29.916 31.5258L30.1279 31.519C31.158 31.4519 31.7018 30.8998 32.0019 30.3344C32.3309 29.7146 32.3647 29.0757 32.3662 29.0346V29.0327L32.376 28.9311C32.4492 28.4291 32.8925 28.0608 33.4043 28.0756L33.4072 28.0766ZM33.3867 28.5756C33.1088 28.5691 32.8784 28.7816 32.8652 29.0522L32.8662 29.0532C32.8636 29.1256 32.8239 29.8518 32.4433 30.5688C32.0778 31.2575 31.3956 31.9355 30.1689 32.018L29.916 32.0258C29.2537 32.0258 28.7927 31.7879 28.4961 31.4565C28.2066 31.133 28.0897 30.7391 28.0713 30.4428V30.4418C28.0686 30.4016 28.0629 30.243 28.0976 30.0776C28.1163 29.989 28.1502 29.8795 28.2178 29.7836C28.2898 29.6814 28.4035 29.5916 28.5635 29.5717L28.6621 29.5493C28.8816 29.4749 29.0266 29.254 28.9971 29.0141C28.9674 28.7748 28.7722 28.5957 28.54 28.5776L28.4385 28.5805C27.5935 28.6858 27.0066 29.4425 27.0732 30.5043L27.0986 30.7387C27.2779 31.9086 28.2536 33.0258 29.916 33.0258C31.424 33.0258 32.3863 32.3851 32.9863 31.5825C33.5945 30.7688 33.8369 29.7777 33.8652 29.0961C33.8763 28.8197 33.6619 28.587 33.3867 28.5756Z" fill="black"/>
<path d="M36.8149 33.2761C33.6309 33.2751 32.6759 30.5491 32.6149 29.1071C32.5979 28.6931 32.9189 28.3431 33.3329 28.3261C33.7449 28.3001 34.0949 28.6292 34.1139 29.0422C34.1289 29.3272 34.3279 31.7751 36.8149 31.7761C38.0079 31.7761 38.3779 30.9281 38.4099 30.4271C38.4109 30.4041 38.4419 29.8582 38.1369 29.8202C37.7259 29.7692 37.4349 29.3941 37.4859 28.9831C37.5369 28.5721 37.9169 28.2811 38.3229 28.3321C39.3279 28.4581 39.9799 29.3581 39.9069 30.5201C39.8219 31.8901 38.7319 33.2761 36.8149 33.2761Z" fill="black"/>
<path d="M33.3174 28.0767C33.8752 28.0416 34.3372 28.4843 34.3633 29.0288L34.3809 29.2124C34.4136 29.4742 34.5049 29.9455 34.7559 30.394C35.081 30.9748 35.6753 31.5243 36.8145 31.5249C37.3451 31.5249 37.6665 31.3404 37.8613 31.1226C38.0629 30.8971 38.147 30.6167 38.1602 30.4116C38.1612 30.3868 38.1649 30.2816 38.1436 30.1802C38.1319 30.1248 38.1161 30.0896 38.1035 30.0718C38.1017 30.0692 38.1006 30.067 38.0996 30.0659C37.5546 29.9946 37.1708 29.4978 37.2383 28.9526C37.3065 28.4033 37.8125 28.0164 38.3545 28.0845L38.3535 28.0854C39.4451 28.2223 40.1443 29.1456 40.1621 30.3013L40.1563 30.5356C40.0667 31.9787 38.9491 33.4324 37.0059 33.522L36.8145 33.5259C35.1393 33.5252 34.0324 32.8025 33.3438 31.8813C32.7484 31.085 32.4704 30.1485 32.3887 29.4175L32.3652 29.1177C32.3427 28.5681 32.7674 28.1031 33.3174 28.0776V28.0767ZM33.2432 28.5903C33.018 28.6462 32.8547 28.8544 32.8643 29.0962L32.8857 29.3657C32.9597 30.0231 33.2119 30.8707 33.7441 31.5825C34.3441 32.3849 35.3063 33.0243 36.8145 33.0249C38.5876 33.0249 39.5797 31.7547 39.6572 30.5044L39.6621 30.3091C39.6503 29.4153 39.1574 28.7708 38.4473 28.6079L38.292 28.5806C38.022 28.5466 37.7682 28.7415 37.7344 29.0142C37.7047 29.2544 37.8495 29.4751 38.0693 29.5493L38.168 29.5718L38.2793 29.5991C38.3818 29.6375 38.4589 29.7072 38.5127 29.7837C38.58 29.8795 38.6142 29.9892 38.6328 30.0776C38.6519 30.1686 38.6582 30.256 38.6602 30.3198C38.6612 30.3522 38.6616 30.3801 38.6611 30.4009C38.6609 30.4113 38.6604 30.4206 38.6602 30.4272C38.6599 30.4326 38.6591 30.4394 38.6592 30.438V30.4429C38.6403 30.7388 38.5238 31.1329 38.2344 31.4565C37.975 31.7466 37.5897 31.965 37.0537 32.0151L36.8145 32.0259C35.4677 32.0252 34.7192 31.3524 34.3193 30.6382C34.0265 30.1148 33.9214 29.5735 33.8838 29.27L33.8643 29.0552V29.0532C33.8511 28.7728 33.614 28.5589 33.3486 28.5757H33.3428L33.2432 28.5903ZM38.1035 30.0679C38.105 30.0684 38.1064 30.0679 38.1065 30.0679C38.1049 30.0677 38.1031 30.0671 38.1016 30.0669L38.1035 30.0679Z" fill="black"/>
<path d="M14.151 26.3112C17.3398 26.3112 19.925 23.7261 19.925 20.5372C19.925 17.3483 17.3398 14.7632 14.151 14.7632C10.9621 14.7632 8.37695 17.3483 8.37695 20.5372C8.37695 23.7261 10.9621 26.3112 14.151 26.3112Z" fill="black"/>
<path d="M19.9258 19.8062C19.9258 21.0372 18.9268 22.0362 17.6958 22.0362C16.4648 22.0362 15.4658 21.0372 15.4658 19.8062C15.4658 18.5752 16.4648 17.5762 17.6958 17.5762C18.9268 17.5762 19.9258 18.5752 19.9258 19.8062Z" fill="white"/>
<path d="M13.4658 26.0264C14.1562 26.0264 14.7158 25.4667 14.7158 24.7764C14.7158 24.086 14.1562 23.5264 13.4658 23.5264C12.7755 23.5264 12.2158 24.086 12.2158 24.7764C12.2158 25.4667 12.7755 26.0264 13.4658 26.0264Z" fill="white"/>
<path d="M52.5806 26.3112C55.7695 26.3112 58.3546 23.7261 58.3546 20.5372C58.3546 17.3483 55.7695 14.7632 52.5806 14.7632C49.3918 14.7632 46.8066 17.3483 46.8066 20.5372C46.8066 23.7261 49.3918 26.3112 52.5806 26.3112Z" fill="black"/>
<path d="M58.3555 19.8062C58.3555 21.0372 57.3565 22.0362 56.1255 22.0362C54.8945 22.0362 53.8955 21.0372 53.8955 19.8062C53.8955 18.5752 54.8945 17.5762 56.1255 17.5762C57.3565 17.5762 58.3555 18.5752 58.3555 19.8062Z" fill="white"/>
<path d="M51.8955 26.0264C52.5859 26.0264 53.1455 25.4667 53.1455 24.7764C53.1455 24.086 52.5859 23.5264 51.8955 23.5264C51.2052 23.5264 50.6455 24.086 50.6455 24.7764C50.6455 25.4667 51.2052 26.0264 51.8955 26.0264Z" fill="white"/>
<defs>
<filter id="filter0_f_9527_45514" x="47.1602" y="25.9395" width="18.7393" height="17.2024" filterUnits="userSpaceOnUse" color-interpolation-filters="sRGB">
<feFlood flood-opacity="0" result="BackgroundImageFix"/>
<feBlend mode="normal" in="SourceGraphic" in2="BackgroundImageFix" result="shape"/>
<feGaussianBlur stdDeviation="2" result="effect1_foregroundBlur_9527_45514"/>
</filter>
<filter id="filter1_f_9527_45514" x="0.289062" y="25.9395" width="18.5693" height="17.2041" filterUnits="userSpaceOnUse" color-interpolation-filters="sRGB">
<feFlood flood-opacity="0" result="BackgroundImageFix"/>
<feBlend mode="normal" in="SourceGraphic" in2="BackgroundImageFix" result="shape"/>
<feGaussianBlur stdDeviation="2" result="effect1_foregroundBlur_9527_45514"/>
</filter>
<radialGradient id="paint0_radial_9527_45514" cx="0" cy="0" r="1" gradientUnits="userSpaceOnUse" gradientTransform="translate(20 6) rotate(60.9454) scale(61.7738)">
<stop stop-color="#FFDE65"/>
<stop offset="1" stop-color="#FFCE1B"/>
</radialGradient>
</defs>
</svg>
