<svg width="48" height="40" viewBox="0 0 48 40" fill="none" xmlns="http://www.w3.org/2000/svg">
<circle cx="24" cy="20" r="20" fill="url(#paint0_radial_8991_19685)"/>
<path d="M24.1198 24.1355C22.3439 24.1355 20.8762 25.2136 21.6678 25.8571C22.1251 26.2283 26.1144 26.2283 26.5717 25.8571C27.3633 25.2132 25.7738 24.1355 24.1198 24.1355Z" fill="black"/>
<path d="M38.7547 13.6446C36.5767 13.6446 34.666 11.8633 34.666 9.83325C34.666 9.55725 34.89 9.33325 35.166 9.33325C35.442 9.33325 35.666 9.55725 35.666 9.83325C35.666 11.1599 36.9867 12.6446 38.7547 12.6446C39.0307 12.6446 39.2547 12.8686 39.2547 13.1446C39.2547 13.4206 39.0307 13.6446 38.7547 13.6446Z" fill="black"/>
<path d="M35.5 9.83341C35.5 9.64946 35.3506 9.50008 35.1667 9.50008C34.9827 9.50008 34.8333 9.64946 34.8333 9.83341C34.8333 11.7605 36.6581 13.4779 38.7552 13.4779C38.9392 13.4779 39.0885 13.3286 39.0885 13.1446C39.0885 12.9607 38.9391 12.8113 38.7552 12.8113C36.8993 12.8112 35.5 11.2562 35.5 9.83341ZM35.8333 9.83341C35.8333 11.0639 37.0752 12.4779 38.7552 12.4779C39.1232 12.4779 39.4218 12.7766 39.4219 13.1446C39.4219 13.5127 39.1233 13.8113 38.7552 13.8113C36.4964 13.8112 34.5 11.9662 34.5 9.83341C34.5 9.46537 34.7986 9.16675 35.1667 9.16675C35.5347 9.16675 35.8333 9.46537 35.8333 9.83341Z" fill="black"/>
<path d="M9.24532 13.6446C11.4233 13.6446 13.334 11.8633 13.334 9.83325C13.334 9.55725 13.11 9.33325 12.834 9.33325C12.558 9.33325 12.334 9.55725 12.334 9.83325C12.334 11.1599 11.0133 12.6446 9.24532 12.6446C8.96932 12.6446 8.74532 12.8686 8.74532 13.1446C8.74532 13.4206 8.96932 13.6446 9.24532 13.6446Z" fill="black"/>
<path d="M12.5 9.83341C12.5 9.64946 12.6494 9.50008 12.8333 9.50008C13.0173 9.50008 13.1667 9.64946 13.1667 9.83341C13.1667 11.7605 11.3419 13.4779 9.24479 13.4779C9.06084 13.4779 8.91146 13.3286 8.91146 13.1446C8.91153 12.9607 9.06088 12.8113 9.24479 12.8113C11.1007 12.8112 12.5 11.2562 12.5 9.83341ZM12.1667 9.83341C12.1667 11.0639 10.9248 12.4779 9.24479 12.4779C8.87679 12.4779 8.5782 12.7766 8.57812 13.1446C8.57812 13.5127 8.87674 13.8113 9.24479 13.8113C11.5036 13.8112 13.5 11.9662 13.5 9.83341C13.5 9.46537 13.2014 9.16675 12.8333 9.16675C12.4653 9.16675 12.1667 9.46537 12.1667 9.83341Z" fill="black"/>
<path d="M14.7653 21.5412C16.8913 21.5412 18.6147 19.8178 18.6147 17.6919C18.6147 15.5659 16.8913 13.8425 14.7653 13.8425C12.6394 13.8425 10.916 15.5659 10.916 17.6919C10.916 19.8178 12.6394 21.5412 14.7653 21.5412Z" fill="black"/>
<path d="M18.6159 17.2047C18.6159 18.0253 17.9499 18.6913 17.1292 18.6913C16.3086 18.6913 15.6426 18.0253 15.6426 17.2047C15.6426 16.384 16.3086 15.718 17.1292 15.718C17.9499 15.718 18.6159 16.384 18.6159 17.2047Z" fill="white"/>
<path d="M14.3099 21.351C14.7701 21.351 15.1432 20.9779 15.1432 20.5177C15.1432 20.0574 14.7701 19.6843 14.3099 19.6843C13.8497 19.6843 13.4766 20.0574 13.4766 20.5177C13.4766 20.9779 13.8497 21.351 14.3099 21.351Z" fill="white"/>
<path d="M33.7185 21.5412C35.8444 21.5412 37.5678 19.8178 37.5678 17.6919C37.5678 15.5659 35.8444 13.8425 33.7185 13.8425C31.5925 13.8425 29.8691 15.5659 29.8691 17.6919C29.8691 19.8178 31.5925 21.5412 33.7185 21.5412Z" fill="black"/>
<path d="M37.569 17.2047C37.569 18.0253 36.903 18.6913 36.0824 18.6913C35.2617 18.6913 34.5957 18.0253 34.5957 17.2047C34.5957 16.384 35.2617 15.718 36.0824 15.718C36.903 15.718 37.569 16.384 37.569 17.2047Z" fill="white"/>
<path d="M33.263 21.351C33.7233 21.351 34.0964 20.9779 34.0964 20.5177C34.0964 20.0574 33.7233 19.6843 33.263 19.6843C32.8028 19.6843 32.4297 20.0574 32.4297 20.5177C32.4297 20.9779 32.8028 21.351 33.263 21.351Z" fill="white"/>
<g filter="url(#filter0_f_8991_19685)">
<path d="M43.267 21.4439C42.961 22.9973 42.4743 24.4839 41.827 25.8839C41.1536 26.0973 40.3736 26.1573 39.5676 26.0239C37.401 25.6639 35.8603 24.0239 36.1403 22.3706C36.4136 20.7173 38.393 19.6706 40.5676 20.0306C41.6943 20.2173 42.647 20.7506 43.267 21.4439Z" fill="#FF9A61" fill-opacity="0.5"/>
</g>
<g filter="url(#filter1_f_8991_19685)">
<path d="M11.8727 22.3706C12.1527 24.0239 10.6127 25.6639 8.44604 26.0239C7.69937 26.1506 6.97938 26.1039 6.33938 25.9306C5.66604 24.4839 5.16604 22.9439 4.85938 21.3306C5.47271 20.6906 6.38604 20.2106 7.44604 20.0306C9.61937 19.6706 11.5987 20.7173 11.8727 22.3706Z" fill="#FF9A61" fill-opacity="0.5"/>
</g>
<defs>
<filter id="filter0_f_8991_19685" x="32.1074" y="15.9597" width="15.1602" height="14.135" filterUnits="userSpaceOnUse" color-interpolation-filters="sRGB">
<feFlood flood-opacity="0" result="BackgroundImageFix"/>
<feBlend mode="normal" in="SourceGraphic" in2="BackgroundImageFix" result="shape"/>
<feGaussianBlur stdDeviation="2" result="effect1_foregroundBlur_8991_19685"/>
</filter>
<filter id="filter1_f_8991_19685" x="0.859375" y="15.9597" width="15.0469" height="14.136" filterUnits="userSpaceOnUse" color-interpolation-filters="sRGB">
<feFlood flood-opacity="0" result="BackgroundImageFix"/>
<feBlend mode="normal" in="SourceGraphic" in2="BackgroundImageFix" result="shape"/>
<feGaussianBlur stdDeviation="2" result="effect1_foregroundBlur_8991_19685"/>
</filter>
<radialGradient id="paint0_radial_8991_19685" cx="0" cy="0" r="1" gradientUnits="userSpaceOnUse" gradientTransform="translate(15.3333 4) rotate(60.9454) scale(41.1825)">
<stop stop-color="#FFDE65"/>
<stop offset="1" stop-color="#FFCE1B"/>
</radialGradient>
</defs>
</svg>
