<svg width="47" height="40" viewBox="0 0 47 40" fill="none" xmlns="http://www.w3.org/2000/svg">
<rect x="39.3281" y="31.4114" width="3.33333" height="3.33333" transform="rotate(-91.3596 39.3281 31.4114)" fill="#F14960"/>
<path d="M6.91862 22L3.3 1.42175C3.03873 0.579599 3.8289 -0.210432 4.67121 0.0507928L25.252 3.66667L6.91862 22Z" fill="#F14960"/>
<mask id="mask0_8991_19596" style="mask-type:alpha" maskUnits="userSpaceOnUse" x="3" y="0" width="23" height="22">
<path d="M6.91862 22L3.3 1.42175C3.03873 0.579599 3.8289 -0.210432 4.67121 0.0507928L25.252 3.66667L6.91862 22Z" fill="#F14960"/>
</mask>
<g mask="url(#mask0_8991_19596)">
<path d="M5.33597 15.3323L3.91602 10.6762C5.29969 8.01415 7.09327 5.45194 9.24968 3.05648C9.61055 2.65508 10.0214 2.21672 10.4804 1.74941C11.0217 1.19823 11.6287 0.610098 12.3014 0L15.916 1.14331C14.0734 2.65807 12.626 4.12291 11.6052 5.25623C8.75936 8.41556 6.66375 11.7876 5.33597 15.3333V15.3323Z" fill="#A136FF"/>
<path d="M3.63108 6.66667L3.25 4.06284C4.14347 2.86736 5.15175 1.70538 6.26681 0.588343C6.45369 0.402035 6.65392 0.20592 6.86928 0L9.25 0.152397C8.63151 0.695798 8.09934 1.20243 7.65527 1.64695C6.04898 3.25591 4.7061 4.93105 3.63108 6.66585L3.63108 6.66667Z" fill="#A136FF"/>
</g>
<circle cx="23.25" cy="20" r="20" fill="url(#paint0_radial_8991_19596)"/>
<path d="M35.1785 1.4243L36.6816 0.965543C37.0069 2.06207 36.6764 2.81108 36.4342 3.35806C36.2247 3.83236 36.0982 4.11772 36.2574 4.65295C36.416 5.18802 36.6777 5.35572 37.1103 5.63363C37.6104 5.95431 38.2943 6.39364 38.6204 7.49034C38.9464 8.58703 38.6152 9.33587 38.3729 9.88285C38.1634 10.3572 38.0367 10.6433 38.1962 11.1777C38.3555 11.713 38.6164 11.8805 39.0498 12.1586C39.5498 12.4793 40.2346 12.9188 40.5599 14.0153L39.0567 14.474C38.8974 13.9388 38.6365 13.7713 38.2031 13.4932C37.703 13.1725 37.0183 12.733 36.693 11.6365C36.3677 10.54 36.6982 9.79096 36.9405 9.24398C37.15 8.76968 37.2766 8.48357 37.1172 7.94909C36.9587 7.41402 36.697 7.24632 36.2643 6.96841C35.7643 6.64773 35.0803 6.2084 34.7543 5.1117C34.4288 4.01593 34.7602 3.26634 35.0017 2.71919C35.2112 2.24488 35.3377 1.95953 35.1785 1.4243Z" fill="#9143F7"/>
<path d="M7.35579 38.6992L6.72378 37.2603C7.77455 36.8085 8.55717 37.0488 9.1288 37.2252C9.62441 37.3776 9.92264 37.4697 10.4355 37.2487C10.9483 37.0285 11.0841 36.7489 11.3093 36.2866C11.5691 35.7524 11.9251 35.0216 12.9759 34.5691C14.0268 34.1166 14.8093 34.3577 15.3809 34.534C15.8766 34.6864 16.1756 34.7786 16.6876 34.5576C17.2005 34.3366 17.3362 34.0577 17.5615 33.5947C17.8213 33.0605 18.1774 32.3289 19.2281 31.8772L19.8602 33.3161C19.3473 33.5371 19.2116 33.8159 18.9863 34.279C18.7265 34.8132 18.3704 35.5448 17.3196 35.9965C16.2689 36.4482 15.4862 36.2079 14.9146 36.0316C14.419 35.8792 14.12 35.787 13.6079 36.008C13.0952 36.2283 12.9593 36.5079 12.7341 36.9701C12.4744 37.5043 12.1183 38.2352 11.0675 38.6877C10.0175 39.1395 9.23418 38.8983 8.66247 38.7227C8.16686 38.5703 7.86863 38.4782 7.35579 38.6992Z" fill="#FA4E6A"/>
<g filter="url(#filter0_f_8991_19596)">
<path d="M42.517 21.4439C42.211 22.9973 41.7243 24.4839 41.077 25.8839C40.4036 26.0973 39.6236 26.1573 38.8176 26.0239C36.651 25.6639 35.1103 24.0239 35.3903 22.3706C35.6636 20.7173 37.643 19.6706 39.8176 20.0306C40.9443 20.2173 41.897 20.7506 42.517 21.4439Z" fill="#FF9A61" fill-opacity="0.5"/>
</g>
<g filter="url(#filter1_f_8991_19596)">
<path d="M11.1227 22.3706C11.4027 24.0239 9.86271 25.6639 7.69604 26.0239C6.94937 26.1506 6.22938 26.1039 5.58938 25.9306C4.91604 24.4839 4.41604 22.9439 4.10938 21.3306C4.72271 20.6906 5.63604 20.2106 6.69604 20.0306C8.86937 19.6706 10.8487 20.7173 11.1227 22.3706Z" fill="#FF9A61" fill-opacity="0.5"/>
</g>
<path d="M24.186 27.7509C23.488 27.7509 22.7254 27.4102 22.0634 26.7542C21.868 26.5596 21.8667 26.2429 22.0607 26.0469C22.2547 25.8516 22.5727 25.8489 22.768 26.0442C23.3554 26.6262 24.242 27.0236 24.8047 26.5229C25.0414 26.3109 25.0987 26.0802 24.9894 25.7756C24.7807 25.1996 24.096 24.7196 23.892 24.7116C23.616 24.7109 23.3934 24.4876 23.3934 24.2116C23.3934 23.9389 23.612 23.7169 23.8827 23.7116C23.884 23.7116 23.884 23.7116 23.8854 23.7116H23.8867C23.8867 23.7116 23.888 23.7116 23.8894 23.7116C23.8894 23.7116 23.8894 23.7116 23.8907 23.7116C23.892 23.7116 23.892 23.7116 23.8934 23.7116C24.0967 23.7036 24.7827 23.2242 24.99 22.6469C25.0994 22.3422 25.0434 22.1116 24.8054 21.9002C24.2647 21.4162 23.4267 21.7596 22.8367 22.3149C22.6347 22.5036 22.3187 22.4942 22.1294 22.2929C21.9407 22.0916 21.9494 21.7755 22.1514 21.5862C23.2594 20.5435 24.594 20.3709 25.4714 21.1542C26.0207 21.6449 26.182 22.3269 25.9167 23.0249C25.7474 23.4669 25.4087 23.8969 25.0234 24.2116C25.4087 24.5269 25.7474 24.9562 25.9154 25.3982C26.182 26.0956 26.0207 26.7769 25.4714 27.2682C25.1094 27.5922 24.6627 27.7509 24.186 27.7509Z" fill="black"/>
<path d="M22.2551 21.2728C23.3588 20.3647 24.6767 20.2213 25.5826 21.03H25.5832L25.6906 21.1335C26.2051 21.6624 26.344 22.3706 26.0728 23.084V23.0847C25.9138 23.4997 25.6191 23.898 25.2779 24.2116C25.6189 24.5255 25.9135 24.9233 26.0715 25.3386L26.1203 25.4812C26.3238 26.1455 26.1709 26.7951 25.6906 27.2891L25.5832 27.3926C25.1889 27.7456 24.7018 27.9173 24.1867 27.9174C23.4819 27.9174 22.7324 27.5959 22.0767 26.9961L21.9465 26.8724C21.6863 26.6131 21.684 26.1911 21.9426 25.9297L21.9432 25.9291L21.9934 25.8835C22.2535 25.67 22.641 25.6813 22.886 25.9258L22.994 26.0274C23.2521 26.2578 23.5532 26.4428 23.8443 26.53C24.1745 26.6289 24.4697 26.5977 24.6939 26.3985L24.7603 26.3321C24.818 26.2668 24.8507 26.2049 24.8658 26.1439C24.8809 26.0827 24.881 26.0116 24.8606 25.9245L24.8332 25.8321C24.7422 25.581 24.5417 25.3392 24.3306 25.1563C24.2263 25.0659 24.1233 24.9938 24.0376 24.9447C23.9949 24.9202 23.9584 24.9026 23.9296 24.8913C23.9004 24.88 23.8867 24.8785 23.886 24.8783V24.8777C23.5209 24.8735 23.2272 24.5774 23.2271 24.2116C23.2271 23.8482 23.5187 23.5521 23.8801 23.545H23.8873C23.8874 23.5449 23.9011 23.5435 23.9309 23.532C23.9597 23.5207 23.9962 23.503 24.0389 23.4786C24.1246 23.4295 24.2276 23.3573 24.3319 23.267C24.5431 23.084 24.7435 22.8421 24.8339 22.5905L24.8619 22.4974C24.8824 22.4104 24.8814 22.339 24.8664 22.278C24.8514 22.2175 24.8193 22.1561 24.7616 22.0912L24.6945 22.0241C24.4784 21.8308 24.1974 21.7941 23.8833 21.879C23.5661 21.9647 23.2327 22.1718 22.9517 22.4363L22.9511 22.4369C22.6992 22.6721 22.3132 22.6761 22.0578 22.4545L22.0083 22.407C21.7574 22.1391 21.7682 21.7177 22.0376 21.4649L22.2551 21.2728ZM23.5604 24.2116C23.5605 24.3958 23.7091 24.5445 23.8931 24.545H23.899L23.9771 24.5567C24.0025 24.5631 24.0271 24.5719 24.05 24.5808C24.0984 24.5996 24.1504 24.6251 24.2037 24.6557C24.3102 24.7168 24.4303 24.8018 24.5487 24.9044C24.783 25.1074 25.0287 25.394 25.1464 25.7188L25.147 25.7195L25.1854 25.8484C25.2155 25.9765 25.2196 26.1018 25.1893 26.224C25.149 26.3872 25.0524 26.5255 24.9165 26.6472H24.9159C24.5776 26.9483 24.1489 26.9689 23.7486 26.849C23.3505 26.7297 22.9585 26.4676 22.6509 26.1628V26.1622C22.5378 26.049 22.3609 26.0353 22.2317 26.1211L22.1796 26.1641C22.0503 26.2947 22.0512 26.5062 22.1815 26.6361L22.302 26.7507C22.9099 27.3068 23.5829 27.584 24.1867 27.584C24.6248 27.584 25.031 27.4389 25.3606 27.1439L25.4498 27.0586C25.8458 26.6524 25.9712 26.1276 25.8013 25.5762L25.7603 25.4577C25.6047 25.0485 25.2862 24.6415 24.9185 24.3405L24.7603 24.2116L24.9185 24.0827C25.286 23.7827 25.6046 23.3752 25.7616 22.9655L25.802 22.8471C25.9711 22.2947 25.8459 21.7691 25.4498 21.3633L25.3606 21.2787C24.6213 20.6188 23.4905 20.6863 22.4686 21.5287L22.2662 21.7077C22.1321 21.8334 22.125 22.0437 22.2505 22.1784H22.2512C22.3615 22.2958 22.5371 22.3161 22.6698 22.2344L22.7232 22.1928C23.032 21.9022 23.4126 21.6604 23.7968 21.5567C24.1839 21.4522 24.5922 21.4855 24.9165 21.7754L25.0116 21.8698C25.0984 21.9676 25.1598 22.0761 25.19 22.1986C25.2201 22.3209 25.2163 22.4462 25.1861 22.5743L25.1477 22.7032C25.0307 23.029 24.7845 23.3159 24.55 23.5189C24.4316 23.6215 24.3115 23.7066 24.205 23.7676C24.1517 23.7981 24.0996 23.8237 24.0513 23.8425C24.0054 23.8603 23.9524 23.8763 23.9003 23.8783H23.8866L23.8208 23.8861C23.6724 23.9193 23.5604 24.0525 23.5604 24.2116Z" fill="black"/>
<path d="M14.5267 18.7284C14.2507 18.7284 14.0267 18.5044 14.0267 18.2284C14.0267 17.3584 13.3787 16.6504 12.5827 16.6504C11.7867 16.6504 11.1387 17.3584 11.1387 18.2284C11.1387 18.5044 10.9147 18.7284 10.6387 18.7284C10.3627 18.7284 10.1387 18.5044 10.1387 18.2284C10.1387 16.8071 11.2353 15.6504 12.5827 15.6504C13.9307 15.6504 15.0267 16.8071 15.0267 18.2284C15.0267 18.5044 14.8027 18.7284 14.5267 18.7284Z" fill="black"/>
<path d="M14.8587 18.2284C14.8587 16.8906 13.829 15.817 12.5814 15.817C11.3344 15.817 10.304 16.8907 10.304 18.2284C10.3041 18.4123 10.4535 18.5618 10.6374 18.5618C10.8213 18.5618 10.9706 18.4123 10.9707 18.2284C10.9707 17.2806 11.6797 16.4836 12.5814 16.4836C13.483 16.4837 14.1921 17.2806 14.1921 18.2284C14.1921 18.4123 14.3415 18.5618 14.5254 18.5618C14.7093 18.5618 14.8587 18.4123 14.8587 18.2284ZM15.1921 18.2284C15.192 18.5964 14.8934 18.8951 14.5254 18.8951C14.1574 18.8951 13.8588 18.5964 13.8587 18.2284C13.8587 17.4363 13.2717 16.817 12.5814 16.817C11.891 16.817 11.304 17.4363 11.304 18.2284C11.304 18.5964 11.0054 18.8951 10.6374 18.8951C10.2694 18.8951 9.97077 18.5964 9.9707 18.2284C9.9707 16.7235 11.1337 15.4836 12.5814 15.4836C14.0297 15.4837 15.1921 16.7236 15.1921 18.2284Z" fill="black"/>
<path d="M35.761 18.7284C35.485 18.7284 35.261 18.5044 35.261 18.2284C35.261 17.3584 34.6131 16.6504 33.8171 16.6504C33.0211 16.6504 32.373 17.3584 32.373 18.2284C32.373 18.5044 32.149 18.7284 31.873 18.7284C31.597 18.7284 31.373 18.5044 31.373 18.2284C31.373 16.8071 32.4697 15.6504 33.8171 15.6504C35.1651 15.6504 36.261 16.8071 36.261 18.2284C36.261 18.5044 36.037 18.7284 35.761 18.7284Z" fill="black"/>
<path d="M36.0931 18.2284C36.0931 16.8906 35.0634 15.817 33.8158 15.817C32.5687 15.817 31.5384 16.8907 31.5384 18.2284C31.5385 18.4123 31.6878 18.5618 31.8717 18.5618C32.0557 18.5618 32.205 18.4123 32.2051 18.2284C32.2051 17.2806 32.9141 16.4836 33.8158 16.4836C34.7174 16.4836 35.4264 17.2806 35.4264 18.2284C35.4265 18.4123 35.5759 18.5618 35.7598 18.5618C35.9437 18.5618 36.093 18.4123 36.0931 18.2284ZM36.4264 18.2284C36.4264 18.5964 36.1278 18.8951 35.7598 18.8951C35.3918 18.8951 35.0932 18.5964 35.0931 18.2284C35.0931 17.4363 34.5061 16.817 33.8158 16.817C33.1254 16.817 32.5384 17.4363 32.5384 18.2284C32.5383 18.5964 32.2397 18.8951 31.8717 18.8951C31.5037 18.8951 31.2051 18.5964 31.2051 18.2284C31.2051 16.7235 32.3681 15.4836 33.8158 15.4836C35.2641 15.4836 36.4264 16.7236 36.4264 18.2284Z" fill="black"/>
<rect x="8.18555" y="22.6667" width="3.33333" height="3.33333" transform="rotate(25.1756 8.18555 22.6667)" fill="#FF4901"/>
<rect x="27.25" y="1.6062" width="3.33333" height="3.33333" transform="rotate(-16.3704 27.25 1.6062)" fill="#2252FF"/>
<rect x="3.25" y="14.2727" width="3.33333" height="3.33333" transform="rotate(-16.3704 3.25 14.2727)" fill="#2252FF"/>
<rect x="17.0898" width="3.33333" height="3.33333" transform="rotate(8.73432 17.0898 0)" fill="#FB22FF"/>
<rect x="33.916" y="35.175" width="3.33333" height="3.33333" transform="rotate(-20.6417 33.916 35.175)" fill="#22CBFF"/>
<rect x="21.5508" y="5.33325" width="3.33333" height="3.33333" transform="rotate(43.6279 21.5508 5.33325)" fill="#7416EF"/>
<defs>
<filter id="filter0_f_8991_19596" x="31.3574" y="15.9597" width="15.1602" height="14.135" filterUnits="userSpaceOnUse" color-interpolation-filters="sRGB">
<feFlood flood-opacity="0" result="BackgroundImageFix"/>
<feBlend mode="normal" in="SourceGraphic" in2="BackgroundImageFix" result="shape"/>
<feGaussianBlur stdDeviation="2" result="effect1_foregroundBlur_8991_19596"/>
</filter>
<filter id="filter1_f_8991_19596" x="0.109375" y="15.9597" width="15.0469" height="14.136" filterUnits="userSpaceOnUse" color-interpolation-filters="sRGB">
<feFlood flood-opacity="0" result="BackgroundImageFix"/>
<feBlend mode="normal" in="SourceGraphic" in2="BackgroundImageFix" result="shape"/>
<feGaussianBlur stdDeviation="2" result="effect1_foregroundBlur_8991_19596"/>
</filter>
<radialGradient id="paint0_radial_8991_19596" cx="0" cy="0" r="1" gradientUnits="userSpaceOnUse" gradientTransform="translate(14.5833 4) rotate(60.9454) scale(41.1825)">
<stop stop-color="#FFDE65"/>
<stop offset="1" stop-color="#FFCE1B"/>
</radialGradient>
</defs>
</svg>
