<svg width="116" height="116" viewBox="0 0 116 116" fill="none" xmlns="http://www.w3.org/2000/svg">
<path d="M80.1045 9.40039C87.3399 9.40039 90.9582 9.39988 93.2061 11.6475C95.4539 13.8953 95.4541 17.5135 95.4541 24.749V66.959C95.4541 71.012 94.8438 74.9228 93.7139 78.6055C92.8993 78.0629 91.9391 77.7213 90.9033 77.6543L90.6133 77.6426L87.3867 77.5947L85.0732 75.3477L84.8604 75.1514C82.6919 73.2461 79.437 73.2461 77.2686 75.1514L77.0557 75.3477L74.7412 77.5947L71.5156 77.6426C68.501 77.6875 66.0498 80.046 65.8574 83.0225L65.8457 83.3125L65.7979 86.5381L63.5508 88.8516C61.3833 91.0847 61.3834 94.637 63.5508 96.8701L65.7979 99.1836L65.8457 102.41L65.8574 102.7C65.9142 103.578 66.1688 104.402 66.5752 105.129C63.1495 106.094 59.536 106.611 55.8018 106.611C33.9027 106.611 16.1504 88.8581 16.1504 66.959V24.749C16.1504 17.5135 16.1496 13.8953 18.3975 11.6475C20.6453 9.39964 24.2635 9.40039 31.499 9.40039H80.1045ZM79.2822 77.6426C80.2747 76.6792 81.8542 76.6792 82.8467 77.6426L85.3428 80.0654L85.4326 80.1484C85.8889 80.5509 86.4749 80.7789 87.0859 80.7881L90.5654 80.8398L90.6943 80.8447C91.456 80.894 92.1249 81.2777 92.5605 81.8486C88.4106 92.0838 80.112 100.191 69.749 104.086C69.3207 103.636 69.053 103.031 69.043 102.362L68.9912 98.8828C68.9814 98.2309 68.7227 97.6075 68.2686 97.1396L65.8457 94.6426C64.8825 93.6501 64.8824 92.0716 65.8457 91.0791L68.2686 88.583C68.6943 88.1444 68.9482 87.5684 68.9863 86.9609L68.9912 86.8389L69.043 83.3594C69.0638 81.9767 70.1799 80.8608 71.5625 80.8398L75.042 80.7881C75.6532 80.7789 76.2399 80.551 76.6963 80.1484L76.7861 80.0654L79.2822 77.6426Z" fill="#E17225"/>
<path d="M83.9424 13.2383C87.5601 13.2383 89.3693 13.2384 90.4932 14.3623C91.6168 15.4862 91.6172 17.2956 91.6172 20.9131V66.96C91.6172 70.6775 91.0492 74.2625 89.998 77.6338L87.3867 77.5957L85.0732 75.3486L84.8604 75.1523C82.6919 73.2471 79.437 73.2471 77.2686 75.1523L77.0557 75.3486L74.7412 77.5957L71.5156 77.6436C68.501 77.6885 66.0498 80.047 65.8574 83.0234L65.8457 83.3135L65.7979 86.5391L63.5508 88.8525C61.3833 91.0856 61.3834 94.6379 63.5508 96.8711L65.7979 99.1846L65.8291 101.35C62.6472 102.276 59.2826 102.774 55.8018 102.774C36.022 102.774 19.9873 86.7398 19.9873 66.96V20.9131C19.9873 17.2954 19.9876 15.4862 21.1113 14.3623C22.2352 13.2384 24.0443 13.2383 27.6621 13.2383H83.9424ZM79.2822 77.6436C80.2747 76.6802 81.8542 76.6802 82.8467 77.6436L85.3428 80.0664L85.4326 80.1494C85.8889 80.5519 86.4749 80.7798 87.0859 80.7891L88.8369 80.8145C85.1199 89.6668 77.9496 96.71 69.0107 100.259L68.9912 98.8838C68.9814 98.2319 68.7227 97.6085 68.2686 97.1406L65.8457 94.6436C64.8825 93.651 64.8824 92.0725 65.8457 91.0801L68.2686 88.584C68.6943 88.1453 68.9482 87.5694 68.9863 86.9619L68.9912 86.8398L69.043 83.3604C69.0638 81.9777 70.1799 80.8617 71.5625 80.8408L75.042 80.7891C75.6532 80.7799 76.2399 80.552 76.6963 80.1494L76.7861 80.0664L79.2822 77.6436Z" fill="#612C04"/>
<path d="M87.7793 66.959C87.7793 70.3016 87.2648 73.5241 86.3135 76.5527L85.0732 75.3477L84.8604 75.1514C82.6919 73.2461 79.437 73.2461 77.2686 75.1514L77.0557 75.3477L74.7412 77.5947L71.5156 77.6426C68.501 77.6875 66.0498 80.046 65.8574 83.0225L65.8457 83.3125L65.7979 86.5381L63.5508 88.8516C61.3833 91.0847 61.3834 94.637 63.5508 96.8701L64.416 97.7607C61.6753 98.5256 58.7865 98.9365 55.8018 98.9365C38.1412 98.9364 23.8242 84.6196 23.8242 66.959V40.0977H87.7793V66.959ZM79.2822 77.6426C80.2747 76.6792 81.8542 76.6792 82.8467 77.6426L85.0859 79.8164C81.7361 87.435 75.5029 93.4974 67.7656 96.6211L65.8457 94.6426C64.8825 93.6501 64.8824 92.0716 65.8457 91.0791L68.2686 88.583C68.6943 88.1444 68.9482 87.5684 68.9863 86.9609L68.9912 86.8389L69.043 83.3594C69.0638 81.9767 70.1799 80.8608 71.5625 80.8398L75.042 80.7881C75.6532 80.7789 76.2399 80.551 76.6963 80.1484L76.7861 80.0654L79.2822 77.6426Z" fill="#001953"/>
<mask id="mask0_7286_91046" style="mask-type:alpha" maskUnits="userSpaceOnUse" x="23" y="40" width="65" height="59">
<path d="M87.7794 66.959C87.7794 70.3016 87.2649 73.5241 86.3135 76.5527L85.0733 75.3477L84.8604 75.1514C82.692 73.2461 79.4371 73.2461 77.2686 75.1514L77.0557 75.3477L74.7413 77.5947L71.5157 77.6426C68.5011 77.6875 66.0498 80.046 65.8575 83.0225L65.8458 83.3125L65.7979 86.5381L63.5508 88.8525C61.3837 91.0856 61.3836 94.6371 63.5508 96.8701L64.4161 97.7607C61.6754 98.5256 58.7865 98.9365 55.8018 98.9365C38.1413 98.9364 23.8243 84.6196 23.8243 66.959V40.0977H87.7794V66.959ZM79.2823 77.6426C80.2748 76.6792 81.8542 76.6792 82.8467 77.6426L85.086 79.8164C81.7362 87.435 75.503 93.4974 67.7657 96.6211L65.8458 94.6426C64.8826 93.6501 64.8825 92.0715 65.8458 91.0791L68.2686 88.583C68.6944 88.1444 68.9483 87.5684 68.9864 86.9609L68.9913 86.8389L69.044 83.3594C69.0649 81.9768 70.18 80.8608 71.5626 80.8398L75.0421 80.7881C75.6533 80.7789 76.2399 80.551 76.6964 80.1484L76.7862 80.0654L79.2823 77.6426Z" fill="#0072D2"/>
</mask>
<g mask="url(#mask0_7286_91046)">
<path d="M92.3456 69.5177V54.3809L55.8017 69.5177H92.3456Z" fill="#E37727"/>
<path d="M55.8019 69.5176L40.666 106.061H55.8019V69.5176Z" fill="#D76D1E"/>
<path d="M19.2588 84.6545V106.061L55.8018 69.5176L19.2588 84.6545Z" fill="#D76D1E"/>
<path d="M55.8017 69.5176V106.061H70.9386L55.8017 69.5176Z" fill="#E37727"/>
<path d="M55.8017 69.5176L92.3456 54.3808V32.9746H92.3447L55.8017 69.5176Z" fill="#D76D1E"/>
<path d="M55.8017 69.5176L92.3456 84.6544V69.5176H55.8017Z" fill="#D76D1E"/>
<path d="M92.3456 106.061V84.6545L55.8017 69.5176L92.3456 106.061Z" fill="#E37727"/>
<path d="M70.9386 106.061H92.3456L55.8017 69.5176L70.9386 106.061Z" fill="#D76D1E"/>
<path d="M55.8018 69.5176L19.2588 106.061H40.6658L55.8018 69.5176Z" fill="#E37727"/>
<path d="M55.8017 69.5176L70.9386 32.9746H55.8017V69.5176Z" fill="#D76D1E"/>
<path d="M55.8015 32.9746H40.6647L55.8015 69.5176V32.9746Z" fill="#E37727"/>
<path d="M55.8018 69.5176H19.2588V84.6544L55.8018 69.5176Z" fill="#E37727"/>
<path d="M55.8017 69.5176L92.3447 32.9746H70.9386L55.8017 69.5176Z" fill="#E37727"/>
<path d="M55.8018 69.5177L19.2588 54.3809V69.5177H55.8018Z" fill="#D76D1E"/>
<path d="M55.8018 69.5176L19.2588 32.9746V54.3808L55.8018 69.5176Z" fill="#E37727"/>
<path d="M55.8018 69.5176L40.6649 32.9746H19.2588L55.8018 69.5176Z" fill="#D76D1E"/>
<path d="M58.4392 64.2398L66.2608 49.2949L51.026 49.295L45.7291 71.6424H52.573L46.9163 87.4252L70.032 64.2398H58.4392Z" fill="#FFF5D6"/>
</g>
<path d="M82.5671 18.3887C83.0755 18.3887 83.5264 18.7148 83.5264 19.3384V27.3967H81.6078V23.5882H80.9842C80.4566 23.5882 80.1304 23.262 80.1304 22.7728C80.1304 22.2931 80.447 21.9478 80.9842 21.9478H81.6078V19.3384C81.6078 18.7148 82.0587 18.3887 82.5671 18.3887ZM77.2524 25.4109H80.1304C80.6868 25.4109 80.8499 25.8522 80.8499 26.2167C80.8499 26.5909 80.6772 27.013 80.1304 27.013H76.533C75.3434 27.013 75.1132 26.7156 75.1132 25.574V20.1538C75.1132 19.0122 75.3434 18.7244 76.533 18.7244H79.5932C80.1496 18.7244 80.3127 19.1657 80.3127 19.5303C80.3127 19.9044 80.14 20.3457 79.5932 20.3457H77.2524C77.0798 20.3457 77.003 20.4032 77.003 20.6239V22.0245H79.0272C79.5836 22.0245 79.7947 22.4178 79.7947 22.8207C79.7947 23.2141 79.574 23.6074 79.0272 23.6074H77.003V25.1327C77.003 25.3534 77.0798 25.4109 77.2524 25.4109Z" fill="white"/>
<path d="M66.4793 24.028C66.0092 24.028 65.6159 23.7594 65.5679 23.2893C65.52 22.8288 65.7694 22.4547 66.2586 22.3492C67.5249 22.071 68.6857 20.9965 68.8872 19.3849C68.9639 18.7805 69.386 18.5215 69.9041 18.5215C70.4797 18.5215 70.8922 18.9052 70.873 19.5384C70.8634 19.8358 70.8154 20.1331 70.7483 20.4209C72.3599 20.4593 74.0195 21.5817 74.2018 24.028H72.2544C72.0817 22.7329 71.1416 21.9463 70 21.975C69.127 23.1838 67.7456 24.028 66.4793 24.028ZM66.2394 25.5821H73.5687C74.1634 25.5821 74.3937 26.0042 74.3937 26.3975C74.3937 26.8004 74.1539 27.2034 73.5687 27.2034H66.2394C65.6543 27.2034 65.4144 26.8004 65.4144 26.3975C65.4144 26.0042 65.6447 25.5821 66.2394 25.5821Z" fill="white"/>
<path d="M64.5222 23.1644H57.7302C56.6749 23.1644 56.4639 22.7999 56.4639 21.8502V19.3655C56.4639 18.742 56.9435 18.5117 57.452 18.5117C57.9316 18.5117 58.4305 18.7803 58.4305 19.3847V19.3943H62.5652V19.3655C62.5652 18.742 63.0352 18.5117 63.5437 18.5117C64.0329 18.5117 64.5222 18.7515 64.5222 19.3655V23.1644ZM62.5652 21.6295V20.8621H58.4305V21.3417C58.4305 21.5336 58.4976 21.6295 58.7279 21.6295H62.5652ZM56.8188 23.8072H64.1864C64.762 23.8072 64.9923 24.2005 64.9923 24.5938C64.9923 24.9967 64.7524 25.3805 64.1864 25.3805H61.4811V27.443H59.5241V25.3805H56.8188C56.2528 25.3805 56.013 24.9967 56.013 24.5938C56.013 24.2005 56.2432 23.8072 56.8188 23.8072Z" fill="white"/>
<path d="M54.363 18.3887C54.8714 18.3887 55.3223 18.7148 55.3223 19.3384V27.3967H53.4037V19.3384C53.4037 18.7148 53.8545 18.3887 54.363 18.3887ZM51.7344 20.3937H50.4394V21.7079C50.4394 22.0437 50.4202 22.3603 50.3818 22.6673C51.744 23.1277 52.6266 24.183 52.5115 26.8595H50.6696C50.8135 25.5356 50.5545 24.7586 49.9693 24.3653C49.2978 26.0633 48.0698 26.9266 47.312 26.9266C46.746 26.9266 46.4294 26.5813 46.4294 26.1496C46.4294 25.833 46.5637 25.622 46.8515 25.4301C47.9739 24.7106 48.5879 23.5306 48.5879 21.4201V20.3937H47.2928C46.7172 20.3937 46.4773 19.9716 46.4773 19.5782C46.4773 19.1945 46.7076 18.7532 47.2928 18.7532H51.7344C52.3196 18.7532 52.5307 19.1945 52.5307 19.5782C52.5307 19.9716 52.31 20.3937 51.7344 20.3937Z" fill="white"/>
<path d="M45.9209 25.1903H44.0023V19.3384C44.0023 18.7148 44.4532 18.3887 44.9616 18.3887C45.47 18.3887 45.9209 18.7148 45.9209 19.3384V25.1903ZM42.9182 24.1734H39.1385C38.0353 24.1734 37.4213 23.4539 37.4213 22.5042V22.3219C37.4213 21.3626 38.0257 20.7486 39.0426 20.7486H40.7981V20.3265C40.7981 20.173 40.7406 20.1346 40.5583 20.1346H38.1216C37.6612 20.1346 37.4597 19.7317 37.4597 19.4056C37.4597 19.0602 37.6707 18.6669 38.1216 18.6669H41.3929C42.3714 18.6669 42.7648 19.1465 42.7648 19.8948V22.1013H39.7237C39.551 22.1013 39.3975 22.1876 39.3975 22.3986V22.437C39.3975 22.6385 39.551 22.7152 39.7237 22.7152H42.9182C43.3787 22.7152 43.5802 23.1085 43.5802 23.4539C43.5802 23.7897 43.3979 24.1734 42.9182 24.1734ZM45.4029 27.3967H39.3208C38.2463 27.3967 37.9585 27.0226 37.9585 25.9961V25.3246C37.9585 24.749 38.4094 24.4516 38.9466 24.4516C39.4839 24.4516 39.906 24.7586 39.906 25.3246V25.7563C39.906 25.8906 39.9539 25.9289 40.0882 25.9289H45.4029C45.9593 25.9289 46.1799 26.2743 46.1799 26.658C46.1799 27.0514 45.9497 27.3967 45.4029 27.3967Z" fill="white"/>
<path d="M30.5622 22.197C30.1017 22.8206 29.4014 23.2235 28.634 23.2235C28.1064 23.2235 27.8282 22.9549 27.8282 22.5136C27.8282 22.1874 28.0776 21.9092 28.3846 21.8612C29.0369 21.7653 29.3823 21.3528 29.4014 20.4894H28.5764C28.1255 20.4894 27.8761 20.1345 27.8761 19.7891C27.8761 19.4438 28.0872 19.0696 28.5764 19.0696H29.3727C29.411 18.5996 29.6796 18.3789 30.2169 18.3789C30.7541 18.3789 31.0227 18.6091 31.0707 19.0696H31.8669C32.3562 19.0696 32.5672 19.4438 32.5672 19.7891C32.5672 20.1345 32.3178 20.4894 31.8669 20.4894H31.1186C31.1186 20.6333 31.109 20.7676 31.0899 20.9115C32.1163 21.0075 32.7303 21.7078 32.6344 23.1084H30.9939C31.0899 22.6575 30.9364 22.3025 30.5622 22.197ZM34.9847 21.5735H34.553V23.1755H32.8742V19.2135C32.8742 18.7147 33.21 18.3885 33.7184 18.3885C34.2268 18.3885 34.553 18.7147 34.553 19.2135V20.1249H34.9847V19.2135C34.9847 18.7147 35.3205 18.3885 35.8289 18.3885C36.3373 18.3885 36.6635 18.7147 36.6635 19.2135V23.1755H34.9847V21.5735ZM30.5814 26.2741H36.3757C36.7594 26.2741 36.9225 26.5619 36.9225 26.8497C36.9225 27.1183 36.769 27.3965 36.3757 27.3965H29.6892C28.8163 27.3965 28.3462 26.8497 28.3462 26.1878V25.9671C28.3462 25.3244 28.8163 24.8927 29.6892 24.8927H34.7257V24.6817C34.7257 24.5665 34.6969 24.5186 34.5722 24.5186H28.9793C28.6052 24.5186 28.4517 24.25 28.4517 23.9622C28.4517 23.6936 28.6148 23.4154 28.9793 23.4154H35.5507C36.3853 23.4154 36.6731 23.6648 36.6731 24.3939V25.8904H30.5814C30.4471 25.8904 30.38 25.9767 30.38 26.0631V26.1015C30.38 26.1974 30.4471 26.2741 30.5814 26.2741Z" fill="white"/>
<path d="M62.5722 35.9327H61.2714L60.3447 34.2693H59.6712V35.9327H58.4913V31.7942C58.4913 31.1323 58.6985 30.8848 59.3892 30.8848H60.4483C61.4441 30.8848 62.1751 31.3568 62.1751 32.3871V32.7554C62.1751 33.3253 61.8642 33.757 61.4268 34.016L62.5722 35.9327ZM59.6712 32.0417V33.2965H60.4195C60.8052 33.2965 61.0066 33.049 61.0066 32.7554V32.4158C61.0066 32.1223 60.8052 31.8748 60.4195 31.8748H59.8382C59.7058 31.8748 59.6712 31.9036 59.6712 32.0417Z" fill="#F4A462"/>
<path d="M56.6702 35.9311V33.8532H55.2139V35.9311H54.0282V31.3781C54.0282 30.9925 54.3102 30.791 54.6211 30.791C54.9319 30.791 55.2139 30.9925 55.2139 31.3781V32.8516H56.6702V31.3781C56.6702 30.9925 56.9522 30.791 57.263 30.791C57.5739 30.791 57.8559 30.9925 57.8559 31.3781V35.9311H56.6702Z" fill="#F4A462"/>
<path d="M51.8707 35.9311H49.3381C48.9064 35.9311 48.6243 35.6836 48.6243 35.2519V35.1886C48.6243 34.4173 48.8546 34.1237 49.3381 33.6805L50.2993 32.7941C50.5295 32.5869 50.6504 32.4315 50.6504 32.2127C50.6504 31.9595 50.4317 31.8386 50.2245 31.8386C49.9424 31.8386 49.8043 31.9595 49.6892 32.0861C49.6086 32.1782 49.4992 32.2876 49.3899 32.3163C49.2345 32.3624 49.0215 32.3451 48.8546 32.207C48.6474 32.0401 48.6474 31.7292 48.7797 31.5105C49.0733 31.0328 49.6028 30.791 50.3166 30.791C51.1282 30.791 51.8246 31.24 51.8246 32.0976C51.8246 32.7423 51.4678 33.1107 50.99 33.5769L50.2533 34.2906C50.0058 34.5324 49.8388 34.5957 49.8388 34.8087V34.849C49.8388 34.9065 49.8619 34.9353 49.9252 34.9353H51.8707V35.9311Z" fill="#F4A462"/>
<path d="M79.2824 77.6405C80.2749 76.6771 81.8534 76.6771 82.846 77.6405L85.3426 80.0639C85.8106 80.5182 86.4343 80.7765 87.0863 80.7862L90.5654 80.838C91.9484 80.8586 93.0646 81.9748 93.0852 83.3578L93.137 86.8369C93.1467 87.4889 93.4051 88.1126 93.8593 88.5806L96.2827 91.0772C97.2461 92.0698 97.2461 93.6483 96.2827 94.6408L93.8593 97.1375C93.4051 97.6054 93.1467 98.2292 93.137 98.8812L93.0852 102.36C93.0646 103.743 91.9484 104.859 90.5654 104.88L87.0863 104.932C86.4343 104.942 85.8106 105.2 85.3426 105.654L82.846 108.078C81.8534 109.041 80.2749 109.041 79.2824 108.078L76.7857 105.654C76.3178 105.2 75.6941 104.942 75.042 104.932L71.563 104.88C70.1799 104.859 69.0637 103.743 69.0431 102.36L68.9914 98.8812C68.9816 98.2292 68.7233 97.6054 68.2691 97.1375L65.8457 94.6408C64.8823 93.6483 64.8823 92.0698 65.8457 91.0772L68.2691 88.5806C68.7233 88.1126 68.9816 87.4889 68.9914 86.8369L69.0431 83.3578C69.0637 81.9748 70.1799 80.8586 71.563 80.838L75.042 80.7862C75.6941 80.7765 76.3178 80.5182 76.7857 80.0639L79.2824 77.6405Z" fill="#F9C938"/>
<path d="M87.1496 96.3262H82.3657C81.5503 96.3262 81.0176 95.8587 81.0176 95.0432V94.9236C81.0176 93.4668 81.4525 92.9123 82.3657 92.0751L84.1814 90.4008C84.6163 90.0094 84.8446 89.7158 84.8446 89.3027C84.8446 88.8243 84.4315 88.596 84.0401 88.596C83.5073 88.596 83.2464 88.8243 83.029 89.0635C82.8767 89.2374 82.6702 89.444 82.4636 89.4984C82.17 89.5853 81.7678 89.5527 81.4525 89.2918C81.0611 88.9765 81.0611 88.3894 81.3111 87.9762C81.8656 87.0738 82.8659 86.6172 84.214 86.6172C85.747 86.6172 87.0626 87.4652 87.0626 89.0852C87.0626 90.3029 86.3885 90.9987 85.4861 91.8794L84.0944 93.2276C83.6269 93.6842 83.3116 93.8038 83.3116 94.2061V94.2822C83.3116 94.3909 83.3551 94.4453 83.4747 94.4453H87.1496V96.3262Z" fill="#582F00"/>
<path d="M78.6171 92.8143L80.9655 96.326H78.4866L77.258 94.5538L76.1599 96.326H73.7463L76.0838 92.8795L74.453 90.5419C74.0833 90.0201 74.3877 89.2916 74.964 89.0851C75.5293 88.8785 76.1056 89.0851 76.5078 89.683L77.4755 91.1182L78.3235 89.6939C78.6932 89.0742 79.2259 88.8894 79.7913 89.0742C80.3675 89.259 80.6285 90.0201 80.2371 90.5637L78.6171 92.8143Z" fill="#582F00"/>
</svg>
