<svg width="116" height="116" viewBox="0 0 116 116" fill="none" xmlns="http://www.w3.org/2000/svg">
<path d="M80.1045 9.40039C87.3398 9.40039 90.9582 9.39993 93.2061 11.6475C95.4539 13.8953 95.4541 17.5135 95.4541 24.749V66.959C95.4541 71.0119 94.8447 74.9228 93.7148 78.6055C92.9001 78.0626 91.9394 77.7213 90.9033 77.6543L90.6133 77.6426L87.3867 77.5947L85.0732 75.3477L84.8604 75.1514C82.6919 73.2461 79.437 73.2461 77.2686 75.1514L77.0557 75.3477L74.7412 77.5947L71.5156 77.6426C68.501 77.6875 66.0498 80.046 65.8574 83.0225L65.8457 83.3125L65.7979 86.5381L63.5508 88.8516C61.3833 91.0847 61.3834 94.637 63.5508 96.8701L65.7979 99.1836L65.8457 102.41L65.8574 102.7C65.9142 103.578 66.1688 104.402 66.5752 105.129C63.1496 106.094 59.536 106.611 55.8018 106.611C33.9027 106.611 16.1504 88.8581 16.1504 66.959V24.749C16.1504 17.5135 16.1496 13.8953 18.3975 11.6475C20.6453 9.39965 24.2635 9.40039 31.499 9.40039H80.1045ZM79.2822 77.6426C80.2747 76.6792 81.8542 76.6792 82.8467 77.6426L85.3428 80.0654L85.4326 80.1484C85.8889 80.5509 86.4749 80.7788 87.0859 80.7881L90.5654 80.8398L90.6943 80.8447C91.4557 80.8939 92.1249 81.277 92.5605 81.8477C88.4107 92.0832 80.1123 100.191 69.749 104.086C69.3207 103.636 69.053 103.031 69.043 102.362L68.9912 98.8828C68.9814 98.2309 68.7227 97.6075 68.2686 97.1396L65.8457 94.6426C64.8825 93.6501 64.8824 92.0716 65.8457 91.0791L68.2686 88.583C68.6943 88.1444 68.9482 87.5684 68.9863 86.9609L68.9912 86.8389L69.043 83.3594C69.0638 81.9768 70.1799 80.8608 71.5625 80.8398L75.042 80.7881C75.6532 80.7789 76.2399 80.551 76.6963 80.1484L76.7861 80.0654L79.2822 77.6426Z" fill="#FF9D3A"/>
<path d="M83.9424 13.2383C87.5602 13.2383 89.3692 13.2384 90.4932 14.3623C91.6168 15.4862 91.6172 17.2955 91.6172 20.9131V66.96C91.6172 70.6775 91.0492 74.2624 89.998 77.6338L87.3867 77.5957L85.0732 75.3486L84.8604 75.1523C82.6919 73.2471 79.437 73.2471 77.2686 75.1523L77.0557 75.3486L74.7412 77.5957L71.5156 77.6436C68.501 77.6885 66.0498 80.047 65.8574 83.0234L65.8457 83.3135L65.7979 86.5391L63.5508 88.8525C61.3833 91.0856 61.3834 94.6379 63.5508 96.8711L65.7979 99.1846L65.8291 101.35C62.6472 102.276 59.2826 102.774 55.8018 102.774C36.022 102.774 19.9873 86.7397 19.9873 66.96V20.9131C19.9873 17.2954 19.9876 15.4862 21.1113 14.3623C22.2352 13.2384 24.0443 13.2383 27.6621 13.2383H83.9424ZM79.2822 77.6436C80.2747 76.6802 81.8542 76.6802 82.8467 77.6436L85.3428 80.0664L85.4326 80.1494C85.8889 80.5519 86.4749 80.7798 87.0859 80.7891L88.8369 80.8145C85.1199 89.6668 77.9497 96.71 69.0107 100.259L68.9912 98.8838C68.9814 98.2319 68.7227 97.6085 68.2686 97.1406L65.8457 94.6436C64.8825 93.651 64.8824 92.0725 65.8457 91.0801L68.2686 88.584C68.6943 88.1453 68.9482 87.5694 68.9863 86.9619L68.9912 86.8398L69.043 83.3604C69.0638 81.9777 70.1799 80.8617 71.5625 80.8408L75.042 80.7891C75.6532 80.7799 76.2399 80.552 76.6963 80.1494L76.7861 80.0664L79.2822 77.6436Z" fill="#593F23"/>
<path d="M87.7793 66.959C87.7793 70.3017 87.2649 73.524 86.3135 76.5527L85.0732 75.3477L84.8604 75.1514C82.6919 73.2461 79.437 73.2461 77.2686 75.1514L77.0557 75.3477L74.7412 77.5947L71.5156 77.6426C68.501 77.6875 66.0498 80.046 65.8574 83.0225L65.8457 83.3125L65.7979 86.5381L63.5508 88.8516C61.3833 91.0847 61.3834 94.637 63.5508 96.8701L64.416 97.7607C61.6755 98.5255 58.7872 98.9365 55.8027 98.9365C38.1421 98.9365 23.8252 84.6196 23.8252 66.959V40.0977H87.7793V66.959ZM79.2822 77.6426C80.2747 76.6792 81.8542 76.6792 82.8467 77.6426L85.0869 79.8164C81.7371 87.4352 75.5031 93.4974 67.7656 96.6211L65.8457 94.6426C64.8825 93.6501 64.8824 92.0716 65.8457 91.0791L68.2686 88.583C68.6943 88.1444 68.9482 87.5684 68.9863 86.9609L68.9912 86.8389L69.043 83.3594C69.0638 81.9767 70.1799 80.8608 71.5625 80.8398L75.042 80.7881C75.6532 80.7789 76.2399 80.551 76.6963 80.1484L76.7861 80.0654L79.2822 77.6426Z" fill="#0072D2"/>
<mask id="mask0_7333_19674" style="mask-type:alpha" maskUnits="userSpaceOnUse" x="23" y="40" width="65" height="59">
<path d="M87.7792 66.959C87.7792 70.3017 87.2648 73.524 86.3134 76.5527L85.0732 75.3477L84.8603 75.1514C82.6918 73.2461 79.4369 73.2461 77.2685 75.1514L77.0556 75.3477L74.7411 77.5947L71.5155 77.6426C68.501 77.6875 66.0497 80.046 65.8573 83.0225L65.8456 83.3125L65.7978 86.5381L63.5507 88.8516C61.3832 91.0847 61.3833 94.637 63.5507 96.8701L64.4159 97.7607C61.6754 98.5255 58.7871 98.9365 55.8026 98.9365C38.142 98.9365 23.8251 84.6196 23.8251 66.959V40.0977H87.7792V66.959ZM79.2821 77.6426C80.2747 76.6792 81.8541 76.6792 82.8466 77.6426L85.0868 79.8164C81.737 87.4352 75.503 93.4974 67.7655 96.6211L65.8456 94.6426C64.8824 93.6501 64.8823 92.0716 65.8456 91.0791L68.2685 88.583C68.6942 88.1444 68.9482 87.5684 68.9862 86.9609L68.9911 86.8389L69.0429 83.3594C69.0637 81.9768 70.1798 80.8608 71.5624 80.8398L75.0419 80.7881C75.6531 80.7789 76.2398 80.551 76.6962 80.1484L76.786 80.0654L79.2821 77.6426Z" fill="#93AAF9"/>
</mask>
<g mask="url(#mask0_7333_19674)">
<path d="M92.3452 69.5177V54.3809L55.8012 69.5177H92.3452Z" fill="#FFAC06"/>
<path d="M55.8018 69.5176L40.6658 106.061H55.8018V69.5176Z" fill="#FBA007"/>
<path d="M19.2586 84.6545V106.061L55.8016 69.5176L19.2586 84.6545Z" fill="#FBA007"/>
<path d="M55.8012 69.5176V106.061H70.9381L55.8012 69.5176Z" fill="#FFAC06"/>
<path d="M55.8012 69.5176L92.3452 54.3808V32.9746H92.3443L55.8012 69.5176Z" fill="#FBA007"/>
<path d="M55.8012 69.5176L92.3452 84.6544V69.5176H55.8012Z" fill="#FBA007"/>
<path d="M92.3452 106.061V84.6545L55.8012 69.5176L92.3452 106.061Z" fill="#FFAC06"/>
<path d="M70.9381 106.061H92.3452L55.8012 69.5176L70.9381 106.061Z" fill="#FBA007"/>
<path d="M55.8016 69.5176L19.2586 106.061H40.6656L55.8016 69.5176Z" fill="#FFAC06"/>
<path d="M55.8012 69.5176L70.9381 32.9746H55.8012V69.5176Z" fill="#FBA007"/>
<path d="M55.8013 32.9746H40.6644L55.8013 69.5176V32.9746Z" fill="#FFAC06"/>
<path d="M55.8016 69.5176H19.2586V84.6544L55.8016 69.5176Z" fill="#FFAC06"/>
<path d="M55.8012 69.5176L92.3443 32.9746H70.9381L55.8012 69.5176Z" fill="#FFAC06"/>
<path d="M55.8016 69.5177L19.2586 54.3809V69.5177H55.8016Z" fill="#FBA007"/>
<path d="M55.8016 69.5176L19.2586 32.9746V54.3808L55.8016 69.5176Z" fill="#FFAC06"/>
<path d="M55.8016 69.5176L40.6647 32.9746H19.2586L55.8016 69.5176Z" fill="#FBA007"/>
<path d="M58.4391 64.2398L66.2607 49.2949L51.0258 49.295L45.7289 71.6424H52.5729L46.9162 87.4252L70.0318 64.2398H58.4391Z" fill="#FFF7E6"/>
</g>
<path d="M82.5673 18.3887C83.0758 18.3887 83.5267 18.7148 83.5267 19.3384V27.3967H81.608V23.5882H80.9845C80.4568 23.5882 80.1307 23.262 80.1307 22.7728C80.1307 22.2931 80.4472 21.9478 80.9845 21.9478H81.608V19.3384C81.608 18.7148 82.0589 18.3887 82.5673 18.3887ZM77.2527 25.4109H80.1307C80.6871 25.4109 80.8502 25.8522 80.8502 26.2167C80.8502 26.5909 80.6775 27.013 80.1307 27.013H76.5332C75.3436 27.013 75.1134 26.7156 75.1134 25.574V20.1538C75.1134 19.0122 75.3436 18.7244 76.5332 18.7244H79.5934C80.1499 18.7244 80.3129 19.1657 80.3129 19.5303C80.3129 19.9044 80.1403 20.3457 79.5934 20.3457H77.2527C77.08 20.3457 77.0033 20.4032 77.0033 20.6239V22.0245H79.0274C79.5839 22.0245 79.7949 22.4178 79.7949 22.8207C79.7949 23.2141 79.5743 23.6074 79.0274 23.6074H77.0033V25.1327C77.0033 25.3534 77.08 25.4109 77.2527 25.4109Z" fill="white"/>
<path d="M66.4794 24.028C66.0093 24.028 65.616 23.7594 65.568 23.2893C65.5201 22.8288 65.7695 22.4547 66.2588 22.3492C67.5251 22.071 68.6858 20.9965 68.8873 19.3849C68.964 18.7805 69.3862 18.5215 69.9042 18.5215C70.4798 18.5215 70.8923 18.9052 70.8731 19.5384C70.8635 19.8358 70.8155 20.1331 70.7484 20.4209C72.3601 20.4593 74.0197 21.5817 74.202 24.028H72.2545C72.0819 22.7329 71.1417 21.9463 70.0001 21.975C69.1271 23.1838 67.7457 24.028 66.4794 24.028ZM66.2396 25.5821H73.5688C74.1636 25.5821 74.3938 26.0042 74.3938 26.3975C74.3938 26.8004 74.154 27.2034 73.5688 27.2034H66.2396C65.6544 27.2034 65.4146 26.8004 65.4146 26.3975C65.4146 26.0042 65.6448 25.5821 66.2396 25.5821Z" fill="white"/>
<path d="M64.5226 23.1664H57.7306C56.6754 23.1664 56.4643 22.8018 56.4643 21.8521V19.3675C56.4643 18.7439 56.944 18.5137 57.4524 18.5137C57.9321 18.5137 58.4309 18.7823 58.4309 19.3867V19.3962H62.5656V19.3675C62.5656 18.7439 63.0357 18.5137 63.5441 18.5137C64.0334 18.5137 64.5226 18.7535 64.5226 19.3675V23.1664ZM62.5656 21.6315V20.864H58.4309V21.3437C58.4309 21.5355 58.4981 21.6315 58.7283 21.6315H62.5656ZM56.8193 23.8091H64.1869C64.7625 23.8091 64.9927 24.2025 64.9927 24.5958C64.9927 24.9987 64.7529 25.3824 64.1869 25.3824H61.4816V27.445H59.5246V25.3824H56.8193C56.2533 25.3824 56.0134 24.9987 56.0134 24.5958C56.0134 24.2025 56.2437 23.8091 56.8193 23.8091Z" fill="white"/>
<path d="M54.3631 18.3887C54.8716 18.3887 55.3224 18.7148 55.3224 19.3384V27.3967H53.4038V19.3384C53.4038 18.7148 53.8547 18.3887 54.3631 18.3887ZM51.7346 20.3937H50.4395V21.7079C50.4395 22.0437 50.4203 22.3603 50.3819 22.6673C51.7442 23.1277 52.6267 24.183 52.5116 26.8595H50.6697C50.8136 25.5356 50.5546 24.7586 49.9694 24.3653C49.2979 26.0633 48.0699 26.9266 47.3121 26.9266C46.7461 26.9266 46.4295 26.5813 46.4295 26.1496C46.4295 25.833 46.5638 25.622 46.8516 25.4301C47.974 24.7106 48.588 23.5306 48.588 21.4201V20.3937H47.2929C46.7173 20.3937 46.4775 19.9716 46.4775 19.5782C46.4775 19.1945 46.7077 18.7532 47.2929 18.7532H51.7346C52.3198 18.7532 52.5308 19.1945 52.5308 19.5782C52.5308 19.9716 52.3102 20.3937 51.7346 20.3937Z" fill="white"/>
<path d="M45.9212 25.1903H44.0026V19.3384C44.0026 18.7148 44.4535 18.3887 44.9619 18.3887C45.4704 18.3887 45.9212 18.7148 45.9212 19.3384V25.1903ZM42.9186 24.1734H39.1388C38.0356 24.1734 37.4216 23.4539 37.4216 22.5042V22.3219C37.4216 21.3626 38.026 20.7486 39.0429 20.7486H40.7985V20.3265C40.7985 20.173 40.7409 20.1346 40.5586 20.1346H38.1219C37.6615 20.1346 37.46 19.7317 37.46 19.4056C37.46 19.0602 37.6711 18.6669 38.1219 18.6669H41.3932C42.3717 18.6669 42.7651 19.1465 42.7651 19.8948V22.1013H39.724C39.5513 22.1013 39.3978 22.1876 39.3978 22.3986V22.437C39.3978 22.6385 39.5513 22.7152 39.724 22.7152H42.9186C43.379 22.7152 43.5805 23.1085 43.5805 23.4539C43.5805 23.7897 43.3982 24.1734 42.9186 24.1734ZM45.4032 27.3967H39.3211C38.2466 27.3967 37.9589 27.0226 37.9589 25.9961V25.3246C37.9589 24.749 38.4097 24.4516 38.947 24.4516C39.4842 24.4516 39.9063 24.7586 39.9063 25.3246V25.7563C39.9063 25.8906 39.9542 25.9289 40.0886 25.9289H45.4032C45.9596 25.9289 46.1803 26.2743 46.1803 26.658C46.1803 27.0514 45.95 27.3967 45.4032 27.3967Z" fill="white"/>
<path d="M30.5624 22.197C30.1019 22.8206 29.4016 23.2235 28.6341 23.2235C28.1065 23.2235 27.8283 22.9549 27.8283 22.5136C27.8283 22.1874 28.0777 21.9092 28.3847 21.8612C29.0371 21.7653 29.3824 21.3528 29.4016 20.4894H28.5766C28.1257 20.4894 27.8763 20.1345 27.8763 19.7891C27.8763 19.4438 28.0873 19.0696 28.5766 19.0696H29.3728C29.4112 18.5996 29.6798 18.3789 30.217 18.3789C30.7542 18.3789 31.0229 18.6091 31.0708 19.0696H31.8671C32.3563 19.0696 32.5674 19.4438 32.5674 19.7891C32.5674 20.1345 32.3179 20.4894 31.8671 20.4894H31.1188C31.1188 20.6333 31.1092 20.7676 31.09 20.9115C32.1165 21.0074 32.7305 21.7078 32.6345 23.1084H30.9941C31.09 22.6575 30.9365 22.3025 30.5624 22.197ZM34.9849 21.5735H34.5532V23.1755H32.8744V19.2135C32.8744 18.7147 33.2101 18.3885 33.7186 18.3885C34.227 18.3885 34.5532 18.7147 34.5532 19.2135V20.1249H34.9849V19.2135C34.9849 18.7147 35.3206 18.3885 35.8291 18.3885C36.3375 18.3885 36.6637 18.7147 36.6637 19.2135V23.1755H34.9849V21.5735ZM30.5816 26.2741H36.3759C36.7596 26.2741 36.9227 26.5619 36.9227 26.8497C36.9227 27.1183 36.7692 27.3965 36.3759 27.3965H29.6894C28.8164 27.3965 28.3463 26.8497 28.3463 26.1878V25.9671C28.3463 25.3244 28.8164 24.8927 29.6894 24.8927H34.7258V24.6817C34.7258 24.5665 34.6971 24.5186 34.5724 24.5186H28.9795C28.6054 24.5186 28.4519 24.25 28.4519 23.9622C28.4519 23.6936 28.615 23.4153 28.9795 23.4153H35.5509C36.3855 23.4153 36.6733 23.6648 36.6733 24.3939V25.8904H30.5816C30.4473 25.8904 30.3801 25.9767 30.3801 26.0631V26.1015C30.3801 26.1974 30.4473 26.2741 30.5816 26.2741Z" fill="white"/>
<path d="M62.7408 35.9327H61.44L60.5133 34.2693H59.8398V35.9327H58.6599V31.7942C58.6599 31.1323 58.8671 30.8848 59.5578 30.8848H60.6169C61.6126 30.8848 62.3437 31.3568 62.3437 32.3871V32.7554C62.3437 33.3253 62.0328 33.757 61.5954 34.016L62.7408 35.9327ZM59.8398 32.0417V33.2965H60.5881C60.9737 33.2965 61.1752 33.049 61.1752 32.7554V32.4158C61.1752 32.1223 60.9737 31.8748 60.5881 31.8748H60.0067C59.8744 31.8748 59.8398 31.9036 59.8398 32.0417Z" fill="#FFAB3B"/>
<path d="M56.8387 35.9311V33.8532H55.3824V35.9311H54.1967V31.3781C54.1967 30.9925 54.4788 30.791 54.7896 30.791C55.1004 30.791 55.3824 30.9925 55.3824 31.3781V32.8516H56.8387V31.3781C56.8387 30.9925 57.1207 30.791 57.4316 30.791C57.7424 30.791 58.0244 30.9925 58.0244 31.3781V35.9311H56.8387Z" fill="#FFAB3B"/>
<path d="M51.4831 33.2833C51.7767 33.4963 51.9781 33.8129 51.9781 34.2446V34.6648C51.9781 35.603 51.1263 36.0232 50.2456 36.0232C49.3649 36.0232 48.5131 35.603 48.5131 34.6648V34.2446C48.5131 33.8071 48.7088 33.4963 49.0023 33.2776C48.7606 33.0819 48.5994 32.8171 48.5994 32.4717V32.1264C48.5994 31.1767 49.4052 30.791 50.2456 30.791C51.0687 30.791 51.8918 31.1767 51.8918 32.1264V32.4717C51.8918 32.8171 51.7306 33.0876 51.4831 33.2833ZM49.7045 32.1667V32.4199C49.7045 32.7365 49.929 32.8689 50.2456 32.8689C50.5622 32.8689 50.7867 32.7365 50.7867 32.4199V32.1667C50.7867 31.8501 50.5622 31.7177 50.2456 31.7177C49.929 31.7177 49.7045 31.8501 49.7045 32.1667ZM50.8615 34.6072V34.2331C50.8615 33.9165 50.6312 33.7496 50.2456 33.7496C49.86 33.7496 49.6297 33.9165 49.6297 34.2331V34.6072C49.6297 34.9238 49.86 35.0907 50.2456 35.0907C50.6312 35.0907 50.8615 34.9238 50.8615 34.6072Z" fill="#FFAB3B"/>
<path d="M79.2823 77.6425C80.2749 76.6791 81.8534 76.6791 82.8459 77.6425L85.3426 80.0659C85.8105 80.5201 86.4343 80.7785 87.0863 80.7882L90.5653 80.84C91.9484 80.8605 93.0646 81.9767 93.0852 83.3598L93.137 86.8388C93.1467 87.4909 93.405 88.1146 93.8592 88.5825L96.2827 91.0792C97.2461 92.0717 97.2461 93.6503 96.2827 94.6428L93.8592 97.1394C93.405 97.6074 93.1467 98.2311 93.137 98.8832L93.0852 102.362C93.0646 103.745 91.9484 104.861 90.5653 104.882L87.0863 104.934C86.4343 104.944 85.8105 105.202 85.3426 105.656L82.8459 108.079C81.8534 109.043 80.2749 109.043 79.2823 108.079L76.7857 105.656C76.3177 105.202 75.694 104.944 75.042 104.934L71.5629 104.882C70.1799 104.861 69.0637 103.745 69.0431 102.362L68.9913 98.8832C68.9816 98.2311 68.7232 97.6074 68.269 97.1394L65.8456 94.6428C64.8822 93.6503 64.8822 92.0717 65.8456 91.0792L68.269 88.5825C68.7232 88.1146 68.9816 87.4909 68.9913 86.8388L69.0431 83.3598C69.0637 81.9767 70.1799 80.8605 71.5629 80.84L75.042 80.7882C75.694 80.7785 76.3177 80.5201 76.7857 80.0659L79.2823 77.6425Z" fill="#EFAC64"/>
<path d="M87.1491 96.3262H82.3653C81.5498 96.3262 81.0171 95.8587 81.0171 95.0432V94.9236C81.0171 93.4668 81.452 92.9123 82.3653 92.0751L84.1809 90.4008C84.6158 90.0094 84.8442 89.7158 84.8442 89.3027C84.8442 88.8243 84.431 88.596 84.0396 88.596C83.5069 88.596 83.2459 88.8243 83.0285 89.0635C82.8763 89.2374 82.6697 89.444 82.4631 89.4984C82.1696 89.5853 81.7673 89.5527 81.452 89.2918C81.0606 88.9765 81.0606 88.3894 81.3106 87.9762C81.8651 87.0738 82.8654 86.6172 84.2136 86.6172C85.7466 86.6172 87.0621 87.4652 87.0621 89.0852C87.0621 90.3029 86.388 90.9987 85.4856 91.8794L84.094 93.2276C83.6265 93.6842 83.3112 93.8038 83.3112 94.2061V94.2822C83.3112 94.3909 83.3546 94.4453 83.4742 94.4453H87.1491V96.3262Z" fill="#593F23"/>
<path d="M78.6168 92.8162L80.9653 96.328H78.4864L77.2578 94.5558L76.1597 96.328H73.746L76.0836 92.8814L74.4527 90.5439C74.0831 90.022 74.3875 89.2936 74.9637 89.087C75.5291 88.8804 76.1053 89.087 76.5076 89.685L77.4752 91.1201L78.3233 89.6959C78.693 89.0761 79.2257 88.8913 79.7911 89.0761C80.3673 89.261 80.6282 90.022 80.2368 90.5656L78.6168 92.8162Z" fill="#593F23"/>
</svg>
