<svg width="64" height="65" viewBox="0 0 64 65" fill="none" xmlns="http://www.w3.org/2000/svg">
<path d="M0 26.1C0 11.9615 11.4615 0.5 25.6 0.5H38.4C52.5385 0.5 64 11.9615 64 26.1V38.9C64 53.0385 52.5385 64.5 38.4 64.5H25.6C11.4615 64.5 0 53.0385 0 38.9V26.1Z" fill="white"/>
<path d="M25.5996 1H38.4004C52.2624 1.00021 63.4998 12.2376 63.5 26.0996V38.9004C63.4998 52.7624 52.2624 63.9998 38.4004 64H25.5996C11.7376 63.9998 0.50021 52.7624 0.5 38.9004V26.0996C0.50021 12.2376 11.7376 1.00021 25.5996 1Z" stroke="#EEEEEE"/>
<path d="M32.1102 52.5002C42.5641 47.8146 45.6899 42.4928 45.6899 34.1675V15.7002H18.3102V34.1675C18.3102 42.4928 21.436 47.8146 31.8899 52.5002H32.1102Z" fill="#C69A58"/>
<path d="M32.104 51.6375C41.9463 47.2271 44.9375 42.2173 44.9375 34.3814V16.4463H19.1359V34.3875C19.1359 42.2234 22.0538 47.2333 31.8899 51.6436H32.0979L32.104 51.6375Z" fill="#970022"/>
<path d="M26.5681 42.2904C26.77 42.6084 27.1737 43.0489 27.6814 43.2079C28.0484 43.318 28.4093 43.263 28.7458 43.0733C28.862 43.1651 28.9782 43.2752 29.0822 43.422C28.9415 43.4832 28.8253 43.5749 28.7886 43.7279C28.7641 43.8441 28.7458 43.9542 28.7458 44.0643C28.7458 44.468 28.9476 44.8289 29.3452 45.1654C29.3514 45.2021 29.3575 45.2327 29.3575 45.2327C29.3758 45.3978 29.4003 45.5997 29.5165 45.7832C29.5532 45.8444 29.6144 45.93 29.7 46.0034C29.7612 46.2358 29.9386 46.5172 30.4157 46.6763C30.5503 46.7619 30.7093 46.8292 30.8745 46.8965L31.1008 46.9944L31.0274 46.9332C31.0764 46.976 31.1803 47.0555 31.2415 47.0739C31.529 47.1656 31.8838 47.1534 31.9817 47.1473C32 47.1473 32.0184 47.1473 32.0306 47.1473C32.5689 47.08 32.9726 46.7374 33.3213 46.3459C33.4436 46.2053 33.5966 46.0401 33.6394 45.8505C33.6883 45.6486 33.6577 45.4406 33.6577 45.2388C33.6577 44.988 33.6577 44.7555 33.6822 44.5108C33.7067 44.3212 33.7373 44.1561 33.9208 44.0643C34.1593 43.9481 34.3734 44.0643 34.5936 44.1561C34.6976 44.205 34.8016 44.2478 34.9056 44.2906C35.0279 44.3335 35.1319 44.3334 35.2176 44.4374C35.2726 44.5047 35.3338 44.5292 35.4194 44.5353C35.5479 44.5475 35.5785 44.5598 35.6702 44.6577C35.7681 44.7555 35.866 44.8167 35.9822 44.8901C36.1045 44.9696 36.2391 45.0491 36.3859 45.0797C36.4777 45.0981 36.6061 45.0797 36.6918 45.0308C36.7713 44.9819 36.7958 44.8962 36.8569 44.8289C36.9365 44.7433 37.0527 44.7066 37.1506 44.6454C37.2178 44.6026 37.2912 44.5904 37.3524 44.5414C37.4197 44.4803 37.4258 44.3946 37.4625 44.3212C37.5482 44.1499 37.7684 44.1866 37.8724 44.0276C37.9641 43.8747 37.9274 43.6422 37.8112 43.5138C37.7378 43.4281 37.6399 43.3731 37.5665 43.2874C37.5298 43.2385 37.4748 43.2079 37.4442 43.1529C37.4197 43.0917 37.4258 43.0244 37.3891 42.9694C37.3279 42.8654 37.1811 42.7981 37.1322 42.6757C37.016 42.3577 37.1383 41.9662 37.0037 41.6664C36.9426 41.5319 36.8386 41.5013 36.8692 41.33C36.912 41.1037 36.9059 40.8406 37.016 40.6326C37.1444 40.3941 37.4014 40.9691 37.4564 41.0303C37.5604 41.1526 37.6705 41.2872 37.7928 41.3912C37.9397 41.5196 38.0803 41.5991 38.2761 41.5991C38.429 41.5991 38.5575 41.5686 38.6431 41.4279C38.7716 41.2199 38.5881 41.0364 38.5208 40.8406C38.4351 40.5898 38.3311 40.339 38.2883 40.0699C38.2577 39.8741 38.2088 39.6723 38.3311 39.4949C38.3801 39.4215 38.4841 39.4398 38.5391 39.3664C38.6003 39.2991 38.6003 39.1768 38.7165 39.1646C38.8144 39.1523 38.8878 39.2686 38.9673 39.2991C39.1264 39.3664 39.2548 39.293 39.3282 39.1462C39.3527 39.0973 39.3466 39.0361 39.3771 38.9933C39.4077 38.9566 39.4934 38.9444 39.5362 38.9199C39.683 38.8404 39.7319 38.6446 39.683 38.4917C39.6218 38.3265 39.4506 38.2348 39.3588 38.0941C39.2915 37.9901 39.3343 37.8922 39.3466 37.7699C39.3588 37.617 39.3588 37.4518 39.3221 37.305C39.2976 37.2194 39.2548 37.1521 39.1998 37.0848C39.1264 36.9869 39.1508 36.9686 39.1692 36.8462C39.1814 36.7789 39.1569 36.5954 39.1998 36.5404C39.2548 36.4731 39.4139 36.6138 39.4873 36.6382C39.6708 36.6933 39.9277 36.7239 40.1173 36.6749C40.2397 36.6382 40.362 36.5954 40.4232 36.4731C40.5516 36.2284 40.3742 35.9837 40.1785 35.8491C40.0561 35.7635 40.099 35.7084 40.2396 35.6779C40.4232 35.635 40.5883 35.6412 40.7657 35.5494C40.9003 35.476 40.9676 35.3904 40.9982 35.2374C41.0165 35.1457 41.0165 35.0906 41.0899 35.0295C41.2857 34.8643 41.6343 34.8827 41.5181 34.5217C41.4631 34.3444 41.2123 34.1547 41.2795 33.9529C41.3346 33.7877 41.5732 33.6959 41.5303 33.488C41.4692 33.1882 41.1266 33.1209 40.8881 33.072C40.6495 33.0231 40.3987 32.9619 40.1662 32.9007C40.1662 32.9007 39.9216 32.8334 39.9154 32.8334L39.7136 32.7295L39.3466 32.5521C39.3466 32.5521 38.7899 32.3869 38.7654 32.3808C38.7654 32.3808 38.7532 32.3808 38.7532 32.3747C38.7349 32.3686 38.7165 32.3563 38.7165 32.3563L38.5452 32.2646L38.1537 32.1361L37.8479 32.0382L37.8173 32.0199L37.7072 31.9709L37.542 31.9037L37.4625 31.8792C36.8998 31.6773 36.3737 31.5917 35.8476 31.6284C35.8537 31.6284 35.6764 31.6284 35.6764 31.6284C35.4745 31.6284 35.1931 31.6284 34.8567 31.7202L34.5386 31.8486L34.4162 31.9037L34.3673 31.922C34.3673 31.922 34.1349 31.9954 34.1349 32.0015L34.0186 32.0566L33.8657 32.1178C33.7067 32.1545 33.462 32.1483 33.2295 32.1422C32.9787 32.1422 32.7218 32.13 32.4771 32.1728C32.1713 32.2217 31.945 32.3502 31.7676 32.4603L31.5107 32.5949H31.474L31.2782 32.6499L31.2354 32.6622L30.9785 32.76L30.8378 32.8151L30.6787 32.8763L30.4952 32.9803L30.4341 33.017L30.2016 33.1577L30.1588 33.1882L30.0915 33.2372C30.0915 33.2372 30.067 33.2494 30.0548 33.2678C30.0548 33.2678 29.8529 33.4574 29.8346 33.4757C29.804 33.5124 29.7 33.6348 29.7 33.6348L29.6572 33.6959C29.5165 33.855 29.3085 34.0507 29.1617 34.1608C29.0944 34.1975 28.9415 34.2893 28.9415 34.2893L28.8436 34.3688L28.758 34.4361L28.4521 34.6135L28.3176 34.6869C28.3176 34.6869 28.2992 34.6991 28.287 34.7053L28.1708 34.7848L27.9628 34.9499L27.8771 35.0172L27.6264 35.2619L27.5896 35.3108L27.3511 35.6289L27.3266 35.6779C27.1676 35.9164 27.0819 36.1978 26.9902 36.467L26.874 36.8156C26.8434 36.8768 26.6354 37.1704 26.5681 37.2316C26.5681 37.2316 26.5865 37.2194 26.6048 37.2132C26.5742 37.2316 26.5436 37.2499 26.5314 37.2622L26.4702 37.3172C26.4702 37.3172 26.3846 37.409 26.3785 37.4151L26.3173 37.464L26.042 37.7332L25.9136 37.9473L25.8708 38.0329L25.7668 38.1858L25.5404 38.5467C25.5404 38.5467 25.5037 38.6263 25.4793 38.6813C25.4548 38.718 25.4059 38.8098 25.3386 38.9933C25.3325 38.9994 25.2529 39.085 25.2529 39.085C25.2162 39.1217 24.9716 39.3603 24.9349 39.5255C24.9349 39.5255 24.0907 39.4337 23.4362 39.0973C22.7939 38.767 23.1303 39.2991 23.32 39.4582C23.5035 39.6111 23.7176 39.7824 24.2865 39.9475C24.2865 39.9475 23.8766 39.8986 23.2343 39.6417C22.5982 39.3848 23.1181 39.9231 23.2894 40.0332C23.4545 40.1433 23.6686 40.2412 23.9623 40.2962C23.9623 40.2962 23.0141 40.2412 22.433 40.0454C21.8519 39.8497 22.1516 40.2045 22.3168 40.3146C22.6165 40.5225 23.2955 40.6082 23.2955 40.6082C23.2955 40.6082 23.0998 40.6327 22.5615 40.5042C22.0293 40.388 22.6165 40.81 23.0753 40.8712C23.0753 40.8712 22.745 40.963 22.4881 40.9997C22.2373 41.0364 22.5248 41.1648 22.8551 41.1648C23.0753 41.1648 23.5891 41.1037 23.7053 41.0731C23.7053 41.0731 24.0601 41.1404 24.4088 41.1648L24.1947 41.2933C24.1947 41.2933 23.0141 41.4279 22.7878 41.434C22.5553 41.434 22.5248 41.6664 22.9529 41.6909C23.2588 41.7092 23.4362 41.7031 23.6014 41.6909C23.6014 41.6909 23.216 41.9172 23.0264 42.0151C22.8061 42.1313 22.8795 42.2781 23.3077 42.168C23.742 42.064 24.2498 41.8622 24.4944 41.7521C24.4944 41.7521 24.9716 41.7337 25.1979 41.6603C25.1979 41.6603 24.9226 42.1069 24.6168 42.3393C24.3966 42.5106 24.6229 42.5595 24.892 42.4861C25.1612 42.4188 25.5649 42.2047 25.7912 41.8194C25.7912 41.8194 25.9075 41.8499 26.0115 41.8499C26.0115 41.8499 26.1154 42.1741 26.5559 42.3209" fill="#D1AE79"/>
<path d="M37.1756 34.1066V34.0938C37.1756 34.1131 37.1628 34.1131 37.1756 34.1066Z" fill="#711419"/>
<path d="M35.9213 34.6078C35.9213 34.6078 36.0803 34.675 36.2271 34.6445C36.325 34.62 36.5146 34.5344 36.6064 34.516C36.6614 34.5038 36.7409 34.5282 36.796 34.516C36.9489 34.4671 37.2364 34.1673 36.8939 34.1306C36.7715 34.1184 36.3984 34.2591 36.2883 34.2897C36.1721 34.3203 36.0987 34.3386 36.0069 34.3875C35.9824 34.3998 35.8479 34.5099 35.8662 34.4915C35.8662 34.4915 35.7745 34.5649 35.9213 34.6016" fill="#711419"/>
<path d="M31.7066 37.9781C31.7433 37.9353 31.7922 37.9659 31.8351 37.9781C31.8718 37.9903 31.8779 38.0637 31.8962 38.1004C31.9085 38.131 31.9819 38.2044 31.9941 38.2289C32.0553 38.5042 31.9941 38.8712 31.8718 39.0853C31.8351 39.1465 31.7739 39.1832 31.7372 39.1893C31.6821 39.1893 31.6699 39.1159 31.6516 39.0853C31.572 38.9752 31.6332 38.706 31.6516 38.5837C31.676 38.4185 31.5476 38.1616 31.6271 38.0454L31.7188 37.9781H31.7066Z" fill="#711419"/>
<path d="M27.8957 38.2714C27.963 38.253 28.0609 38.2897 28.1037 38.2714L28.1955 38.2347C28.2994 38.1674 28.4095 38.1857 28.5135 38.1979C28.5686 38.2041 28.7276 38.2714 28.7766 38.2775C28.8622 38.2836 29.2598 38.3325 29.688 38.3876C29.688 38.3876 29.9143 38.357 29.8593 38.2897C29.896 38.3325 29.8593 38.253 29.7675 38.2285L29.7369 38.1979C29.7369 38.1979 29.6635 38.1368 29.7981 38.0878C29.7492 38.1001 29.8899 38.0695 29.9143 38.0328C29.9694 37.9777 29.8899 37.9104 29.8899 37.9104C29.688 37.8432 29.4617 37.9716 29.1558 37.941C29.009 37.9288 28.7949 37.8432 28.5869 37.8737C28.3545 37.9166 28.0181 38.045 27.859 38.1674C27.859 38.1674 27.7795 38.3019 27.8896 38.2652" fill="#711419"/>
<path d="M30.4402 36.6206C30.6482 36.6084 30.6543 36.8225 30.6604 36.798C30.636 36.951 30.2628 36.9632 30.1772 37.0794C29.9142 37.422 30.0243 37.7462 29.4064 37.7768C29.4064 37.7768 29.2841 37.7462 29.333 37.6972C29.3697 37.6544 29.5227 37.6177 29.5777 37.581C29.6572 37.5321 29.6511 37.4036 29.7062 37.3241C29.7184 37.3057 29.7918 37.2813 29.804 37.2629C29.9753 37.0305 29.9998 36.7919 30.2995 36.6512C30.3118 36.6451 30.4219 36.6145 30.4463 36.6084" fill="#711419"/>
<path d="M32.4225 35.7091C32.4959 35.6663 32.5632 35.7091 32.6121 35.752C32.6427 35.7703 32.8629 36.3147 32.8751 36.3698C32.8996 36.5655 32.9241 37.0182 32.8751 37.165C32.7956 37.3669 32.6121 37.5259 32.6488 37.8868C32.6733 38.1009 32.765 38.2661 32.8507 38.4496C32.8629 38.4802 32.9547 38.6575 32.9608 38.6942C32.9975 38.89 32.8935 39.1408 32.8751 39.2998C32.8262 39.6913 32.9791 40.0461 32.9179 40.4192C32.8935 40.5783 32.8384 40.6639 32.7528 40.7557L32.6794 40.8169C32.661 40.8536 32.6243 40.8658 32.5876 40.8964L32.5448 40.9392C32.4836 40.9575 32.4714 40.9942 32.4469 41.0004C32.2818 41.0371 32.2451 40.9392 32.2573 40.9637C32.086 40.4865 32.3674 39.9299 32.2267 39.465C32.1961 39.361 32.0677 39.257 32.0493 39.1408C31.9882 38.7248 32.3797 38.5046 32.3735 38.2294C32.3735 38.0275 32.1166 37.7706 32.0554 37.5748C31.982 37.3485 31.9331 36.9081 32.031 36.6206C32.0555 36.5533 32.1472 36.4371 32.1656 36.3453C32.2145 36.1679 32.2879 36.015 32.3124 35.9049C32.3185 35.8682 32.3429 35.8131 32.3674 35.7825C32.3674 35.7703 32.4041 35.7275 32.4164 35.7214" fill="#711419"/>
<path d="M37.3585 34.7176C37.6399 34.6809 37.7622 34.7971 37.6338 35.0357L37.5787 35.0907C37.5787 35.0907 37.4808 35.1947 37.4686 35.207C37.334 35.3048 37.2056 35.3721 37.1016 35.4945C37.0649 35.5373 37.0404 35.6413 36.9976 35.678C36.9242 35.7269 36.655 35.8492 36.5878 35.8554C36.2513 35.9104 35.7925 35.574 35.7436 35.3782C35.7008 35.2131 35.7436 35.0479 35.817 35.0112C35.9271 34.95 36.233 34.9806 36.337 34.9745C36.5939 34.9562 36.759 34.9745 36.9609 34.9011C37.0832 34.8644 37.2239 34.7359 37.3646 34.7176" fill="#711419"/>
<path d="M33.4806 35.183C33.3827 35.1646 33.3827 34.9994 33.1319 35.0545C32.9545 35.0912 32.9056 35.3481 32.6548 35.342L32.5324 35.2808C32.4223 35.2564 32.3428 35.2931 32.2449 35.2441C31.7923 35.0361 32.5936 33.9595 32.8505 33.9718C32.8628 33.9718 32.9973 34.0207 33.0096 34.0391C33.0952 34.1064 33.0952 34.4061 33.1686 34.5162C33.2237 34.5896 33.3154 34.5835 33.3888 34.6447C33.4683 34.7058 33.6274 34.9199 33.6457 35.03C33.6457 35.03 33.6886 35.2135 33.4867 35.1891" fill="#711419"/>
<path d="M31.5541 35.2564C31.3828 35.3542 31.0036 35.501 30.924 35.6723C30.8812 35.758 30.8812 35.8375 30.8445 35.9415C30.8445 35.9537 30.7956 35.972 30.7772 36.0087C30.5937 36.0087 30.4286 35.9965 30.2695 36.0393C30.1411 36.076 29.9637 36.2106 29.823 36.229C29.5416 36.2779 29.3214 36.1494 29.0583 36.1984C28.9421 36.2167 28.8626 36.3391 28.7708 36.388C28.6852 36.4247 28.6546 36.4247 28.5873 36.4859L28.5262 36.5532C28.5262 36.5532 28.4895 36.6449 28.4711 36.6755C28.4161 36.7611 28.3916 36.8529 28.3794 36.9447C28.3671 37.0364 28.3121 37.2505 28.2631 37.3423C28.2387 37.3851 28.1224 37.4829 28.1041 37.5258C28.098 37.5502 28.0674 37.5808 28.1041 37.6236C28.0674 37.5808 28.0735 37.6665 28.2998 37.6787C28.5506 37.6787 29.1012 37.5135 29.1012 37.5135L29.3642 37.3728C29.4131 37.33 29.6211 37.1771 29.6639 37.122C29.8536 36.8835 30.3674 36.0149 30.7711 36.2412L30.8445 36.2901C30.9424 36.4492 30.82 36.9079 30.7466 37.0119L30.6549 37.122C30.5815 37.1465 30.5387 37.33 30.5264 37.4157C30.5081 37.5564 30.5509 37.6787 30.5631 37.7582C30.5815 37.9234 30.5998 38.1314 30.4958 38.3332C30.4775 38.3699 30.4163 38.4433 30.4347 38.5534C30.453 38.6819 30.6304 38.7736 30.6549 38.8715C30.6671 38.9266 30.7161 38.9327 30.6549 39.0306C30.6182 39.0856 30.4775 39.1774 30.4347 39.2202C30.3735 39.2814 30.4286 39.3731 30.4653 39.4098C30.5754 39.5138 30.6671 39.526 30.7528 39.6361C30.8751 39.7952 30.869 39.9236 31.1381 39.9542C31.3461 39.9726 31.6458 39.9848 31.5174 39.6973L31.4501 39.5933C31.3767 39.4037 31.2482 39.2385 31.2299 39.0306C31.2054 38.7736 31.4134 38.6391 31.3278 38.4311C31.2605 38.2659 30.9363 38.2843 30.9118 38.0763C30.8996 37.9601 31.0158 37.7093 31.0403 37.5992C31.0647 37.4462 31.0219 37.3484 31.0708 37.2138C31.1014 37.122 31.2421 37.0181 31.2605 36.9018C31.2911 36.6939 31.1259 36.5593 31.1993 36.3268C31.236 36.2106 31.4195 36.2228 31.4868 36.1372C31.5786 36.021 31.5296 35.8558 31.5786 35.6907C31.5847 35.6723 31.6275 35.5744 31.6397 35.5561C31.6397 35.55 31.6764 35.342 31.6764 35.342C31.652 35.2135 31.5724 35.2686 31.5602 35.2625M29.5416 36.9385C29.3642 36.9814 29.3458 36.596 28.9238 36.7489C28.8993 36.755 28.777 36.8651 28.7647 36.8835C28.7158 36.9936 28.7464 37.2811 28.6852 37.3117C28.6852 37.3117 28.52 37.3545 28.5506 37.1404C28.5996 36.804 28.6669 36.7428 28.832 36.6021C28.8504 36.5837 28.9238 36.5348 28.9544 36.5287C29.1562 36.4798 29.5294 36.5593 29.5966 36.6572C29.6517 36.7428 29.5294 36.9324 29.5416 36.9263" fill="#711419"/>
<path d="M41.1944 34.4185C41.1638 34.2656 40.7418 34.2717 40.5705 34.0699C40.5093 33.9842 40.5521 33.9414 40.5705 33.8802C40.6194 33.7028 41.0048 33.8068 41.0966 33.6478C41.1333 33.5805 41.1394 33.3786 41.121 33.3542C40.8825 33.0605 40.3686 33.2012 40.0077 33.0544C39.8303 32.981 39.6162 32.8403 39.4388 32.773C39.2125 32.6813 39.0351 32.6691 38.8027 32.5834C38.7537 32.559 38.6498 32.4855 38.5947 32.4672C38.3378 32.3632 38.1359 32.3449 37.8851 32.2347C37.8545 32.2225 37.775 32.1736 37.7444 32.1675C37.6404 32.1246 37.6099 32.1124 37.5059 32.0757C37.1083 31.935 36.6128 31.8066 36.0378 31.8433C35.787 31.8555 35.4995 31.8066 35.1141 31.9167C34.9857 31.9534 34.796 32.0635 34.6737 32.1063C34.588 32.1308 34.5085 32.1491 34.429 32.1858C34.3189 32.2286 34.221 32.2959 34.0681 32.3326C33.6338 32.4305 33.0466 32.3204 32.6061 32.3938C32.2208 32.455 32.0006 32.6996 31.6825 32.8097C31.5846 32.8403 31.5479 32.8281 31.4561 32.8648C31.4011 32.8832 31.2726 32.9199 31.2237 32.9443C31.0891 33.0116 31.0035 33.0361 30.8567 33.0972C30.7833 33.134 30.6976 33.2012 30.6242 33.2318C30.5141 33.2869 30.508 33.2991 30.4224 33.3603L30.349 33.4153C30.349 33.4153 30.1899 33.5499 30.1716 33.5744C30.1104 33.6355 30.0492 33.7273 29.9942 33.7946C29.8351 33.9842 29.5904 34.2167 29.3886 34.3635C29.3152 34.4124 29.2662 34.4063 29.199 34.4613C29.1255 34.5225 29.0583 34.5837 28.9849 34.6387C28.8136 34.755 28.6484 34.8345 28.4649 34.9385L28.3487 35.018C28.1958 35.1159 28.1958 35.1587 28.0367 35.2627C27.9327 35.3361 27.8899 35.4462 27.792 35.5257C27.7309 35.5746 27.6513 35.7337 27.6146 35.7949C27.4189 36.0885 27.3394 36.5167 27.1987 36.8776C27.1559 36.9816 26.8133 37.4832 26.7216 37.5137L26.6604 37.5749C26.6115 37.6177 26.6115 37.63 26.5625 37.6728C26.4585 37.7645 26.3545 37.8196 26.275 37.9297C26.2138 38.0153 26.171 38.1132 26.116 38.2111C26.0242 38.3579 25.8774 38.5292 25.7979 38.6882C25.7612 38.7494 25.7428 38.8044 25.7184 38.8656C25.7123 38.8778 25.7061 38.884 25.7061 38.884C25.6694 38.9329 25.6021 39.1347 25.6021 39.1347C25.5287 39.2999 25.3636 39.3917 25.1434 39.7097C24.8865 39.7281 23.9873 39.5018 23.3817 39.2082C23.5162 39.3611 24.2013 39.8199 25.0027 39.9116C24.9476 39.9911 24.9476 40.0707 24.8498 40.0951C24.5317 40.1746 23.975 39.9972 23.2287 39.7403C23.2716 39.8443 23.9261 40.2297 24.9048 40.2909C24.758 40.4621 23.4245 40.4193 22.3846 40.1318C22.3418 40.2419 23.6875 40.5417 24.4277 40.5294C24.3053 40.5967 23.9689 40.6701 23.7548 40.7496C23.4184 40.7129 22.9474 40.6579 22.8556 40.6212C22.874 40.6885 23.2104 40.7802 23.4857 40.8414C23.2226 40.9332 22.825 40.9882 22.6782 41.0249C22.7883 41.0494 23.2165 40.9821 23.663 40.872C24.0545 40.9454 24.6601 41.0249 24.9843 41.0127C24.8987 41.0555 24.5928 41.2512 24.3482 41.398C23.7242 41.4592 23.0391 41.5082 22.8923 41.5265C22.9718 41.5387 23.5285 41.5449 24.1096 41.5326C23.7548 41.7406 23.3694 41.9608 23.1859 42.0403C23.4612 41.973 23.9444 41.7834 24.4399 41.5204C24.9293 41.502 25.3942 41.4592 25.5838 41.3919C25.5165 41.5326 25.1189 42.2238 24.7519 42.3829C24.9109 42.3584 25.4309 42.2116 25.7367 41.4347C25.8468 41.4837 25.9753 41.5143 26.116 41.5204C26.1955 41.6427 26.3974 41.9608 26.7644 41.9792C26.8378 42.1933 27.5168 43.3004 28.4771 42.8722C28.2019 42.7193 28.0306 42.5603 27.896 42.1199C28.3242 42.0954 29.4436 42.7071 29.7801 44.0406C29.517 43.9488 29.1806 43.7959 29.1439 43.6613C29.0705 43.9672 29.0216 44.3709 29.7067 45.056C29.7189 45.2028 29.7128 45.3802 29.7495 45.5454C29.8596 45.6616 29.9881 45.7472 30.1104 45.8512C30.1165 46.047 30.092 46.31 30.5998 46.4629C30.771 46.6036 31.3277 46.7566 31.4072 46.8544C31.5724 46.9095 31.817 46.9156 32.0005 46.9095C32.0005 46.9095 32.2391 46.8667 32.3064 46.7749C32.4226 46.7749 32.5878 46.7627 33.3279 45.9797C33.4809 45.7962 33.3279 44.7808 33.3646 44.5361C33.4381 44.3587 33.4686 44.1874 33.5665 43.9733C33.5665 43.9733 33.6705 43.7592 33.854 43.6675C33.8662 43.6613 33.8785 43.6613 33.8968 43.6552C34.3189 43.5574 34.8694 43.955 35.1325 44.0651C35.2303 44.1018 35.2793 44.0834 35.3588 44.1262C35.3955 44.1507 35.4506 44.2302 35.4873 44.2547C35.579 44.3097 35.6708 44.2914 35.7748 44.3465C35.9277 44.4321 36.2396 44.8786 36.5027 44.8297C36.5883 44.8113 36.6556 44.6156 36.729 44.5728C36.8575 44.4933 37.0287 44.5055 37.145 44.4199C37.2734 44.3159 37.2184 44.2058 37.2367 44.0651C37.2367 44.0651 37.2979 43.9978 37.304 43.9672C37.3652 43.9611 37.5059 43.9672 37.5915 43.9366C37.6037 43.9366 37.6404 43.8877 37.6527 43.8754C37.7016 43.8204 37.671 43.7592 37.6527 43.7103C37.6282 43.6613 37.5059 43.5941 37.463 43.5512C37.3713 43.4595 37.2 43.3188 37.145 43.2026C37.1144 43.1414 37.1511 43.1292 37.1083 43.068C37.0654 43.0007 36.9553 42.9334 36.9248 42.8478C36.8024 42.5725 36.8513 41.9669 36.7963 41.8813C36.7474 41.7957 36.6862 41.8079 36.6373 41.7345C36.5333 41.5693 36.6617 41.0249 36.674 40.8108C36.6801 40.6395 36.5149 40.7435 36.5149 40.7435C36.3803 41.0861 36.3926 41.239 36.3559 41.7284C36.3559 41.7712 36.2947 42.0342 36.2947 42.077C36.2947 42.2483 36.3926 42.5419 36.3253 42.7438C36.3008 42.8111 36.1662 42.9395 35.9766 42.9334C35.9032 42.9334 35.5484 42.8417 35.4689 42.8111C35.4505 42.7988 35.3771 42.7132 35.371 42.7132C35.1936 42.5725 35.1569 42.7071 35.1447 42.7744C35.1447 42.8478 35.1692 42.8661 35.1814 42.9028C35.1875 42.9395 35.2609 43.0925 35.2548 43.1108C35.2548 43.1292 35.1936 43.2943 34.8633 43.0986C34.6125 42.9457 34.3678 42.5358 34.3556 42.4624C34.3189 42.3034 34.374 42.1871 34.3984 42.126C34.5208 42.0159 34.6676 42.1688 34.796 42.2361C34.8266 42.2544 34.9061 42.3034 34.9428 42.3095C35.0162 42.3217 35.1325 42.2972 35.1447 42.2972C35.6279 42.2728 36.1295 42.4441 36.2152 42.1199C36.2702 41.918 36.0684 41.8079 36.0317 41.7222C35.9827 41.6183 36.0072 41.6121 35.9827 41.4959C35.9827 41.4837 35.946 41.4103 35.9399 41.4042C35.891 41.3185 35.9216 41.2451 35.8787 41.1534C35.8298 41.0494 35.683 40.9882 35.6218 40.8965C35.5423 40.7802 35.5423 40.6334 35.4322 40.5478C35.2732 40.4132 34.6186 40.2236 34.5452 40.0707C34.4229 39.8321 34.5697 39.3855 34.5146 39.0858C34.4841 38.9084 34.4229 38.8105 34.3189 38.7066C34.2761 38.6637 34.2577 38.5965 34.27 38.5414C34.3006 38.4374 34.3556 38.468 34.3862 38.2294C34.4045 38.0949 34.374 37.948 34.3862 37.8135C34.3862 37.789 34.4474 37.581 34.4535 37.5566C34.4841 37.2018 34.4351 36.8286 34.3556 36.5717C34.3189 36.4433 34.2027 36.3393 34.166 36.223C34.1354 36.1252 34.1782 36.064 34.1354 35.9661C34.1048 35.8805 33.9947 35.8193 33.9519 35.7459C33.8662 35.6175 33.8907 35.4034 33.7623 35.33C33.6644 35.281 33.6277 35.3483 33.6338 35.33C33.6032 35.4462 33.6093 35.5624 33.6644 35.7092C33.6888 35.7765 33.8112 35.8683 33.8234 35.9294C33.8479 36.0518 33.8051 36.1925 33.8234 36.3087L33.8846 36.4371C33.9335 36.7552 33.7623 37.1773 33.6277 37.3547C33.5359 37.4709 33.2607 37.6238 33.2484 37.8012C33.2362 37.9113 33.279 37.9175 33.3035 37.9603C33.3463 38.0153 33.4748 38.0949 33.4992 38.1499C33.5115 38.1927 33.5298 38.1805 33.5482 38.2233L33.5665 38.309C33.5849 38.5353 33.2974 38.5781 33.438 38.8472C33.4809 38.9268 33.6154 38.9268 33.695 38.9757C33.8357 39.0675 34.1109 39.3244 34.1354 39.5446C34.1476 39.6425 34.1354 40.1502 34.1048 40.2113C34.0375 40.352 33.6827 40.4071 33.7256 40.6885C33.7684 40.9943 34.5758 40.9087 34.8021 41.0677C34.9123 41.1472 34.9306 41.3063 34.9612 41.4531C34.9795 41.5326 34.9 41.5571 34.8694 41.5754C34.7838 41.6244 34.7226 41.5877 34.6125 41.6121C34.3495 41.6672 33.9335 41.7834 33.8234 41.9975C33.6888 42.2422 33.8479 42.5725 33.7928 42.8539C33.7378 43.1047 33.5482 43.4167 33.4075 43.6185C33.3218 43.7409 33.2178 43.8632 33.175 44.0406C33.0833 44.4137 33.1505 44.8603 33.12 45.3007C33.12 45.3007 33.1383 45.5332 32.9854 45.6983C32.808 45.8879 32.2085 46.4568 31.7742 46.4568C31.6152 46.4568 31.554 46.4018 31.3766 46.2733C31.2665 46.2672 31.0157 46.206 30.8689 46.0531C30.8261 45.9736 30.349 45.4903 30.6487 45.3558C30.9301 45.2273 31.3827 45.5087 31.5907 45.6433C31.6763 45.6433 32.288 45.6738 32.9426 44.8175C32.912 44.3709 32.8753 43.7959 32.8263 43.698C32.7591 43.4778 32.3859 43.0925 32.3064 42.86C32.2575 42.6704 32.1657 42.3034 32.2269 42.0465C32.2024 41.759 32.0189 41.6978 31.9455 41.4653C31.9271 41.4042 31.8966 41.3613 31.8843 41.343C31.866 41.2635 31.8476 41.184 31.7926 41.1105C31.6763 40.9393 31.5662 40.9026 31.4684 40.7313C31.3583 40.5539 31.3827 40.3398 31.2115 40.2236C31.1197 40.1624 30.9974 40.1563 30.8934 40.0951C30.82 40.0523 30.7221 39.9422 30.6426 39.9055C30.5386 39.8627 30.5141 39.8504 30.4101 39.8015C30.3612 39.777 30.2694 39.7342 30.2266 39.7159C30.1777 39.6914 30.1349 39.7159 30.0982 39.6792C29.9758 39.5752 30.0615 39.4773 30.0003 39.2999C29.9942 39.2816 29.9452 39.2754 29.9391 39.2326C29.8902 39.2204 29.7984 39.1347 29.725 39.1837C29.6333 39.2571 29.6027 39.2387 29.5476 39.3794C29.517 39.4712 29.4498 39.7587 29.3825 39.826C29.3274 39.8933 29.254 39.985 29.1623 40.0523C29.0766 40.0951 29.0093 40.089 29.0093 40.089L28.7708 40.1257L28.6484 40.3092C28.6484 40.3092 28.52 40.2909 28.4527 40.2909C28.4343 40.3398 28.2753 40.456 28.2263 40.4988C28.0245 40.6212 27.9021 40.5355 27.8899 40.4988C27.8777 40.4621 27.8165 40.3826 27.9511 40.297C28.416 40.1685 28.991 39.5446 29.0399 39.41C28.9787 39.5018 28.0123 40.034 27.8349 40.1074C28.0245 39.6486 29.2112 38.9879 29.2846 38.9084C28.9849 38.9512 27.9755 39.5629 27.7982 39.8321C27.633 40.1012 27.4373 40.0278 27.2476 40.0217C27.0702 40.0156 27.0825 40.2052 27.0763 40.3276C27.0763 40.4438 26.9846 40.6824 27.058 40.7191C27.1803 40.823 27.5045 40.3949 27.6085 40.6273C27.6636 40.8842 26.9968 40.872 27.0029 41.08C26.9724 41.1901 27.6208 41.2268 27.7431 41.343C27.5351 41.4959 27.0213 41.5449 26.8684 41.551C26.7766 41.5571 26.691 41.551 26.642 41.551C26.5564 41.5387 26.4463 41.4592 26.3484 41.3002C26.1649 40.9637 26.4769 40.7313 26.483 40.6457C26.4891 40.5539 26.4463 40.6028 26.4402 40.4621C26.4402 40.3215 26.5931 40.297 26.6359 40.2664C26.6787 40.2358 26.6237 40.193 26.6359 40.0584C26.7216 39.7465 27.2232 39.3917 27.0947 39.2938C26.9785 39.2326 26.7338 39.5018 26.6359 39.6241C26.2873 40.0707 25.8835 39.93 25.749 39.9361C25.4431 39.9544 25.4982 39.618 25.7061 39.6363C25.9569 39.5874 25.9325 39.2449 26.1099 39.2816C26.1649 39.5262 25.8896 39.5629 26.0181 39.6241C26.1955 39.6914 26.2138 39.459 26.2689 39.3672C26.3178 39.2693 26.5686 39.0552 26.5442 39.0063C26.4708 38.9818 26.2873 39.1103 26.2077 39.1776C26.0059 38.676 26.5136 38.2906 26.538 38.1438C26.7032 37.8808 27.633 37.5443 27.6513 37.1467L27.6758 37.1222C27.6758 37.1222 27.6942 37.11 27.7186 37.159C27.7186 37.159 27.7309 37.2079 27.737 37.2324C27.737 37.2629 27.737 37.2935 27.737 37.2935V37.2568C27.7492 37.318 27.7492 37.373 27.7492 37.3608V37.422C27.7615 37.4587 27.8043 37.477 27.8104 37.477C27.8287 37.477 27.8777 37.4587 27.9327 37.3975C27.9388 37.3914 27.9939 37.3363 27.9939 37.3302C28.0857 37.2629 28.0979 37.2568 28.1652 37.1651C28.3242 36.9326 28.0184 36.5901 28.104 36.2781C28.1652 36.0701 28.3548 35.8193 28.3548 35.8193C28.4099 35.7031 28.3242 35.7031 28.3242 35.7031C28.2019 35.6786 28.1162 35.8132 28.1346 35.7949C27.9755 35.9417 27.9327 36.009 27.8165 36.2108C27.8165 36.2108 27.7186 36.2965 27.6942 36.1802C27.6391 35.9845 27.8654 35.5991 27.9327 35.5441C28.0673 35.4584 28.1958 35.4156 28.3548 35.3544C28.4404 35.3177 28.5628 35.1832 28.6423 35.1648C28.679 35.1465 28.7279 35.1403 28.7708 35.1648C28.7708 35.1648 28.8319 35.2076 28.8013 35.3544C28.8013 35.3544 28.7402 35.5257 28.7585 35.5869C28.7769 35.6297 28.7646 35.6664 28.8625 35.6664C29.095 35.6725 29.6027 35.6175 29.7495 35.5379C29.7862 35.5257 29.8168 35.4768 29.8474 35.4462C29.8963 35.3972 29.8841 35.3238 29.8474 35.3177L29.7495 35.2871C29.829 35.281 29.3213 35.2749 29.4008 35.2566C29.3152 35.2688 29.5232 35.018 29.4987 34.9018C29.4865 34.8467 29.3886 34.8222 29.3702 34.7733C29.358 34.7427 29.3091 34.706 29.3702 34.6754L29.4436 34.6449C29.4436 34.6449 29.4926 34.5959 29.5293 34.5776C29.6883 34.5042 29.9758 34.5409 30.1043 34.5776C30.1226 34.5837 30.3245 34.6449 30.3918 34.8345C30.4101 34.8895 30.4224 34.9446 30.4529 34.9935C30.5508 35.122 30.8261 35.1709 30.9912 35.018C31.0218 34.9874 31.0646 34.914 31.0891 34.8712C31.2482 34.498 31.0096 34.2411 30.7037 34.1371C30.5814 34.0943 30.3795 34.0821 30.2266 34.0393C30.1165 34.0087 30.1838 33.9169 30.2144 33.8925L30.2572 33.8496C30.3184 33.764 30.508 33.6784 30.5753 33.66C30.7404 33.5988 30.9056 33.5377 31.1442 33.6294C31.1809 33.6417 31.2726 33.7151 31.3032 33.7212C31.4806 33.764 31.5479 33.7762 31.7192 33.6906C31.7865 33.66 31.7742 33.6478 31.7865 33.6294C31.8415 33.4582 31.7253 33.3419 31.7314 33.3664C31.7008 33.134 32.3492 33.4215 32.4532 33.2808C32.5511 33.1462 32.4899 32.9015 32.6184 32.8036C32.6306 32.7975 32.704 32.7425 32.7101 32.7425C32.8325 32.718 32.9365 32.7669 33.0343 32.8036L33.1383 32.8526C33.3463 32.9382 33.5237 32.981 33.6338 33.1523C33.7072 33.2624 33.695 33.4215 33.7623 33.5377C33.7928 33.5805 33.8601 33.6172 33.8907 33.66C33.9213 33.6967 33.9763 33.7212 34.0131 33.7395C34.0742 33.7762 34.0926 33.7885 34.1721 33.8191C34.2271 33.8435 34.3128 33.9292 34.3617 33.9475C34.5575 34.027 34.7899 34.0148 34.9979 34.0148C35.1202 34.0087 35.1936 34.0821 35.316 34.0454C35.3771 34.0209 35.3588 33.9169 35.316 33.868C35.2426 33.7701 35.1814 33.7946 35.0591 33.7273C35.0101 33.6967 34.949 33.5988 34.9 33.5683C34.7532 33.4765 34.5452 33.4582 34.4535 33.3113C34.4412 33.2869 34.4229 33.2502 34.4229 33.2196L34.3862 33.1523C34.2149 32.7975 34.1537 32.5834 34.325 32.5161C34.429 32.4733 34.6615 32.4978 34.7716 32.455C34.796 32.4427 34.845 32.3693 34.8633 32.3571C35.1141 32.2409 35.5912 32.0941 35.8482 32.2286C35.9277 32.2653 35.8482 32.4672 35.8787 32.5467C35.891 32.5834 35.9521 32.6385 36.0194 32.6568C36.5638 32.8036 37.1083 32.7792 37.512 32.9688C37.7505 33.0789 37.9341 33.2563 38.1482 33.4459C38.3317 33.6111 38.1176 33.7946 38.3072 33.8496C38.1726 33.868 38.0686 33.8802 38.0442 33.8129C38.038 33.7946 38.0013 33.7334 37.9769 33.7212C37.8362 33.5866 37.671 33.3786 37.4692 33.3052C37.3652 33.2685 37.3224 33.3052 37.2123 33.2746L37.0899 33.2318C36.9492 33.1951 36.937 33.2074 36.8024 33.1768C36.7412 33.1645 36.6067 33.0911 36.5455 33.085C36.2763 33.0483 36.1234 33.1523 35.8787 33.085C35.7625 33.0483 35.6157 32.8709 35.524 32.822C35.4077 32.7608 35.3037 32.7363 35.1753 32.6935C35.1263 32.6813 35.0958 32.6813 35.0591 32.6996C34.9857 32.7363 35.0101 32.8036 35.0468 32.8526C35.0713 32.8832 35.0835 32.9321 35.108 32.9443C35.1998 33.0116 35.3771 33.0116 35.4261 33.1034C35.5668 33.3786 35.3588 33.4826 35.3343 33.5621C35.316 33.6111 35.2793 33.6539 35.3343 33.7212C35.3649 33.7579 35.4261 33.8007 35.4628 33.8129C35.5912 33.868 35.6952 33.8435 35.8115 33.9108C35.8971 33.9536 35.9888 34.1127 36.099 34.1371C36.3498 34.1922 36.417 34.0026 36.5455 33.972C36.729 33.9292 36.8452 34.027 37.0532 33.972C37.1205 33.9536 37.1633 33.868 37.2123 33.8435C37.3346 33.7824 37.4569 33.7701 37.5303 33.8129C37.5303 33.8129 37.6099 33.8496 37.4936 33.9108C37.4263 33.9475 37.3713 33.9475 37.304 33.9842C37.2612 34.0087 37.2123 34.076 37.2061 34.0821C37.1878 34.1249 37.1694 34.1922 37.1694 34.1983C37.1939 34.235 37.2184 34.2534 37.2367 34.2656C37.4569 34.339 37.6833 34.1983 37.8729 34.1677C38.0136 34.1494 38.4051 34.1677 38.5213 34.2534C38.5213 34.2534 38.6253 34.2778 38.558 34.4675C38.5152 34.5776 38.3317 34.6632 38.2644 34.7611C38.2277 34.8161 38.1787 34.9201 38.142 34.9752C38.0748 35.0608 38.0625 35.0608 37.9952 35.1403L37.9463 35.2076C37.9218 35.2871 37.5976 35.5624 37.5365 35.6542C37.4998 35.7092 37.4814 35.7704 37.4447 35.8254C37.3835 35.9111 37.3468 35.9233 37.3162 35.9722C37.2245 36.1068 37.041 36.376 36.8881 36.4494C36.8208 36.4738 36.7229 36.4494 36.6311 36.4249C36.5638 36.4066 36.5027 36.2903 36.4415 36.2659C36.2152 36.1619 35.9705 36.1925 35.7748 36.0762C35.6769 36.0151 35.5912 35.8499 35.5178 35.7582C35.475 35.697 35.4322 35.593 35.3649 35.5685C35.2487 35.5257 34.9734 35.5685 34.9184 35.6603C34.8144 35.8621 35.0835 36.376 35.108 36.5901C35.1263 36.7736 35.0407 36.8531 35.108 36.9999C35.1386 37.0733 35.2609 37.0978 35.2976 37.159C35.4689 37.4281 35.3221 37.8135 35.3588 38.1744C35.371 38.2845 35.4444 38.4313 35.42 38.5903C35.3955 38.8411 35.0652 39.0613 35.1998 39.4467C35.2059 39.4651 35.267 39.5079 35.2732 39.514C35.3221 39.5385 35.4016 39.5262 35.4567 39.514C35.5668 39.4773 35.6646 39.2632 35.7748 39.1959C35.787 39.1837 35.8237 39.1653 35.842 39.1653C35.8543 39.147 35.8849 39.1409 35.8971 39.1347C35.946 39.098 35.9644 39.098 35.9888 39.043C36.0378 38.939 36.0194 38.835 36.05 38.6882C36.0806 38.5659 36.1968 38.3518 36.2091 38.2111C36.2519 37.8196 35.9644 37.055 36.1662 36.9326C36.2458 36.8837 36.3192 36.7919 36.4537 36.7736C36.5149 36.7613 36.7045 36.8164 36.7902 36.8164C36.6862 37.0611 37.0654 37.6972 37.0349 38.0459C36.9615 38.9023 36.4048 39.3733 35.9216 39.8321C35.8665 39.8871 35.9154 39.9483 35.9521 39.9911C36.0439 40.0829 36.2825 40.0401 36.3987 40.0217C36.5761 39.985 36.6495 39.9055 36.7779 39.8627C36.8269 39.8443 36.8819 39.8749 36.937 39.8627C37.0716 39.8321 37.1817 39.6486 37.2551 39.5446C37.2551 39.5446 37.408 39.3733 37.4447 39.5996V39.6119C37.4447 39.8199 37.408 40.0401 37.4447 40.2419C37.4814 40.4805 37.9218 41.1962 38.1482 41.2329C38.6742 41.3124 38.1359 40.6457 38.1115 40.5967C38.0258 40.3949 37.9402 40.0339 37.9524 39.7709C37.9524 39.673 38.038 39.4773 38.0442 39.3855C38.0503 39.3366 38.0258 39.2326 38.0442 39.1959C38.087 39.1103 38.3684 39.0858 38.4295 38.9757C38.4479 38.939 38.4295 38.884 38.4295 38.8472C38.4418 38.7738 38.4968 38.627 38.558 38.5659C38.5947 38.5169 38.6498 38.4925 38.717 38.5659C38.7721 38.627 38.7843 38.7677 38.8761 38.8717L38.9556 38.9574C39.0474 39.0185 39.2003 38.939 39.1636 38.9451C39.2615 38.9145 39.2492 38.8228 39.292 38.78L39.3532 38.7555C39.5857 38.5169 39.0718 38.3028 39.0718 38.0826C39.0718 37.8379 39.1269 37.5566 39.0412 37.2935C39.0229 37.2201 38.9006 37.1284 38.8822 37.0672C38.8455 36.9143 38.925 36.7552 38.9434 36.6574C38.9801 36.4555 38.9067 36.1374 38.974 36.0518C39.0168 36.0028 39.0718 35.9661 39.1942 35.9906C39.2737 36.0028 39.3287 36.1374 39.3838 36.1802C39.5918 36.3515 39.8303 36.4371 40.179 36.4004C40.2218 36.4004 40.2585 36.3332 40.2646 36.3148C40.2891 36.2536 40.283 36.168 40.2402 36.1129C40.1117 35.9478 39.6285 35.8193 39.604 35.7337C39.5857 35.6725 39.5123 35.5869 39.5918 35.5441C39.549 35.5746 39.8915 35.5318 40.0138 35.5074C40.179 35.4768 40.1851 35.3116 40.3013 35.2566C40.4604 35.1709 40.6928 35.2443 40.7846 35.0975C40.8335 35.0058 40.7968 34.8651 40.8458 34.7794C40.913 34.6693 41.0966 34.6449 41.1944 34.5531C41.225 34.5286 41.2128 34.4308 41.2067 34.4002M28.4099 41.8568C28.3487 41.7895 28.3976 41.655 28.5138 41.5938C28.7279 41.4959 28.8136 41.606 28.8564 41.6611C29.0644 41.9853 29.3335 42.3951 29.5293 42.5603C29.3458 42.5786 28.6607 42.3707 28.4037 41.8507M30.1532 45.0744C30.0431 45.0744 29.3335 44.481 29.4436 44.1079C29.6516 44.2669 30.1226 44.5911 30.1838 44.585C30.245 44.6217 30.2939 45.0316 30.1532 45.0744ZM30.979 45.0744C30.8873 44.9887 30.2021 44.2669 30.3734 43.9305C30.563 44.1201 31.083 44.6034 31.2726 44.6462C31.3216 44.7808 31.3154 45.1661 30.979 45.0744ZM31.0524 42.3034C31.1748 42.4869 31.3399 42.5847 31.3338 42.9762C31.3216 43.068 31.3521 43.0925 31.4317 43.0802C31.5051 43.0619 31.4623 42.6153 31.6825 42.6398C31.866 42.6643 31.7436 42.9212 31.8354 43.2148C31.866 43.3188 32.0801 43.6858 32.0189 44.3159C32.0189 44.481 31.7069 44.6951 31.5295 44.5667C31.3888 44.4749 31.3888 44.3709 31.3032 43.7042C31.2665 43.3066 30.7894 43.1781 30.5875 42.9946C30.3795 42.8478 30.5019 42.7683 30.4591 42.493C30.3428 42.1015 29.8779 41.9119 30.0309 41.6488C30.0798 41.5816 30.1287 41.5204 30.2694 41.5754C30.2817 41.7712 30.7466 41.9241 31.0585 42.2972M27.7737 41.0555C27.8226 41.031 28.0245 40.9393 28.0795 40.9148C28.2998 40.8353 28.416 40.9515 28.6117 40.8414C28.6607 40.8108 28.7096 40.7374 28.7524 40.7007C28.7891 40.6701 28.8564 40.6762 28.9053 40.6395C29.0154 40.5661 29.2234 40.3276 29.3641 40.3031C29.4498 40.2909 29.4436 40.3092 29.4865 40.3153C29.4865 40.3215 29.5476 40.3031 29.5293 40.4254C29.4926 40.6579 30.0492 40.4254 30.404 40.5111C30.6548 40.5661 30.8934 40.6518 30.8322 40.8108C30.8383 40.7925 30.7588 40.8597 30.7404 40.872C30.5692 40.9943 30.4407 40.8597 30.3551 40.8475C30.2021 40.8292 30.0982 40.8781 29.9452 40.8597L29.7617 40.7986C29.6455 40.7925 29.4803 40.8536 29.3886 40.8597C29.2234 40.872 29.1439 40.8108 28.991 40.8292C28.9237 40.8353 28.8013 40.9332 28.7463 40.9515C28.6974 40.9699 28.6423 40.9882 28.5873 41.0004C28.5567 41.0066 28.4771 41.0555 28.4343 41.0677C28.2814 41.1411 28.1896 41.1411 28.0061 41.1962L27.896 41.2268C27.6636 41.2574 27.6819 41.0983 27.7553 41.0555M27.2048 41.9669C27.4556 41.9058 27.529 41.9669 27.6513 42.2544C27.7431 42.4257 27.9266 42.6459 28 42.7499C27.7064 42.7866 27.2537 42.389 27.1253 42.1749C27.0458 42.0709 27.1681 41.9853 27.2109 41.9608M24.024 40.768C24.3543 40.6762 24.6418 40.5845 24.7702 40.5111C24.8131 40.5111 24.8559 40.5111 24.8987 40.5111C24.917 40.5967 24.9476 40.6885 25.0027 40.7741C25.0149 40.7925 25.0271 40.8108 25.0333 40.823C24.8314 40.823 24.4277 40.8047 24.0178 40.768M24.7091 41.343C24.8803 41.2451 25.0394 41.1289 25.1923 41.0188C25.2596 41.0983 25.3391 41.1778 25.4248 41.2512C25.3391 41.2757 25.0577 41.3124 24.7091 41.343Z" fill="#711419"/>
<path d="M27.7742 41.0547C27.7549 41.0611 27.7549 41.0611 27.7742 41.0547V41.0547Z" fill="#711419"/>
<path d="M24.568 23.2976C24.5069 23.2426 24.4335 23.1814 24.3601 23.1141C24.2867 23.0468 24.2071 22.9734 24.1337 22.9C23.8952 22.6431 23.6688 22.3984 23.467 22.166L23.2101 21.8846C23.1244 21.7928 23.0449 21.7011 22.9715 21.6215L22.7757 21.4075C22.7757 21.4075 22.7329 21.3585 22.7146 21.3402C22.7207 21.334 22.7268 21.3218 22.739 21.3096C22.788 21.2545 22.843 21.1811 22.9164 21.0955C22.9898 21.0098 23.0694 20.912 23.155 20.8019C23.2406 20.6918 23.3324 20.5817 23.4242 20.4654L24.146 19.5723L24.4029 19.3154H23.3813L21.9132 21.1505V19.3154H20.9773V23.7625H21.9132V21.7622L23.4242 23.4444C23.5771 23.6585 23.8585 23.7625 24.2499 23.7625H25.1736L24.776 23.4811C24.7087 23.4322 24.6414 23.3771 24.5742 23.316" fill="white"/>
<path d="M27.688 19.2971V22.0192C27.688 22.2027 27.6758 22.374 27.6452 22.5147C27.6208 22.6493 27.5718 22.7532 27.4984 22.845C27.425 22.9306 27.3271 22.9979 27.1926 23.0469C27.058 23.0958 26.8745 23.1203 26.6481 23.1203C26.0731 23.1203 25.7918 22.7594 25.7918 22.0192V20.704C25.7918 20.3187 25.7918 19.8844 25.7979 19.395V19.291H24.8559V22.0131C24.8559 22.3312 24.8681 22.5575 24.8926 22.6921C24.9415 22.949 25.0516 23.1753 25.2106 23.3588C25.5104 23.683 25.9325 23.8482 26.4646 23.8482H26.8194C27.3516 23.8482 27.7798 23.683 28.0795 23.3588C28.2386 23.1753 28.3487 22.9551 28.3976 22.6982C28.4221 22.5636 28.4343 22.3373 28.4343 22.0192V19.2971H27.6758H27.688Z" fill="white"/>
<path d="M24.3539 25.7255L23.1856 28.7411H22.892L21.6074 25.7438L21.2159 28.7411H20.6898L21.2343 25.0098H21.9561L23.0816 27.634L24.1154 25.0098H24.8555L25.3694 28.7411H24.7148L24.3539 25.7255Z" fill="white"/>
<path d="M26.2254 28.2278H27.9748V28.7416H25.577V25.0225H27.7363V25.5179H26.2254V26.4844H27.4182V26.9738H26.2254V28.2278Z" fill="white"/>
<path d="M30.954 25.5121C31.3333 25.8424 31.5168 26.2828 31.5168 26.8456C31.5168 27.4084 31.321 27.861 30.9234 28.2158C30.5319 28.5706 30.0181 28.7419 29.3942 28.7419H28.2809V25.0166H29.4247C30.0609 25.0166 30.5686 25.1818 30.9479 25.506M30.3484 27.9344C30.5013 27.8121 30.6176 27.653 30.6971 27.4634C30.7705 27.2677 30.8133 27.0597 30.8133 26.8395C30.8133 26.6437 30.7827 26.4602 30.7154 26.2951C30.6543 26.1299 30.5564 25.9831 30.4402 25.8669C30.1955 25.6283 29.8407 25.5121 29.3819 25.5121H28.9231V28.2709H29.2841C29.7245 28.2709 30.0793 28.1608 30.3545 27.9405" fill="white"/>
<path d="M31.8535 25.0225H32.4958V28.7416H31.8535V25.0225Z" fill="white"/>
<path d="M35.9765 28.5649C35.9398 28.5833 35.8909 28.6016 35.8297 28.6322C35.7686 28.6567 35.689 28.6873 35.5973 28.7179C35.5055 28.7423 35.3954 28.7668 35.2792 28.7851C35.163 28.8035 35.0284 28.8157 34.8877 28.8157C34.2271 28.8157 33.7132 28.6445 33.3462 28.2958C32.967 27.9532 32.7773 27.4883 32.7773 26.9072C32.7773 26.3261 32.9609 25.8918 33.3218 25.537C33.4992 25.3596 33.7132 25.2189 33.9579 25.1149C34.2026 25.0171 34.4718 24.9559 34.7715 24.9375C34.955 24.9253 35.114 24.9375 35.2547 24.9559C35.3954 24.9804 35.5117 25.0048 35.6095 25.0293C35.7258 25.066 35.8236 25.1088 35.9031 25.1516V25.7817C35.8236 25.7328 35.7441 25.6838 35.6707 25.641C35.5973 25.5982 35.5178 25.5615 35.4321 25.5309C35.3465 25.5003 35.2547 25.4758 35.1569 25.4636C35.059 25.4453 34.9489 25.4391 34.8265 25.4453C34.6063 25.4514 34.4167 25.4942 34.2454 25.5798C34.0742 25.6655 33.9335 25.7633 33.8172 25.8857C33.5909 26.1242 33.4747 26.4362 33.4747 26.8155C33.4747 27.1947 33.597 27.5556 33.8356 27.837C33.964 27.9838 34.1109 28.0939 34.2699 28.1673C34.4289 28.2407 34.6063 28.2774 34.8082 28.2836C34.9611 28.2897 35.1018 28.2836 35.2303 28.2652C35.3587 28.2469 35.475 28.2163 35.5728 28.1857C35.6707 28.1551 35.7502 28.1184 35.8175 28.0878C35.8848 28.0511 35.9337 28.0205 35.9704 27.9961V28.5649H35.9765Z" fill="white"/>
<path d="M36.3125 25.0225H36.9548V28.7416H36.3125V25.0225Z" fill="white"/>
<path d="M40.5336 25.0166H40.5703V28.748L40.0381 28.7419L37.8605 25.9586V28.7419H37.3711V25.0166H37.9277L40.0809 27.7509V25.0166H40.5336Z" fill="white"/>
<path d="M41.6343 28.2278H43.3777V28.7416H40.9859V25.0225H43.1452V25.5179H41.6343V26.4844H42.8272V26.9738H41.6343V28.2278Z" fill="white"/>
</svg>
