<svg width="66" height="60" viewBox="0 0 66 60" fill="none" xmlns="http://www.w3.org/2000/svg">
<circle cx="32.999" cy="30" r="30" fill="url(#paint0_radial_9527_46727)"/>
<g filter="url(#filter0_f_9527_46727)">
<path d="M61.8985 32.1658C61.4395 34.4958 60.7095 36.7258 59.7385 38.8258C58.7285 39.1458 57.5585 39.2358 56.3495 39.0358C53.0995 38.4958 50.7885 36.0358 51.2085 33.5558C51.6185 31.0758 54.5875 29.5058 57.8495 30.0458C59.5395 30.3258 60.9685 31.1258 61.8985 32.1658Z" fill="#FF9A61" fill-opacity="0.5"/>
</g>
<g filter="url(#filter1_f_9527_46727)">
<path d="M14.8081 33.5558C15.2281 36.0358 12.9181 38.4958 9.66808 39.0358C8.54808 39.2258 7.46809 39.1558 6.50809 38.8958C5.49809 36.7258 4.74809 34.4158 4.28809 31.9958C5.20809 31.0358 6.57808 30.3158 8.16808 30.0458C11.4281 29.5058 14.3971 31.0758 14.8081 33.5558Z" fill="#FF9A61" fill-opacity="0.5"/>
</g>
<path d="M37.7241 33.9409H29.4961C29.0821 33.9409 28.7461 33.6049 28.7461 33.1909C28.7461 32.7769 29.0821 32.4409 29.4961 32.4409H37.7241C38.1381 32.4409 38.4741 32.7769 38.4741 33.1909C38.4741 33.6049 38.1381 33.9409 37.7241 33.9409Z" fill="black"/>
<path d="M38.2236 33.1909C38.2236 32.915 37.9996 32.6909 37.7236 32.6909H29.4961C29.2202 32.6909 28.9961 32.915 28.9961 33.1909C28.9961 33.4668 29.2202 33.6909 29.4961 33.6909H37.7236C37.9996 33.6909 38.2236 33.4668 38.2236 33.1909ZM38.7236 33.1909C38.7236 33.743 38.2757 34.1909 37.7236 34.1909H29.4961C28.944 34.1909 28.4961 33.743 28.4961 33.1909C28.4961 32.6388 28.944 32.1909 29.4961 32.1909H37.7236C38.2757 32.1909 38.7236 32.6388 38.7236 33.1909Z" fill="black"/>
<path d="M20.6893 29.1C20.4973 29.1 20.3053 29.027 20.1593 28.88L13.1143 21.835C12.8213 21.542 12.8213 21.0669 13.1143 20.7739C13.4073 20.4809 13.8823 20.4809 14.1753 20.7739L21.2203 27.8189C21.5133 28.1119 21.5133 28.587 21.2203 28.88C21.0733 29.026 20.8823 29.1 20.6893 29.1Z" fill="black"/>
<path d="M12.9375 20.5972C13.3281 20.2065 13.9619 20.2065 14.3525 20.5972L21.3975 27.6421L21.4658 27.7183C21.7861 28.1111 21.7636 28.691 21.3975 29.0571H21.3965C21.2016 29.2507 20.9468 29.3501 20.6895 29.3501C20.4344 29.3501 20.1775 29.2531 19.9824 29.0571L12.9375 22.0122C12.5469 21.6216 12.5469 20.9878 12.9375 20.5972ZM13.998 20.9507C13.8027 20.7556 13.4863 20.7554 13.291 20.9507C13.0957 21.146 13.0959 21.4623 13.291 21.6577L20.3359 28.7036H20.3369L20.4141 28.7681C20.4967 28.823 20.5929 28.8501 20.6895 28.8501C20.7858 28.8501 20.8813 28.8223 20.9648 28.7671L21.0439 28.7026C21.2146 28.5316 21.2358 28.2678 21.1074 28.0737L21.0439 27.9956L13.998 20.9507Z" fill="black"/>
<path d="M13.6443 29.1C13.4523 29.1 13.2603 29.027 13.1143 28.88C12.8213 28.587 12.8213 28.1119 13.1143 27.8189L20.1593 20.7739C20.4523 20.4809 20.9273 20.4809 21.2203 20.7739C21.5133 21.0669 21.5133 21.542 21.2203 21.835L14.1753 28.88C14.0273 29.026 13.8363 29.1 13.6443 29.1Z" fill="black"/>
<path d="M20.0586 20.5289C20.4515 20.2084 21.0312 20.231 21.3975 20.5973C21.7635 20.9635 21.7863 21.5433 21.4658 21.9361L21.3975 22.0123L14.3506 29.0582C14.1552 29.2508 13.9011 29.3501 13.6445 29.3502C13.3892 29.3502 13.1317 29.2528 12.9365 29.0563C12.5472 28.6655 12.5473 28.0324 12.9375 27.6422L19.9824 20.5973L20.0586 20.5289ZM21.0439 20.9508C20.873 20.7798 20.6083 20.758 20.4141 20.8863L20.3359 20.9508L13.291 27.9957C13.0956 28.1911 13.0956 28.5084 13.291 28.7037L13.3691 28.7682C13.4518 28.823 13.548 28.8502 13.6445 28.8502C13.7717 28.8501 13.8995 28.8009 14 28.7018L21.0439 21.6578L21.1074 21.5797C21.2356 21.3856 21.2147 21.1217 21.0439 20.9508Z" fill="black"/>
<path d="M52.7205 29.1C52.5285 29.1 52.3365 29.027 52.1905 28.88L45.1455 21.835C44.8525 21.542 44.8525 21.0669 45.1455 20.7739C45.4385 20.4809 45.9135 20.4809 46.2065 20.7739L53.2515 27.8189C53.5445 28.1119 53.5445 28.587 53.2515 28.88C53.1035 29.026 52.9125 29.1 52.7205 29.1Z" fill="black"/>
<path d="M44.9688 20.5972C45.3594 20.2065 45.9932 20.2065 46.3838 20.5972L53.4287 27.6421L53.4971 27.7183C53.8174 28.1111 53.7949 28.691 53.4287 29.0571L53.4268 29.0581C53.2314 29.2507 52.9773 29.3501 52.7207 29.3501C52.4657 29.3501 52.2088 29.2531 52.0137 29.0571L44.9688 22.0122C44.5781 21.6216 44.5781 20.9878 44.9688 20.5972ZM46.0293 20.9507C45.8339 20.7556 45.5176 20.7554 45.3223 20.9507C45.127 21.146 45.1271 21.4623 45.3223 21.6577L52.3672 28.7036H52.3682L52.4453 28.7681C52.528 28.823 52.6242 28.8501 52.7207 28.8501C52.8161 28.8501 52.9118 28.8227 52.9961 28.7671L53.0762 28.7017C53.2459 28.5306 53.2668 28.2674 53.1387 28.0737L53.0752 27.9956L46.0293 20.9507Z" fill="black"/>
<path d="M45.6755 29.1C45.4835 29.1 45.2915 29.027 45.1455 28.88C44.8525 28.587 44.8525 28.1119 45.1455 27.8189L52.1905 20.7739C52.4835 20.4809 52.9585 20.4809 53.2515 20.7739C53.5445 21.0669 53.5445 21.542 53.2515 21.835L46.2065 28.88C46.0595 29.026 45.8675 29.1 45.6755 29.1Z" fill="black"/>
<path d="M52.0898 20.5289C52.4827 20.2084 53.0625 20.231 53.4287 20.5973C53.7948 20.9636 53.8176 21.5433 53.4971 21.9362L53.4287 22.0123L46.3838 29.0572H46.3828C46.1878 29.2509 45.932 29.3502 45.6758 29.3502C45.4204 29.3502 45.1629 29.2528 44.9678 29.0563V29.0553C44.5784 28.6646 44.5785 28.0324 44.9688 27.6422L52.0137 20.5973L52.0898 20.5289ZM53.0752 20.9508C52.9042 20.7798 52.6395 20.758 52.4453 20.8863L52.3672 20.9508L45.3223 27.9957C45.1269 28.1911 45.1269 28.5084 45.3223 28.7037H45.3232L45.4004 28.7682C45.4831 28.8231 45.5793 28.8502 45.6758 28.8502C45.8034 28.8502 45.9314 28.8009 46.0303 28.7028L53.0752 21.6578L53.1387 21.5797C53.2668 21.3856 53.246 21.1218 53.0752 20.9508Z" fill="black"/>
<defs>
<filter id="filter0_f_9527_46727" x="47.1592" y="25.9395" width="18.7393" height="17.2024" filterUnits="userSpaceOnUse" color-interpolation-filters="sRGB">
<feFlood flood-opacity="0" result="BackgroundImageFix"/>
<feBlend mode="normal" in="SourceGraphic" in2="BackgroundImageFix" result="shape"/>
<feGaussianBlur stdDeviation="2" result="effect1_foregroundBlur_9527_46727"/>
</filter>
<filter id="filter1_f_9527_46727" x="0.288086" y="25.9395" width="18.5693" height="17.2041" filterUnits="userSpaceOnUse" color-interpolation-filters="sRGB">
<feFlood flood-opacity="0" result="BackgroundImageFix"/>
<feBlend mode="normal" in="SourceGraphic" in2="BackgroundImageFix" result="shape"/>
<feGaussianBlur stdDeviation="2" result="effect1_foregroundBlur_9527_46727"/>
</filter>
<radialGradient id="paint0_radial_9527_46727" cx="0" cy="0" r="1" gradientUnits="userSpaceOnUse" gradientTransform="translate(19.999 6) rotate(60.9454) scale(61.7738)">
<stop stop-color="#D6BDFF"/>
<stop offset="1" stop-color="#FFCE1B"/>
</radialGradient>
</defs>
</svg>
