<svg width="66" height="60" viewBox="0 0 66 60" fill="none" xmlns="http://www.w3.org/2000/svg">
<circle cx="32.9985" cy="30" r="30" fill="url(#paint0_radial_9527_45543)"/>
<g filter="url(#filter0_f_9527_45543)">
<path d="M61.898 32.1658C61.439 34.4958 60.709 36.7258 59.738 38.8258C58.728 39.1458 57.558 39.2358 56.349 39.0358C53.099 38.4958 50.788 36.0358 51.208 33.5558C51.618 31.0758 54.587 29.5058 57.849 30.0458C59.539 30.3258 60.968 31.1258 61.898 32.1658Z" fill="#FF9A61" fill-opacity="0.5"/>
</g>
<g filter="url(#filter1_f_9527_45543)">
<path d="M14.8076 33.5558C15.2276 36.0358 12.9176 38.4958 9.66759 39.0358C8.5476 39.2258 7.4676 39.1558 6.5076 38.8958C5.4976 36.7258 4.7476 34.4158 4.2876 31.9958C5.2076 31.0358 6.57759 30.3158 8.16759 30.0458C11.4276 29.5058 14.3966 31.0758 14.8076 33.5558Z" fill="#FF9A61" fill-opacity="0.5"/>
</g>
<path d="M16.2446 17L19.3886 19.9675L23.6193 19.0632L21.7634 22.9651L23.932 26.7029L19.6411 26.1478L16.7496 29.3605L15.9549 25.1162L12 23.363L15.7974 21.2952L16.2446 17Z" fill="#FF1F00"/>
<path d="M16.0703 16.5312C16.2486 16.465 16.4495 16.5061 16.5879 16.6366L19.54 19.4228L23.5146 18.5741L23.5849 18.5644C23.748 18.5531 23.9085 18.6223 24.0117 18.7528C24.1297 18.9022 24.1521 19.1063 24.0703 19.2782L22.3281 22.9403L24.3642 26.4521C24.4597 26.6166 24.4538 26.8209 24.3486 26.9794C24.2433 27.1378 24.0568 27.2234 23.8682 27.1991L19.8369 26.6767L17.1211 29.6952C16.9938 29.8364 16.7973 29.8931 16.6142 29.8417C16.4312 29.7902 16.2928 29.639 16.2578 29.4521L15.5117 25.4667L11.7978 23.8202C11.6239 23.7431 11.5079 23.5738 11.5 23.3837C11.4922 23.1935 11.5936 23.0148 11.7607 22.9237L15.3262 20.9823L15.7471 16.9482L15.7598 16.8788C15.7993 16.7203 15.9144 16.5891 16.0703 16.5312ZM16.2949 21.3466C16.2779 21.5103 16.1807 21.6556 16.0361 21.7343L13.1289 23.3163L16.1572 24.6591L16.2617 24.7216C16.357 24.7957 16.4235 24.9029 16.4463 25.0243L17.0547 28.2733L19.2695 25.8134L19.3613 25.7333C19.4611 25.666 19.583 25.6365 19.7051 25.6523L22.9902 26.0761L21.331 23.2157C21.2484 23.0732 21.2407 22.8987 21.3115 22.7499L22.7324 19.7626L19.4932 20.456C19.3324 20.4903 19.1645 20.4438 19.0449 20.331L16.6367 18.0575L16.2949 21.3466Z" fill="#FF1F00"/>
<path d="M49.6875 17L46.5434 19.9675L42.3128 19.0632L44.1686 22.9651L42 26.7029L46.2909 26.1478L49.1824 29.3605L49.9771 25.1162L53.932 23.363L50.1346 21.2952L49.6875 17Z" fill="#FF1F00"/>
<path d="M49.3984 16.5918C49.532 16.4972 49.7052 16.4733 49.8613 16.5313C50.0397 16.5974 50.1649 16.7591 50.1846 16.9483L50.6045 20.9815L54.1709 22.9238C54.3381 23.0149 54.4394 23.1936 54.4316 23.3838C54.4237 23.5739 54.3087 23.7432 54.1348 23.8203L50.4199 25.4658L49.6738 29.4522C49.6388 29.6391 49.5005 29.7904 49.3174 29.8418C49.1343 29.8932 48.9378 29.8366 48.8106 29.6953L46.0938 26.6768L42.0645 27.1992C41.8757 27.2237 41.6894 27.138 41.584 26.9795C41.4786 26.8211 41.472 26.6168 41.5674 26.4522L43.6035 22.9414L41.8613 19.2783C41.7796 19.1064 41.8029 18.9023 41.9209 18.7529C42.0389 18.6039 42.2311 18.5346 42.417 18.5742L46.3906 19.4229L49.3447 16.6367L49.3984 16.5918ZM46.8867 20.3311C46.7672 20.4439 46.5993 20.4904 46.4385 20.4561L43.1992 19.7637L44.6201 22.75C44.6909 22.8988 44.6841 23.0733 44.6016 23.2158L42.9414 26.0762L46.2266 25.6524L46.3477 25.6514C46.4675 25.6651 46.5796 25.7218 46.6621 25.8135L48.877 28.2744L49.4854 25.0244L49.5225 24.9082C49.5727 24.7985 49.6616 24.7092 49.7744 24.6592L52.8027 23.3164L49.8955 21.7344C49.7509 21.6557 49.6547 21.5104 49.6377 21.3467L49.2949 18.0567L46.8867 20.3311Z" fill="#FF1F00"/>
<path d="M41.5762 37.2141C41.5832 37.7716 41.5322 38.1277 41.5322 38.1277H41.5137C41.2078 38.1277 37.246 38.1 33.2864 38.0884C31.3101 38.0954 29.3291 38.1046 27.8023 38.1139C26.2824 38.1231 25.212 38.1301 25.0614 38.1301H25.0405C25.0405 38.1301 24.9919 37.7739 25.0012 37.2164C24.9826 35.9004 25.2537 33.4371 27.2439 31.7578C28.458 30.7309 30.3184 30 33.1497 30C33.196 30 33.2378 30.0023 33.2841 30.0023C33.3304 30.0023 33.3721 30 33.4184 30C36.2543 30 38.1102 30.7309 39.3242 31.7578C41.3191 33.4371 41.5855 35.8957 41.5693 37.2164L41.5762 37.2141Z" fill="#060D15"/>
<path d="M41.5323 38.1256H41.5138C41.2079 38.1256 37.2461 38.0978 33.2865 38.0862C31.3102 38.0932 29.3292 38.1024 27.8024 38.1117C26.2825 38.1209 25.2121 38.1279 25.0615 38.1279C25.0615 38.1279 28.1893 35.8959 33.2796 35.9583C38.5412 36.0254 41.53 38.1279 41.53 38.1279L41.5323 38.1256Z" fill="#E85C43"/>
<defs>
<filter id="filter0_f_9527_45543" x="47.1587" y="25.9395" width="18.7393" height="17.2024" filterUnits="userSpaceOnUse" color-interpolation-filters="sRGB">
<feFlood flood-opacity="0" result="BackgroundImageFix"/>
<feBlend mode="normal" in="SourceGraphic" in2="BackgroundImageFix" result="shape"/>
<feGaussianBlur stdDeviation="2" result="effect1_foregroundBlur_9527_45543"/>
</filter>
<filter id="filter1_f_9527_45543" x="0.287598" y="25.9395" width="18.5693" height="17.2041" filterUnits="userSpaceOnUse" color-interpolation-filters="sRGB">
<feFlood flood-opacity="0" result="BackgroundImageFix"/>
<feBlend mode="normal" in="SourceGraphic" in2="BackgroundImageFix" result="shape"/>
<feGaussianBlur stdDeviation="2" result="effect1_foregroundBlur_9527_45543"/>
</filter>
<radialGradient id="paint0_radial_9527_45543" cx="0" cy="0" r="1" gradientUnits="userSpaceOnUse" gradientTransform="translate(19.9985 6) rotate(60.9454) scale(61.7738)">
<stop stop-color="#FFDE65"/>
<stop offset="1" stop-color="#FFCE1B"/>
</radialGradient>
</defs>
</svg>
