<svg width="66" height="60" viewBox="0 0 66 60" fill="none" xmlns="http://www.w3.org/2000/svg">
<circle cx="32.9987" cy="30" r="30" fill="url(#paint0_radial_6395_43533)"/>
<g filter="url(#filter0_f_6395_43533)">
<path d="M61.8981 32.1658C61.4391 34.4958 60.7091 36.7258 59.7381 38.8258C58.7281 39.1458 57.5581 39.2358 56.3491 39.0358C53.0991 38.4958 50.7881 36.0358 51.2081 33.5558C51.6181 31.0758 54.5871 29.5058 57.8491 30.0458C59.5391 30.3258 60.9681 31.1258 61.8981 32.1658Z" fill="#FF9A61" fill-opacity="0.5"/>
</g>
<g filter="url(#filter1_f_6395_43533)">
<path d="M14.8077 33.5558C15.2277 36.0358 12.9177 38.4958 9.66772 39.0358C8.54772 39.2258 7.46772 39.1558 6.50772 38.8958C5.49772 36.7258 4.74772 34.4158 4.28772 31.9958C5.20772 31.0358 6.57772 30.3158 8.16772 30.0458C11.4277 29.5058 14.3967 31.0758 14.8077 33.5558Z" fill="#FF9A61" fill-opacity="0.5"/>
</g>
<path d="M33.1642 39.5049C35.6812 39.5049 37.8462 40.5479 38.8552 42.0749C37.3282 43.6879 35.3352 44.6619 33.1642 44.6619C30.9822 44.6619 28.9982 43.6879 27.4712 42.0749C28.4802 40.5479 30.6462 39.5049 33.1642 39.5049Z" fill="#FF7C5F"/>
<path d="M41.8268 34.7535H41.8348C41.6728 37.6765 40.5498 40.2735 38.8528 42.0755C37.8428 40.5495 35.6788 39.5055 33.1618 39.5055C30.6438 39.5055 28.4778 40.5485 27.4688 42.0755C25.7718 40.2735 24.6508 37.6775 24.4868 34.7535H24.4948C24.4928 34.7535 30.1588 33.3305 41.8268 34.7535Z" fill="black"/>
<path d="M39.915 30.9414C40.8354 30.9414 41.6539 31.5685 41.7625 32.4825C41.8224 32.986 41.8533 33.501 41.8533 34.0284C41.8533 34.2677 41.8455 34.5061 41.8356 34.7444C41.8354 34.7489 41.8318 34.7524 41.8273 34.7524C30.4999 35.5 24.4933 34.7524 24.4933 34.7524C24.4888 34.7524 24.4851 34.7489 24.485 34.7444C24.4751 34.5061 24.4673 34.2677 24.4673 34.0284C24.4673 33.501 24.4982 32.986 24.558 32.4825C24.6667 31.5685 25.4852 30.9414 26.4056 30.9414H39.915Z" fill="black"/>
<path d="M19.9126 28.0926C19.4986 28.0926 19.1626 27.7566 19.1626 27.3426C19.1626 26.0376 18.1906 24.9756 16.9966 24.9756C15.8026 24.9756 14.8306 26.0376 14.8306 27.3426C14.8306 27.7566 14.4946 28.0926 14.0806 28.0926C13.6666 28.0926 13.3306 27.7566 13.3306 27.3426C13.3306 25.2106 14.9756 23.4756 16.9966 23.4756C19.0186 23.4756 20.6626 25.2106 20.6626 27.3426C20.6626 27.7566 20.3266 28.0926 19.9126 28.0926Z" fill="black"/>
<path d="M20.4126 27.3428C20.4126 25.3361 18.8681 23.7256 16.9966 23.7256C15.1261 23.7256 13.5806 25.3361 13.5806 27.3428C13.5807 27.6186 13.8047 27.8428 14.0806 27.8428C14.3564 27.8428 14.5805 27.6186 14.5806 27.3428C14.5806 25.921 15.6441 24.7256 16.9966 24.7256C18.349 24.7256 19.4126 25.921 19.4126 27.3428C19.4127 27.6186 19.6367 27.8428 19.9126 27.8428C20.1884 27.8428 20.4125 27.6186 20.4126 27.3428ZM20.9126 27.3428C20.9125 27.8947 20.4646 28.3428 19.9126 28.3428C19.3606 28.3428 18.9127 27.8948 18.9126 27.3428C18.9126 26.1545 18.0321 25.2256 16.9966 25.2256C15.9611 25.2256 15.0806 26.1545 15.0806 27.3428C15.0805 27.8948 14.6326 28.3428 14.0806 28.3428C13.5286 28.3428 13.0807 27.8948 13.0806 27.3428C13.0806 25.0854 14.8251 23.2256 16.9966 23.2256C19.1691 23.2256 20.9126 25.0855 20.9126 27.3428Z" fill="black"/>
<path d="M51.7641 28.0926C51.3501 28.0926 51.0141 27.7566 51.0141 27.3426C51.0141 26.0376 50.0421 24.9756 48.8481 24.9756C47.6541 24.9756 46.6821 26.0376 46.6821 27.3426C46.6821 27.7566 46.3461 28.0926 45.9321 28.0926C45.5181 28.0926 45.1821 27.7566 45.1821 27.3426C45.1821 25.2106 46.8271 23.4756 48.8481 23.4756C50.8701 23.4756 52.5141 25.2106 52.5141 27.3426C52.5141 27.7566 52.1781 28.0926 51.7641 28.0926Z" fill="black"/>
<path d="M52.2642 27.3428C52.2642 25.3361 50.7196 23.7256 48.8481 23.7256C46.9776 23.7256 45.4321 25.3361 45.4321 27.3428C45.4322 27.6186 45.6563 27.8428 45.9321 27.8428C46.208 27.8428 46.432 27.6186 46.4321 27.3428C46.4321 25.921 47.4957 24.7256 48.8481 24.7256C50.2006 24.7256 51.2642 25.921 51.2642 27.3428C51.2643 27.6186 51.4883 27.8428 51.7642 27.8428C52.04 27.8428 52.2641 27.6186 52.2642 27.3428ZM52.7642 27.3428C52.7641 27.8947 52.3162 28.3428 51.7642 28.3428C51.2122 28.3428 50.7643 27.8948 50.7642 27.3428C50.7642 26.1545 49.8837 25.2256 48.8481 25.2256C47.8126 25.2256 46.9321 26.1545 46.9321 27.3428C46.932 27.8948 46.4841 28.3428 45.9321 28.3428C45.3801 28.3428 44.9322 27.8948 44.9321 27.3428C44.9321 25.0854 46.6767 23.2256 48.8481 23.2256C51.0207 23.2256 52.7642 25.0855 52.7642 27.3428Z" fill="black"/>
<defs>
<filter id="filter0_f_6395_43533" x="47.1588" y="25.9395" width="18.7393" height="17.2024" filterUnits="userSpaceOnUse" color-interpolation-filters="sRGB">
<feFlood flood-opacity="0" result="BackgroundImageFix"/>
<feBlend mode="normal" in="SourceGraphic" in2="BackgroundImageFix" result="shape"/>
<feGaussianBlur stdDeviation="2" result="effect1_foregroundBlur_6395_43533"/>
</filter>
<filter id="filter1_f_6395_43533" x="0.28772" y="25.9395" width="18.5693" height="17.2041" filterUnits="userSpaceOnUse" color-interpolation-filters="sRGB">
<feFlood flood-opacity="0" result="BackgroundImageFix"/>
<feBlend mode="normal" in="SourceGraphic" in2="BackgroundImageFix" result="shape"/>
<feGaussianBlur stdDeviation="2" result="effect1_foregroundBlur_6395_43533"/>
</filter>
<radialGradient id="paint0_radial_6395_43533" cx="0" cy="0" r="1" gradientUnits="userSpaceOnUse" gradientTransform="translate(19.9987 6) rotate(60.9454) scale(61.7738)">
<stop stop-color="#FFDE65"/>
<stop offset="1" stop-color="#FFCE1B"/>
</radialGradient>
</defs>
</svg>
