<svg width="56" height="56" viewBox="0 0 56 56" fill="none" xmlns="http://www.w3.org/2000/svg">
<g filter="url(#filter0_i_2209_11326)">
<rect width="56" height="56" rx="28" fill="#386BE1"/>
<rect x="0.75" y="0.75" width="54.5" height="54.5" rx="27.25" stroke="#3665D3" stroke-width="1.5" stroke-linecap="round"/>
<g opacity="0.8" filter="url(#filter1_d_2209_11326)">
<path d="M39.1 24.1C40.3 22.9602 40.3 21.0398 39.1 19.9C37.9602 18.7 36.0398 18.7 34.9 19.9L28 26.7398L25 29.7398L21.1 25.9C19.9594 24.7 18.0398 24.7 16.9 25.9C15.7 27.0398 15.7 28.9602 16.9 30.1L22.9 36.1C24.0398 37.3 25.9602 37.3 27.1 36.1L39.1 24.1Z" fill="white"/>
</g>
</g>
<defs>
<filter id="filter0_i_2209_11326" x="0" y="0" width="56" height="56" filterUnits="userSpaceOnUse" color-interpolation-filters="sRGB">
<feFlood flood-opacity="0" result="BackgroundImageFix"/>
<feBlend mode="normal" in="SourceGraphic" in2="BackgroundImageFix" result="shape"/>
<feColorMatrix in="SourceAlpha" type="matrix" values="0 0 0 0 0 0 0 0 0 0 0 0 0 0 0 0 0 0 127 0" result="hardAlpha"/>
<feOffset/>
<feGaussianBlur stdDeviation="3.5"/>
<feComposite in2="hardAlpha" operator="arithmetic" k2="-1" k3="1"/>
<feColorMatrix type="matrix" values="0 0 0 0 0 0 0 0 0 0 0 0 0 0 0 0 0 0 0.1 0"/>
<feBlend mode="normal" in2="shape" result="effect1_innerShadow_2209_11326"/>
</filter>
<filter id="filter1_d_2209_11326" x="8" y="19" width="40" height="34" filterUnits="userSpaceOnUse" color-interpolation-filters="sRGB">
<feFlood flood-opacity="0" result="BackgroundImageFix"/>
<feColorMatrix in="SourceAlpha" type="matrix" values="0 0 0 0 0 0 0 0 0 0 0 0 0 0 0 0 0 0 127 0" result="hardAlpha"/>
<feOffset dy="8"/>
<feGaussianBlur stdDeviation="4"/>
<feComposite in2="hardAlpha" operator="out"/>
<feColorMatrix type="matrix" values="0 0 0 0 0 0 0 0 0 0 0 0 0 0 0 0 0 0 0.06 0"/>
<feBlend mode="normal" in2="BackgroundImageFix" result="effect1_dropShadow_2209_11326"/>
<feBlend mode="normal" in="SourceGraphic" in2="effect1_dropShadow_2209_11326" result="shape"/>
</filter>
</defs>
</svg>
