<svg width="40" height="40" viewBox="0 0 40 40" fill="none" xmlns="http://www.w3.org/2000/svg">
<rect width="40" height="40" rx="20" fill="#F4F4F4"/>
<g clip-path="url(#clip0_12918_98026)">
<path d="M8 13.88C8 12.2894 9.22802 11 10.7429 11H29.2571C30.772 11 32 12.2894 32 13.88V26.12C32 27.7106 30.772 29 29.2571 29H10.7429C9.22802 29 8 27.7106 8 26.12V13.88Z" fill="#C4D6FF"/>
<path d="M16.8136 17.8222C16.8136 18.8285 15.991 19.6443 14.9761 19.6443C13.9613 19.6443 13.1387 18.8285 13.1387 17.8222C13.1387 16.8158 13.9613 16 14.9761 16C15.991 16 16.8136 16.8158 16.8136 17.8222Z" fill="#5B74FF"/>
<path d="M17.9367 23.9785C18.5002 23.9785 18.9712 23.5158 18.8053 22.9817C18.7634 22.8468 18.7129 22.714 18.654 22.5839C18.454 22.1417 18.1607 21.74 17.791 21.4016C17.4213 21.0632 16.9825 20.7947 16.4994 20.6116C16.0164 20.4284 15.4987 20.3342 14.9759 20.3342C14.4531 20.3342 13.9354 20.4284 13.4524 20.6116C12.9693 20.7947 12.5305 21.0632 12.1608 21.4016C11.7911 21.74 11.4978 22.1417 11.2978 22.5839C11.2389 22.714 11.1884 22.8468 11.1465 22.9817C10.9806 23.5158 11.4516 23.9785 12.0151 23.9785L17.9367 23.9785Z" fill="#5B74FF"/>
<path d="M21 18C21 17.4477 21.4477 17 22 17H28C28.5523 17 29 17.4477 29 18C29 18.5523 28.5523 19 28 19H22C21.4477 19 21 18.5523 21 18Z" fill="white"/>
<path d="M21 22C21 21.4477 21.4477 21 22 21H28C28.5523 21 29 21.4477 29 22C29 22.5523 28.5523 23 28 23H22C21.4477 23 21 22.5523 21 22Z" fill="white"/>
</g>
<defs>
<clipPath id="clip0_12918_98026">
<rect width="24" height="24" fill="white" transform="translate(8 8)"/>
</clipPath>
</defs>
</svg>
