<svg width="40" height="40" viewBox="0 0 40 40" fill="none" xmlns="http://www.w3.org/2000/svg">
<rect width="40" height="40" rx="20" fill="#F4F4F4"/>
<g clip-path="url(#clip0_12918_98038)">
<path d="M7 13.37C7 11.6469 8.33035 10.25 9.97143 10.25H30.0286C31.6696 10.25 33 11.6469 33 13.37V26.63C33 28.3531 31.6696 29.75 30.0286 29.75H9.97143C8.33035 29.75 7 28.3531 7 26.63V13.37Z" fill="#C2E2F8"/>
<path d="M18.5263 16.8559C18.6534 16.4743 18.6297 16.1801 18.4546 15.9733C18.2479 15.7984 17.9537 15.7746 17.5721 15.9016C17.1904 16.0288 16.8486 16.2435 16.5464 16.5456L15.5924 17.4998L11.6273 16.5517C11.5637 16.5317 11.504 16.5476 11.4484 16.5993L10.6852 17.3626C10.6415 17.4064 10.6235 17.4601 10.6315 17.5236C10.6434 17.5873 10.6773 17.635 10.7329 17.6668L13.762 19.3305L12.2176 20.8751L11.0608 20.5591C11.0529 20.5551 11.037 20.5531 11.0132 20.5531C10.9575 20.5531 10.9118 20.5709 10.876 20.6067L10.3036 21.1851C10.2639 21.2327 10.246 21.2825 10.25 21.3341C10.2579 21.3977 10.2837 21.4434 10.3275 21.4713L11.8301 22.5983L12.957 24.101C12.9928 24.1448 13.0405 24.1705 13.1001 24.1786H13.1121C13.1677 24.1786 13.2134 24.1607 13.2492 24.125L13.8216 23.5526C13.8733 23.4969 13.8892 23.4352 13.8693 23.3677L13.5533 22.2108L15.0976 20.6662L16.7613 23.6957C16.7851 23.7474 16.8269 23.7792 16.8865 23.7911C16.8984 23.7951 16.9123 23.7971 16.9283 23.7971C16.9759 23.7971 17.0137 23.7851 17.0415 23.7613L17.8049 23.1889C17.8723 23.1332 17.8962 23.0677 17.8764 22.9922L16.9224 18.8418L17.8824 17.8817C18.1845 17.5795 18.3991 17.2375 18.5263 16.8559Z" fill="#2D76A7"/>
<path d="M21.0833 17.8333C21.0833 17.235 21.5684 16.75 22.1667 16.75H28.6667C29.265 16.75 29.75 17.235 29.75 17.8333C29.75 18.4316 29.265 18.9167 28.6667 18.9167H22.1667C21.5684 18.9167 21.0833 18.4316 21.0833 17.8333Z" fill="white"/>
<path d="M21.0833 22.1667C21.0833 21.5684 21.5684 21.0833 22.1667 21.0833H28.6667C29.265 21.0833 29.75 21.5684 29.75 22.1667C29.75 22.765 29.265 23.25 28.6667 23.25H22.1667C21.5684 23.25 21.0833 22.765 21.0833 22.1667Z" fill="white"/>
</g>
<defs>
<clipPath id="clip0_12918_98038">
<rect width="26" height="26" fill="white" transform="translate(7 7)"/>
</clipPath>
</defs>
</svg>
