<svg width="40" height="40" viewBox="0 0 40 40" fill="none" xmlns="http://www.w3.org/2000/svg">
<rect width="40" height="40" rx="20" fill="#F4F4F4"/>
<g clip-path="url(#clip0_12918_98032)">
<path d="M8 13.88C8 12.2894 9.22802 11 10.7429 11H29.2571C30.772 11 32 12.2894 32 13.88V26.12C32 27.7106 30.772 29 29.2571 29H10.7429C9.22802 29 8 27.7106 8 26.12V13.88Z" fill="#C4C4FF"/>
<path d="M21 18C21 17.4477 21.4477 17 22 17H28C28.5523 17 29 17.4477 29 18C29 18.5523 28.5523 19 28 19H22C21.4477 19 21 18.5523 21 18Z" fill="white"/>
<path d="M21 22C21 21.4477 21.4477 21 22 21H28C28.5523 21 29 21.4477 29 22C29 22.5523 28.5523 23 28 23H22C21.4477 23 21 22.5523 21 22Z" fill="white"/>
<path d="M18.5284 20.2667C17.4601 19.6344 16.2415 19.3008 15.0002 19.3008C13.7588 19.3008 12.5402 19.6344 11.472 20.2667L12.2104 21.4975C12.8444 21.1184 13.5496 20.8741 14.2822 20.7795V23.2821H15.7181V20.7795C16.4507 20.8741 17.1559 21.1184 17.7899 21.4975L18.5284 20.2667Z" fill="#4D48A7"/>
<path d="M15 24C14.2089 24 13.4355 23.7654 12.7777 23.3259C12.1199 22.8864 11.6072 22.2616 11.3045 21.5307C11.0017 20.7998 10.9225 19.9956 11.0769 19.2196C11.2312 18.4437 11.6122 17.731 12.1716 17.1716C12.731 16.6122 13.4437 16.2312 14.2196 16.0769C14.9956 15.9225 15.7998 16.0017 16.5307 16.3045C17.2616 16.6072 17.8864 17.1199 18.3259 17.7777C18.7654 18.4355 19 19.2089 19 20C18.9988 21.0605 18.577 22.0772 17.8271 22.8271C17.0772 23.577 16.0605 23.9988 15 24ZM15 17.4359C14.4929 17.4359 13.9971 17.5863 13.5755 17.868C13.1538 18.1498 12.8252 18.5502 12.6311 19.0188C12.437 19.4873 12.3862 20.0028 12.4852 20.5002C12.5841 20.9976 12.8283 21.4545 13.1869 21.8131C13.5455 22.1717 14.0024 22.4159 14.4998 22.5148C14.9972 22.6138 15.5127 22.563 15.9812 22.3689C16.4498 22.1749 16.8502 21.8462 17.132 21.4245C17.4137 21.0029 17.5641 20.5071 17.5641 20C17.5633 19.3202 17.293 18.6684 16.8123 18.1877C16.3316 17.707 15.6798 17.4367 15 17.4359Z" fill="#6854D9"/>
</g>
<defs>
<clipPath id="clip0_12918_98032">
<rect width="24" height="24" fill="white" transform="translate(8 8)"/>
</clipPath>
</defs>
</svg>
