<svg width="21" height="20" viewBox="0 0 21 20" fill="none" xmlns="http://www.w3.org/2000/svg">
<path d="M6.5 5.09922V5.84922C6.76675 5.84922 7.01343 5.70754 7.14783 5.47712L6.5 5.09922ZM7.9 2.69922V1.94922C7.63325 1.94922 7.38657 2.0909 7.25216 2.32132L7.9 2.69922ZM13.1 2.69922L13.7478 2.32132C13.6134 2.0909 13.3667 1.94922 13.1 1.94922V2.69922ZM14.5 5.09922L13.8522 5.47712C13.9866 5.70754 14.2332 5.84922 14.5 5.84922V5.09922ZM2.5 15.2992H3.25V7.09922H2.5H1.75V15.2992H2.5ZM4.5 5.09922V5.84922H6.5V5.09922V4.34922H4.5V5.09922ZM6.5 5.09922L7.14783 5.47712L8.54783 3.07712L7.9 2.69922L7.25216 2.32132L5.85217 4.72132L6.5 5.09922ZM7.9 2.69922V3.44922H13.1V2.69922V1.94922H7.9V2.69922ZM13.1 2.69922L12.4522 3.07712L13.8522 5.47712L14.5 5.09922L15.1478 4.72132L13.7478 2.32132L13.1 2.69922ZM14.5 5.09922V5.84922H16.5V5.09922V4.34922H14.5V5.09922ZM18.5 7.09922H17.75V15.2992H18.5H19.25V7.09922H18.5ZM18.5 15.2992H17.75C17.75 15.9896 17.1904 16.5492 16.5 16.5492V17.2992V18.0492C18.0188 18.0492 19.25 16.818 19.25 15.2992H18.5ZM16.5 5.09922V5.84922C17.1904 5.84922 17.75 6.40886 17.75 7.09922H18.5H19.25C19.25 5.58044 18.0188 4.34922 16.5 4.34922V5.09922ZM2.5 7.09922H3.25C3.25 6.40886 3.80964 5.84922 4.5 5.84922V5.09922V4.34922C2.98122 4.34922 1.75 5.58043 1.75 7.09922H2.5ZM4.5 17.2992V16.5492C3.80964 16.5492 3.25 15.9896 3.25 15.2992H2.5H1.75C1.75 16.818 2.98122 18.0492 4.5 18.0492V17.2992ZM13.5 10.6992H12.75C12.75 11.9419 11.7426 12.9492 10.5 12.9492V13.6992V14.4492C12.5711 14.4492 14.25 12.7703 14.25 10.6992H13.5ZM10.5 13.6992V12.9492C9.25736 12.9492 8.25 11.9419 8.25 10.6992H7.5H6.75C6.75 12.7703 8.42893 14.4492 10.5 14.4492V13.6992ZM7.5 10.6992H8.25C8.25 9.45658 9.25736 8.44922 10.5 8.44922V7.69922V6.94922C8.42893 6.94922 6.75 8.62815 6.75 10.6992H7.5ZM10.5 7.69922V8.44922C11.7426 8.44922 12.75 9.45658 12.75 10.6992H13.5H14.25C14.25 8.62815 12.5711 6.94922 10.5 6.94922V7.69922ZM16.5 17.2992V16.5492H4.5V17.2992V18.0492H16.5V17.2992Z" fill="white"/>
</svg>
