<svg width="49" height="48" viewBox="0 0 49 48" fill="none" xmlns="http://www.w3.org/2000/svg">
<circle cx="24.5" cy="24" r="21" stroke="#E2E2E2" stroke-width="6"/>
<path d="M25.7579 2.98082C25.855 1.35823 24.6146 -0.0547147 22.9923 0.047403C20.5535 0.200916 18.1466 0.726366 15.8563 1.61058C12.6483 2.84908 9.74384 4.76251 7.33973 7.22129C4.93562 9.68007 3.08797 12.6268 1.92191 15.8618C1.08941 18.1715 0.618206 20.5896 0.519561 23.0312C0.453941 24.6553 1.89442 25.8637 3.51441 25.7301C5.13441 25.5965 6.31443 24.1685 6.4447 22.5483C6.57313 20.951 6.91329 19.3735 7.4596 17.8579C8.33966 15.4163 9.73414 13.1923 11.5486 11.3366C13.3631 9.48085 15.5551 8.03673 17.9763 7.10199C19.4793 6.52175 21.0488 6.14621 22.6427 5.98191C24.2596 5.81523 25.6608 4.60341 25.7579 2.98082Z" fill="url(#paint0_linear_12918_97085)"/>
<defs>
<linearGradient id="paint0_linear_12918_97085" x1="24.5" y1="0" x2="24.5" y2="48" gradientUnits="userSpaceOnUse">
<stop stop-color="#67BDFF"/>
<stop offset="1" stop-color="#4C7FF7"/>
</linearGradient>
</defs>
</svg>
