<svg width="32" height="32" viewBox="0 0 32 32" fill="none" xmlns="http://www.w3.org/2000/svg">
<path d="M0 12.8C0 5.73075 5.73076 0 12.8 0H19.2C26.2692 0 32 5.73076 32 12.8V19.2C32 26.2692 26.2692 32 19.2 32H12.8C5.73075 32 0 26.2692 0 19.2V12.8Z" fill="#003976"/>
<path d="M15.9996 26.4016C21.7244 26.4016 26.3996 21.723 26.3996 15.9942C26.3996 10.2654 21.7244 5.60156 15.9996 5.60156C10.2748 5.60156 5.59961 10.2581 5.59961 15.9869C5.59961 21.7157 10.2748 26.3942 15.9996 26.3942V26.4016Z" fill="white"/>
<path d="M24.7629 21.5908C25.7978 19.9677 26.3996 18.0434 26.3996 15.9942C26.3996 13.9451 25.7978 12.0134 24.7629 10.4123V10.9631C25.629 12.4541 26.1207 14.1654 26.1207 15.9942C26.1207 17.823 25.629 19.5564 24.7629 21.0253V21.5908ZM24.7629 20.7609V15.3699C24.917 15.4287 25.2693 15.5976 25.3501 15.649C25.4088 15.6857 25.4235 15.7078 25.4602 15.7445C25.4822 15.7665 25.4822 15.8033 25.4822 15.8179C25.4822 15.8547 25.5189 15.8547 25.5189 15.8547C25.5409 15.8547 25.5556 15.8326 25.5556 15.7959L25.5189 15.605V15.414C25.5189 15.414 25.4969 15.3773 25.4822 15.3773C25.4455 15.3773 25.4455 15.3993 25.4455 15.414C25.4455 15.4287 25.4235 15.4507 25.4088 15.4507C25.3941 15.4507 25.3721 15.4507 25.3134 15.4287C25.2914 15.4287 25.1592 15.3699 25.0492 15.3185C24.9391 15.2598 24.8436 15.223 24.8069 15.2083C24.829 15.1863 24.8436 15.1863 24.8436 15.1863C24.9758 15.0908 25.2767 14.8631 25.3134 14.8485C25.3354 14.8485 25.3501 14.8264 25.3721 14.8264H25.3941V14.8485C25.3941 14.8485 25.4161 14.8852 25.4308 14.8852H25.4528L25.4748 14.8485L25.4528 14.6942L25.4308 14.6355V14.3931L25.4088 14.3564H25.3868C25.3868 14.3564 25.3501 14.3564 25.3501 14.3931C25.3501 14.3931 25.3501 14.4518 25.328 14.4665C25.306 14.5033 25.2693 14.562 25.218 14.5987C25.1446 14.6575 24.895 14.8411 24.7629 14.9366V13.5411C24.895 13.5044 25.0051 13.4824 25.0492 13.4677C25.0492 13.4897 25.1079 13.6953 25.1079 13.6953C25.1299 13.7321 25.1299 13.7688 25.1299 13.8055C25.1299 13.8643 25.1079 13.901 25.0932 13.9157H25.0565C25.0565 13.9157 25.0198 13.9377 25.0198 13.9524V13.9744C25.0198 13.9744 25.0565 13.9965 25.0785 13.9965L25.306 13.9377C25.306 13.9377 25.328 13.9157 25.3427 13.901V13.879L25.3207 13.8569C25.3207 13.8569 25.284 13.7982 25.262 13.7027L25.0565 12.9829L24.9978 12.792V12.7332V12.6965C24.9978 12.6965 24.9611 12.6744 24.9391 12.6744C24.9391 12.6744 24.8436 12.6965 24.7703 12.6965V11.1908C25.5409 12.601 25.9959 14.2462 25.9959 15.9575C25.9959 17.6688 25.5409 19.314 24.7703 20.7315L24.7629 20.7609ZM24.7629 13.2914V12.8213H24.7996C24.8363 12.8213 24.8583 12.8581 24.895 12.9756C24.895 12.9756 24.9537 13.2033 24.9684 13.2179C24.9464 13.24 24.873 13.2547 24.7629 13.2914ZM24.4033 22.1196C24.5354 21.9507 24.6455 21.7598 24.7629 21.5908V21.0253C24.6528 21.2309 24.5354 21.4219 24.4033 21.6129V22.1196ZM24.7629 10.4123C24.6528 10.2213 24.5354 10.0524 24.4033 9.88348V10.3756C24.5354 10.5665 24.6455 10.7722 24.7629 10.9631V10.4123ZM24.7629 11.2202V12.7259C24.7629 12.7259 24.7262 12.7259 24.7042 12.7479C24.7042 12.7479 24.6675 12.7479 24.6822 12.7846C24.6822 12.8066 24.7042 12.8066 24.7189 12.8066L24.7556 12.8287V13.2987C24.6455 13.3208 24.5134 13.3722 24.3959 13.3942V12.0575C24.4326 12.0575 24.4547 12.0355 24.4693 12.0355C24.528 11.9987 24.5427 11.9987 24.5794 12.0355L24.6014 12.0942C24.6014 12.0942 24.6381 12.1309 24.6602 12.1163C24.6822 12.0942 24.6602 12.0575 24.6602 12.0575L24.6014 11.9253L24.5427 11.8518L24.4473 11.6242C24.4473 11.6242 24.4106 11.5654 24.3886 11.5874V10.6253C24.5207 10.8163 24.6308 11.0219 24.7482 11.2276L24.7629 11.2202ZM24.7629 13.5558V14.9513C24.7262 14.988 24.7042 14.988 24.7042 15.01C24.6455 15.0321 24.6088 15.0468 24.4987 15.0688H24.4033V13.6733C24.4987 13.6513 24.6308 13.5999 24.7629 13.5631V13.5558ZM24.7629 15.3699V20.7609C24.6528 20.9665 24.5354 21.1722 24.4033 21.3852V18.7485C24.5721 18.7485 24.7042 18.6163 24.7042 18.4473C24.7042 18.2784 24.5721 18.1462 24.4033 18.1462V15.3552C24.44 15.3552 24.5354 15.3332 24.5354 15.3332C24.5941 15.3332 24.6455 15.3332 24.7262 15.3552C24.7262 15.3552 24.7482 15.3552 24.7629 15.3773V15.3699ZM24.4033 11.749C24.4033 11.749 24.4253 11.7123 24.4253 11.6903L24.4033 11.6535V11.749ZM23.8969 22.7586C24.0877 22.553 24.2565 22.3473 24.4033 22.1196V21.6129C24.2565 21.8552 24.0803 22.0829 23.8969 22.3106V22.766V22.7586ZM24.4033 9.88348C24.2565 9.6558 24.0803 9.45015 23.8969 9.2445V9.69987C24.0877 9.92755 24.2565 10.1552 24.4033 10.3756V9.88348ZM24.4033 10.6179V11.5801C24.4033 11.5801 24.3813 11.6021 24.3813 11.6389L24.4033 11.6609V11.7564C24.4033 11.7564 24.3813 11.7784 24.3446 11.7931L23.9849 11.962L23.8895 12.0208V11.0219L23.9849 10.9485H24.0216V10.8897C23.9996 10.8309 23.9629 10.7575 23.9115 10.662C23.9115 10.64 23.8895 10.64 23.8895 10.64V9.90552C24.0803 10.1332 24.2492 10.3756 24.3959 10.6253L24.4033 10.6179ZM24.4033 12.0501V13.3869C24.3079 13.4236 24.2345 13.4456 24.2345 13.4456C24.1024 13.4824 23.9923 13.5191 23.8969 13.5411V12.2999C23.9923 12.2631 24.1024 12.2044 24.1024 12.2044C24.2712 12.1309 24.3446 12.0942 24.4033 12.0501ZM24.4033 13.6733V15.0688L24.3446 15.0908H24.1537C24.117 15.0908 24.0803 15.0908 24.0583 15.0541L24.0363 14.9953V14.9586H24.0143C23.9776 14.9586 23.9776 14.9953 23.9776 15.0174L23.9996 15.1496L24.0216 15.2451V15.3405L24.0436 15.5462C24.0436 15.5462 24.0436 15.5829 24.0657 15.5829L24.0877 15.605L24.1097 15.5829V15.4507C24.1097 15.414 24.1317 15.392 24.2051 15.3773L24.3739 15.3552H24.4106V18.1462C24.2418 18.1462 24.1097 18.2784 24.1097 18.4473C24.1097 18.6163 24.2418 18.7485 24.4106 18.7485V21.3852C24.2638 21.6276 24.0877 21.8552 23.9042 22.105V21.5394L23.9262 21.5174C23.9262 21.5174 23.9262 21.4953 23.9042 21.4953V13.8422L23.9262 13.8202C23.9996 13.7835 24.1537 13.7468 24.3225 13.71C24.3225 13.71 24.3592 13.688 24.418 13.6733H24.4033ZM23.3684 23.3242C23.5592 23.1552 23.7281 22.9496 23.8969 22.7586V22.3033C23.7281 22.5089 23.5592 22.7219 23.3684 22.9055V23.3168V23.3242ZM23.8969 9.23716C23.7281 9.03151 23.5592 8.84055 23.3684 8.64959V9.06088C23.5592 9.26653 23.7281 9.47218 23.8969 9.68518V9.22981V9.23716ZM23.8969 9.89817V10.6326C23.7647 10.427 23.5372 10.3682 23.3684 10.4637V9.25919C23.5592 9.46484 23.7281 9.67049 23.8969 9.89817ZM23.8969 11.0146L23.8235 11.0513C23.8235 11.0513 23.7647 11.088 23.7501 11.0733C23.7501 11.0513 23.7281 11.0366 23.7721 11.0146C23.7941 10.9925 23.8308 10.9558 23.8455 10.9044C23.8675 10.8677 23.8675 10.7942 23.8088 10.6987C23.7721 10.64 23.7134 10.6033 23.6547 10.6033C23.618 10.5812 23.5813 10.6033 23.5446 10.6253C23.4712 10.662 23.4492 10.7355 23.4345 10.9485V11.0072C23.4345 11.1614 23.4125 11.2496 23.3758 11.3304V12.2705C23.4492 12.2338 23.5666 12.175 23.6987 12.1163L23.9042 12.0208V11.0219L23.8969 11.0146ZM23.8969 12.2925V13.5338H23.8381C23.7794 13.5558 23.7427 13.5558 23.7427 13.5338L23.706 13.4603L23.684 13.4383H23.662C23.662 13.4383 23.64 13.4383 23.64 13.497L23.6987 13.6292L23.7207 13.7247L23.7427 13.7982L23.8014 14.0038C23.8235 14.0626 23.8381 14.0405 23.8602 14.0405C23.8602 14.0405 23.8822 14.0405 23.8822 14.0185V13.9965L23.8602 13.901V13.879C23.8602 13.8422 23.8822 13.8202 23.8969 13.8202V21.4733C23.8602 21.4366 23.7647 21.3631 23.7647 21.3411C23.7647 21.3631 23.706 21.3999 23.6547 21.4733C23.5959 21.4366 23.4858 21.3411 23.3758 21.2456V17.8671C23.5446 17.2648 23.618 16.6259 23.618 15.9428C23.618 15.2598 23.5446 14.6428 23.3758 14.0185V12.7185L23.4125 12.7405H23.4345L23.4565 12.7185L23.4345 12.6818L23.3978 12.6083C23.3978 12.5496 23.4198 12.5349 23.4565 12.5129C23.5152 12.4541 23.6473 12.4027 23.8161 12.3219C23.8161 12.3219 23.8748 12.2999 23.9115 12.2631L23.8969 12.2925ZM23.8969 21.5321V22.0976C23.7281 22.3033 23.5592 22.5163 23.3684 22.7219V22.1784C23.5959 21.914 23.8381 21.6129 23.8969 21.5394V21.5321ZM23.3684 21.8552C23.3904 21.8185 23.4271 21.7598 23.4785 21.701C23.4565 21.679 23.4051 21.6422 23.3684 21.6055V21.8479V21.8552ZM22.6712 23.9631C22.9134 23.7722 23.1409 23.5445 23.3684 23.3242V22.9129C23.1409 23.1552 22.9134 23.3829 22.6712 23.5886V23.9631ZM23.3684 8.65693C23.1409 8.42925 22.9134 8.2236 22.6712 8.01795V8.39252C22.9134 8.62021 23.1409 8.84789 23.3684 9.06823V8.65693ZM23.3684 9.25919V10.4637L23.3464 10.4857C23.1923 10.5812 23.1409 10.7281 23.1189 10.9925V11.1027C23.0969 11.2937 23.0455 11.3451 22.9721 11.4038C22.8987 11.4626 22.7666 11.4626 22.6712 11.3304V11.0072C22.7079 10.9852 22.7299 10.9485 22.7446 10.9485L22.7666 10.9117V10.8897C22.7446 10.853 22.7079 10.8677 22.6932 10.8897L22.6712 10.9117V9.91286C22.7079 9.89083 22.7666 9.87614 22.8033 9.81738C22.8987 9.7219 22.9134 9.5897 22.8987 9.53094C22.8767 9.39874 22.7886 9.30326 22.7079 9.20778L22.6712 9.18574V8.54676C22.9134 8.77444 23.1409 9.00213 23.3684 9.2445V9.25919ZM23.3684 11.3157C23.3317 11.4259 23.273 11.4846 23.1996 11.5434C23.1262 11.6021 22.9941 11.6535 22.8033 11.6021C22.7666 11.5654 22.7079 11.5434 22.6712 11.5066V12.3146C22.9721 12.8434 23.1996 13.4456 23.3684 14.0479V12.7479L23.273 12.5422L23.2363 12.4688L23.1996 12.3953L23.1262 12.2631C23.1042 12.2264 23.1262 12.2044 23.1482 12.2044L23.1703 12.1824L23.1923 12.2191L23.229 12.2778C23.229 12.2778 23.2657 12.2999 23.3244 12.2778C23.3464 12.2778 23.3611 12.2558 23.3831 12.2558V11.3157H23.3684ZM23.3684 17.8965V21.275C23.1262 21.0473 22.7813 20.7829 22.6712 20.6874V19.6518C22.9721 19.1083 23.1996 18.5208 23.3684 17.8965ZM23.3684 21.6055C23.1629 21.4366 22.8033 21.1502 22.6712 21.0179V21.8112C22.7666 21.8846 23.1042 22.1711 23.1042 22.1711L23.1776 22.0609C23.1776 22.0609 22.7446 21.701 22.7225 21.6863C22.7446 21.6643 22.8767 21.4953 22.8914 21.4953C22.906 21.4953 23.3464 21.8699 23.3464 21.8699C23.3464 21.8699 23.3464 21.8479 23.3684 21.8479V21.6055ZM23.3684 22.1784V22.7219C23.1409 22.9643 22.9134 23.192 22.6712 23.4196V22.1196L22.9501 22.362C22.9501 22.362 22.7592 22.5677 22.7446 22.5897C22.7666 22.6117 22.8914 22.7219 22.9134 22.7219C22.9134 22.7219 23.1409 22.4575 23.3684 22.1784ZM22.3703 24.2129C22.4803 24.1394 22.5758 24.0586 22.6712 23.9705V23.5959C22.5758 23.6914 22.4803 23.7648 22.3703 23.8383V24.2129ZM22.6712 8.01795C22.5758 7.9445 22.4803 7.86371 22.3703 7.79026V8.15015C22.4803 8.2236 22.5758 8.31908 22.6712 8.39252V8.01795ZM22.6712 8.56145V9.20043L22.5024 9.03151L22.4657 8.99478L22.3703 8.8993V8.31173C22.4803 8.38518 22.5758 8.48066 22.6712 8.5541V8.56145ZM22.6712 9.92021V10.9191C22.6125 10.9558 22.4803 11.0292 22.4803 11.0292C22.4436 11.0513 22.4436 11.066 22.4436 11.088V11.11C22.4657 11.2055 22.5024 11.279 22.5537 11.3744C22.5904 11.4332 22.6271 11.4699 22.6638 11.5066V12.3146C22.5684 12.1456 22.473 11.9767 22.3629 11.8225V9.97162C22.495 9.97162 22.5904 9.94958 22.6638 9.91286L22.6712 9.92021ZM22.6712 11.0292C22.5978 11.1394 22.6345 11.2569 22.6712 11.3083V11.0292ZM22.6712 19.6445V20.6801C22.6345 20.6434 22.6125 20.6434 22.6125 20.6434C22.6125 20.6434 22.517 20.7535 22.3703 20.9225V20.1292C22.4803 19.9603 22.5758 19.8061 22.6712 19.6372V19.6445ZM22.6712 21.0253V21.8185C22.6712 21.8185 22.6492 21.7965 22.6345 21.7965C22.6345 21.7965 22.4657 22.0021 22.4436 22.0242C22.4657 22.0242 22.4657 22.0462 22.4803 22.0462C22.4803 22.0462 22.5537 22.0462 22.5904 22.0829L22.6638 22.1196V23.4196C22.5684 23.5151 22.473 23.5886 22.3629 23.684V21.253C22.495 21.0987 22.6051 20.9886 22.6051 20.9886C22.6051 20.9886 22.6271 21.0106 22.6638 21.0253H22.6712ZM22.3703 9.82473V9.35467L22.5024 9.22247H22.5244C22.5244 9.22247 22.5831 9.25919 22.5978 9.29591C22.6345 9.33264 22.6712 9.40608 22.6712 9.46484C22.6712 9.56032 22.6345 9.63377 22.5611 9.70721C22.4877 9.78066 22.429 9.81738 22.3703 9.81738V9.82473ZM21.4822 24.8298C21.7831 24.6389 22.084 24.4332 22.3703 24.2055V23.8309C22.0914 24.0733 21.7831 24.2863 21.4822 24.492V24.8298ZM22.3703 7.79026C22.0914 7.56258 21.7831 7.35693 21.4822 7.16597V7.50382C21.7831 7.69478 22.084 7.92247 22.3703 8.14281V7.78292V7.79026ZM22.3703 8.31908V8.90665L22.3336 8.86992C22.3336 8.86992 22.2969 8.8332 22.2748 8.8332L22.2528 8.85523V8.87727L22.2748 8.91399L22.3115 8.95072C22.3482 9.00947 22.3482 9.02416 22.2895 9.08292L22.0253 9.36201L21.7831 9.60439C21.651 9.71456 21.5556 9.83207 21.4822 9.86879V9.89083V8.56879C21.4822 8.56879 21.5042 8.56879 21.5189 8.54676L21.5776 8.488L21.5996 8.45128L21.6583 8.37783L21.6803 8.3558V8.31908L21.6583 8.29704H21.6363L21.5629 8.26032C21.5629 8.26032 21.5262 8.23829 21.4895 8.20156V7.65806C21.7904 7.86371 22.0914 8.06936 22.3776 8.31908H22.3703ZM22.3703 9.35467L22.0914 9.64111V9.66314C22.1134 9.69987 22.1501 9.73659 22.1868 9.77331C22.2235 9.83207 22.2455 9.83207 22.2822 9.84676C22.3189 9.84676 22.3409 9.84676 22.3776 9.82473V9.35467H22.3703ZM22.3703 9.97896C22.3703 9.97896 22.3336 9.95693 22.3115 9.95693V10.0524C22.2895 10.2801 22.2528 10.449 22.2528 10.5959C22.2528 10.7502 22.2895 10.8016 22.3115 10.8236L22.3482 10.8603C22.3482 10.8603 22.3703 10.8824 22.3703 10.897C22.3703 10.897 22.3703 10.9191 22.3482 10.9191H22.3262L22.2895 10.897L22.1574 10.7869C22.084 10.7134 22.062 10.6547 22.0473 10.5959C22.0253 10.5592 22.0253 10.5225 22.0253 10.4857C22.0253 10.4123 22.0473 10.3168 22.0473 10.2213L22.084 10.0524L22.106 9.89817V9.86145C22.106 9.86145 21.9959 9.76597 21.9959 9.75128L21.9739 9.77331C21.8418 9.90552 21.7317 10.001 21.695 10.0744C21.6583 10.0965 21.6583 10.1112 21.6583 10.1332C21.6583 10.1552 21.6583 10.1699 21.6803 10.1699L21.7391 10.2434V10.3021H21.717L21.6803 10.2801L21.5262 10.1259L21.4895 10.0891V10.7134C21.8271 11.0513 22.1134 11.4332 22.3776 11.8225V9.97162L22.3703 9.97896ZM22.3703 20.1366V20.9298C22.128 21.2309 21.7831 21.6496 21.7684 21.6643C21.7904 21.6643 21.9225 21.7744 21.9372 21.7965C21.9372 21.7744 22.1794 21.4953 22.3703 21.2456V23.6767C22.0914 23.9044 21.7831 24.1321 21.4822 24.3377V21.2456C21.8198 20.9078 22.106 20.5259 22.3703 20.1366ZM20.895 25.175C21.1005 25.0648 21.2914 24.9473 21.4822 24.8372V24.4993C21.2914 24.6095 21.1079 24.7417 20.895 24.8372V25.175ZM21.4822 7.16597C21.2914 7.03377 21.1079 6.9236 20.895 6.82812V7.15128C21.1005 7.26145 21.2914 7.37896 21.4822 7.51117V7.17331V7.16597ZM21.4822 7.65806V8.20156C21.3721 8.14281 21.2033 8.0106 21.1592 7.99591L21.0858 7.93716L20.9537 7.84168C20.9537 7.84168 20.917 7.81964 20.895 7.81964V7.29083C21.1005 7.401 21.2914 7.51851 21.4822 7.65072V7.65806ZM21.4822 8.39252C21.4822 8.39252 21.4602 8.3558 21.4235 8.33377C21.4014 8.31173 21.2547 8.20156 21.218 8.17953H21.1959L20.9317 8.57614C21.0638 8.67162 21.1592 8.73038 21.1739 8.74507C21.2106 8.7671 21.2473 8.78179 21.2693 8.78179C21.2914 8.75975 21.306 8.75975 21.306 8.78179H21.328V8.81851H21.306L21.2326 8.91399L21.1592 9.02416C21.1592 9.02416 21.1225 9.06088 21.1005 9.0462C21.1005 9.0462 21.0932 9.03395 21.0785 9.00947L21.1005 8.98744L21.1225 8.95072V8.91399C21.1225 8.91399 21.1225 8.87727 21.0858 8.84055C21.0638 8.81851 20.9537 8.74507 20.895 8.70834V9.38405C20.9317 9.36201 20.9537 9.34733 20.9904 9.3106C21.0125 9.3106 21.0271 9.28857 21.0492 9.28857L21.0712 9.3106L21.0492 9.36936C21.0271 9.40608 20.9391 9.50156 20.917 9.5236C20.895 9.5236 20.895 9.54563 20.895 9.54563V10.1699C21.1005 10.3389 21.2914 10.5078 21.4822 10.7134V10.0891L21.4602 10.0671L21.4014 10.0304L21.2914 9.92021L21.2693 9.88348L21.2914 9.86145L21.3134 9.83942L21.3501 9.86145L21.3868 9.89817C21.3868 9.89817 21.4455 9.89817 21.4822 9.87614V8.5541H21.4602L21.4381 8.53207L21.4602 8.49535C21.4602 8.49535 21.4822 8.47331 21.4822 8.45862V8.38518V8.39252ZM21.4822 21.253V24.3451C21.2914 24.4552 21.1079 24.5874 20.895 24.705V21.8038C21.1005 21.6349 21.2914 21.4439 21.4822 21.253ZM20.895 8.15015C20.9317 8.11343 20.9537 8.0767 20.9537 8.05467C20.9904 7.99591 20.9904 7.98122 20.9537 7.9445L20.895 7.88574V8.15015ZM20.2932 25.4761C20.4987 25.3807 20.7042 25.2852 20.895 25.175V24.8372C20.7042 24.9473 20.4987 25.0648 20.2932 25.1603V25.4835V25.4761ZM20.895 6.82812C20.7042 6.71795 20.4987 6.62247 20.2932 6.52699V6.85015C20.4987 6.94563 20.7042 7.04111 20.895 7.15128V6.82812ZM20.895 7.29817V7.82699C20.895 7.82699 20.873 7.82699 20.873 7.84902V7.87105L20.895 7.89309V8.15749C20.8583 8.21625 20.8216 8.2897 20.7409 8.39987L20.5501 8.67896C20.44 8.81117 20.3592 8.94337 20.3079 9.00213C20.3079 9.02416 20.2858 9.02416 20.2858 9.03885V7.60665L20.3225 7.58461C20.3592 7.58461 20.3959 7.58461 20.418 7.60665H20.4547L20.4767 7.58461C20.4767 7.58461 20.44 7.54789 20.44 7.52586L20.3299 7.48913L20.2932 7.4671V6.97501C20.4987 7.07049 20.7042 7.18066 20.895 7.29817ZM20.895 8.71569C20.895 8.71569 20.873 8.69365 20.8583 8.69365L20.7849 8.82586L20.7262 8.88461L20.6161 9.07557C20.5794 9.1123 20.5794 9.13433 20.5794 9.17105C20.5794 9.20778 20.6161 9.2445 20.7115 9.30326C20.7482 9.33998 20.8216 9.3767 20.8657 9.39874H20.9024V8.72303L20.895 8.71569ZM20.895 9.54563V10.1699C20.7042 10.001 20.4987 9.84676 20.2932 9.71456V9.18574L20.3519 9.20778L20.462 9.30326L20.7849 9.53094C20.8436 9.56766 20.8583 9.56766 20.895 9.55297V9.54563ZM20.895 21.7965V24.6976C20.7042 24.8078 20.4987 24.9033 20.2932 24.9987V24.323C20.3886 24.2643 20.4473 24.2496 20.4473 24.2496C20.4473 24.2496 20.6014 24.5507 20.6161 24.5727C20.6161 24.5507 20.8436 24.4626 20.8583 24.4626C20.8363 24.4405 20.6161 23.9558 20.5941 23.9338C20.5941 23.9338 20.462 24.0072 20.2932 24.088V23.9191V23.9411C20.2932 23.9411 20.5207 23.8309 20.5354 23.8089L20.4033 23.5445C20.4033 23.5445 20.6308 23.4343 20.6455 23.4343C20.6235 23.4123 20.5721 23.2654 20.5501 23.2434C20.5501 23.2654 20.3225 23.3756 20.3225 23.3756C20.3225 23.3756 20.3005 23.3389 20.2858 23.3021V22.2665C20.4914 22.1343 20.6969 21.9801 20.8877 21.8112L20.895 21.7965ZM19.8822 25.6451C20.0143 25.5863 20.1611 25.5349 20.2932 25.4761V25.153C20.1611 25.2117 20.0069 25.2852 19.8822 25.3439V25.6451ZM20.2932 6.52699C20.1611 6.45354 20.0069 6.39478 19.8822 6.33603V6.65919C20.0143 6.71795 20.1611 6.76936 20.2932 6.85015V6.52699ZM20.2932 6.97501V7.4671H20.2712L20.2345 7.44507L20.0803 7.37162C20.0803 7.37162 20.0216 7.34959 20.0069 7.39365C20.0069 7.39365 20.029 7.43038 20.0436 7.43038L20.1024 7.4671V7.50382C20.1024 7.50382 20.0803 7.52586 20.0657 7.54055L19.8748 7.7462V6.78405C20.0069 6.84281 20.1537 6.91625 20.2858 6.97501H20.2932ZM20.2932 7.5993C20.2932 7.5993 20.2345 7.63603 20.1831 7.69478L19.9556 7.90043L19.8822 7.97388V9.42812C20.0143 9.5236 20.1611 9.61908 20.2932 9.70721V9.1784L20.2712 9.15636L20.1391 9.06088L20.1024 9.03885L20.1244 9.00213H20.1831L20.2418 9.03885C20.2418 9.03885 20.2785 9.03885 20.3005 9.01682V7.58461L20.2932 7.5993ZM20.2932 22.2518V23.2874C20.2345 23.1773 20.1244 22.9496 20.1244 22.9276C20.1244 22.9276 19.9556 23.001 19.8822 23.0598V22.5163C20.0143 22.4428 20.1611 22.3473 20.2932 22.2518ZM20.2932 23.9117C20.2565 23.8383 19.9336 23.1773 19.9336 23.1773C19.9115 23.1405 19.8969 23.1185 19.8748 23.1038V23.6914C19.9336 23.8016 19.9336 23.9338 19.8748 24.0513V24.2937C20.0069 24.2202 20.1537 24.1394 20.2858 24.088V23.9191L20.2932 23.9117ZM20.2932 24.323V24.9987C20.1611 25.0722 20.0069 25.1309 19.8822 25.2044V24.5066C20.0363 24.4332 20.1831 24.3524 20.2932 24.3157V24.323ZM19.728 25.7038C19.7647 25.6818 19.8235 25.6671 19.8822 25.6451V25.3439C19.8235 25.366 19.7721 25.3807 19.728 25.4027V25.7038ZM19.8822 6.33603C19.8235 6.31399 19.7721 6.2993 19.728 6.27727V6.60043C19.7647 6.62247 19.8235 6.63716 19.8822 6.65919V6.33603ZM19.8822 6.79139V7.75354L19.728 7.90778V6.73998C19.7647 6.76201 19.8235 6.7767 19.8822 6.79874V6.79139ZM19.8822 7.97388V9.42812C19.8235 9.40608 19.7721 9.36936 19.728 9.35467V8.11343L19.7647 8.0767L19.8748 7.98122L19.8822 7.97388ZM19.8822 22.5163V23.0598C19.8455 23.0598 19.8235 23.0818 19.8235 23.0818C19.8235 23.0818 19.8455 23.1038 19.8455 23.1185V23.0965H19.8822V23.662C19.8455 23.5886 19.7868 23.5518 19.728 23.5151V23.4196L19.8014 23.3829C19.8014 23.3829 19.7427 23.2874 19.728 23.2287V22.6044C19.7647 22.5677 19.8235 22.5456 19.8822 22.5089V22.5163ZM19.8822 24.0439V24.2863C19.8235 24.3083 19.7721 24.323 19.728 24.3598V24.2055C19.7868 24.1468 19.8381 24.0953 19.8822 24.0366V24.0439ZM19.8822 24.514V25.2117C19.8235 25.2338 19.7721 25.2485 19.728 25.2705V24.5948C19.7647 24.5728 19.8235 24.5581 19.8822 24.5213V24.514ZM19.4492 25.814C19.5446 25.7773 19.64 25.7405 19.728 25.7038V25.4027C19.6326 25.4394 19.5372 25.4761 19.4492 25.5129V25.814ZM19.728 6.27727C19.6326 6.24055 19.5372 6.20382 19.4492 6.18179V6.48292C19.5446 6.51964 19.64 6.55636 19.728 6.59309V6.26992V6.27727ZM19.728 6.73264V7.90043L19.6326 7.99591C19.6326 7.99591 19.5225 8.09139 19.4418 8.18687V7.188C19.4418 7.188 19.4785 7.21004 19.5005 7.21004C19.5372 7.23207 19.5592 7.21004 19.5592 7.188V7.16597C19.5592 7.16597 19.5372 7.14394 19.5225 7.14394L19.4492 7.10721V6.61512C19.5446 6.65184 19.64 6.68857 19.728 6.72529V6.73264ZM19.728 8.10608L19.4492 8.37049V9.20043C19.5446 9.25919 19.64 9.29591 19.728 9.35467V8.11343V8.10608ZM19.728 22.6117V23.236L19.706 23.1993C19.684 23.1993 19.5372 23.2727 19.4418 23.3315V22.766C19.5372 22.7072 19.6326 22.6705 19.7207 22.6117H19.728ZM19.728 23.4196V23.5151C19.6914 23.4931 19.6547 23.4784 19.618 23.4784C19.6547 23.4417 19.6914 23.4417 19.728 23.4196ZM19.728 24.2129V24.3671C19.618 24.4038 19.5225 24.4626 19.4492 24.4993V24.3304C19.5079 24.3083 19.5813 24.2937 19.64 24.2716C19.6767 24.2496 19.6987 24.2349 19.7354 24.2129H19.728ZM19.728 24.5874V25.2631C19.6326 25.2999 19.5372 25.3366 19.4492 25.3586V24.7196C19.4858 24.6976 19.6033 24.6462 19.728 24.5874ZM19.4492 24.1321V23.64C19.5446 23.64 19.618 23.6987 19.6547 23.7722C19.7134 23.9044 19.6767 24.0366 19.5592 24.0953C19.5225 24.1174 19.4858 24.1321 19.4492 24.1321ZM18.0547 26.1886C18.5244 26.0931 18.9941 25.9609 19.4492 25.814V25.5129C18.9941 25.6598 18.5244 25.792 18.0547 25.9095V26.1959V26.1886ZM19.4492 6.18913C18.9941 6.02021 18.5244 5.888 18.0547 5.79252V6.09365C18.5244 6.18913 18.9941 6.32134 19.4492 6.49026V6.18913ZM19.4492 6.62247V7.11456L19.3758 7.09252L19.3024 7.0558L19.2069 7.01908L19.0528 6.94563C19.0528 6.94563 19.0161 6.9236 18.9941 6.9236L18.9721 6.94563V6.96766L18.9941 7.00439L19.0675 7.02642C19.1042 7.08518 19.1409 7.09987 19.1262 7.21738V8.48066C19.1042 8.57614 19.1042 8.61286 19.1482 8.6349C19.1849 8.6349 19.2069 8.61286 19.2803 8.53942H19.3024L19.4565 8.38518V9.21512C19.0014 8.98744 18.5537 8.80382 18.062 8.67162V8.21625L18.1721 8.23829C18.2088 8.26032 18.2308 8.23829 18.2308 8.21625V8.19422L18.1941 8.17218L18.0987 8.15015C18.062 8.12812 18.062 8.11343 18.062 8.09139V8.05467C18.062 7.95919 18.0987 7.8123 18.1354 7.63603L18.2308 7.31286L18.3262 6.91625C18.3482 6.85749 18.3629 6.84281 18.3996 6.84281H18.495L18.517 6.82077C18.517 6.82077 18.4803 6.78405 18.4583 6.78405L18.3262 6.74733L18.2308 6.72529L18.062 6.68857V6.21851C18.5317 6.31399 19.0014 6.4462 19.4565 6.61512L19.4492 6.62247ZM19.4492 7.188L19.4271 7.21004C19.4051 7.23207 19.4051 7.26879 19.4051 7.36427C19.4051 7.36427 19.3684 8.21625 19.3684 8.26766C19.3904 8.24563 19.4051 8.23094 19.4418 8.19422V7.19535L19.4492 7.188ZM19.4492 22.7586V23.3242C19.4125 23.3462 19.3758 23.3609 19.3758 23.3609L19.317 23.2287C19.317 23.2287 19.0308 23.3609 19.0161 23.3609C19.0161 23.3829 19.0161 23.3976 19.0381 23.3976C19.0381 23.3976 19.0969 23.4196 19.1336 23.4564V23.4784L18.7739 23.6473C18.7739 23.6473 18.8473 23.8163 18.8473 23.8383C18.8693 23.8383 18.9207 23.8016 19.0161 23.7648C18.9794 23.875 18.9574 23.9925 19.0161 24.1027C19.0895 24.2496 19.2583 24.3451 19.4492 24.3304V24.4993C19.3904 24.5213 19.3537 24.536 19.3391 24.536C19.3611 24.5581 19.4345 24.727 19.4345 24.727H19.4565V25.366C19.0014 25.5349 18.5317 25.6671 18.062 25.7773V23.2874C18.5537 23.1552 19.0014 22.9863 19.4565 22.7586H19.4492ZM19.4492 23.6473C19.4125 23.6473 19.3758 23.6473 19.3391 23.6694C19.229 23.7281 19.1849 23.875 19.2436 23.9925C19.2803 24.088 19.3537 24.1247 19.4492 24.1394V23.6473ZM15.9996 26.4016C16.6969 26.4016 17.3941 26.3281 18.0547 26.1959V25.9095C17.3941 26.0417 16.6969 26.1151 15.9996 26.1151V26.4016ZM18.0547 5.79252C17.3941 5.66032 16.6969 5.60156 15.9996 5.60156V5.888C16.6969 5.888 17.3941 5.96145 18.0547 6.09365V5.79252ZM18.0547 6.22586V6.69591L17.9813 6.67388H17.9225V6.7106L17.9592 6.73264L18.018 6.75467C18.018 6.75467 18.04 6.7767 18.0547 6.79139V6.86484L17.9592 7.26145L17.8858 7.58461C17.8271 7.75354 17.8125 7.90778 17.7758 7.98122C17.7537 8.03998 17.7391 8.05467 17.717 8.05467L17.6436 8.03264L17.6069 8.05467V8.09139L17.6436 8.11343L17.7978 8.15015L17.8712 8.17218L17.9666 8.19422L18.062 8.21625V8.67162C17.4235 8.50269 16.7409 8.40721 16.0436 8.40721H16.0069V7.95184H16.029C16.029 7.95184 16.0877 7.95184 16.0877 7.91512V7.89309L16.029 7.87105H16.0069V7.01908C16.0803 7.11456 16.2125 7.24676 16.3299 7.37896L16.5574 7.64337L16.8583 7.96653C16.8583 7.96653 16.917 8.00326 16.9317 8.00326C16.9684 8.00326 16.9684 7.9445 16.9684 7.92981L17.0418 6.72529C17.0638 6.62981 17.0785 6.59309 17.1152 6.59309H17.1519L17.2106 6.57105V6.54902C17.2106 6.5123 17.1739 6.5123 17.1519 6.5123H16.9097L16.7409 6.49026C16.7042 6.49026 16.6822 6.49026 16.6822 6.5123L16.6602 6.53433C16.6602 6.53433 16.6822 6.57105 16.7189 6.57105H16.8143C16.851 6.59309 16.851 6.62981 16.851 6.72529V7.57727C16.8143 7.54055 16.7409 7.44507 16.7409 7.44507L16.4547 7.14394C16.2858 6.95297 16.117 6.74733 15.9996 6.63716V6.0349C16.6969 6.0349 17.3941 6.09365 18.0547 6.24055V6.22586ZM18.0547 23.2874V25.7773C17.3941 25.9095 16.6969 25.9829 15.9996 25.9829V25.3807H16.1097V25.7038H16.3739V24.705H16.484V25.7038H16.7482V24.0219H16.484V24.4773H16.3739V24.0219H16.051V24.0586C16.0877 24.0586 16.1097 24.1174 16.1097 24.1688V25.1677H15.9996V23.5665H16.0363C16.7336 23.5665 17.4088 23.4711 18.0547 23.2801V23.2874ZM15.9996 5.60156C15.3758 5.60156 14.7592 5.66032 14.1501 5.7558V6.05693C14.7519 5.94676 15.3758 5.888 15.9996 5.888V5.60156ZM14.1501 26.2253C14.7519 26.3355 15.3758 26.3942 15.9996 26.3942V26.1078C15.3758 26.1078 14.7592 26.049 14.1501 25.9389V26.2179V26.2253ZM15.9996 6.02021V6.62247C15.9262 6.54902 15.8895 6.49026 15.8895 6.49026L15.8675 6.46823C15.8675 6.46823 15.8308 6.43151 15.8088 6.40947L15.7868 6.43151C15.7868 6.43151 15.7647 6.46823 15.7647 6.50495L15.6914 7.61399C15.6914 7.78292 15.6693 7.84168 15.6326 7.84168H15.5592C15.5225 7.84168 15.5005 7.86371 15.5005 7.8784L15.5225 7.90043C15.5225 7.90043 15.5446 7.92247 15.5592 7.92247H15.8235L15.9923 7.9445V8.39987C15.3537 8.39987 14.7299 8.47331 14.1427 8.62755V8.13546C14.2748 8.15749 14.3849 8.13546 14.4436 8.13546C14.5537 8.09874 14.6858 8.06201 14.8033 7.90778C14.9574 7.73885 14.9354 7.51117 14.8767 7.30552L14.84 7.09987L14.7666 6.70326C14.7666 6.6445 14.7666 6.60778 14.8033 6.59309H14.862C14.862 6.59309 14.9207 6.57105 14.8987 6.53433C14.8987 6.53433 14.8987 6.5123 14.8767 6.5123H14.84L14.6858 6.54902L14.6271 6.57105H14.6051L14.3996 6.60778C14.3996 6.60778 14.3629 6.60778 14.3629 6.62981V6.66653H14.473C14.5317 6.66653 14.5464 6.68857 14.5684 6.73998L14.6418 7.13659L14.6785 7.36427C14.7152 7.56992 14.7519 7.72416 14.6785 7.85636C14.6051 7.95184 14.4877 7.98857 14.4363 7.98857C14.3776 8.0106 14.3042 8.0106 14.2088 7.96653C14.1868 7.9445 14.1501 7.92981 14.1354 7.90778V6.18913C14.7372 6.07896 15.3611 6.02021 15.9849 6.02021H15.9996ZM15.9996 7.01908C15.9629 6.98235 15.9409 6.94563 15.9262 6.90891C15.9262 6.90891 15.9042 6.90891 15.9042 6.88687C15.9042 6.96032 15.8822 7.65806 15.8822 7.65806V7.68009C15.8822 7.83433 15.9042 7.84902 15.9409 7.87105H15.9996V7.01908ZM15.9996 23.5665V25.1677H15.4712V24.2643H15.9042V24.0586H15.1336V24.0953C15.1703 24.0953 15.2069 24.1541 15.2069 24.2055V25.3733H15.9996V25.9756C15.3758 25.9756 14.7592 25.9168 14.1501 25.8066V23.3168C14.7372 23.4711 15.3537 23.5592 15.9996 23.5592V23.5665ZM14.1501 5.7558C13.6436 5.85128 13.1519 5.98348 12.6602 6.15241V6.45354C13.1519 6.28461 13.6363 6.15241 14.1501 6.05693V5.7558ZM12.6675 25.8507C13.1592 26.0196 13.6436 26.1372 14.1574 26.2253V25.9462C13.651 25.8507 13.1592 25.7185 12.6675 25.5496V25.8507ZM14.1501 6.18913V7.90778C14.0914 7.84902 14.04 7.75354 13.9959 7.5332L13.9372 7.29083L13.8638 6.89422C13.8418 6.82077 13.8638 6.79874 13.9005 6.78405L13.9592 6.76201C13.9959 6.76201 13.9959 6.73998 13.9959 6.72529C13.9739 6.68857 13.9372 6.70326 13.9225 6.70326L13.7904 6.72529L13.695 6.76201H13.5996L13.4308 6.79874C13.4308 6.79874 13.3941 6.82077 13.3721 6.82077V6.84281L13.3941 6.86484L13.4308 6.88687L13.5042 6.86484C13.5409 6.86484 13.5629 6.88687 13.5776 6.93829C13.5996 7.01173 13.6143 7.04846 13.673 7.3349L13.7097 7.62134C13.7684 7.86371 13.8418 8.01795 13.9959 8.09139C14.0326 8.12812 14.0914 8.15015 14.1501 8.15015V8.64224C13.6216 8.77444 13.1299 8.9654 12.6602 9.19309V6.5784C13.1519 6.40947 13.6363 6.27727 14.1501 6.18179V6.18913ZM14.1501 23.3242V25.814C13.6436 25.7185 13.1519 25.5863 12.6602 25.4174V24.5654C12.8657 24.11 13.1299 23.5445 13.1299 23.5298C13.1299 23.5298 12.9024 23.4343 12.8877 23.4196C12.8877 23.4196 12.7923 23.6473 12.6602 23.9264V23.662C12.7336 23.4931 12.7923 23.3829 12.7923 23.3829C12.7923 23.3829 12.7336 23.3462 12.6602 23.3242V22.7807C13.1299 23.023 13.6216 23.192 14.1501 23.3242ZM12.6675 6.15241C12.5134 6.18913 12.3666 6.24789 12.2125 6.30665V6.62981C12.3666 6.57105 12.5134 6.51964 12.6675 6.46088V6.15975V6.15241ZM12.2125 25.6818C12.3666 25.7405 12.5134 25.792 12.6675 25.8507V25.5496C12.5134 25.4908 12.3666 25.4394 12.2125 25.3807V25.6818ZM12.6675 6.5784V9.16371C12.5134 9.23716 12.3666 9.33264 12.2125 9.40608V8.87727L12.2712 8.85523L12.3446 8.79648L12.5354 8.701C12.5721 8.67896 12.5721 8.66427 12.5721 8.66427L12.5501 8.64224H12.5134L12.418 8.67896C12.3813 8.701 12.3592 8.67896 12.3225 8.64224C12.3005 8.60552 12.2638 8.53207 12.2125 8.45128V6.75467C12.3666 6.69591 12.5134 6.6445 12.6675 6.58574V6.5784ZM12.6675 22.7807V23.3242C12.6088 23.2874 12.5354 23.2507 12.5354 23.2507C12.5354 23.2507 12.5134 23.2727 12.5134 23.2874C12.5134 23.2874 12.5354 23.3609 12.5134 23.4196L12.3813 23.7061C12.3813 23.7061 12.2858 23.6473 12.2125 23.6326V23.214C12.2125 23.214 12.2345 23.192 12.2492 23.1773C12.2492 23.1773 12.2271 23.1552 12.2125 23.1552V22.5309C12.3666 22.6264 12.5134 22.6999 12.6675 22.7733V22.7807ZM12.6675 23.662C12.5354 23.9264 12.3446 24.3598 12.2125 24.6242V24.9033C12.2858 24.7343 12.4987 24.279 12.6675 23.9191V23.6547V23.662ZM12.6675 24.5727V25.4247C12.5134 25.366 12.3666 25.3146 12.2125 25.2558V24.9767C12.2858 25.0134 12.418 25.0722 12.44 25.0722C12.44 25.0722 12.5501 24.8445 12.6675 24.5801V24.5727ZM12.2125 24.0586V23.853C12.2712 23.875 12.3079 23.8897 12.3079 23.8897C12.3079 23.8897 12.2712 23.9631 12.2125 24.0586ZM12.2125 6.2993C12.1391 6.33603 12.0436 6.37275 11.9482 6.40947V6.73264C12.0436 6.69591 12.1391 6.65919 12.2125 6.62247V6.2993ZM11.9482 25.5716C12.0436 25.6083 12.1391 25.6451 12.2125 25.6818V25.3807C12.1391 25.3439 12.0436 25.3072 11.9482 25.2705V25.5716ZM12.2125 6.75467V8.47331C12.1904 8.41456 12.1537 8.36314 12.1391 8.30439C12.117 8.30439 11.9703 8.00326 11.9703 8.00326C11.9703 7.98122 11.9482 7.96653 11.9482 7.96653V6.87218C12.0436 6.83546 12.1391 6.79874 12.2125 6.76201V6.75467ZM12.2125 8.88461V9.41343C12.1391 9.47218 12.0436 9.5236 11.9482 9.58235V8.52473C12.0069 8.6349 12.0436 8.73038 12.0803 8.78913C12.1024 8.84789 12.1024 8.86258 12.0803 8.88461L12.0216 8.92134C11.9849 8.94337 11.9849 8.95806 11.9849 8.95806C12.0069 8.98009 12.0216 8.99478 12.0583 8.98009L12.1904 8.90665L12.2125 8.88461ZM12.2125 22.5309V23.1552C12.1537 23.1332 12.0216 23.0598 11.9482 23.023V22.384C12.0436 22.4428 12.1391 22.4942 12.2125 22.5383V22.5309ZM12.2125 23.214V23.6326C12.1758 23.5959 12.1391 23.5959 12.1391 23.5739C12.117 23.5959 12.0436 23.7648 12.0436 23.7795C12.0657 23.7795 12.1537 23.8163 12.2125 23.853V24.0586C12.1391 24.2276 12.0216 24.492 11.9482 24.6462V24.2496C11.9849 24.2276 12.0216 24.2129 12.0216 24.2129C11.9996 24.1394 11.9849 24.0807 11.9482 23.9852V23.5886C12.0583 23.4784 12.1537 23.3609 12.2125 23.214ZM12.2125 24.6242C12.1391 24.7931 12.1024 24.9033 12.1024 24.9033C12.0803 24.9033 12.0069 24.8665 11.9482 24.8298V25.1089C12.0436 25.1677 12.1391 25.2044 12.2125 25.2411V24.962C12.2125 24.962 12.1904 24.962 12.1904 24.94C12.1904 24.94 12.2125 24.9179 12.2125 24.9033V24.6242ZM11.9482 6.40947C11.7794 6.48292 11.6106 6.55636 11.4418 6.63716V6.96032C11.6106 6.88687 11.7794 6.80608 11.9482 6.73264V6.40947ZM11.4418 25.3439C11.6106 25.4394 11.7794 25.5129 11.9482 25.5716V25.2705C11.7794 25.197 11.6106 25.1163 11.4418 25.0281V25.3513V25.3439ZM11.9482 6.86484V7.95919C11.8381 7.73151 11.8161 7.69478 11.7794 7.63603C11.7794 7.5993 11.7574 7.57727 11.7574 7.56258C11.7574 7.54789 11.7794 7.54055 11.7941 7.52586L11.8308 7.48913C11.8308 7.48913 11.8675 7.4671 11.8675 7.45241C11.8455 7.41569 11.8088 7.43038 11.7941 7.45241L11.684 7.51117L11.5886 7.56992L11.4345 7.64337V7.11456C11.6033 7.01908 11.7721 6.94563 11.9409 6.87218L11.9482 6.86484ZM11.9482 8.52473C11.9262 8.488 11.9115 8.45128 11.8895 8.41456L11.7427 8.13546L11.5519 7.77557C11.5152 7.70213 11.4785 7.70213 11.4565 7.71682H11.4345V9.03885C11.4712 9.07557 11.5299 9.17105 11.5446 9.20778C11.5666 9.26653 11.5446 9.28122 11.4712 9.33998L11.4345 9.36201V9.94958C11.6033 9.81738 11.7721 9.70721 11.9409 9.5897V8.53207L11.9482 8.52473ZM11.9482 22.384V23.023C11.9115 23.023 11.8895 23.001 11.8895 23.001C11.8895 23.001 11.8675 23.023 11.8675 23.0377C11.8675 23.0377 11.9409 23.0965 11.8895 23.2066C11.8895 23.2066 11.7574 23.4711 11.4345 23.6767V22.0168C11.6033 22.149 11.7721 22.2592 11.9409 22.3767L11.9482 22.384ZM11.9482 23.5886C11.9115 23.6253 11.8748 23.662 11.8161 23.6987V23.7208C11.8748 23.8163 11.9115 23.9117 11.9482 23.9852V23.5886ZM11.9482 24.2496V24.6462C11.9115 24.7417 11.8748 24.8004 11.8748 24.8151C11.8748 24.8151 11.9115 24.8372 11.9482 24.8372V25.1163C11.7794 25.0428 11.6106 24.962 11.4418 24.8886V23.9044C11.5005 23.8824 11.5739 23.8456 11.6326 23.8089H11.6547C11.6914 23.9044 11.7501 24.0146 11.8088 24.3157C11.8308 24.3157 11.9042 24.279 11.9629 24.2422L11.9482 24.2496ZM11.4418 6.63716C11.2143 6.76936 10.9721 6.87953 10.7446 7.01173V7.34959C10.9721 7.21738 11.2143 7.08518 11.4418 6.95297V6.62981V6.63716ZM10.7446 24.962C10.9721 25.0942 11.2143 25.2264 11.4418 25.3366V25.0134C11.2143 24.9033 10.9721 24.7711 10.7446 24.6168V24.9547V24.962ZM11.4418 7.10721V7.63603L11.3831 7.65806C11.3831 7.65806 11.3244 7.69478 11.3244 7.71682C11.3464 7.73885 11.3611 7.75354 11.3831 7.73885L11.4418 7.71682V9.03885V9.01682L11.4051 8.99478H11.3831C11.3831 8.99478 11.3611 9.03151 11.3831 9.05354C11.4051 9.12699 11.4198 9.16371 11.4051 9.20778C11.3684 9.2445 11.3097 9.30326 11.273 9.31795C11.1189 9.42812 11.0822 9.42812 11.0088 9.33998L10.8767 9.17105L10.84 9.09761L10.7446 8.98744C10.8033 8.95072 10.9354 8.85523 10.9501 8.8332C11.0235 8.79648 11.0455 8.79648 11.0602 8.81117L11.0969 8.84789L11.1189 8.86992L11.1409 8.89196L11.1629 8.86992L11.1849 8.84789L11.1629 8.81117L11.0895 8.701L11.0308 8.60552L11.0088 8.58348L10.9868 8.56145L10.9647 8.58348C10.9647 8.58348 10.9427 8.60552 10.9427 8.62021C10.9427 8.6349 10.9207 8.65693 10.906 8.69365C10.884 8.69365 10.8473 8.73038 10.7372 8.80382V8.31173C10.7372 8.31173 10.7592 8.33377 10.7592 8.34846C10.7813 8.37049 10.7959 8.37049 10.818 8.34846C10.818 8.34846 10.84 8.32642 10.818 8.31173L10.7813 8.23829L10.7592 8.20156C10.7592 8.20156 10.7372 8.20156 10.7372 8.17953V7.50382C10.9647 7.37162 11.2069 7.23942 11.4345 7.10721H11.4418ZM11.4418 9.35467L11.1776 9.54563L11.0675 9.64111L10.9941 9.69987L10.884 9.79535L10.8253 9.81738L10.8033 9.79535C10.8033 9.79535 10.8033 9.75862 10.8253 9.73659L10.884 9.69987C10.884 9.69987 10.884 9.64111 10.862 9.5897C10.84 9.55297 10.8033 9.51625 10.7519 9.43546V10.5445C10.9794 10.3168 11.2069 10.1332 11.4492 9.94224V9.35467H11.4418ZM11.4418 22.0242V23.684C11.3464 23.7428 11.251 23.7942 11.1189 23.8383C11.1189 23.8603 11.1776 23.9925 11.1776 23.9925H11.1996C11.1996 23.9925 11.295 23.9925 11.4418 23.9191V24.9033C11.2143 24.7711 10.9721 24.6388 10.7446 24.4846V21.4292C10.9721 21.6349 11.1996 21.8405 11.4418 22.0315V22.0242ZM10.7446 7.01908C10.5391 7.15128 10.3336 7.28348 10.1207 7.41569V7.77557C10.3262 7.62134 10.5317 7.49648 10.7446 7.36427V7.02642V7.01908ZM10.1207 24.5727C10.3262 24.7196 10.5317 24.8518 10.7446 24.9694V24.6315C10.5391 24.4993 10.3336 24.3671 10.1207 24.2129V24.5727ZM10.7446 7.50382V8.17953L10.7079 8.10608L10.6858 8.08405L10.6638 8.06201L10.6418 8.08405L10.6198 8.10608L10.5611 8.16484L10.1868 8.45128C10.1868 8.45128 10.128 8.488 10.1134 8.51004V7.9445C10.3189 7.79026 10.5244 7.64337 10.7372 7.51117L10.7446 7.50382ZM10.7446 8.31908L10.7225 8.29704C10.6858 8.27501 10.6638 8.27501 10.5904 8.31908C10.5684 8.34111 10.3996 8.45128 10.3629 8.47331V8.49535L10.6638 8.86992C10.7005 8.84789 10.7225 8.8332 10.7372 8.81117V8.31908H10.7446ZM10.7446 9.42812V10.5372C10.517 10.7428 10.3115 10.9705 10.1207 11.2129V10.5372C10.1207 10.5372 10.1207 10.5151 10.1427 10.5151C10.2161 10.4196 10.2748 10.3242 10.2969 10.236V10.1626C10.2969 10.0083 10.2235 9.92021 10.1868 9.86145C10.1647 9.83942 10.1501 9.83942 10.128 9.82473V8.62021C10.128 8.62021 10.1647 8.64224 10.1868 8.67896C10.2235 8.71569 10.2455 8.75241 10.429 9.00213L10.6198 9.26653C10.6785 9.32529 10.7152 9.3767 10.7519 9.43546L10.7446 9.42812ZM10.7446 21.4219V24.4773C10.5391 24.3451 10.3336 24.2129 10.1207 24.066V21.8993C10.2528 21.7671 10.3629 21.6937 10.3629 21.6716C10.3409 21.6716 10.1574 21.4439 10.1354 21.4292L10.1134 21.4513C10.1134 21.4513 10.1134 21.488 10.1134 21.5247V20.7315C10.3042 20.9739 10.5097 21.2016 10.7372 21.4292L10.7446 21.4219ZM10.1207 10.3535C10.1427 10.2948 10.1427 10.2581 10.1427 10.2434C10.1427 10.2066 10.1427 10.1699 10.1207 10.1479V10.3535ZM10.1207 7.40834C9.9519 7.51851 9.79777 7.63603 9.65099 7.76823V8.12812C9.80511 8.01795 9.9519 7.88574 10.1207 7.76823V7.40834ZM9.65099 24.2276C9.80511 24.3377 9.9519 24.4552 10.1207 24.5654V24.2055C9.9519 24.0953 9.79777 23.9778 9.65099 23.8456V24.2202V24.2276ZM10.1207 7.93716V8.50269L9.96658 8.61286C9.96658 8.61286 9.92988 8.6349 9.92988 8.64959V8.67162L9.9519 8.69365L9.9886 8.67162L10.062 8.6349C10.062 8.6349 10.0987 8.61286 10.1207 8.61286V9.81738C10.0106 9.7219 9.87851 9.70721 9.65099 9.74394V8.2897C9.80511 8.15749 9.9519 8.04733 10.1207 7.92981V7.93716ZM10.1207 10.1479V10.3535C10.1207 10.3535 10.084 10.3903 10.062 10.4123C10.0033 10.4711 9.89319 10.5665 9.76108 10.4857C9.72438 10.4637 9.68768 10.449 9.66566 10.427C9.66566 10.405 9.64365 10.405 9.64365 10.405V10.0451L9.73906 10.023C9.92988 10.001 10.0033 10.023 10.0767 10.0965C10.0987 10.0965 10.0987 10.1185 10.1134 10.1332L10.1207 10.1479ZM10.1207 10.5445C10.0473 10.6179 9.96658 10.6547 9.89319 10.6987C9.86872 10.7134 9.84426 10.7061 9.81979 10.6767C9.81979 10.6767 9.66566 10.5298 9.65099 10.5078V11.8812C9.7831 11.6535 9.9519 11.4259 10.1207 11.2202V10.5445ZM10.1207 20.7242V21.5174C10.1207 21.5174 10.0987 21.5541 10.084 21.5761L10.0253 21.6129C10.0253 21.6129 9.81979 21.3852 9.7831 21.3338C9.80511 21.2016 9.7464 21.0473 9.65099 20.9372V20.0925C9.7831 20.3202 9.9519 20.5259 10.1207 20.7315V20.7242ZM10.1207 21.892V24.0586C9.9519 23.9485 9.79777 23.8163 9.65099 23.684V22.3106C9.7831 22.1784 9.97392 22.0315 10.1207 21.8993V21.892ZM9.65099 21.701C9.7097 21.7744 9.76108 21.8332 9.76108 21.8332L9.87117 21.7377L9.68034 21.5468C9.68034 21.5468 9.65833 21.5835 9.64365 21.5835V21.6937L9.65099 21.701ZM9.65099 7.76823C9.49686 7.86371 9.37209 7.97388 9.23998 8.09139V8.488C9.37209 8.37783 9.5042 8.24563 9.65099 8.12812V7.76823ZM9.23264 23.8897C9.36475 23.9999 9.49686 24.1174 9.64365 24.2276V23.853C9.48952 23.7428 9.36475 23.6253 9.23264 23.5151V23.8897ZM9.65099 8.29704V9.75128H9.59227L9.51888 9.77331C9.36475 9.79535 9.29135 9.79535 9.23998 9.75128V9.42812C9.31337 9.36936 9.37209 9.35467 9.40878 9.36936C9.4675 9.36936 9.51888 9.40608 9.51888 9.40608L9.55557 9.42812H9.59227V9.40608C9.59227 9.40608 9.59227 9.36936 9.55557 9.34733L9.42346 9.19309L9.40144 9.17105C9.36475 9.14902 9.34273 9.17105 9.34273 9.17105C9.30603 9.19309 9.26933 9.20778 9.23264 9.2445V8.64224C9.36475 8.53207 9.49686 8.39987 9.64365 8.28235L9.65099 8.29704ZM9.65099 10.0524V10.4123C9.65099 10.4123 9.62897 10.4123 9.61429 10.4343C9.59227 10.4564 9.63631 10.4931 9.63631 10.4931C9.63631 10.4931 9.65833 10.4931 9.65833 10.5151V11.8886C9.5042 12.1163 9.37943 12.3586 9.24732 12.6083V11.3818L9.40144 11.3451C9.43814 11.323 9.47484 11.323 9.49686 11.3083V11.2716C9.49686 11.2716 9.47484 11.2496 9.43814 11.2349L9.24732 11.1027V10.0451C9.34273 10.0818 9.47484 10.0818 9.64365 10.0671H9.66566L9.65099 10.0524ZM9.65099 20.0852V20.9151C9.54089 20.805 9.38677 20.7462 9.23998 20.7462V19.3507C9.37209 19.5931 9.5042 19.8428 9.65099 20.0852ZM9.65099 21.5908V21.701C9.65099 21.701 9.61429 21.6643 9.59227 21.6422C9.59227 21.6202 9.61429 21.6202 9.62897 21.6055L9.65099 21.5835V21.5908ZM9.65099 22.3033V23.6767C9.49686 23.5665 9.37209 23.449 9.23998 23.3168V22.6778L9.27667 22.6411C9.27667 22.6411 9.25466 22.6191 9.23998 22.6044V21.701C9.27667 21.723 9.33539 21.723 9.37209 21.723C9.44548 21.8185 9.59961 21.9874 9.59961 21.9874C9.59961 21.9874 9.29869 22.2518 9.27667 22.2665C9.27667 22.2886 9.44548 22.4575 9.44548 22.4722C9.4675 22.4722 9.54089 22.3987 9.65099 22.3033ZM9.23264 21.4807V20.9886C9.32805 20.9518 9.43814 20.9665 9.49686 21.0473C9.59227 21.1575 9.57025 21.3338 9.46016 21.4219C9.38677 21.4807 9.30603 21.4953 9.23264 21.4807ZM9.23264 8.09139C8.99043 8.31908 8.74089 8.54676 8.51337 8.78913V9.20043C8.74089 8.95806 8.9831 8.70834 9.23264 8.48066V8.08405V8.09139ZM8.52071 23.214C8.74823 23.4564 8.99044 23.684 9.23998 23.8897V23.5151C8.99777 23.2874 8.74823 23.0451 8.52071 22.7807V23.214ZM9.23264 8.65693V9.25919C9.19594 9.28122 9.17392 9.31795 9.13722 9.35467C9.04181 9.45015 8.9831 9.58235 8.9831 9.69252C8.9831 9.788 9.01979 9.88348 9.09319 9.9349C9.12988 9.97162 9.16658 10.0083 9.2253 10.0304V11.088L8.50603 10.6179V9.39139C8.73355 9.14902 8.97576 8.8993 9.2253 8.65693H9.23264ZM9.23264 9.42812L9.21062 9.45015C9.1519 9.50891 9.13722 9.56032 9.13722 9.60439C9.13722 9.66314 9.15924 9.69987 9.19594 9.73659C9.21796 9.73659 9.21796 9.75862 9.23264 9.75862V9.43546V9.42812ZM9.23264 11.3744V12.601C8.873 13.3355 8.6308 14.1287 8.51337 14.9586V12.1456L8.55007 12.1824C8.68218 12.2558 8.71888 12.2925 8.71888 12.3146L8.69686 12.3366L8.67484 12.41L8.65282 12.4468L8.67484 12.4688H8.69686C8.69686 12.4688 8.71888 12.4468 8.73355 12.4321L8.80695 12.2852L8.82897 12.2631L8.86566 12.2044L8.96108 12.0501C8.96108 12.0501 8.99777 12.0134 8.96108 11.9914L8.93906 11.9694L8.91704 12.0061C8.91704 12.0061 8.88034 12.0648 8.84365 12.0795C8.82163 12.1016 8.78493 12.1016 8.65282 12.0208C8.65282 12.0208 8.57943 11.984 8.49869 11.9253V11.5287C8.53539 11.5066 8.57209 11.5066 8.5941 11.5066L8.95374 11.4112L9.21796 11.3524L9.23264 11.3744ZM9.23264 19.3434V20.7389C9.13722 20.7389 9.04181 20.7756 8.96842 20.849C8.76291 21.0179 8.76291 21.3191 8.9464 21.5247C9.01979 21.6202 9.11521 21.6716 9.23264 21.6937V22.597C9.07851 22.4281 8.60878 21.8626 8.60878 21.8626C8.60878 21.8626 8.83631 21.6569 8.85099 21.6569C8.85099 21.6569 8.64548 21.4146 8.64548 21.3925C8.62346 21.4146 8.60878 21.4146 8.60878 21.4292C8.60878 21.4292 8.60878 21.5027 8.57209 21.5394C8.57209 21.5394 8.55007 21.5615 8.51337 21.5982V16.9784C8.62346 17.8304 8.873 18.6163 9.23264 19.336V19.3434ZM9.23264 20.9886C9.19594 20.9886 9.15924 21.0106 9.13722 21.0473C9.02713 21.1428 9.00511 21.3117 9.07851 21.4072C9.11521 21.466 9.17392 21.4807 9.23264 21.4807V20.9886ZM9.23264 22.6852V23.3242C8.99043 23.0965 8.74089 22.8541 8.51337 22.5897V22.0976C8.75557 22.384 9.10053 22.7733 9.11521 22.7953C9.11521 22.7733 9.1886 22.7219 9.2253 22.6852H9.23264ZM8.52071 11.2569L8.88034 11.1835C8.88034 11.1835 9.01245 11.1614 9.04915 11.1468C8.97576 11.11 8.68952 10.9411 8.52071 10.8236V11.2569ZM8.52071 8.78913C8.19777 9.1123 7.89686 9.46484 7.63264 9.84676V10.3389C7.89686 9.94224 8.19777 9.56766 8.52071 9.20778V8.79648V8.78913ZM7.63264 22.1564C7.89686 22.5309 8.19777 22.8761 8.52071 23.214V22.7807C8.19777 22.4428 7.89686 22.0609 7.63264 21.6496V22.1564ZM8.52071 9.39139V10.6179L8.4253 10.5592C8.3519 10.5225 8.31521 10.4857 8.31521 10.4637C8.31521 10.4417 8.33722 10.4417 8.33722 10.427L8.35924 10.3903C8.35924 10.3903 8.38126 10.3682 8.38126 10.3535C8.38126 10.3389 8.35924 10.3315 8.35924 10.3315C8.32255 10.3095 8.30053 10.3535 8.30053 10.3535L8.22713 10.4857L8.20511 10.5225L8.16842 10.5812L8.073 10.7134C8.073 10.7134 8.05099 10.7502 8.05099 10.7722L8.073 10.7942C8.073 10.7942 8.1097 10.7942 8.1097 10.7722C8.13172 10.7502 8.1464 10.7134 8.1831 10.6987C8.20511 10.6767 8.24181 10.6767 8.33722 10.7355C8.33722 10.7355 8.41062 10.7722 8.52805 10.8309V11.2643L8.49135 11.2863C8.09502 11.3818 7.66199 11.4552 7.66199 11.4552L7.63998 11.4773V10.5739C7.9042 10.1773 8.1831 9.78066 8.52805 9.40608L8.52071 9.39139ZM8.52071 11.5434V11.94C8.32988 11.8298 8.05099 11.6535 8.01429 11.6389H8.03631C8.13172 11.6168 8.31521 11.5801 8.52805 11.5434H8.52071ZM8.52071 12.1456V14.9586C8.46199 15.2965 8.44732 15.6343 8.44732 15.9795C8.44732 16.3394 8.46933 16.6773 8.52071 17.0004V21.6202C8.4253 21.6937 8.27851 21.8112 8.27851 21.8259C8.27851 21.8259 8.3886 21.936 8.52071 22.105V22.597C8.1831 22.2372 7.89686 21.8405 7.63264 21.4292V18.7485C7.76475 18.7264 7.87484 18.5942 7.87484 18.4473C7.87484 18.3004 7.76475 18.1609 7.63264 18.1462V15.3185V15.3405L7.82346 15.3626C7.86016 15.3626 7.89686 15.3846 7.89686 15.4213V15.4801L7.91888 15.5168L7.94089 15.5389L7.96291 15.5168C7.96291 15.5168 7.98493 15.4948 7.98493 15.4801V15.3259L8.00695 15.2304V15.1349L8.02897 14.9439V14.8852H8.00695C8.00695 14.8852 7.97025 14.8852 7.97025 14.9219L7.94823 15.0174C7.94823 15.0541 7.91154 15.0761 7.85282 15.0761L7.66199 15.0541H7.63998V14.1507C7.92621 14.1507 8.22713 13.9818 8.35924 13.5852C8.43264 13.3575 8.41796 13.1518 8.32255 12.9609C8.22713 12.792 8.05832 12.6377 7.85282 12.5863C7.77943 12.5496 7.69869 12.5496 7.64732 12.5496V11.5874L8.53539 12.153L8.52071 12.1456ZM7.63264 13.8422C7.91888 13.8643 8.17576 13.7321 8.25649 13.4677C8.27851 13.4089 8.29319 13.2987 8.23447 13.1665C8.16108 13.0564 8.02897 12.9389 7.80144 12.8874C7.74273 12.8654 7.69135 12.8507 7.63264 12.8507V13.8496V13.8422ZM7.63264 9.84676C6.35557 11.5581 5.59961 13.688 5.59961 15.9869C5.59961 18.2857 6.35557 20.4377 7.63264 22.149V21.6422C6.52438 20.0411 5.87851 18.0801 5.87851 15.9869C5.87851 13.8937 6.51704 11.9547 7.63264 10.3315V9.83942V9.84676ZM7.63264 10.5592V11.4626C7.59594 11.4626 7.55924 11.4626 7.55924 11.4846C7.55924 11.5066 7.53722 11.5066 7.53722 11.5066C7.53722 11.5434 7.57392 11.5654 7.59594 11.5654L7.63264 11.5874V12.5496C7.50053 12.5276 7.39043 12.5496 7.273 12.6083C7.1042 12.7038 6.97209 12.8727 6.89869 13.1151C6.8253 13.3428 6.83998 13.5485 6.93539 13.7394C7.0308 13.9083 7.17759 14.0405 7.39044 14.114C7.46383 14.136 7.54456 14.1507 7.63264 14.1507V15.0541L7.50053 15.0321C7.42713 15.0321 7.36842 15.0321 7.3097 14.9953C7.23631 14.9586 6.81796 14.6575 6.74456 14.584C6.70787 14.5253 6.68585 14.5106 6.67117 14.4739C6.64915 14.4518 6.64915 14.4151 6.64915 14.4004C6.64915 14.3637 6.62713 14.3417 6.61245 14.3417H6.59044V14.4004L6.56842 14.5914L6.5464 14.7824C6.5464 14.7824 6.52438 14.8191 6.56842 14.8411C6.59044 14.8411 6.60511 14.8044 6.60511 14.7824C6.60511 14.7824 6.61735 14.775 6.64181 14.7603C6.64181 14.7603 6.70053 14.7824 6.73722 14.797C6.75924 14.8191 6.86933 14.8925 6.97943 14.966C7.07484 15.0247 7.17025 15.0761 7.20695 15.1129C7.18493 15.1129 7.14823 15.1349 7.14823 15.1349C6.9941 15.2083 6.67851 15.3405 6.64181 15.3626C6.61979 15.3846 6.5831 15.3846 6.56842 15.3846C6.56842 15.3846 6.5464 15.3846 6.5464 15.3626C6.5464 15.3259 6.5464 15.3038 6.52438 15.3038L6.50236 15.3259L6.48034 15.3479L6.45832 15.5021V15.5609L6.43631 15.7151V15.8106C6.41429 15.8473 6.45832 15.8694 6.45832 15.8694C6.45832 15.8694 6.49502 15.8694 6.49502 15.8326C6.49502 15.8106 6.51704 15.7739 6.53172 15.7592C6.55374 15.7225 6.60511 15.6857 6.66383 15.649C6.77392 15.5903 7.20695 15.3626 7.25099 15.3626C7.3097 15.3405 7.3464 15.3259 7.44181 15.3405H7.61062V18.1682H7.5519C7.3831 18.1682 7.25099 18.3004 7.25099 18.4694C7.25099 18.6383 7.3831 18.7705 7.5519 18.7705H7.61062V21.4513C6.59044 19.8869 5.9886 18.0213 5.9886 16.0236C5.9886 14.0259 6.59044 12.1603 7.61062 10.5959L7.63264 10.5592ZM7.63264 12.8434V13.8422C7.55924 13.8422 7.47851 13.8202 7.42713 13.8055C6.93539 13.6513 6.95741 13.3502 6.9941 13.2033C7.05282 13.0711 7.12621 12.9609 7.23631 12.9021C7.3464 12.8434 7.47851 12.8287 7.63264 12.8434Z" fill="#003976"/>
<path d="M21.1591 11.1975C21.1591 11.1975 20.5573 11.2196 19.6912 11.0653V12.8942C19.7499 12.8574 19.7646 12.8354 19.7646 12.8354C19.8233 12.7987 19.838 12.8134 19.838 12.8354C19.816 13.0043 19.9334 13.1365 19.9334 13.1365C20.0288 13.21 20.1022 13.3275 20.1242 13.4009C20.1463 13.4964 20.1022 13.5699 20.0509 13.6286C19.9554 13.7021 19.7866 13.7241 19.6912 13.7241V13.8196H20.0655C20.0655 13.8196 20.1022 13.8196 20.0876 13.8563L20.0288 13.9665C20.0288 13.9665 20.0288 13.9885 19.9921 13.9885H19.6912V14.084H19.9334C19.9334 14.084 19.9701 14.084 19.9554 14.1207L19.9187 14.1942C19.9187 14.1942 19.9187 14.2162 19.882 14.2162H19.6912V14.2896H19.838C19.838 14.2896 19.8747 14.2896 19.86 14.3484L19.7646 14.5394V14.7817C19.7646 14.8184 19.7426 14.8405 19.7279 14.8405H19.6912V16.5959C20.1463 16.6546 20.5793 16.7281 21.0123 16.8235C21.1665 15.9936 21.1664 15.3179 21.1664 14.9213V11.2049L21.1591 11.1975ZM19.6912 11.0727C18.6343 10.9038 17.2031 10.5072 15.9995 9.52297V11.1241C17.3353 11.1241 18.4288 12.2184 18.4288 13.5552C18.4288 14.8919 17.3353 15.9716 15.9995 15.9716V16.3314C17.2619 16.3314 18.4876 16.4269 19.6912 16.5959V14.8405H19.6692C19.6325 14.8405 19.6105 14.8184 19.6105 14.7817V14.5394L19.5151 14.3484C19.4931 14.2896 19.5518 14.2896 19.5518 14.2896H19.6839V14.2162H19.4931L19.4564 14.1795L19.4197 14.1207C19.3976 14.084 19.4564 14.084 19.4564 14.084H19.6839V13.9885H19.383L19.3463 13.9665L19.3096 13.871C19.2876 13.8122 19.3316 13.8122 19.3316 13.8122H19.6912V13.7168H19.6545C19.427 13.6947 19.3316 13.5625 19.3316 13.5625C19.1775 13.3201 19.3536 13.1439 19.3903 13.1072C19.427 13.0851 19.427 13.1072 19.427 13.1072C19.3169 13.2981 19.449 13.445 19.449 13.445C19.3756 13.2026 19.5811 12.9749 19.6912 12.8795V11.0507V11.0727ZM15.9995 14.7817V12.3139C16.6747 12.3139 17.2398 12.8648 17.2398 13.5552C17.2398 14.2456 16.6747 14.7817 15.9995 14.7817ZM15.9995 9.52297C14.8912 10.4264 13.5701 10.845 12.5353 11.0286V13.254C12.594 13.2761 12.6894 13.2908 12.7628 13.3128C12.7628 13.3128 12.7995 13.3128 12.7995 13.3495V13.9518C12.7995 13.9518 12.8215 14.0105 12.7628 14.0105C12.7628 14.0105 12.6527 14.0105 12.5353 13.9518V14.062H12.5573C12.7261 14.1207 12.8362 14.084 12.8362 14.084C12.8949 14.084 12.8729 14.0252 12.8729 14.0252V13.423C12.8729 13.423 12.8509 13.4009 12.8729 13.3862H12.8949L12.9536 13.4597C12.9536 13.4597 12.9756 13.4817 12.9756 13.5184L13.0123 14.1795C13.0123 14.1795 13.0123 14.2529 12.9536 14.2529L12.5426 14.1942V16.5518C13.6729 16.3975 14.8398 16.3241 16.0068 16.3241V15.9642C14.671 15.9642 13.5775 14.8699 13.5775 13.5478C13.5775 12.2258 14.671 11.1168 16.0068 11.1168V9.51562L15.9995 9.52297ZM15.9995 12.3139V14.7817C15.3242 14.7817 14.7591 14.2382 14.7591 13.5552C14.7591 12.8721 15.3242 12.3139 15.9995 12.3139ZM12.5353 11.0286C12.3298 11.0653 12.1242 11.1021 11.9334 11.1241V13.254C11.9701 13.232 12.0068 13.232 12.0068 13.232C12.1169 13.1733 12.1756 13.1733 12.1976 13.21V13.9077C12.1389 13.8343 12.0288 13.9077 11.9554 13.9444H11.9334V14.0546C11.9701 14.0326 12.0288 14.0179 12.0655 13.9959C12.1022 13.9738 12.1976 13.9371 12.2343 14.0693C12.2931 13.9371 12.3885 13.9738 12.4252 13.9959C12.4472 14.0179 12.5206 14.0326 12.5353 14.0546V13.9444C12.4619 13.9077 12.3444 13.8343 12.271 13.9077V13.21C12.3077 13.1733 12.3664 13.1733 12.4765 13.232C12.4765 13.232 12.4986 13.232 12.5353 13.254V11.0286ZM11.9334 16.6473C12.1389 16.6105 12.3444 16.5738 12.5353 16.5518V14.1942L12.4252 14.1721C12.4252 14.1721 12.3518 14.1501 12.3298 14.1942C12.3298 14.1942 12.3077 14.2529 12.2343 14.2529C12.1609 14.2529 12.1389 14.1942 12.1389 14.1942C12.1389 14.1574 12.0655 14.1721 12.0655 14.1721L11.9334 14.1942V16.6473ZM11.9334 11.1241C11.2729 11.1975 10.8398 11.1975 10.8398 11.1975V14.9139C10.8398 15.3105 10.8398 15.9862 10.994 16.8162C11.3169 16.7427 11.6178 16.684 11.9334 16.6473V14.1942L11.5371 14.2529C11.4784 14.2529 11.4784 14.1795 11.4784 14.1795L11.5151 13.5184C11.5151 13.4817 11.5371 13.4597 11.5371 13.4597C11.5371 13.4597 11.5738 13.4009 11.5958 13.3862H11.6178V13.423L11.5958 14.0252C11.5958 14.0252 11.5958 14.084 11.6325 14.084C11.6325 14.084 11.7646 14.1207 11.9334 14.062V13.9518C11.838 14.0105 11.7279 14.0105 11.7279 14.0105C11.6692 14.0105 11.6912 13.9518 11.6912 13.9518V13.3495C11.6912 13.3128 11.7279 13.3128 11.7279 13.3128C11.8013 13.2908 11.882 13.2761 11.9334 13.254V11.1241Z" fill="#003976"/>
<path d="M11.0449 17.1249C11.2504 18.1017 11.6835 19.2402 12.5348 20.3492L15.9844 16.8825L19.4486 20.3492C20.3146 19.2548 20.7477 18.1017 20.9532 17.1249C19.3532 16.8017 17.6945 16.6328 15.9991 16.6328C14.3036 16.6328 12.6449 16.8017 11.0449 17.1249Z" fill="#003976"/>
<path d="M16.9758 22.5156C17.6143 22.119 18.1648 21.7077 18.6125 21.2744L16.9758 19.6365V20.7456H17.1813C17.218 20.7456 17.218 20.7676 17.218 20.7823L17.196 20.9145L17.1739 20.9365C17.1519 20.9365 17.1372 20.9365 17.1372 20.9145C17.1372 20.8925 17.1372 20.8778 17.0638 20.8778H16.9684V20.9879C17.1226 21.0467 17.2327 21.1422 17.2327 21.2891C17.2327 21.3992 17.1372 21.5535 16.9684 21.5902V22.5156H16.9758ZM16.9758 21.4947V21.1569C17.0345 21.1936 17.0712 21.2523 17.0712 21.3258C17.0712 21.4213 17.0345 21.48 16.9758 21.4947ZM16.2859 22.8902C16.5281 22.78 16.7776 22.6478 16.9831 22.5156V21.5902C16.9464 21.5902 16.9097 21.6122 16.873 21.6122C16.8363 21.6122 16.7996 21.5902 16.7629 21.5755C16.7629 21.5755 16.7409 21.5535 16.7409 21.5168V21.3845C16.7409 21.3845 16.7409 21.3478 16.7776 21.3478C16.7776 21.3478 16.7996 21.3699 16.7996 21.3845C16.7996 21.48 16.8363 21.5168 16.9317 21.5168C16.9538 21.5168 16.9684 21.5167 16.9905 21.4947V21.1569C16.9317 21.1201 16.8804 21.0981 16.8363 21.0981C16.7996 21.0761 16.7996 21.0614 16.7996 21.0614L16.8216 20.7749C16.8216 20.7749 16.8437 20.7382 16.8583 20.7382H16.9905V19.6292L16.2932 18.9314V20.7235H16.3152C16.462 20.7235 16.5574 20.797 16.5574 20.9145C16.5574 21.032 16.462 21.0834 16.4033 21.1055C16.4767 21.1642 16.5941 21.2156 16.5941 21.3478C16.5941 21.48 16.4987 21.5902 16.2932 21.6122V22.8975L16.2859 22.8902ZM16.9758 20.8704V20.9806C16.9758 20.9806 16.9171 20.9586 16.8804 20.9586C16.8804 20.9365 16.8804 20.8851 16.9024 20.8631H16.9758V20.8704ZM16.2859 21.5168V21.1936C16.3593 21.2303 16.44 21.2891 16.44 21.3625C16.44 21.458 16.3813 21.5168 16.2859 21.5168ZM16.2859 21.0393V20.797H16.3079C16.3666 20.797 16.4033 20.8337 16.4033 20.9071C16.4033 21.0026 16.3666 21.0393 16.3079 21.0614L16.2859 21.0393ZM15.5446 22.8168C15.6987 22.8902 15.8455 22.971 15.9996 23.0444C16.095 23.0077 16.1905 22.949 16.2859 22.8902V21.6049C16.1171 21.6049 15.9996 21.5094 15.9996 21.3772C15.9996 21.267 16.0583 21.1862 16.1684 21.1348C16.1097 21.0981 16.0363 21.0393 16.0363 20.9292C16.0363 20.8557 16.1097 20.7382 16.2785 20.7235V18.9314L15.9776 18.6523L15.5446 19.0857V20.7235H15.5666C15.6987 20.7235 15.7941 20.797 15.7941 20.9145C15.7941 21.032 15.7207 21.0834 15.662 21.1055C15.7354 21.1642 15.8308 21.2156 15.8308 21.3478C15.8308 21.48 15.7354 21.5902 15.5519 21.6122V22.8168H15.5446ZM16.2859 20.797V21.0393C16.2125 21.0026 16.1905 20.9659 16.1905 20.9071C16.1905 20.8704 16.2125 20.797 16.2859 20.797ZM16.2859 21.1936V21.5168C16.2125 21.5168 16.1538 21.458 16.1538 21.3625C16.1538 21.267 16.2125 21.2083 16.2638 21.1716L16.2859 21.1936ZM15.5446 21.5168V21.1936C15.618 21.2303 15.6767 21.2891 15.6767 21.3625C15.6767 21.458 15.618 21.5168 15.5446 21.5168ZM15.5446 21.0393V20.797C15.6033 20.797 15.6547 20.8337 15.6547 20.9071C15.6547 21.0026 15.596 21.0393 15.5593 21.0614C15.5593 21.0614 15.5372 21.0614 15.5372 21.0393H15.5446ZM14.8914 22.4348C15.0969 22.567 15.3244 22.6772 15.5519 22.8094V21.6049H15.5299C15.3611 21.6049 15.2437 21.5094 15.2437 21.3772C15.2437 21.267 15.3171 21.1862 15.4345 21.1348C15.3758 21.0981 15.3024 21.0393 15.3024 20.9292C15.3024 20.8557 15.3611 20.7382 15.5446 20.7235V19.0857L14.884 19.7467V20.7823L14.9207 20.7456L14.9574 20.7235C14.9574 20.7235 14.9941 20.7235 14.9941 20.7603V20.7823L14.9721 21.0467V21.2523L14.9941 21.48C14.9941 21.5045 15.0015 21.5241 15.0161 21.5388H15.0895L15.1116 21.5608C15.1116 21.5829 15.1116 21.5975 15.0895 21.5975H14.884V22.4495L14.8914 22.4348ZM15.5446 20.797V21.0393C15.4712 21.0026 15.4345 20.9659 15.4345 20.9071C15.4345 20.8704 15.4712 20.797 15.5446 20.797ZM15.5446 21.1936V21.5168C15.4712 21.5168 15.3905 21.458 15.3905 21.3625C15.3905 21.267 15.4638 21.2083 15.5005 21.1716C15.5226 21.1716 15.5226 21.1936 15.5372 21.1936H15.5446ZM13.3648 21.267C13.7978 21.6636 14.3042 22.0603 14.8914 22.4348V21.5829H14.7226C14.7226 21.5829 14.7005 21.5608 14.7005 21.5461C14.7005 21.5461 14.7005 21.5241 14.7226 21.5241H14.796C14.796 21.5241 14.8327 21.5021 14.8327 21.4653V20.9145V20.8925C14.8327 20.8925 14.7739 20.9145 14.7372 20.9292H14.7152L14.6932 20.9512C14.6932 20.9512 14.6565 20.9292 14.6565 20.9145L14.6785 20.8925C14.6785 20.8925 14.8106 20.797 14.884 20.7603V19.7247L13.3574 21.2523L13.3648 21.267Z" fill="#003976"/>
</svg>
