<svg width="32" height="32" viewBox="0 0 32 32" fill="none" xmlns="http://www.w3.org/2000/svg">
<path d="M0 12.8C0 5.73075 5.73076 0 12.8 0H19.2C26.2692 0 32 5.73076 32 12.8V19.2C32 26.2692 26.2692 32 19.2 32H12.8C5.73075 32 0 26.2692 0 19.2V12.8Z" fill="#970022"/>
<g clip-path="url(#clip0_12918_99301)">
<path d="M12.1456 22.2505C12.288 22.4698 12.5727 22.7734 12.9307 22.883C13.1896 22.9589 13.4441 22.921 13.6813 22.7902C13.7633 22.8535 13.8453 22.9294 13.9186 23.0306C13.8194 23.0728 13.7374 23.136 13.7115 23.2415C13.6943 23.3216 13.6813 23.3975 13.6813 23.4734C13.6813 23.7517 13.8237 24.0005 14.1041 24.2325C14.1084 24.2578 14.1127 24.2788 14.1127 24.2788C14.1257 24.3927 14.1429 24.5319 14.2249 24.6584C14.2508 24.7005 14.2939 24.7596 14.3543 24.8102C14.3974 24.9704 14.5225 25.1644 14.859 25.2741C14.9539 25.3331 15.0661 25.3795 15.1825 25.4259L15.3422 25.4933L15.2904 25.4512C15.3249 25.4807 15.3982 25.5355 15.4414 25.5482C15.6441 25.6114 15.8943 25.603 15.9633 25.5988C15.9763 25.5988 15.9892 25.5988 15.9979 25.5988C16.3775 25.5524 16.6622 25.3162 16.9081 25.0463C16.9944 24.9493 17.1022 24.8355 17.1324 24.7048C17.1669 24.5656 17.1453 24.4222 17.1453 24.2831C17.1453 24.1102 17.1453 23.9499 17.1626 23.7812C17.1798 23.6505 17.2014 23.5367 17.3308 23.4734C17.4991 23.3933 17.6501 23.4734 17.8054 23.5367C17.8787 23.5704 17.952 23.5999 18.0254 23.6294C18.1116 23.6589 18.185 23.6589 18.2454 23.7306C18.2842 23.777 18.3273 23.7939 18.3877 23.7981C18.4783 23.8065 18.4999 23.815 18.5646 23.8824C18.6336 23.9499 18.7026 23.9921 18.7846 24.0427C18.8709 24.0975 18.9658 24.1523 19.0693 24.1734C19.134 24.1861 19.2246 24.1734 19.285 24.1397C19.3411 24.1059 19.3583 24.0469 19.4015 24.0005C19.4575 23.9415 19.5395 23.9162 19.6085 23.874C19.656 23.8445 19.7078 23.8361 19.7509 23.8023C19.7983 23.7602 19.8027 23.7011 19.8285 23.6505C19.8889 23.5324 20.0442 23.5577 20.1176 23.4481C20.1823 23.3427 20.1564 23.1824 20.0744 23.0939C20.0227 23.0348 19.9536 22.9969 19.9019 22.9378C19.876 22.9041 19.8372 22.883 19.8156 22.8451C19.7983 22.8029 19.8027 22.7565 19.7768 22.7186C19.7336 22.6469 19.6301 22.6005 19.5956 22.5161C19.5136 22.2969 19.5999 22.027 19.505 21.8203C19.4619 21.7276 19.3885 21.7065 19.4101 21.5884C19.4403 21.4324 19.436 21.251 19.5136 21.1077C19.6042 20.9432 19.7854 21.3396 19.8242 21.3818C19.8976 21.4661 19.9752 21.5589 20.0615 21.6306C20.165 21.7191 20.2642 21.7739 20.4023 21.7739C20.5101 21.7739 20.6007 21.7529 20.6611 21.6559C20.7517 21.5125 20.6223 21.386 20.5748 21.251C20.5144 21.0781 20.4411 20.9052 20.4109 20.7197C20.3893 20.5848 20.3548 20.4456 20.4411 20.3233C20.4756 20.2727 20.5489 20.2853 20.5878 20.2347C20.6309 20.1884 20.6309 20.104 20.7129 20.0956C20.7819 20.0871 20.8337 20.1673 20.8897 20.1884C21.0019 20.2347 21.0925 20.1841 21.1443 20.0829C21.1615 20.0492 21.1572 20.007 21.1788 19.9775C21.2003 19.9522 21.2607 19.9438 21.2909 19.9269C21.3945 19.8721 21.429 19.7371 21.3945 19.6317C21.3513 19.5179 21.2305 19.4546 21.1658 19.3576C21.1184 19.2859 21.1486 19.2184 21.1572 19.1341C21.1658 19.0287 21.1658 18.9148 21.1399 18.8136C21.1227 18.7546 21.0925 18.7082 21.0537 18.6618C21.0019 18.5943 21.0192 18.5817 21.0321 18.4973C21.0407 18.451 21.0235 18.3244 21.0537 18.2865C21.0925 18.2401 21.2046 18.3371 21.2564 18.354C21.3858 18.3919 21.567 18.413 21.7007 18.3793C21.787 18.354 21.8733 18.3244 21.9164 18.2401C22.007 18.0714 21.8819 17.9027 21.7439 17.81C21.6576 17.7509 21.6878 17.713 21.787 17.6919C21.9164 17.6624 22.0329 17.6666 22.158 17.6033C22.2529 17.5527 22.3004 17.4937 22.3219 17.3883C22.3349 17.325 22.3349 17.2871 22.3866 17.2449C22.5247 17.131 22.7706 17.1437 22.6886 16.8949C22.6498 16.7726 22.4729 16.6419 22.5204 16.5027C22.5592 16.3888 22.7274 16.3256 22.6972 16.1822C22.6541 15.9756 22.4125 15.9292 22.2443 15.8955C22.076 15.8617 21.8992 15.8195 21.7353 15.7774C21.7353 15.7774 21.5627 15.731 21.5584 15.731L21.416 15.6593L21.1572 15.537C21.1572 15.537 20.7646 15.4231 20.7474 15.4189C20.7474 15.4189 20.7388 15.4189 20.7388 15.4147C20.7258 15.4105 20.7129 15.4021 20.7129 15.4021L20.5921 15.3388L20.316 15.2502L20.1003 15.1828L20.0787 15.1701L20.0011 15.1364L19.8846 15.09L19.8285 15.0731C19.4317 14.934 19.0607 14.8749 18.6897 14.9002C18.694 14.9002 18.5689 14.9002 18.5689 14.9002C18.4265 14.9002 18.2281 14.9002 17.9908 14.9635L17.7665 15.0521L17.6803 15.09L17.6457 15.1027C17.6457 15.1027 17.4818 15.1533 17.4818 15.1575L17.3999 15.1954L17.292 15.2376C17.1798 15.2629 17.0073 15.2587 16.8434 15.2545C16.6665 15.2545 16.4853 15.246 16.3128 15.2756C16.0971 15.3093 15.9375 15.3978 15.8124 15.4738L15.6312 15.5665H15.6053L15.4673 15.6045L15.4371 15.6129L15.2559 15.6804L15.1567 15.7183L15.0445 15.7605L14.9151 15.8322L14.8719 15.8575L14.708 15.9545L14.6778 15.9756L14.6304 16.0093C14.6304 16.0093 14.6131 16.0177 14.6045 16.0304C14.6045 16.0304 14.4621 16.1611 14.4492 16.1738C14.4276 16.1991 14.3543 16.2834 14.3543 16.2834L14.3241 16.3256C14.2249 16.4352 14.0782 16.5702 13.9747 16.6461C13.9272 16.6714 13.8194 16.7346 13.8194 16.7346L13.7504 16.7895L13.69 16.8358L13.4743 16.9581L13.3794 17.0087C13.3794 17.0087 13.3664 17.0172 13.3578 17.0214L13.2758 17.0762L13.1292 17.1901L13.0688 17.2365L12.8919 17.4051L12.866 17.4389L12.6978 17.6582L12.6805 17.6919C12.5684 17.8564 12.508 18.0503 12.4433 18.2359L12.3613 18.4763C12.3397 18.5184 12.1931 18.7208 12.1456 18.763C12.1456 18.763 12.1585 18.7546 12.1715 18.7504C12.1499 18.763 12.1284 18.7757 12.1197 18.7841L12.0766 18.822C12.0766 18.822 12.0162 18.8853 12.0119 18.8895L11.9687 18.9233L11.7746 19.1088L11.684 19.2564L11.6538 19.3154L11.5805 19.4209L11.4209 19.6697C11.4209 19.6697 11.395 19.7245 11.3777 19.7624C11.3605 19.7877 11.326 19.851 11.2785 19.9775C11.2742 19.9817 11.2181 20.0408 11.2181 20.0408C11.1922 20.0661 11.0197 20.2305 10.9938 20.3444C10.9938 20.3444 10.3985 20.2811 9.93692 20.0492C9.48397 19.8215 9.72123 20.1884 9.85496 20.298C9.98438 20.4034 10.1354 20.5215 10.5365 20.6354C10.5365 20.6354 10.2475 20.6016 9.79457 20.4245C9.34593 20.2474 9.7126 20.6185 9.83339 20.6944C9.94987 20.7703 10.1008 20.8378 10.3079 20.8757C10.3079 20.8757 9.63927 20.8378 9.22946 20.7028C8.81964 20.5679 9.03102 20.8125 9.14749 20.8884C9.35887 21.0318 9.83771 21.0908 9.83771 21.0908C9.83771 21.0908 9.69966 21.1077 9.32005 21.0191C8.94474 20.939 9.35887 21.23 9.68241 21.2721C9.68241 21.2721 9.44946 21.3354 9.26828 21.3607C9.09141 21.386 9.29416 21.4745 9.52711 21.4745C9.68241 21.4745 10.0448 21.4324 10.1267 21.4113C10.1267 21.4113 10.3769 21.4577 10.6228 21.4745L10.4718 21.5631C10.4718 21.5631 9.63927 21.6559 9.47966 21.6601C9.31573 21.6601 9.29416 21.8203 9.59613 21.8372C9.81182 21.8499 9.93692 21.8456 10.0534 21.8372C10.0534 21.8372 9.78163 21.9932 9.6479 22.0607C9.4926 22.1408 9.54437 22.242 9.84633 22.1661C10.1526 22.0944 10.5107 21.9553 10.6832 21.8794C10.6832 21.8794 11.0197 21.8667 11.1793 21.8161C11.1793 21.8161 10.9852 22.124 10.7695 22.2842C10.6142 22.4023 10.7738 22.436 10.9636 22.3854C11.1534 22.339 11.4381 22.1914 11.5977 21.9258C11.5977 21.9258 11.6797 21.9468 11.753 21.9468C11.753 21.9468 11.8264 22.1703 12.137 22.2716" fill="#D1AE79"/>
<path d="M19.63 16.6065V16.5977C19.63 16.6109 19.621 16.6109 19.63 16.6065Z" fill="#711419"/>
<path d="M18.7414 16.9544C18.7414 16.9544 18.8536 17.0008 18.9571 16.9797C19.0261 16.9629 19.1599 16.9038 19.2246 16.8912C19.2634 16.8828 19.3195 16.8996 19.3583 16.8912C19.4661 16.8575 19.6689 16.6508 19.4273 16.6255C19.341 16.6171 19.0779 16.7141 19.0002 16.7352C18.9183 16.7562 18.8665 16.7689 18.8018 16.8026C18.7846 16.8111 18.6896 16.887 18.7026 16.8743C18.7026 16.8743 18.6379 16.9249 18.7414 16.9502" fill="#711419"/>
<path d="M15.769 19.2769C15.7949 19.2474 15.8294 19.2685 15.8596 19.2769C15.8854 19.2854 15.8898 19.336 15.9027 19.3613C15.9113 19.3823 15.9631 19.4329 15.9717 19.4498C16.0149 19.6396 15.9717 19.8926 15.8854 20.0402C15.8596 20.0824 15.8164 20.1077 15.7905 20.1119C15.7517 20.1119 15.7431 20.0613 15.7301 20.0402C15.6741 19.9643 15.7172 19.7787 15.7301 19.6944C15.7474 19.5805 15.6568 19.4034 15.7129 19.3233L15.7776 19.2769H15.769Z" fill="#711419"/>
<path d="M13.0816 19.4778C13.129 19.4652 13.1981 19.4905 13.2283 19.4778L13.293 19.4525C13.3663 19.4062 13.444 19.4188 13.5173 19.4272C13.5561 19.4315 13.6683 19.4778 13.7028 19.4821C13.7632 19.4863 14.0436 19.52 14.3455 19.558C14.3455 19.558 14.5052 19.5369 14.4663 19.4905C14.4922 19.52 14.4663 19.4652 14.4016 19.4483L14.3801 19.4272C14.3801 19.4272 14.3283 19.3851 14.4232 19.3513C14.3887 19.3598 14.4879 19.3387 14.5052 19.3134C14.544 19.2754 14.4879 19.229 14.4879 19.229C14.3455 19.1827 14.1859 19.2712 13.9702 19.2501C13.8667 19.2417 13.7157 19.1827 13.5691 19.2037C13.4051 19.2333 13.1679 19.3218 13.0557 19.4062C13.0557 19.4062 12.9996 19.4989 13.0773 19.4736" fill="#711419"/>
<path d="M14.8807 18.3444C15.0274 18.3359 15.0317 18.4835 15.036 18.4667C15.0188 18.5721 14.7556 18.5805 14.6953 18.6606C14.5098 18.8968 14.5874 19.1203 14.1517 19.1414C14.1517 19.1414 14.0654 19.1203 14.0999 19.0866C14.1258 19.057 14.2337 19.0317 14.2725 19.0064C14.3286 18.9727 14.3243 18.8841 14.3631 18.8293C14.3717 18.8167 14.4235 18.7998 14.4321 18.7872C14.5529 18.6269 14.5702 18.4624 14.7815 18.3655C14.7902 18.3612 14.8678 18.3402 14.8851 18.3359" fill="#711419"/>
<path d="M16.2737 17.7114C16.3255 17.6819 16.3729 17.7114 16.4074 17.741C16.429 17.7536 16.5843 18.1289 16.5929 18.1669C16.6102 18.3018 16.6275 18.6139 16.5929 18.7151C16.5369 18.8543 16.4074 18.9639 16.4333 19.2127C16.4506 19.3603 16.5153 19.4742 16.5757 19.6007C16.5843 19.6217 16.649 19.744 16.6533 19.7693C16.6792 19.9043 16.6059 20.0772 16.5929 20.1868C16.5584 20.4567 16.6663 20.7013 16.6231 20.9585C16.6059 21.0682 16.5671 21.1272 16.5067 21.1905L16.4549 21.2326C16.442 21.2579 16.4161 21.2664 16.3902 21.2875L16.36 21.317C16.3169 21.3296 16.3082 21.3549 16.291 21.3592C16.1745 21.3845 16.1486 21.317 16.1572 21.3338C16.0365 21.0049 16.2349 20.6212 16.1357 20.3007C16.1141 20.229 16.0235 20.1573 16.0106 20.0772C15.9674 19.7904 16.2435 19.6386 16.2392 19.4489C16.2392 19.3097 16.058 19.1326 16.0149 18.9976C15.9631 18.8416 15.9286 18.538 15.9976 18.3398C16.0149 18.2934 16.0796 18.2133 16.0925 18.15C16.1271 18.0277 16.1788 17.9223 16.1961 17.8464C16.2004 17.8211 16.2176 17.7831 16.2349 17.7621C16.2349 17.7536 16.2608 17.7241 16.2694 17.7199" fill="#711419"/>
<path d="M19.7593 17.028C19.9577 17.0027 20.044 17.0829 19.9534 17.2473L19.9146 17.2853C19.9146 17.2853 19.8455 17.357 19.8369 17.3654C19.742 17.4329 19.6514 17.4792 19.5781 17.5636C19.5522 17.5931 19.5349 17.6648 19.5048 17.6901C19.453 17.7238 19.2632 17.8082 19.2157 17.8124C18.9785 17.8503 18.6549 17.6184 18.6204 17.4835C18.5902 17.3696 18.6204 17.2557 18.6722 17.2304C18.7498 17.1883 18.9655 17.2094 19.0389 17.2051C19.22 17.1925 19.3365 17.2051 19.4789 17.1545C19.5651 17.1292 19.6644 17.0407 19.7636 17.028" fill="#711419"/>
<path d="M17.0249 17.3507C16.9559 17.338 16.9559 17.2242 16.779 17.2621C16.6539 17.2874 16.6194 17.4645 16.4425 17.4603L16.3562 17.4181C16.2786 17.4013 16.2225 17.4266 16.1535 17.3928C15.8343 17.2495 16.3994 16.5073 16.5806 16.5157C16.5892 16.5157 16.6841 16.5494 16.6927 16.5621C16.7531 16.6085 16.7531 16.8151 16.8049 16.891C16.8437 16.9416 16.9084 16.9374 16.9602 16.9796C17.0163 17.0217 17.1284 17.1693 17.1414 17.2452C17.1414 17.2452 17.1716 17.3717 17.0292 17.3549" fill="#711419"/>
<path d="M15.6653 17.3988C15.5445 17.4663 15.277 17.5675 15.2209 17.6855C15.1907 17.7446 15.1907 17.7994 15.1648 17.8711C15.1648 17.8795 15.1303 17.8922 15.1174 17.9175C14.988 17.9175 14.8715 17.909 14.7593 17.9386C14.6688 17.9639 14.5437 18.0566 14.4444 18.0693C14.246 18.103 14.0907 18.0145 13.9052 18.0482C13.8232 18.0608 13.7672 18.1452 13.7025 18.1789C13.6421 18.2042 13.6205 18.2042 13.573 18.2464L13.5299 18.2928C13.5299 18.2928 13.504 18.356 13.4911 18.3771C13.4523 18.4362 13.435 18.4994 13.4264 18.5627C13.4177 18.6259 13.3789 18.7735 13.3444 18.8368C13.3272 18.8663 13.2452 18.9338 13.2323 18.9633C13.2279 18.9802 13.2064 19.0012 13.2323 19.0308C13.2064 19.0012 13.2107 19.0603 13.3703 19.0687C13.5472 19.0687 13.9354 18.9549 13.9354 18.9549L14.1209 18.8579C14.1554 18.8283 14.3021 18.7229 14.3323 18.685C14.466 18.5205 14.8284 17.9217 15.1131 18.0777L15.1648 18.1115C15.2339 18.2211 15.1476 18.5374 15.0958 18.6091L15.0311 18.685C14.9794 18.7018 14.9492 18.8283 14.9405 18.8874C14.9276 18.9844 14.9578 19.0687 14.9664 19.1235C14.9794 19.2374 14.9923 19.3808 14.919 19.5199C14.906 19.5452 14.8629 19.5958 14.8758 19.6717C14.8888 19.7603 15.0139 19.8236 15.0311 19.891C15.0397 19.929 15.0743 19.9332 15.0311 20.0007C15.0052 20.0386 14.906 20.1019 14.8758 20.1314C14.8327 20.1736 14.8715 20.2368 14.8974 20.2621C14.975 20.3338 15.0397 20.3422 15.1001 20.4182C15.1864 20.5278 15.1821 20.6164 15.3719 20.6374C15.5186 20.6501 15.73 20.6585 15.6394 20.4603L15.5919 20.3886C15.5401 20.2579 15.4496 20.144 15.4366 20.0007C15.4194 19.8236 15.566 19.7308 15.5056 19.5874C15.4582 19.4735 15.2296 19.4862 15.2123 19.3428C15.2037 19.2627 15.2856 19.0898 15.3029 19.0139C15.3201 18.9085 15.2899 18.841 15.3245 18.7482C15.346 18.685 15.4452 18.6133 15.4582 18.5332C15.4798 18.3898 15.3633 18.297 15.415 18.1368C15.4409 18.0566 15.5703 18.0651 15.6178 18.006C15.6825 17.9259 15.648 17.812 15.6825 17.6982C15.6868 17.6855 15.717 17.6181 15.7256 17.6054C15.7256 17.6012 15.7515 17.4578 15.7515 17.4578C15.7343 17.3693 15.6782 17.4072 15.6696 17.403M14.2417 18.5585C14.1166 18.588 14.1036 18.3223 13.806 18.4277C13.7887 18.4319 13.7025 18.5078 13.6938 18.5205C13.6593 18.5964 13.6809 18.7946 13.6378 18.8157C13.6378 18.8157 13.5213 18.8452 13.5428 18.6976C13.5774 18.4657 13.6248 18.4235 13.7413 18.3265C13.7542 18.3139 13.806 18.2801 13.8276 18.2759C13.9699 18.2422 14.2331 18.297 14.2805 18.3645C14.3193 18.4235 14.2331 18.5542 14.2417 18.55" fill="#711419"/>
<path d="M22.4601 16.8227C22.4385 16.7173 22.1408 16.7215 22.0201 16.5823C21.9769 16.5233 22.0071 16.4938 22.0201 16.4516C22.0546 16.3293 22.3263 16.401 22.391 16.2914C22.4169 16.245 22.4212 16.1058 22.4083 16.0889C22.2401 15.8865 21.8777 15.9835 21.6232 15.8823C21.4981 15.8317 21.3471 15.7347 21.222 15.6883C21.0624 15.6251 20.9373 15.6166 20.7734 15.5576C20.7389 15.5407 20.6655 15.4901 20.6267 15.4775C20.4455 15.4058 20.3032 15.3931 20.1263 15.3172C20.1047 15.3088 20.0486 15.2751 20.0271 15.2708C19.9537 15.2413 19.9322 15.2329 19.8588 15.2076C19.5784 15.1106 19.229 15.022 18.8235 15.0473C18.6466 15.0558 18.4439 15.022 18.1721 15.0979C18.0815 15.1232 17.9478 15.1992 17.8615 15.2287C17.8011 15.2455 17.7451 15.2582 17.689 15.2835C17.6113 15.313 17.5423 15.3594 17.4345 15.3847C17.1282 15.4522 16.714 15.3763 16.4035 15.4269C16.1317 15.469 15.9764 15.6377 15.7521 15.7136C15.683 15.7347 15.6572 15.7263 15.5925 15.7516C15.5536 15.7642 15.463 15.7895 15.4285 15.8064C15.3336 15.8528 15.2732 15.8697 15.1697 15.9118C15.1179 15.9371 15.0575 15.9835 15.0058 16.0046C14.9281 16.0426 14.9238 16.051 14.8634 16.0932L14.8116 16.1311C14.8116 16.1311 14.6995 16.2239 14.6865 16.2408C14.6434 16.2829 14.6003 16.3462 14.5614 16.3926C14.4493 16.5233 14.2767 16.6835 14.1344 16.7847C14.0826 16.8185 14.0481 16.8143 14.0006 16.8522C13.9489 16.8944 13.9014 16.9366 13.8497 16.9745C13.7289 17.0546 13.6124 17.1095 13.483 17.1811L13.401 17.236C13.2932 17.3034 13.2932 17.333 13.181 17.4046C13.1077 17.4552 13.0775 17.5312 13.0085 17.586C12.9653 17.6197 12.9092 17.7294 12.8834 17.7715C12.7453 17.9739 12.6892 18.2691 12.59 18.5179C12.5598 18.5896 12.3183 18.9354 12.2535 18.9565L12.2104 18.9987C12.1759 19.0282 12.1759 19.0366 12.1414 19.0661C12.0681 19.1294 11.9947 19.1674 11.9386 19.2433C11.8955 19.3023 11.8653 19.3698 11.8265 19.4372C11.7618 19.5384 11.6582 19.6565 11.6022 19.7662C11.5763 19.8083 11.5633 19.8463 11.5461 19.8885C11.5418 19.8969 11.5374 19.9011 11.5374 19.9011C11.5116 19.9348 11.4641 20.074 11.4641 20.074C11.4123 20.1879 11.2959 20.2511 11.1406 20.4704C10.9594 20.4831 10.3253 20.327 9.89819 20.1246C9.9931 20.23 10.4762 20.5463 11.0414 20.6096C11.0025 20.6644 11.0025 20.7192 10.9335 20.7361C10.7092 20.7909 10.3166 20.6686 9.79035 20.4915C9.82055 20.5632 10.2821 20.8288 10.9723 20.871C10.8688 20.9891 9.92839 20.9596 9.19504 20.7614C9.16484 20.8373 10.1139 21.0439 10.6359 21.0355C10.5496 21.0819 10.3123 21.1325 10.1613 21.1873C9.92408 21.162 9.59191 21.124 9.5272 21.0987C9.54015 21.1451 9.77741 21.2084 9.97153 21.2505C9.78603 21.3138 9.50564 21.3518 9.4021 21.3771C9.47975 21.3939 9.78172 21.3475 10.0966 21.2716C10.3727 21.3222 10.7998 21.3771 11.0284 21.3686C10.968 21.3981 10.7523 21.5331 10.5798 21.6343C10.1398 21.6765 9.65662 21.7102 9.55309 21.7229C9.60917 21.7313 10.0017 21.7355 10.4115 21.7271C10.1613 21.8704 9.88957 22.0223 9.76015 22.0771C9.95427 22.0307 10.2951 21.9 10.6445 21.7186C10.9896 21.706 11.3174 21.6765 11.4512 21.6301C11.4037 21.7271 11.1233 22.2036 10.8645 22.3132C10.9767 22.2964 11.3433 22.1952 11.559 21.6596C11.6367 21.6933 11.7273 21.7144 11.8265 21.7186C11.8826 21.803 12.0249 22.0223 12.2837 22.0349C12.3355 22.1825 12.8143 22.9458 13.4916 22.6506C13.2975 22.5452 13.1767 22.4355 13.0818 22.1319C13.3838 22.115 14.1732 22.5367 14.4105 23.456C14.225 23.3928 13.9877 23.2874 13.9618 23.1946C13.9101 23.4054 13.8755 23.6838 14.3587 24.1561C14.3673 24.2573 14.363 24.3796 14.3889 24.4934C14.4665 24.5735 14.5571 24.6326 14.6434 24.7043C14.6477 24.8392 14.6305 25.0205 14.9885 25.126C15.1093 25.223 15.5019 25.3284 15.5579 25.3959C15.6744 25.4338 15.847 25.438 15.9764 25.4338C15.9764 25.4338 16.1446 25.4043 16.1921 25.341C16.274 25.341 16.3905 25.3326 16.9125 24.7928C17.0203 24.6663 16.9125 23.9663 16.9384 23.7976C16.9901 23.6753 17.0117 23.5572 17.0807 23.4097C17.0807 23.4097 17.1541 23.2621 17.2835 23.1988C17.2921 23.1946 17.3007 23.1946 17.3137 23.1904C17.6113 23.1229 17.9996 23.397 18.1851 23.4729C18.2541 23.4982 18.2886 23.4856 18.3447 23.5151C18.3706 23.5319 18.4094 23.5868 18.4353 23.6036C18.5 23.6416 18.5647 23.6289 18.638 23.6669C18.7459 23.7259 18.9659 24.0338 19.1514 24C19.2118 23.9874 19.2592 23.8524 19.311 23.8229C19.4016 23.7681 19.5224 23.7765 19.6043 23.7175C19.6949 23.6458 19.6561 23.5699 19.669 23.4729C19.669 23.4729 19.7122 23.4265 19.7165 23.4054C19.7596 23.4012 19.8588 23.4054 19.9192 23.3844C19.9279 23.3844 19.9537 23.3506 19.9624 23.3422C19.9969 23.3042 19.9753 23.2621 19.9624 23.2283C19.9451 23.1946 19.8588 23.1482 19.8286 23.1187C19.7639 23.0554 19.6431 22.9584 19.6043 22.8783C19.5827 22.8361 19.6086 22.8277 19.5784 22.7855C19.5482 22.7392 19.4706 22.6928 19.449 22.6337C19.3627 22.444 19.3972 22.0265 19.3584 21.9674C19.3239 21.9084 19.2808 21.9168 19.2463 21.8662C19.1729 21.7524 19.2635 21.3771 19.2721 21.2295C19.2765 21.1114 19.16 21.1831 19.16 21.1831C19.0651 21.4192 19.0737 21.5247 19.0478 21.862C19.0478 21.8915 19.0047 22.0729 19.0047 22.1024C19.0047 22.2205 19.0737 22.4229 19.0263 22.562C19.009 22.6084 18.9141 22.697 18.7804 22.6928C18.7286 22.6928 18.4784 22.6295 18.4223 22.6084C18.4094 22.6 18.3576 22.541 18.3533 22.541C18.2282 22.444 18.2023 22.5367 18.1937 22.5831C18.1937 22.6337 18.2109 22.6464 18.2196 22.6717C18.2239 22.697 18.2757 22.8024 18.2713 22.8151C18.2713 22.8277 18.2282 22.9416 17.9953 22.8066C17.8184 22.7012 17.6458 22.4187 17.6372 22.3681C17.6113 22.2584 17.6501 22.1783 17.6674 22.1361C17.7537 22.0602 17.8572 22.1656 17.9478 22.212C17.9694 22.2247 18.0255 22.2584 18.0513 22.2626C18.1031 22.2711 18.1851 22.2542 18.1937 22.2542C18.5345 22.2373 18.8882 22.3554 18.9486 22.1319C18.9874 21.9927 18.8451 21.9168 18.8192 21.8578C18.7847 21.7861 18.8019 21.7819 18.7847 21.7018C18.7847 21.6933 18.7588 21.6427 18.7545 21.6385C18.72 21.5795 18.7415 21.5289 18.7114 21.4656C18.6768 21.3939 18.5733 21.3518 18.5302 21.2885C18.4741 21.2084 18.4741 21.1072 18.3964 21.0481C18.2843 20.9554 17.8227 20.8246 17.7709 20.7192C17.6847 20.5547 17.7882 20.2469 17.7494 20.0403C17.7278 19.918 17.6847 19.8505 17.6113 19.7788C17.5811 19.7493 17.5682 19.7029 17.5768 19.665C17.5984 19.5933 17.6372 19.6144 17.6588 19.4499C17.6717 19.3571 17.6501 19.2559 17.6588 19.1631C17.6588 19.1463 17.7019 19.0029 17.7062 18.986C17.7278 18.7414 17.6933 18.4842 17.6372 18.3071C17.6113 18.2185 17.5294 18.1468 17.5035 18.0667C17.4819 17.9992 17.5121 17.9571 17.4819 17.8896C17.4603 17.8306 17.3827 17.7884 17.3525 17.7378C17.2921 17.6492 17.3094 17.5016 17.2188 17.451C17.1497 17.4173 17.1239 17.4637 17.1282 17.451C17.1066 17.5312 17.1109 17.6113 17.1497 17.7125C17.167 17.7589 17.2533 17.8221 17.2619 17.8643C17.2792 17.9486 17.249 18.0456 17.2619 18.1258L17.305 18.2143C17.3396 18.4336 17.2188 18.7246 17.1239 18.8469C17.0592 18.927 16.865 19.0324 16.8564 19.1547C16.8478 19.2306 16.878 19.2348 16.8952 19.2643C16.9254 19.3023 17.016 19.3571 17.0333 19.3951C17.0419 19.4246 17.0548 19.4162 17.0678 19.4457L17.0807 19.5047C17.0937 19.6607 16.8909 19.6903 16.9901 19.8758C17.0203 19.9306 17.1152 19.9306 17.1713 19.9644C17.2705 20.0276 17.4647 20.2047 17.4819 20.3565C17.4905 20.424 17.4819 20.774 17.4603 20.8162C17.4129 20.9132 17.1627 20.9511 17.1929 21.1451C17.2231 21.356 17.7925 21.2969 17.9521 21.4066C18.0298 21.4614 18.0427 21.571 18.0643 21.6722C18.0772 21.7271 18.0211 21.7439 17.9996 21.7566C17.9392 21.7903 17.896 21.765 17.8184 21.7819C17.6329 21.8198 17.3396 21.9 17.2619 22.0476C17.167 22.2162 17.2792 22.444 17.2403 22.6379C17.2015 22.8108 17.0678 23.0259 16.9686 23.1651C16.9082 23.2494 16.8348 23.3337 16.8046 23.456C16.7399 23.7133 16.7874 24.0211 16.7658 24.3247C16.7658 24.3247 16.7788 24.485 16.6709 24.5988C16.5458 24.7296 16.1231 25.1218 15.8168 25.1218C15.7046 25.1218 15.6615 25.0838 15.5364 24.9952C15.4587 24.991 15.2819 24.9489 15.1783 24.8434C15.1481 24.7886 14.8116 24.4555 15.023 24.3627C15.2215 24.2741 15.5407 24.4681 15.6874 24.5609C15.7477 24.5609 16.1791 24.582 16.6407 23.9916C16.6191 23.6838 16.5933 23.2874 16.5587 23.2199C16.5113 23.0681 16.2482 22.8024 16.1921 22.6422C16.1576 22.5114 16.0929 22.2584 16.136 22.0813C16.1187 21.8831 15.9893 21.8409 15.9376 21.6807C15.9246 21.6385 15.903 21.609 15.8944 21.5963C15.8815 21.5415 15.8685 21.4867 15.8297 21.4361C15.7477 21.318 15.6701 21.2927 15.6011 21.1746C15.5234 21.0524 15.5407 20.9048 15.4199 20.8246C15.3552 20.7825 15.2689 20.7782 15.1956 20.7361C15.1438 20.7066 15.0748 20.6306 15.0187 20.6053C14.9454 20.5758 14.9281 20.5674 14.8548 20.5337C14.8203 20.5168 14.7556 20.4873 14.7254 20.4746C14.6909 20.4578 14.6607 20.4746 14.6348 20.4493C14.5485 20.3776 14.6089 20.3102 14.5658 20.1879C14.5614 20.1752 14.5269 20.171 14.5226 20.1415C14.4881 20.133 14.4234 20.074 14.3716 20.1077C14.3069 20.1583 14.2854 20.1457 14.2465 20.2427C14.225 20.3059 14.1775 20.5041 14.1301 20.5505C14.0912 20.5969 14.0395 20.6602 13.9748 20.7066C13.9144 20.7361 13.8669 20.7319 13.8669 20.7319L13.6987 20.7572L13.6124 20.8837C13.6124 20.8837 13.5218 20.871 13.4744 20.871C13.4614 20.9048 13.3493 20.9849 13.3147 21.0144C13.1724 21.0987 13.0861 21.0397 13.0775 21.0144C13.0689 20.9891 13.0257 20.9343 13.1206 20.8752C13.4485 20.7867 13.854 20.3565 13.8885 20.2638C13.8453 20.327 13.1638 20.6939 13.0387 20.7445C13.1724 20.4282 14.0093 19.9728 14.061 19.918C13.8497 19.9475 13.1379 20.3692 13.0128 20.5547C12.8963 20.7403 12.7583 20.6897 12.6245 20.6855C12.4994 20.6813 12.5081 20.812 12.5037 20.8963C12.5037 20.9764 12.439 21.1409 12.4908 21.1662C12.5771 21.2379 12.8057 20.9427 12.8791 21.103C12.9179 21.2801 12.4477 21.2716 12.452 21.415C12.4304 21.4909 12.8877 21.5162 12.974 21.5963C12.8273 21.7018 12.4649 21.7355 12.3571 21.7397C12.2924 21.7439 12.232 21.7397 12.1975 21.7397C12.1371 21.7313 12.0594 21.6765 11.9904 21.5668C11.861 21.3349 12.081 21.1746 12.0853 21.1156C12.0896 21.0524 12.0594 21.0861 12.0551 20.9891C12.0551 20.8921 12.163 20.8752 12.1932 20.8542C12.2233 20.8331 12.1845 20.8035 12.1932 20.7108C12.2535 20.4957 12.6073 20.2511 12.5167 20.1836C12.4347 20.1415 12.2622 20.327 12.1932 20.4114C11.9473 20.7192 11.6626 20.6222 11.5676 20.6264C11.352 20.6391 11.3908 20.4071 11.5374 20.4198C11.7143 20.3861 11.6971 20.1499 11.8222 20.1752C11.861 20.3439 11.6669 20.3692 11.7575 20.4114C11.8826 20.4578 11.8955 20.2975 11.9343 20.2343C11.9688 20.1668 12.1457 20.0192 12.1284 19.9854C12.0767 19.9686 11.9473 20.0571 11.8912 20.1035C11.7488 19.7577 12.1069 19.4921 12.1241 19.3909C12.2406 19.2095 12.8963 18.9776 12.9092 18.7035L12.9265 18.6866C12.9265 18.6866 12.9394 18.6782 12.9567 18.7119C12.9567 18.7119 12.9653 18.7457 12.9696 18.7625C12.9696 18.7836 12.9696 18.8047 12.9696 18.8047V18.7794C12.9783 18.8216 12.9783 18.8595 12.9783 18.8511V18.8932C12.9869 18.9185 13.0171 18.9312 13.0214 18.9312C13.0343 18.9312 13.0689 18.9185 13.1077 18.8764C13.112 18.8722 13.1508 18.8342 13.1508 18.83C13.2155 18.7836 13.2242 18.7794 13.2716 18.7161C13.3838 18.5559 13.1681 18.3197 13.2285 18.1047C13.2716 17.9613 13.4053 17.7884 13.4053 17.7884C13.4442 17.7083 13.3838 17.7083 13.3838 17.7083C13.2975 17.6914 13.2371 17.7842 13.25 17.7715C13.1379 17.8727 13.1077 17.9191 13.0257 18.0583C13.0257 18.0583 12.9567 18.1173 12.9394 18.0372C12.9006 17.9023 13.0602 17.6366 13.1077 17.5986C13.2026 17.5396 13.2932 17.5101 13.4053 17.4679C13.4657 17.4426 13.552 17.3498 13.6081 17.3372C13.634 17.3245 13.6685 17.3203 13.6987 17.3372C13.6987 17.3372 13.7418 17.3667 13.7202 17.4679C13.7202 17.4679 13.6771 17.586 13.6901 17.6281C13.703 17.6577 13.6944 17.683 13.7634 17.683C13.9273 17.6872 14.2854 17.6492 14.3889 17.5944C14.4148 17.586 14.4363 17.5522 14.4579 17.5312C14.4924 17.4974 14.4838 17.4468 14.4579 17.4426L14.3889 17.4215C14.445 17.4173 14.0869 17.4131 14.143 17.4004C14.0826 17.4089 14.2293 17.236 14.212 17.1558C14.2034 17.1179 14.1344 17.101 14.1214 17.0673C14.1128 17.0462 14.0783 17.0209 14.1214 16.9998L14.1732 16.9787C14.1732 16.9787 14.2077 16.945 14.2336 16.9323C14.3458 16.8817 14.5485 16.907 14.6391 16.9323C14.652 16.9366 14.7944 16.9787 14.8418 17.1095C14.8548 17.1474 14.8634 17.1854 14.885 17.2191C14.954 17.3077 15.1481 17.3414 15.2646 17.236C15.2862 17.2149 15.3164 17.1643 15.3336 17.1348C15.4458 16.8775 15.2775 16.7004 15.0619 16.6287C14.9756 16.5992 14.8332 16.5908 14.7254 16.5612C14.6477 16.5402 14.6952 16.4769 14.7167 16.46L14.7469 16.4305C14.7901 16.3715 14.9238 16.3124 14.9713 16.2998C15.0877 16.2576 15.2042 16.2155 15.3724 16.2787C15.3983 16.2871 15.463 16.3377 15.4846 16.342C15.6097 16.3715 15.6572 16.3799 15.7779 16.3209C15.8254 16.2998 15.8168 16.2914 15.8254 16.2787C15.8642 16.1606 15.7823 16.0805 15.7866 16.0974C15.765 15.9371 16.2223 16.1353 16.2956 16.0383C16.3646 15.9456 16.3215 15.7769 16.4121 15.7094C16.4207 15.7052 16.4725 15.6672 16.4768 15.6672C16.5631 15.6504 16.6364 15.6841 16.7054 15.7094L16.7788 15.7431C16.9254 15.8022 17.0505 15.8317 17.1282 15.9498C17.1799 16.0257 17.1713 16.1353 17.2188 16.2155C17.2403 16.245 17.2878 16.2703 17.3094 16.2998C17.3309 16.3251 17.3697 16.342 17.3956 16.3546C17.4388 16.3799 17.4517 16.3883 17.5078 16.4094C17.5466 16.4263 17.607 16.4853 17.6415 16.498C17.7796 16.5528 17.9435 16.5444 18.0902 16.5444C18.1764 16.5402 18.2282 16.5908 18.3145 16.5655C18.3576 16.5486 18.3447 16.4769 18.3145 16.4432C18.2627 16.3757 18.2196 16.3926 18.1333 16.3462C18.0988 16.3251 18.0556 16.2576 18.0211 16.2365C17.9176 16.1733 17.7709 16.1606 17.7062 16.0594C17.6976 16.0426 17.6847 16.0173 17.6847 15.9962L17.6588 15.9498C17.538 15.7052 17.4949 15.5576 17.6156 15.5112C17.689 15.4817 17.8529 15.4986 17.9305 15.469C17.9478 15.4606 17.9823 15.41 17.9953 15.4016C18.1721 15.3214 18.5086 15.2202 18.6898 15.313C18.7459 15.3383 18.6898 15.4775 18.7114 15.5323C18.72 15.5576 18.7631 15.5956 18.8106 15.6082C19.1945 15.7094 19.5784 15.6925 19.8631 15.8233C20.0314 15.8992 20.1608 16.0215 20.3118 16.1522C20.4412 16.2661 20.2902 16.3926 20.4239 16.4305C20.329 16.4432 20.2557 16.4516 20.2384 16.4052C20.2341 16.3926 20.2083 16.3504 20.191 16.342C20.0918 16.2492 19.9753 16.1058 19.8329 16.0552C19.7596 16.0299 19.7294 16.0552 19.6518 16.0341L19.5655 16.0046C19.4663 15.9793 19.4576 15.9877 19.3627 15.9666C19.3196 15.9582 19.2247 15.9076 19.1816 15.9034C18.9917 15.8781 18.8839 15.9498 18.7114 15.9034C18.6294 15.8781 18.5259 15.7558 18.4611 15.7221C18.3792 15.6799 18.3059 15.663 18.2153 15.6335C18.1807 15.6251 18.1592 15.6251 18.1333 15.6377C18.0815 15.663 18.0988 15.7094 18.1247 15.7431C18.1419 15.7642 18.1506 15.798 18.1678 15.8064C18.2325 15.8528 18.3576 15.8528 18.3921 15.916C18.4913 16.1058 18.3447 16.1775 18.3274 16.2323C18.3145 16.2661 18.2886 16.2956 18.3274 16.342C18.349 16.3673 18.3921 16.3968 18.418 16.4052C18.5086 16.4432 18.5819 16.4263 18.6639 16.4727C18.7243 16.5022 18.789 16.6118 18.8666 16.6287C19.0435 16.6667 19.091 16.5359 19.1816 16.5149C19.311 16.4853 19.3929 16.5528 19.5396 16.5149C19.5871 16.5022 19.6173 16.4432 19.6518 16.4263C19.738 16.3841 19.8243 16.3757 19.8761 16.4052C19.8761 16.4052 19.9322 16.4305 19.8502 16.4727C19.8027 16.498 19.7639 16.498 19.7165 16.5233C19.6863 16.5402 19.6518 16.5865 19.6475 16.5908C19.6345 16.6203 19.6216 16.6667 19.6216 16.6709C19.6388 16.6962 19.6561 16.7088 19.669 16.7173C19.8243 16.7679 19.9839 16.6709 20.1177 16.6498C20.2169 16.6372 20.493 16.6498 20.5749 16.7088C20.5749 16.7088 20.6483 16.7257 20.6008 16.8564C20.5706 16.9323 20.4412 16.9914 20.3937 17.0589C20.3679 17.0968 20.3334 17.1685 20.3075 17.2064C20.26 17.2655 20.2514 17.2655 20.2039 17.3203L20.1694 17.3667C20.1522 17.4215 19.9235 17.6113 19.8804 17.6745C19.8545 17.7125 19.8416 17.7547 19.8157 17.7926C19.7726 17.8516 19.7467 17.8601 19.7251 17.8938C19.6604 17.9866 19.531 18.1721 19.4231 18.2227C19.3757 18.2396 19.3067 18.2227 19.242 18.2059C19.1945 18.1932 19.1514 18.1131 19.1082 18.0962C18.9486 18.0245 18.7761 18.0456 18.638 17.9655C18.569 17.9233 18.5086 17.8095 18.4568 17.7462C18.4266 17.7041 18.3964 17.6324 18.349 17.6155C18.267 17.586 18.0729 17.6155 18.0341 17.6788C17.9607 17.8179 18.1506 18.1721 18.1678 18.3197C18.1807 18.4462 18.1204 18.5011 18.1678 18.6023C18.1894 18.6529 18.2757 18.6697 18.3015 18.7119C18.4223 18.8975 18.3188 19.1631 18.3447 19.4119C18.3533 19.4878 18.4051 19.5891 18.3878 19.6987C18.3706 19.8716 18.1376 20.0234 18.2325 20.2891C18.2368 20.3017 18.28 20.3312 18.2843 20.3355C18.3188 20.3523 18.3749 20.3439 18.4137 20.3355C18.4913 20.3102 18.5604 20.1626 18.638 20.1162C18.6466 20.1077 18.6725 20.0951 18.6855 20.0951C18.6941 20.0824 18.7157 20.0782 18.7243 20.074C18.7588 20.0487 18.7717 20.0487 18.789 20.0108C18.8235 19.9391 18.8106 19.8674 18.8321 19.7662C18.8537 19.6818 18.9357 19.5342 18.9443 19.4372C18.9745 19.1674 18.7717 18.6402 18.9141 18.5559C18.9702 18.5222 19.0219 18.4589 19.1169 18.4462C19.16 18.4378 19.2937 18.4758 19.3541 18.4758C19.2808 18.6444 19.5482 19.083 19.5267 19.3234C19.4749 19.9138 19.0823 20.2385 18.7415 20.5547C18.7027 20.5927 18.7372 20.6349 18.7631 20.6644C18.8278 20.7276 18.9961 20.6981 19.078 20.6855C19.2031 20.6602 19.2549 20.6053 19.3455 20.5758C19.38 20.5632 19.4188 20.5843 19.4576 20.5758C19.5525 20.5547 19.6302 20.4282 19.682 20.3565C19.682 20.3565 19.7898 20.2385 19.8157 20.3945V20.4029C19.8157 20.5463 19.7898 20.6981 19.8157 20.8373C19.8416 21.0017 20.1522 21.4951 20.3118 21.5204C20.6828 21.5753 20.3032 21.1156 20.2859 21.0819C20.2255 20.9427 20.1651 20.6939 20.1737 20.5126C20.1737 20.4451 20.2341 20.3102 20.2384 20.2469C20.2428 20.2132 20.2255 20.1415 20.2384 20.1162C20.2686 20.0571 20.4671 20.0403 20.5102 19.9644C20.5232 19.9391 20.5102 19.9011 20.5102 19.8758C20.5188 19.8252 20.5577 19.724 20.6008 19.6818C20.6267 19.6481 20.6655 19.6312 20.713 19.6818C20.7518 19.724 20.7604 19.821 20.8251 19.8927L20.8812 19.9517C20.9459 19.9939 21.0538 19.9391 21.0279 19.9433C21.0969 19.9222 21.0883 19.8589 21.1185 19.8294L21.1616 19.8126C21.3255 19.6481 20.9632 19.5005 20.9632 19.3487C20.9632 19.18 21.002 18.986 20.9416 18.8047C20.9287 18.7541 20.8424 18.6908 20.8294 18.6487C20.8036 18.5432 20.8596 18.4336 20.8726 18.3661C20.8985 18.227 20.8467 18.0077 20.8941 17.9486C20.9243 17.9149 20.9632 17.8896 21.0494 17.9065C21.1055 17.9149 21.1444 18.0077 21.1832 18.0372C21.3298 18.1553 21.4981 18.2143 21.744 18.189C21.7742 18.189 21.8001 18.1426 21.8044 18.13C21.8216 18.0878 21.8173 18.0288 21.7871 17.9908C21.6965 17.8769 21.3557 17.7884 21.3385 17.7294C21.3255 17.6872 21.2738 17.6281 21.3298 17.5986C21.2996 17.6197 21.5412 17.5902 21.6275 17.5733C21.744 17.5522 21.7483 17.4384 21.8303 17.4004C21.9424 17.3414 22.1063 17.392 22.171 17.2908C22.2056 17.2275 22.1797 17.1305 22.2142 17.0715C22.2616 16.9956 22.391 16.9787 22.4601 16.9155C22.4816 16.8986 22.473 16.8311 22.4687 16.81M13.4442 21.9506C13.401 21.9042 13.4355 21.8114 13.5175 21.7692C13.6685 21.7018 13.7289 21.7777 13.7591 21.8156C13.9057 22.0391 14.0956 22.3217 14.2336 22.4355C14.1042 22.4482 13.621 22.3048 13.4398 21.9464M14.6779 24.1687C14.6003 24.1687 14.0999 23.7597 14.1775 23.5024C14.3242 23.6121 14.6563 23.8356 14.6995 23.8314C14.7426 23.8567 14.7771 24.1392 14.6779 24.1687ZM15.256 24.1687C15.1913 24.1097 14.7081 23.6121 14.8289 23.3801C14.9626 23.5109 15.3293 23.844 15.463 23.8735C15.4975 23.9663 15.4932 24.232 15.256 24.1687ZM15.3077 22.2584C15.394 22.3849 15.5105 22.4524 15.5062 22.7223C15.4975 22.7855 15.5191 22.8024 15.5752 22.794C15.627 22.7813 15.5968 22.4735 15.7521 22.4903C15.8815 22.5072 15.7952 22.6843 15.8599 22.8867C15.8815 22.9584 16.0325 23.2115 15.9893 23.6458C15.9893 23.7597 15.7693 23.9073 15.6442 23.8187C15.545 23.7554 15.545 23.6838 15.4846 23.2241C15.4587 22.95 15.1222 22.8614 14.9799 22.7349C14.8332 22.6337 14.9195 22.5789 14.8893 22.3891C14.8073 22.1193 14.4795 21.9885 14.5873 21.8072C14.6218 21.7608 14.6563 21.7186 14.7556 21.7566C14.7642 21.8915 15.092 21.997 15.3121 22.2542M12.9955 21.3981C13.03 21.3813 13.1724 21.318 13.2112 21.3012C13.3665 21.2463 13.4485 21.3265 13.5865 21.2505C13.621 21.2295 13.6555 21.1789 13.6857 21.1536C13.7116 21.1325 13.7591 21.1367 13.7936 21.1114C13.8712 21.0608 14.0179 20.8963 14.1171 20.8795C14.1775 20.871 14.1732 20.8837 14.2034 20.8879C14.2034 20.8921 14.2465 20.8795 14.2336 20.9638C14.2077 21.124 14.6003 20.9638 14.8505 21.0228C15.0273 21.0608 15.1956 21.1198 15.1524 21.2295C15.1568 21.2168 15.1007 21.2632 15.0877 21.2716C14.9669 21.356 14.8764 21.2632 14.816 21.2548C14.7081 21.2421 14.6348 21.2759 14.5269 21.2632L14.3975 21.221C14.3156 21.2168 14.1991 21.259 14.1344 21.2632C14.0179 21.2716 13.9618 21.2295 13.854 21.2421C13.8065 21.2463 13.7202 21.3138 13.6814 21.3265C13.6469 21.3391 13.6081 21.3518 13.5693 21.3602C13.5477 21.3644 13.4916 21.3981 13.4614 21.4066C13.3536 21.4572 13.2889 21.4572 13.1595 21.4951L13.0818 21.5162C12.9179 21.5373 12.9308 21.4277 12.9826 21.3981M12.5987 22.0265C12.7755 21.9843 12.8273 22.0265 12.9136 22.2247C12.9783 22.3428 13.1077 22.4946 13.1595 22.5663C12.9524 22.5916 12.6332 22.3175 12.5426 22.1699C12.4865 22.0982 12.5728 22.0391 12.603 22.0223M10.3511 21.1999C10.5841 21.1367 10.7868 21.0734 10.8774 21.0228C10.9076 21.0228 10.9378 21.0228 10.968 21.0228C10.981 21.0819 11.0025 21.1451 11.0414 21.2042C11.05 21.2168 11.0586 21.2295 11.0629 21.2379C10.9206 21.2379 10.6359 21.2252 10.3468 21.1999M10.8343 21.6006C10.9551 21.5331 11.0672 21.453 11.1751 21.3771C11.2225 21.4319 11.2786 21.4867 11.339 21.5373C11.2786 21.5542 11.0802 21.5795 10.8343 21.6006Z" fill="#711419"/>
<path d="M12.9955 21.3984C12.982 21.4028 12.982 21.4028 12.9955 21.3984V21.3984Z" fill="#711419"/>
<path d="M10.7353 9.16057C10.6922 9.12262 10.6404 9.08045 10.5887 9.03406C10.5369 8.98768 10.4808 8.93707 10.4291 8.88647C10.2608 8.70935 10.1012 8.54067 9.95885 8.38043L9.77767 8.18645C9.71728 8.12319 9.6612 8.05994 9.60943 8.00511L9.47139 7.85752C9.47139 7.85752 9.44119 7.82378 9.42825 7.81113C9.43257 7.80692 9.43688 7.79848 9.44551 7.79005C9.48002 7.75209 9.51884 7.70149 9.57061 7.64245C9.62238 7.58341 9.67846 7.51594 9.73885 7.44004C9.79924 7.36413 9.86395 7.28822 9.92866 7.2081L10.4377 6.59242L10.6189 6.39844H9.89846L8.86314 7.66775V6.39844H8.20312V9.4642H8.86314V8.08524L9.92866 9.24491C10.0365 9.39251 10.2349 9.4642 10.511 9.4642H11.1624L10.882 9.27021C10.8346 9.23648 10.7871 9.19853 10.7397 9.15636" fill="white"/>
<path d="M12.9348 6.39875V8.27531C12.9348 8.40182 12.9262 8.5199 12.9046 8.61689C12.8874 8.70966 12.8528 8.78135 12.8011 8.84461C12.7493 8.90365 12.6803 8.95003 12.5854 8.98377C12.4905 9.01751 12.3611 9.03437 12.2015 9.03437C11.796 9.03437 11.5975 8.78557 11.5975 8.27531V7.36866C11.5975 7.10299 11.5975 6.80358 11.6018 6.46622V6.39453H10.9375V8.2711C10.9375 8.49038 10.9461 8.64641 10.9634 8.73918C10.9979 8.9163 11.0755 9.07233 11.1877 9.19884C11.3991 9.42234 11.6967 9.5362 12.072 9.5362H12.3222C12.6975 9.5362 12.9995 9.42234 13.2109 9.19884C13.323 9.07233 13.4007 8.92051 13.4352 8.7434C13.4525 8.65063 13.4611 8.4946 13.4611 8.27531V6.39875H12.9262H12.9348Z" fill="white"/>
<path d="M10.5883 10.829L9.76004 12.908H9.55298L8.64707 10.8417L8.37099 12.908H8L8.38393 10.3398H8.89296L9.68671 12.1447L10.4201 10.3398H10.9377L11.3044 12.908H10.8385L10.5883 10.829Z" fill="white"/>
<path d="M11.9045 12.5535H13.1383V12.9077H11.4473V10.3438H12.9744V10.6895H11.9045V11.3516H12.7457V11.6932H11.9045V12.5535Z" fill="white"/>
<path d="M15.2387 10.6814C15.5061 10.9091 15.6355 11.2128 15.6355 11.6007C15.6355 11.9887 15.4975 12.3007 15.2171 12.5453C14.941 12.7899 14.5786 12.908 14.1386 12.908H13.3535V10.3398H14.1602C14.6088 10.3398 14.9669 10.4537 15.2343 10.6772M14.8116 12.3514C14.9194 12.267 15.0014 12.1574 15.0575 12.0266C15.1092 11.8917 15.1394 11.7483 15.1394 11.5965C15.1394 11.4616 15.1179 11.3351 15.0704 11.2212C15.0273 11.1073 14.9583 11.0061 14.8763 10.926C14.7037 10.7615 14.4535 10.6814 14.13 10.6814H13.8065V12.5833H14.061C14.3716 12.5833 14.6218 12.5074 14.8159 12.3556" fill="white"/>
<path d="M15.873 10.3438H16.326V12.9077H15.873V10.3438Z" fill="white"/>
<path d="M18.7805 12.7853C18.7547 12.798 18.7202 12.8106 18.677 12.8317C18.6339 12.8486 18.5778 12.8697 18.5131 12.8908C18.4484 12.9076 18.3707 12.9245 18.2888 12.9371C18.2068 12.9498 18.1119 12.9582 18.0127 12.9582C17.5468 12.9582 17.1844 12.8401 16.9256 12.5998C16.6581 12.3636 16.5244 12.0431 16.5244 11.6425C16.5244 11.2419 16.6538 10.9425 16.9083 10.6979C17.0334 10.5756 17.1844 10.4786 17.357 10.4069C17.5295 10.3395 17.7193 10.2973 17.9307 10.2846C18.0601 10.2762 18.1723 10.2846 18.2715 10.2973C18.3707 10.3142 18.4527 10.331 18.5217 10.3479C18.6037 10.3732 18.6727 10.4027 18.7288 10.4322V10.8666C18.6727 10.8329 18.6166 10.7991 18.5649 10.7696C18.5131 10.7401 18.457 10.7148 18.3966 10.6937C18.3362 10.6726 18.2715 10.6557 18.2025 10.6473C18.1335 10.6347 18.0558 10.6304 17.9695 10.6347C17.8142 10.6389 17.6805 10.6684 17.5597 10.7274C17.4389 10.7865 17.3397 10.8539 17.2578 10.9383C17.0982 11.1027 17.0162 11.3178 17.0162 11.5793C17.0162 11.8407 17.1025 12.0895 17.2707 12.2835C17.3613 12.3847 17.4648 12.4606 17.577 12.5112C17.6891 12.5618 17.8142 12.5871 17.9566 12.5913C18.0645 12.5956 18.1637 12.5913 18.2543 12.5787C18.3449 12.566 18.4268 12.545 18.4958 12.5239C18.5649 12.5028 18.6209 12.4775 18.6684 12.4564C18.7158 12.4311 18.7504 12.41 18.7762 12.3931V12.7853H18.7805Z" fill="white"/>
<path d="M19.0176 10.3438H19.4705V12.9077H19.0176V10.3438Z" fill="white"/>
<path d="M21.9939 10.3398H22.0241V12.9122L21.6445 12.908L20.1088 10.9935V12.908H19.7637V10.3398H20.1605L21.6747 12.2291V10.3398H21.9939Z" fill="white"/>
<path d="M22.7707 12.5535H24.0002V12.9077H22.3135V10.3438H23.8363V10.6895H22.7707V11.3516H23.6119V11.6932H22.7707V12.5535Z" fill="white"/>
</g>
<defs>
<clipPath id="clip0_12918_99301">
<rect width="16" height="19.2" fill="white" transform="translate(8 6.39844)"/>
</clipPath>
</defs>
</svg>
