<svg width="32" height="32" viewBox="0 0 32 32" fill="none" xmlns="http://www.w3.org/2000/svg">
<path d="M0 12.8C0 5.73075 5.73076 0 12.8 0H19.2C26.2692 0 32 5.73076 32 12.8V19.2C32 26.2692 26.2692 32 19.2 32H12.8C5.73075 32 0 26.2692 0 19.2V12.8Z" fill="#006768"/>
<path d="M5.59961 16.0023C5.59961 21.736 10.2637 26.4016 15.9989 26.4016C21.7341 26.4016 26.3982 21.736 26.3982 16.0023C26.3982 10.2685 21.7326 5.60156 15.9989 5.60156C10.2651 5.60156 5.59961 10.2671 5.59961 16.0023ZM5.75407 16.0023C5.75407 10.3523 10.3489 5.75602 15.9989 5.75602C21.6489 5.75602 26.2437 10.3523 26.2437 16.0023C26.2437 21.6523 21.6475 26.2471 15.9989 26.2471C10.3503 26.2471 5.75407 21.6509 5.75407 16.0023Z" fill="white"/>
<path d="M6.31836 15.9993C6.31836 21.336 10.6605 25.6782 15.9973 25.6782C21.3341 25.6782 25.6763 21.336 25.6763 15.9993C25.6763 10.6625 21.3341 6.32031 15.9973 6.32031C10.6605 6.32031 6.31836 10.6625 6.31836 15.9993ZM6.75575 15.9993C6.75575 10.905 10.9016 6.75915 15.9973 6.75915C21.093 6.75915 25.2374 10.9036 25.2374 15.9993C25.2374 21.095 21.093 25.2394 15.9973 25.2394C10.9016 25.2394 6.75575 21.095 6.75575 15.9993Z" fill="white"/>
<path d="M10.5398 18.3152C10.2366 17.605 10.0692 16.8226 10.0692 16.0027C10.0692 12.7345 12.7282 10.074 15.9978 10.074C19.2674 10.074 21.925 12.7345 21.925 16.0027C21.925 16.4718 21.8701 16.9294 21.7662 17.3668L21.886 17.4938C22.0073 17.0175 22.0708 16.518 22.0708 16.0027C22.0708 12.6537 19.3468 9.92969 15.9978 9.92969C12.6488 9.92969 9.9248 12.6537 9.9248 16.0027C9.9248 16.8414 10.0951 17.6382 10.4026 18.3643L10.5412 18.3152H10.5398Z" fill="white"/>
<path d="M18.3312 23.4746V21.9401H18.1594V23.4688H17.8115V21.0234H18.1594V21.6889H18.3312V21.0234H18.6791V23.4717H18.3312V23.4746Z" fill="white"/>
<path d="M21.2005 21.804H20.8901V22.6022H20.4932V21.0273H20.8901V21.5571H21.2005V21.804Z" fill="white"/>
<path d="M16.4246 21.804H16.1157V22.6022H15.7188V21.0273H16.1157V21.5571H16.4246V21.804Z" fill="white"/>
<path d="M14.0467 22.0595H13.7378V23.4741H13.3408V21.0273H13.7378V21.8141H14.0467V22.0609V22.0595Z" fill="white"/>
<path d="M12.7201 21.9739C12.7201 22.2583 12.6869 22.6552 12.4891 22.6552C12.2914 22.6552 12.2582 22.2583 12.2582 21.9739C12.2582 21.6895 12.2914 21.294 12.4891 21.294C12.6869 21.294 12.7201 21.6909 12.7201 21.9739ZM12.4877 21.0312C12.0113 21.0312 11.8525 21.5784 11.8525 21.9739C11.8525 22.3694 12.0113 22.9165 12.4877 22.9165C12.9641 22.9165 13.1229 22.3694 13.1229 21.9739C13.1229 21.5784 12.9626 21.0312 12.4877 21.0312Z" fill="white"/>
<path d="M14.9166 21.953C14.9368 22.0237 15.214 22.3197 15.4377 22.4308L15.611 22.2215C15.4478 22.1219 15.3237 21.992 15.2356 21.8303C15.1476 21.6701 15.1057 21.4665 15.1072 21.2197V21.0508H14.7001V21.2197C14.7015 21.4665 14.6597 21.6701 14.5731 21.8303C14.485 21.9905 14.3594 22.1219 14.1963 22.2215L14.3695 22.4308C14.5947 22.3197 14.8979 22.0237 14.9166 21.953Z" fill="white"/>
<path d="M17.2053 22.0425C17.3005 22.3211 17.621 22.5809 17.6571 22.6026L17.8476 22.4077C17.7437 22.3341 17.608 22.2085 17.5257 22.0512C17.442 21.8938 17.3583 21.7119 17.3583 21.4405V21.2976H17.6787V21.0508H16.6639V21.2976H16.9584V21.4405C16.9584 21.7134 16.9295 21.8938 16.8458 22.0512C16.7621 22.2085 16.6582 22.3341 16.5557 22.4077L16.7462 22.6026C16.7823 22.5809 17.1129 22.3197 17.2053 22.0425Z" fill="white"/>
<path d="M14.7762 23.4187C14.7141 23.4187 14.665 23.3696 14.665 23.3075V22.5742H15.0606V23.1632H16.1533V23.4187H14.7762Z" fill="white"/>
<path d="M19.4822 23.4187C19.4216 23.4187 19.3711 23.3696 19.3711 23.3075V22.5742H19.7681V23.1632H20.8594V23.4187H19.4837H19.4822Z" fill="white"/>
<path d="M19.123 21.0483V22.1613C19.123 22.2234 19.1736 22.2724 19.2356 22.2724H20.2995V22.0169H19.52V21.2952H20.1812V21.0469H19.123V21.0483Z" fill="white"/>
<path d="M8.64863 16.4231L7.95862 16.3148V16.3105L8.63853 16.1517L8.64863 16.4231ZM9.36752 16.9053L9.35308 16.5314L8.95755 16.465L8.94311 16.0824L9.33287 15.9872L9.31844 15.6133L7.4375 16.133L7.45338 16.5343L9.36896 16.9053H9.36752Z" fill="white"/>
<path d="M8.84509 15.1377C9.01832 15.0049 9.08761 14.9212 9.10493 14.8201C9.12225 14.7292 9.06884 14.6541 8.97934 14.6382C8.70651 14.5891 8.40625 15.0727 7.95587 14.9904C7.68881 14.9414 7.51992 14.696 7.57044 14.4231C7.5921 14.3033 7.64839 14.1936 7.75089 14.0781L8.10022 14.1416C7.96742 14.2889 7.92267 14.3582 7.90823 14.4405C7.89235 14.53 7.93133 14.6036 8.00784 14.618C8.2287 14.6584 8.5968 14.1662 9.03708 14.247C9.33445 14.3004 9.51923 14.5502 9.4687 14.8259C9.44416 14.9572 9.3792 15.0713 9.24784 15.2084L8.84798 15.1348L8.84509 15.1377Z" fill="white"/>
<path d="M9.17424 13.2326L8.59538 12.8414L8.59827 12.8371L9.2825 12.9829L9.17568 13.2326H9.17424ZM9.61741 13.9775L9.76465 13.6339L9.43552 13.4044L9.58565 13.0508L9.97829 13.1316L10.1255 12.788L8.20129 12.4531L8.04395 12.8212L9.61885 13.9775H9.61741Z" fill="white"/>
<path d="M8.84519 11.2722L9.06317 10.9878L10.1906 11.2708L10.1935 11.2664L9.3461 10.6168L9.56696 10.3281L11.0668 11.4772L10.8633 11.7428L9.68534 11.4498L9.681 11.4526L10.5659 12.1311L10.345 12.4198L8.84375 11.2708L8.84519 11.2722Z" fill="white"/>
<path d="M11.3408 8.80976L12.1146 8.35938L12.2791 8.64087L11.8403 8.89782L12.064 9.28324L12.487 9.0364L12.653 9.31933L12.2286 9.56618L12.627 10.2504L12.295 10.4453L11.3408 8.81265V8.80976Z" fill="white"/>
<path d="M13.5291 8.79287C13.4223 8.43776 13.4208 8.20102 13.6215 8.14039C13.8409 8.07543 13.9636 8.32083 14.0574 8.63408C14.1888 9.06859 14.1383 9.23604 13.965 9.28801C13.7629 9.34864 13.6359 9.15376 13.5276 8.79287H13.5291ZM13.148 8.88959C13.3515 9.5695 13.7586 9.73839 14.0733 9.64312C14.3505 9.55939 14.6493 9.23027 14.4356 8.52293C14.2321 7.84447 13.8178 7.69578 13.5146 7.78528C13.1971 7.88055 12.9618 8.27464 13.148 8.88959Z" fill="white"/>
<path d="M15.5187 7.45813L15.5562 8.75877C15.5606 8.90889 15.6356 9.01427 15.7728 9.00994C15.9229 9.00561 15.9778 8.8959 15.9734 8.72412L15.9373 7.44514L16.3228 7.43359L16.3574 8.67648C16.3704 9.09078 16.1856 9.35351 15.7814 9.36505C15.4278 9.37516 15.1809 9.18605 15.1679 8.71546L15.1318 7.46824L15.5173 7.45669L15.5187 7.45813Z" fill="white"/>
<path d="M17.3594 7.54051L17.7087 7.62134L17.9137 8.76607H17.9195L18.1634 7.72672L18.5171 7.809L18.0869 9.64952L17.7593 9.57301L17.5427 8.37776H17.5384L17.2843 9.4633L16.9307 9.37958L17.3608 7.53906L17.3594 7.54051Z" fill="white"/>
<path d="M19.106 9.75374L19.6993 8.65088L19.7989 8.70429C20.0328 8.82988 19.9722 9.11137 19.8033 9.42606C19.6243 9.75952 19.4323 9.9313 19.1883 9.79849L19.106 9.75374ZM18.6152 9.8519L19.0757 10.1002C19.5391 10.3485 19.9548 9.97461 20.1613 9.59351C20.3792 9.18787 20.4225 8.6783 19.9548 8.42568L19.5117 8.1875L18.6167 9.8519H18.6152Z" fill="white"/>
<path d="M20.779 10.4163L21.3377 9.99479L21.342 9.99768L20.9825 10.5982L20.779 10.4163ZM19.9331 10.5982L20.2102 10.8465L20.5336 10.6083L20.8194 10.8638L20.6173 11.2103L20.8959 11.4585L21.8299 9.74362L21.5311 9.47656L19.9316 10.5968L19.9331 10.5982Z" fill="white"/>
<path d="M22.5033 10.9911L22.2738 10.6764L22.538 10.4844L23.2237 11.4241L22.9595 11.6161L22.7314 11.3029L21.4683 12.2253L21.2402 11.9135L22.5019 10.9911H22.5033Z" fill="white"/>
<path d="M23.6227 12.1602L23.7873 12.5081L22.0796 13.3193L21.915 12.97L23.6227 12.1602Z" fill="white"/>
<path d="M23.3152 13.9666C23.6761 13.8814 23.9128 13.8944 23.9604 14.0979C24.0138 14.3202 23.7598 14.4285 23.4437 14.5036C23.0005 14.6089 22.8359 14.5483 22.7955 14.3736C22.7464 14.1672 22.95 14.0532 23.3152 13.9666ZM23.2416 13.5797C22.5515 13.7428 22.3581 14.1398 22.4346 14.4588C22.501 14.7403 22.8128 15.0579 23.5317 14.8861C24.2203 14.7244 24.3949 14.3188 24.3228 14.0113C24.2463 13.688 23.8666 13.4296 23.243 13.5783L23.2416 13.5797Z" fill="white"/>
<path d="M24.5423 15.6768L24.5293 16.0348L23.4467 16.4592V16.4635L24.5135 16.4996L24.5019 16.8634L22.6123 16.7999L22.6239 16.4635L23.7541 16.0189V16.0146L22.6412 15.9771L22.6527 15.6133L24.5423 15.6768Z" fill="white"/>
<path d="M18.2586 11.5425C17.8111 11.0936 17.1904 10.8164 16.5061 10.8164C16.0168 10.8164 15.5664 10.955 15.1824 11.2004C14.8302 11.4068 14.4303 11.7287 13.9511 12.2296C13.3043 12.9095 11.663 15.3852 11.0163 16.2946C10.5486 16.9486 9.76334 18.0904 9.42411 18.6736C9.00692 19.3925 8.65759 19.8053 8.85824 20.0262C9.20469 20.4087 9.61321 19.3737 9.69694 19.7895C9.72869 19.9483 8.95351 21.1464 8.39775 22.1367C8.11193 22.6462 8.38476 23.4503 9.4703 22.7863C9.4703 22.7863 10.1011 22.2493 10.6742 21.6718C11.4754 20.8678 12.1928 19.9309 13.1037 19.1817C13.7648 18.6404 14.7926 17.4625 15.4567 16.8215C15.9374 16.3582 15.7396 16.1373 16.1539 15.6407C16.3675 15.3809 16.6072 15.1557 16.854 14.9522C17.2683 14.7169 17.4935 14.9218 17.8125 15.2625C18.2788 15.7591 18.9991 16.6555 19.4611 17.0828C20.0977 17.6718 21.0331 18.6231 21.5874 19.2496C21.6437 19.3145 22.1691 19.8948 22.6758 19.4127C22.8924 19.2048 22.7913 18.8815 22.5993 18.5495V18.5466C22.5993 18.5466 22.6354 18.5798 22.6701 18.5509H22.6715C22.8115 18.408 22.2774 17.7266 22.0306 17.1723C20.0832 13.4263 18.8042 11.9568 18.0724 11.3736" fill="white"/>
<path d="M19.495 19.0029C19.4271 19.2223 18.6649 19.2252 17.9706 19.2945C17.3701 19.3537 15.6941 19.4952 15.2033 19.511C14.5422 19.5356 13.4393 19.6395 12.9413 19.5702C11.9438 19.4273 11.6854 19.0361 11.4934 18.6954C11.1311 18.0473 11.1874 16.9834 11.5483 16.79C11.9193 16.5893 12.3422 16.878 13.1232 16.8621C13.4639 16.8549 13.7208 16.8723 14.0817 16.9112C14.5941 16.9675 15.1225 16.9935 15.6378 17.0946C16.374 17.2375 17.4552 17.3313 18.2261 17.3991C18.8006 17.4482 19.4127 17.6301 19.4127 17.6301C20.3698 17.9506 20.0233 18.4197 19.7404 18.5251C19.6624 18.554 19.3073 18.6796 19.3073 18.7561C19.3073 18.8326 19.508 18.9553 19.4935 19.0044L19.495 19.0029Z" fill="white"/>
</svg>
