<svg width="116" height="116" viewBox="0 0 116 116" fill="none" xmlns="http://www.w3.org/2000/svg">
<path d="M80.6045 9.40039C87.8399 9.40039 91.4582 9.39988 93.7061 11.6475C95.9539 13.8953 95.9541 17.5135 95.9541 24.749V66.959C95.9541 71.012 95.3438 74.9228 94.2139 78.6055C93.3993 78.0629 92.4391 77.7213 91.4033 77.6543L91.1133 77.6426L87.8867 77.5947L85.5732 75.3477L85.3604 75.1514C83.1919 73.2461 79.937 73.2461 77.7686 75.1514L77.5557 75.3477L75.2412 77.5947L72.0156 77.6426C69.001 77.6875 66.5498 80.046 66.3574 83.0225L66.3457 83.3125L66.2979 86.5381L64.0508 88.8516C61.8833 91.0847 61.8834 94.637 64.0508 96.8701L66.2979 99.1836L66.3457 102.41L66.3574 102.7C66.4142 103.578 66.6688 104.402 67.0752 105.129C63.6495 106.094 60.036 106.611 56.3018 106.611C34.4027 106.611 16.6504 88.8581 16.6504 66.959V24.749C16.6504 17.5135 16.6496 13.8953 18.8975 11.6475C21.1453 9.39964 24.7635 9.40039 31.999 9.40039H80.6045ZM79.7822 77.6426C80.7747 76.6792 82.3542 76.6792 83.3467 77.6426L85.8428 80.0654L85.9326 80.1484C86.3889 80.5509 86.9749 80.7789 87.5859 80.7881L91.0654 80.8398L91.1943 80.8447C91.956 80.894 92.6249 81.2777 93.0605 81.8486C88.9106 92.0838 80.612 100.191 70.249 104.086C69.8207 103.636 69.553 103.031 69.543 102.362L69.4912 98.8828C69.4814 98.2309 69.2227 97.6075 68.7686 97.1396L66.3457 94.6426C65.3825 93.6501 65.3824 92.0716 66.3457 91.0791L68.7686 88.583C69.1943 88.1444 69.4482 87.5684 69.4863 86.9609L69.4912 86.8389L69.543 83.3594C69.5638 81.9767 70.6799 80.8608 72.0625 80.8398L75.542 80.7881C76.1532 80.7789 76.7399 80.551 77.1963 80.1484L77.2861 80.0654L79.7822 77.6426Z" fill="#2ACA8C"/>
<path d="M84.4424 13.2383C88.0601 13.2383 89.8693 13.2384 90.9932 14.3623C92.1168 15.4862 92.1172 17.2956 92.1172 20.9131V66.96C92.1172 70.6775 91.5492 74.2625 90.498 77.6338L87.8867 77.5957L85.5732 75.3486L85.3604 75.1523C83.1919 73.2471 79.937 73.2471 77.7686 75.1523L77.5557 75.3486L75.2412 77.5957L72.0156 77.6436C69.001 77.6885 66.5498 80.047 66.3574 83.0234L66.3457 83.3135L66.2979 86.5391L64.0508 88.8525C61.8833 91.0856 61.8834 94.6379 64.0508 96.8711L66.2979 99.1846L66.3291 101.35C63.1472 102.276 59.7826 102.774 56.3018 102.774C36.522 102.774 20.4873 86.7398 20.4873 66.96V20.9131C20.4873 17.2954 20.4876 15.4862 21.6113 14.3623C22.7352 13.2384 24.5443 13.2383 28.1621 13.2383H84.4424ZM79.7822 77.6436C80.7747 76.6802 82.3542 76.6802 83.3467 77.6436L85.8428 80.0664L85.9326 80.1494C86.3889 80.5519 86.9749 80.7798 87.5859 80.7891L89.3369 80.8145C85.6199 89.6668 78.4496 96.71 69.5107 100.259L69.4912 98.8838C69.4814 98.2319 69.2227 97.6085 68.7686 97.1406L66.3457 94.6436C65.3825 93.651 65.3824 92.0725 66.3457 91.0801L68.7686 88.584C69.1943 88.1453 69.4482 87.5694 69.4863 86.9619L69.4912 86.8398L69.543 83.3604C69.5638 81.9777 70.6799 80.8617 72.0625 80.8408L75.542 80.7891C76.1532 80.7799 76.7399 80.552 77.1963 80.1494L77.2861 80.0664L79.7822 77.6436Z" fill="#07361D"/>
<path d="M88.2793 66.959C88.2793 70.3016 87.7648 73.5241 86.8135 76.5527L85.5732 75.3477L85.3604 75.1514C83.1919 73.2461 79.937 73.2461 77.7686 75.1514L77.5557 75.3477L75.2412 77.5947L72.0156 77.6426C69.001 77.6875 66.5498 80.046 66.3574 83.0225L66.3457 83.3125L66.2979 86.5381L64.0508 88.8516C61.8833 91.0847 61.8834 94.637 64.0508 96.8701L64.916 97.7607C62.1753 98.5256 59.2865 98.9365 56.3018 98.9365C38.6412 98.9364 24.3242 84.6196 24.3242 66.959V40.0977H88.2793V66.959ZM79.7822 77.6426C80.7747 76.6792 82.3542 76.6792 83.3467 77.6426L85.5859 79.8164C82.2361 87.435 76.0029 93.4974 68.2656 96.6211L66.3457 94.6426C65.3825 93.6501 65.3824 92.0716 66.3457 91.0791L68.7686 88.583C69.1943 88.1444 69.4482 87.5684 69.4863 86.9609L69.4912 86.8389L69.543 83.3594C69.5638 81.9767 70.6799 80.8608 72.0625 80.8398L75.542 80.7881C76.1532 80.7789 76.7399 80.551 77.1963 80.1484L77.2861 80.0654L79.7822 77.6426Z" fill="#0072D2"/>
<mask id="mask0_7403_55926" style="mask-type:alpha" maskUnits="userSpaceOnUse" x="24" y="40" width="65" height="59">
<path d="M88.2793 66.959C88.2793 70.3016 87.7648 73.5241 86.8135 76.5527L85.5732 75.3477L85.3604 75.1514C83.1919 73.2461 79.937 73.2461 77.7686 75.1514L77.5557 75.3477L75.2412 77.5947L72.0156 77.6426C69.001 77.6875 66.5498 80.046 66.3574 83.0225L66.3457 83.3125L66.2979 86.5381L64.0508 88.8516C61.8833 91.0847 61.8834 94.637 64.0508 96.8701L64.916 97.7607C62.1753 98.5256 59.2865 98.9365 56.3018 98.9365C38.6412 98.9364 24.3242 84.6196 24.3242 66.959V40.0977H88.2793V66.959ZM79.7822 77.6426C80.7747 76.6792 82.3542 76.6792 83.3467 77.6426L85.5859 79.8164C82.2361 87.435 76.0029 93.4974 68.2656 96.6211L66.3457 94.6426C65.3825 93.6501 65.3824 92.0716 66.3457 91.0791L68.7686 88.583C69.1943 88.1444 69.4482 87.5684 69.4863 86.9609L69.4912 86.8389L69.543 83.3594C69.5638 81.9767 70.6799 80.8608 72.0625 80.8398L75.542 80.7881C76.1532 80.7789 76.7399 80.551 77.1963 80.1484L77.2861 80.0654L79.7822 77.6426Z" fill="#0072D2"/>
</mask>
<g mask="url(#mask0_7403_55926)">
<path d="M92.8456 69.5177V54.3809L56.3018 69.5177H92.8456Z" fill="#2B9D7F"/>
<path d="M56.302 69.5176L41.166 106.061H56.302V69.5176Z" fill="#208F72"/>
<path d="M19.7588 84.6545V106.061L56.3018 69.5176L19.7588 84.6545Z" fill="#208F72"/>
<path d="M56.3018 69.5176V106.061H71.4386L56.3018 69.5176Z" fill="#2B9D7F"/>
<path d="M56.3018 69.5176L92.8456 54.3808V32.9746H92.8448L56.3018 69.5176Z" fill="#208F72"/>
<path d="M56.3018 69.5176L92.8456 84.6544V69.5176H56.3018Z" fill="#208F72"/>
<path d="M92.8456 106.061V84.6545L56.3018 69.5176L92.8456 106.061Z" fill="#2B9D7F"/>
<path d="M71.4386 106.061H92.8456L56.3018 69.5176L71.4386 106.061Z" fill="#208F72"/>
<path d="M56.3018 69.5176L19.7588 106.061H41.1658L56.3018 69.5176Z" fill="#2B9D7F"/>
<path d="M56.3018 69.5176L71.4386 32.9746H56.3018V69.5176Z" fill="#208F72"/>
<path d="M56.3019 32.9746H41.165L56.3019 69.5176V32.9746Z" fill="#2B9D7F"/>
<path d="M56.3018 69.5176H19.7588V84.6544L56.3018 69.5176Z" fill="#2B9D7F"/>
<path d="M56.3018 69.5176L92.8448 32.9746H71.4386L56.3018 69.5176Z" fill="#2B9D7F"/>
<path d="M56.3018 69.5177L19.7588 54.3809V69.5177H56.3018Z" fill="#208F72"/>
<path d="M56.3018 69.5176L19.7588 32.9746V54.3808L56.3018 69.5176Z" fill="#2B9D7F"/>
<path d="M56.3018 69.5176L41.1649 32.9746H19.7588L56.3018 69.5176Z" fill="#208F72"/>
<path d="M58.9396 64.2398L66.7612 49.2949L51.5263 49.295L46.2295 71.6424H53.0734L47.4167 87.4252L70.5323 64.2398H58.9396Z" fill="#E8FFEF"/>
</g>
<path d="M83.0672 18.3887C83.5757 18.3887 84.0265 18.7148 84.0265 19.3384V27.3967H82.1079V23.5882H81.4843C80.9567 23.5882 80.6305 23.262 80.6305 22.7728C80.6305 22.2931 80.9471 21.9478 81.4843 21.9478H82.1079V19.3384C82.1079 18.7148 82.5588 18.3887 83.0672 18.3887ZM77.7526 25.4109H80.6305C81.1869 25.4109 81.35 25.8522 81.35 26.2167C81.35 26.5909 81.1774 27.013 80.6305 27.013H77.0331C75.8435 27.013 75.6133 26.7156 75.6133 25.574V20.1538C75.6133 19.0122 75.8435 18.7244 77.0331 18.7244H80.0933C80.6497 18.7244 80.8128 19.1657 80.8128 19.5303C80.8128 19.9044 80.6401 20.3457 80.0933 20.3457H77.7526C77.5799 20.3457 77.5031 20.4032 77.5031 20.6239V22.0245H79.5273C80.0837 22.0245 80.2948 22.4178 80.2948 22.8207C80.2948 23.2141 80.0741 23.6074 79.5273 23.6074H77.5031V25.1327C77.5031 25.3534 77.5799 25.4109 77.7526 25.4109Z" fill="white"/>
<path d="M66.9789 24.028C66.5088 24.028 66.1155 23.7594 66.0676 23.2893C66.0196 22.8288 66.269 22.4547 66.7583 22.3492C68.0246 22.071 69.1854 20.9965 69.3868 19.3849C69.4636 18.7805 69.8857 18.5215 70.4037 18.5215C70.9793 18.5215 71.3918 18.9052 71.3726 19.5384C71.363 19.8358 71.315 20.1331 71.2479 20.4209C72.8596 20.4593 74.5192 21.5817 74.7015 24.028H72.754C72.5814 22.7329 71.6412 21.9463 70.4996 21.975C69.6266 23.1838 68.2452 24.028 66.9789 24.028ZM66.7391 25.5821H74.0683C74.6631 25.5821 74.8933 26.0042 74.8933 26.3975C74.8933 26.8004 74.6535 27.2034 74.0683 27.2034H66.7391C66.1539 27.2034 65.9141 26.8004 65.9141 26.3975C65.9141 26.0042 66.1443 25.5821 66.7391 25.5821Z" fill="white"/>
<path d="M65.0219 23.1644H58.2299C57.1746 23.1644 56.9636 22.7999 56.9636 21.8502V19.3655C56.9636 18.742 57.4432 18.5117 57.9517 18.5117C58.4313 18.5117 58.9302 18.7803 58.9302 19.3847V19.3943H63.0649V19.3655C63.0649 18.742 63.5349 18.5117 64.0434 18.5117C64.5326 18.5117 65.0219 18.7515 65.0219 19.3655V23.1644ZM63.0649 21.6295V20.8621H58.9302V21.3417C58.9302 21.5336 58.9973 21.6295 59.2276 21.6295H63.0649ZM57.3185 23.8072H64.6861C65.2617 23.8072 65.492 24.2005 65.492 24.5938C65.492 24.9967 65.2521 25.3805 64.6861 25.3805H61.9808V27.443H60.0238V25.3805H57.3185C56.7525 25.3805 56.5127 24.9967 56.5127 24.5938C56.5127 24.2005 56.7429 23.8072 57.3185 23.8072Z" fill="white"/>
<path d="M54.8633 18.3887C55.3717 18.3887 55.8226 18.7148 55.8226 19.3384V27.3967H53.904V19.3384C53.904 18.7148 54.3548 18.3887 54.8633 18.3887ZM52.2347 20.3937H50.9397V21.7079C50.9397 22.0437 50.9205 22.3603 50.8821 22.6673C52.2443 23.1277 53.1269 24.183 53.0118 26.8595H51.1699C51.3138 25.5356 51.0548 24.7586 50.4696 24.3653C49.7981 26.0633 48.5701 26.9266 47.8123 26.9266C47.2463 26.9266 46.9297 26.5813 46.9297 26.1496C46.9297 25.833 47.064 25.622 47.3518 25.4301C48.4742 24.7106 49.0882 23.5306 49.0882 21.4201V20.3937H47.7931C47.2175 20.3937 46.9777 19.9716 46.9777 19.5782C46.9777 19.1945 47.2079 18.7532 47.7931 18.7532H52.2347C52.8199 18.7532 53.031 19.1945 53.031 19.5782C53.031 19.9716 52.8103 20.3937 52.2347 20.3937Z" fill="white"/>
<path d="M46.4205 25.1903H44.5019V19.3384C44.5019 18.7148 44.9527 18.3887 45.4612 18.3887C45.9696 18.3887 46.4205 18.7148 46.4205 19.3384V25.1903ZM43.4178 24.1734H39.6381C38.5349 24.1734 37.9209 23.4539 37.9209 22.5042V22.3219C37.9209 21.3626 38.5253 20.7486 39.5422 20.7486H41.2977V20.3265C41.2977 20.173 41.2402 20.1346 41.0579 20.1346H38.6212C38.1607 20.1346 37.9593 19.7317 37.9593 19.4056C37.9593 19.0602 38.1703 18.6669 38.6212 18.6669H41.8925C42.871 18.6669 43.2643 19.1465 43.2643 19.8948V22.1013H40.2233C40.0506 22.1013 39.8971 22.1876 39.8971 22.3986V22.437C39.8971 22.6385 40.0506 22.7152 40.2233 22.7152H43.4178C43.8783 22.7152 44.0798 23.1085 44.0798 23.4539C44.0798 23.7897 43.8975 24.1734 43.4178 24.1734ZM45.9025 27.3967H39.8204C38.7459 27.3967 38.4581 27.0226 38.4581 25.9961V25.3246C38.4581 24.749 38.909 24.4516 39.4462 24.4516C39.9834 24.4516 40.4055 24.7586 40.4055 25.3246V25.7563C40.4055 25.8906 40.4535 25.9289 40.5878 25.9289H45.9025C46.4589 25.9289 46.6795 26.2743 46.6795 26.658C46.6795 27.0514 46.4493 27.3967 45.9025 27.3967Z" fill="white"/>
<path d="M31.0622 22.197C30.6017 22.8206 29.9014 23.2235 29.134 23.2235C28.6063 23.2235 28.3281 22.9549 28.3281 22.5136C28.3281 22.1874 28.5775 21.9092 28.8845 21.8612C29.5369 21.7653 29.8822 21.3528 29.9014 20.4894H29.0764C28.6255 20.4894 28.3761 20.1345 28.3761 19.7891C28.3761 19.4438 28.5871 19.0696 29.0764 19.0696H29.8726C29.911 18.5996 30.1796 18.3789 30.7168 18.3789C31.2541 18.3789 31.5227 18.6091 31.5706 19.0696H32.3669C32.8561 19.0696 33.0672 19.4438 33.0672 19.7891C33.0672 20.1345 32.8178 20.4894 32.3669 20.4894H31.6186C31.6186 20.6333 31.609 20.7676 31.5898 20.9115C32.6163 21.0075 33.2303 21.7078 33.1343 23.1084H31.4939C31.5898 22.6575 31.4363 22.3025 31.0622 22.197ZM35.4847 21.5735H35.053V23.1755H33.3742V19.2135C33.3742 18.7147 33.7099 18.3885 34.2184 18.3885C34.7268 18.3885 35.053 18.7147 35.053 19.2135V20.1249H35.4847V19.2135C35.4847 18.7147 35.8204 18.3885 36.3289 18.3885C36.8373 18.3885 37.1635 18.7147 37.1635 19.2135V23.1755H35.4847V21.5735ZM31.0814 26.2741H36.8757C37.2594 26.2741 37.4225 26.5619 37.4225 26.8497C37.4225 27.1183 37.269 27.3965 36.8757 27.3965H30.1892C29.3162 27.3965 28.8462 26.8497 28.8462 26.1878V25.9671C28.8462 25.3244 29.3162 24.8927 30.1892 24.8927H35.2257V24.6817C35.2257 24.5665 35.1969 24.5186 35.0722 24.5186H29.4793C29.1052 24.5186 28.9517 24.25 28.9517 23.9622C28.9517 23.6936 29.1148 23.4154 29.4793 23.4154H36.0507C36.8853 23.4154 37.1731 23.6648 37.1731 24.3939V25.8904H31.0814C30.9471 25.8904 30.8799 25.9767 30.8799 26.0631V26.1015C30.8799 26.1974 30.9471 26.2741 31.0814 26.2741Z" fill="white"/>
<path d="M79.7823 77.6405C80.7748 76.6771 82.3534 76.6771 83.3459 77.6405L85.8426 80.0639C86.3105 80.5182 86.9342 80.7765 87.5863 80.7862L91.0653 80.838C92.4483 80.8586 93.5646 81.9748 93.5851 83.3578L93.6369 86.8369C93.6466 87.4889 93.905 88.1126 94.3592 88.5806L96.7826 91.0772C97.746 92.0698 97.746 93.6483 96.7826 94.6408L94.3592 97.1375C93.905 97.6054 93.6466 98.2292 93.6369 98.8812L93.5851 102.36C93.5646 103.743 92.4484 104.859 91.0653 104.88L87.5863 104.932C86.9342 104.942 86.3105 105.2 85.8426 105.654L83.3459 108.078C82.3534 109.041 80.7748 109.041 79.7823 108.078L77.2857 105.654C76.8177 105.2 76.194 104.942 75.5419 104.932L72.0629 104.88C70.6799 104.859 69.5637 103.743 69.5431 102.36L69.4913 98.8812C69.4816 98.2292 69.2232 97.6054 68.769 97.1375L66.3456 94.6408C65.3822 93.6483 65.3822 92.0698 66.3456 91.0772L68.769 88.5806C69.2232 88.1126 69.4816 87.4889 69.4913 86.8369L69.5431 83.3578C69.5637 81.9748 70.6799 80.8586 72.0629 80.838L75.5419 80.7862C76.194 80.7765 76.8177 80.5182 77.2857 80.0639L79.7823 77.6405Z" fill="#D8DB78"/>
<path d="M87.6496 96.3262H82.8657C82.0503 96.3262 81.5176 95.8587 81.5176 95.0432V94.9236C81.5176 93.4668 81.9525 92.9123 82.8657 92.0751L84.6814 90.4008C85.1163 90.0094 85.3446 89.7158 85.3446 89.3027C85.3446 88.8243 84.9315 88.596 84.5401 88.596C84.0073 88.596 83.7464 88.8243 83.529 89.0635C83.3767 89.2374 83.1702 89.444 82.9636 89.4984C82.67 89.5853 82.2678 89.5527 81.9525 89.2918C81.5611 88.9765 81.5611 88.3894 81.8111 87.9762C82.3656 87.0738 83.3659 86.6172 84.714 86.6172C86.247 86.6172 87.5626 87.4652 87.5626 89.0852C87.5626 90.3029 86.8885 90.9987 85.9861 91.8794L84.5944 93.2276C84.1269 93.6842 83.8116 93.8038 83.8116 94.2061V94.2822C83.8116 94.3909 83.8551 94.4453 83.9747 94.4453H87.6496V96.3262Z" fill="#07361D"/>
<path d="M79.1169 92.8143L81.4653 96.326H78.9864L77.7579 94.5538L76.6597 96.326H74.2461L76.5836 92.8795L74.9528 90.5419C74.5831 90.0201 74.8876 89.2916 75.4638 89.0851C76.0292 88.8785 76.6054 89.0851 77.0077 89.683L77.9753 91.1182L78.8233 89.6939C79.193 89.0742 79.7257 88.8894 80.2911 89.0742C80.8673 89.259 81.1283 90.0201 80.7369 90.5637L79.1169 92.8143Z" fill="#07361D"/>
<path d="M63.0682 35.8748H61.7677L60.8412 34.2118H60.168V35.8748H58.9883V31.7373C58.9883 31.0756 59.1954 30.8281 59.886 30.8281H60.9448C61.9404 30.8281 62.6712 31.3 62.6712 32.3301V32.6983C62.6712 33.268 62.3604 33.6996 61.9231 33.9586L63.0682 35.8748ZM60.168 31.9848V33.2393H60.916C61.3016 33.2393 61.503 32.9918 61.503 32.6983V32.3588C61.503 32.0653 61.3016 31.8179 60.916 31.8179H60.3348C60.2025 31.8179 60.168 31.8467 60.168 31.9848Z" fill="#9BE9B4"/>
<path d="M57.1677 35.8751V33.7977H55.7118V35.8751H54.5264V31.3233C54.5264 30.9377 54.8083 30.7363 55.1191 30.7363C55.4298 30.7363 55.7118 30.9377 55.7118 31.3233V32.7964H57.1677V31.3233C57.1677 30.9377 57.4497 30.7363 57.7604 30.7363C58.0712 30.7363 58.3531 30.9377 58.3531 31.3233V35.8751H57.1677Z" fill="#9BE9B4"/>
<path d="M50.1835 34.1361H50.8683V32.3177C50.8683 31.9609 51.1387 31.7998 51.4035 31.7998C51.6682 31.7998 51.9329 31.9609 51.9329 32.3177V34.1361H52.4508V35.0798H51.9329V35.874H50.8683V35.0798H49.6311C48.9348 35.0798 48.6643 34.6828 48.8254 34.0958L49.6138 31.207C49.7116 30.856 49.9476 30.7006 50.241 30.7352C50.546 30.7697 50.7935 31.0229 50.7129 31.3739L50.0166 33.975C49.9821 34.1016 50.0281 34.1361 50.1835 34.1361Z" fill="#9BE9B4"/>
</svg>
