<svg width="117" height="116" viewBox="0 0 117 116" fill="none" xmlns="http://www.w3.org/2000/svg">
<path d="M81.1045 9.40039C88.3398 9.40039 91.9582 9.39993 94.2061 11.6475C96.4539 13.8953 96.4541 17.5135 96.4541 24.749V66.959C96.4541 71.0119 95.8447 74.9228 94.7148 78.6055C93.9001 78.0626 92.9394 77.7213 91.9033 77.6543L91.6133 77.6426L88.3867 77.5947L86.0732 75.3477L85.8604 75.1514C83.6919 73.2461 80.437 73.2461 78.2686 75.1514L78.0557 75.3477L75.7412 77.5947L72.5156 77.6426C69.501 77.6875 67.0498 80.046 66.8574 83.0225L66.8457 83.3125L66.7979 86.5381L64.5508 88.8516C62.3833 91.0847 62.3834 94.637 64.5508 96.8701L66.7979 99.1836L66.8457 102.41L66.8574 102.7C66.9142 103.578 67.1688 104.402 67.5752 105.129C64.1496 106.094 60.536 106.611 56.8018 106.611C34.9027 106.611 17.1504 88.8581 17.1504 66.959V24.749C17.1504 17.5135 17.1496 13.8953 19.3975 11.6475C21.6453 9.39965 25.2635 9.40039 32.499 9.40039H81.1045ZM80.2822 77.6426C81.2747 76.6792 82.8542 76.6792 83.8467 77.6426L86.3428 80.0654L86.4326 80.1484C86.8889 80.5509 87.4749 80.7788 88.0859 80.7881L91.5654 80.8398L91.6943 80.8447C92.4557 80.8939 93.1249 81.277 93.5605 81.8477C89.4107 92.0832 81.1123 100.191 70.749 104.086C70.3207 103.636 70.053 103.031 70.043 102.362L69.9912 98.8828C69.9814 98.2309 69.7227 97.6075 69.2686 97.1396L66.8457 94.6426C65.8825 93.6501 65.8824 92.0716 66.8457 91.0791L69.2686 88.583C69.6943 88.1444 69.9482 87.5684 69.9863 86.9609L69.9912 86.8389L70.043 83.3594C70.0638 81.9768 71.1799 80.8608 72.5625 80.8398L76.042 80.7881C76.6532 80.7789 77.2399 80.551 77.6963 80.1484L77.7861 80.0654L80.2822 77.6426Z" fill="#0EBBF7"/>
<path d="M84.9424 13.2383C88.5602 13.2383 90.3692 13.2384 91.4932 14.3623C92.6168 15.4862 92.6172 17.2955 92.6172 20.9131V66.96C92.6172 70.6775 92.0492 74.2624 90.998 77.6338L88.3867 77.5957L86.0732 75.3486L85.8604 75.1523C83.6919 73.2471 80.437 73.2471 78.2686 75.1523L78.0557 75.3486L75.7412 77.5957L72.5156 77.6436C69.501 77.6885 67.0498 80.047 66.8574 83.0234L66.8457 83.3135L66.7979 86.5391L64.5508 88.8525C62.3833 91.0856 62.3834 94.6379 64.5508 96.8711L66.7979 99.1846L66.8291 101.35C63.6472 102.276 60.2826 102.774 56.8018 102.774C37.022 102.774 20.9873 86.7397 20.9873 66.96V20.9131C20.9873 17.2954 20.9876 15.4862 22.1113 14.3623C23.2352 13.2384 25.0443 13.2383 28.6621 13.2383H84.9424ZM80.2822 77.6436C81.2747 76.6802 82.8542 76.6802 83.8467 77.6436L86.3428 80.0664L86.4326 80.1494C86.8889 80.5519 87.4749 80.7798 88.0859 80.7891L89.8369 80.8145C86.1199 89.6668 78.9497 96.71 70.0107 100.259L69.9912 98.8838C69.9814 98.2319 69.7227 97.6085 69.2686 97.1406L66.8457 94.6436C65.8825 93.651 65.8824 92.0725 66.8457 91.0801L69.2686 88.584C69.6943 88.1453 69.9482 87.5694 69.9863 86.9619L69.9912 86.8398L70.043 83.3604C70.0638 81.9777 71.1799 80.8617 72.5625 80.8408L76.042 80.7891C76.6532 80.7799 77.2399 80.552 77.6963 80.1494L77.7861 80.0664L80.2822 77.6436Z" fill="#1A3B5E"/>
<path d="M88.7793 66.959C88.7793 70.3017 88.2649 73.524 87.3135 76.5527L86.0732 75.3477L85.8604 75.1514C83.6919 73.2461 80.437 73.2461 78.2686 75.1514L78.0557 75.3477L75.7412 77.5947L72.5156 77.6426C69.501 77.6875 67.0498 80.046 66.8574 83.0225L66.8457 83.3125L66.7979 86.5381L64.5508 88.8516C62.3833 91.0847 62.3834 94.637 64.5508 96.8701L65.416 97.7607C62.6755 98.5255 59.7872 98.9365 56.8027 98.9365C39.1421 98.9365 24.8252 84.6196 24.8252 66.959V40.0977H88.7793V66.959ZM80.2822 77.6426C81.2747 76.6792 82.8542 76.6792 83.8467 77.6426L86.0869 79.8164C82.7371 87.4352 76.5031 93.4974 68.7656 96.6211L66.8457 94.6426C65.8825 93.6501 65.8824 92.0716 66.8457 91.0791L69.2686 88.583C69.6943 88.1444 69.9482 87.5684 69.9863 86.9609L69.9912 86.8389L70.043 83.3594C70.0638 81.9767 71.1799 80.8608 72.5625 80.8398L76.042 80.7881C76.6532 80.7789 77.2399 80.551 77.6963 80.1484L77.7861 80.0654L80.2822 77.6426Z" fill="#0072D2"/>
<mask id="mask0_7286_91037" style="mask-type:alpha" maskUnits="userSpaceOnUse" x="24" y="40" width="65" height="59">
<path d="M88.7792 66.959C88.7792 70.3017 88.2648 73.524 87.3134 76.5527L86.0732 75.3477L85.8603 75.1514C83.6918 73.2461 80.437 73.2461 78.2685 75.1514L78.0556 75.3477L75.7411 77.5947L72.5156 77.6426C69.501 77.6875 67.0497 80.046 66.8574 83.0225L66.8456 83.3125L66.7978 86.5381L64.5507 88.8516C62.3832 91.0847 62.3833 94.637 64.5507 96.8701L65.416 97.7607C62.6755 98.5255 59.7871 98.9365 56.8027 98.9365C39.142 98.9365 24.8251 84.6196 24.8251 66.959V40.0977H88.7792V66.959ZM80.2822 77.6426C81.2747 76.6792 82.8541 76.6792 83.8466 77.6426L86.0869 79.8164C82.737 87.4352 76.5031 93.4974 68.7656 96.6211L66.8456 94.6426C65.8824 93.6501 65.8823 92.0716 66.8456 91.0791L69.2685 88.583C69.6943 88.1444 69.9482 87.5684 69.9863 86.9609L69.9911 86.8389L70.0429 83.3594C70.0637 81.9768 71.1798 80.8608 72.5624 80.8398L76.0419 80.7881C76.6531 80.7789 77.2398 80.551 77.6962 80.1484L77.7861 80.0654L80.2822 77.6426Z" fill="#0072D2"/>
</mask>
<g mask="url(#mask0_7286_91037)">
<path d="M93.3452 69.5177V54.3809L56.8012 69.5177H93.3452Z" fill="#0073D0"/>
<path d="M56.8018 69.5176L41.6658 106.061H56.8018V69.5176Z" fill="#047BDA"/>
<path d="M20.2586 84.6545V106.061L56.8017 69.5176L20.2586 84.6545Z" fill="#047BDA"/>
<path d="M56.8012 69.5176V106.061H71.9381L56.8012 69.5176Z" fill="#0073D0"/>
<path d="M56.8012 69.5176L93.3452 54.3808V32.9746H93.3443L56.8012 69.5176Z" fill="#047BDA"/>
<path d="M56.8012 69.5176L93.3452 84.6544V69.5176H56.8012Z" fill="#047BDA"/>
<path d="M93.3452 106.061V84.6545L56.8012 69.5176L93.3452 106.061Z" fill="#0073D0"/>
<path d="M71.9381 106.061H93.3452L56.8012 69.5176L71.9381 106.061Z" fill="#047BDA"/>
<path d="M56.8017 69.5176L20.2586 106.061H41.6657L56.8017 69.5176Z" fill="#0073D0"/>
<path d="M56.8012 69.5176L71.9381 32.9746H56.8012V69.5176Z" fill="#047BDA"/>
<path d="M56.8014 32.9746H41.6645L56.8014 69.5176V32.9746Z" fill="#0073D0"/>
<path d="M56.8017 69.5176H20.2586V84.6544L56.8017 69.5176Z" fill="#0073D0"/>
<path d="M56.8012 69.5176L93.3443 32.9746H71.9381L56.8012 69.5176Z" fill="#0073D0"/>
<path d="M56.8017 69.5177L20.2586 54.3809V69.5177H56.8017Z" fill="#047BDA"/>
<path d="M56.8017 69.5176L20.2586 32.9746V54.3808L56.8017 69.5176Z" fill="#0073D0"/>
<path d="M56.8017 69.5176L41.6648 32.9746H20.2586L56.8017 69.5176Z" fill="#047BDA"/>
<path d="M59.4391 64.2398L67.2607 49.2949L52.0258 49.295L46.7289 71.6424H53.5729L47.9162 87.4252L71.0318 64.2398H59.4391Z" fill="#DBF5FF"/>
</g>
<path d="M83.5673 18.3887C84.0757 18.3887 84.5266 18.7148 84.5266 19.3384V27.3967H82.608V23.5882H81.9844C81.4568 23.5882 81.1306 23.262 81.1306 22.7728C81.1306 22.2931 81.4472 21.9478 81.9844 21.9478H82.608V19.3384C82.608 18.7148 83.0588 18.3887 83.5673 18.3887ZM78.2526 25.4109H81.1306C81.687 25.4109 81.8501 25.8522 81.8501 26.2167C81.8501 26.5909 81.6774 27.013 81.1306 27.013H77.5331C76.3436 27.013 76.1133 26.7156 76.1133 25.574V20.1538C76.1133 19.0122 76.3436 18.7244 77.5331 18.7244H80.5934C81.1498 18.7244 81.3129 19.1657 81.3129 19.5303C81.3129 19.9044 81.1402 20.3457 80.5934 20.3457H78.2526C78.08 20.3457 78.0032 20.4032 78.0032 20.6239V22.0245H80.0274C80.5838 22.0245 80.7948 22.4178 80.7948 22.8207C80.7948 23.2141 80.5742 23.6074 80.0274 23.6074H78.0032V25.1327C78.0032 25.3534 78.08 25.4109 78.2526 25.4109Z" fill="white"/>
<path d="M67.4794 24.028C67.0093 24.028 66.616 23.7594 66.568 23.2893C66.5201 22.8288 66.7695 22.4547 67.2588 22.3492C68.5251 22.071 69.6858 20.9965 69.8873 19.3849C69.964 18.7805 70.3862 18.5215 70.9042 18.5215C71.4798 18.5215 71.8923 18.9052 71.8731 19.5384C71.8635 19.8358 71.8155 20.1331 71.7484 20.4209C73.3601 20.4593 75.0197 21.5817 75.202 24.028H73.2545C73.0819 22.7329 72.1417 21.9463 71.0001 21.975C70.1271 23.1838 68.7457 24.028 67.4794 24.028ZM67.2396 25.5821H74.5688C75.1636 25.5821 75.3938 26.0042 75.3938 26.3975C75.3938 26.8004 75.154 27.2034 74.5688 27.2034H67.2396C66.6544 27.2034 66.4146 26.8004 66.4146 26.3975C66.4146 26.0042 66.6448 25.5821 67.2396 25.5821Z" fill="white"/>
<path d="M65.5226 23.1664H58.7306C57.6754 23.1664 57.4643 22.8018 57.4643 21.8521V19.3675C57.4643 18.7439 57.944 18.5137 58.4524 18.5137C58.9321 18.5137 59.4309 18.7823 59.4309 19.3867V19.3962H63.5656V19.3675C63.5656 18.7439 64.0357 18.5137 64.5441 18.5137C65.0334 18.5137 65.5226 18.7535 65.5226 19.3675V23.1664ZM63.5656 21.6315V20.864H59.4309V21.3437C59.4309 21.5355 59.4981 21.6315 59.7283 21.6315H63.5656ZM57.8193 23.8091H65.1869C65.7625 23.8091 65.9927 24.2025 65.9927 24.5958C65.9927 24.9987 65.7529 25.3824 65.1869 25.3824H62.4816V27.445H60.5246V25.3824H57.8193C57.2533 25.3824 57.0134 24.9987 57.0134 24.5958C57.0134 24.2025 57.2437 23.8091 57.8193 23.8091Z" fill="white"/>
<path d="M55.3631 18.3887C55.8715 18.3887 56.3224 18.7148 56.3224 19.3384V27.3967H54.4037V19.3384C54.4037 18.7148 54.8546 18.3887 55.3631 18.3887ZM52.7345 20.3937H51.4394V21.7079C51.4394 22.0437 51.4202 22.3603 51.3819 22.6673C52.7441 23.1277 53.6267 24.183 53.5116 26.8595H51.6697C51.8136 25.5356 51.5545 24.7586 50.9694 24.3653C50.2978 26.0633 49.0699 26.9266 48.312 26.9266C47.746 26.9266 47.4294 26.5813 47.4294 26.1496C47.4294 25.833 47.5637 25.622 47.8515 25.4301C48.974 24.7106 49.5879 23.5306 49.5879 21.4201V20.3937H48.2928C47.7172 20.3937 47.4774 19.9716 47.4774 19.5782C47.4774 19.1945 47.7076 18.7532 48.2928 18.7532H52.7345C53.3197 18.7532 53.5307 19.1945 53.5307 19.5782C53.5307 19.9716 53.3101 20.3937 52.7345 20.3937Z" fill="white"/>
<path d="M46.9212 25.1903H45.0026V19.3384C45.0026 18.7148 45.4535 18.3887 45.9619 18.3887C46.4704 18.3887 46.9212 18.7148 46.9212 19.3384V25.1903ZM43.9186 24.1734H40.1388C39.0356 24.1734 38.4216 23.4539 38.4216 22.5042V22.3219C38.4216 21.3626 39.026 20.7486 40.0429 20.7486H41.7985V20.3265C41.7985 20.173 41.7409 20.1346 41.5586 20.1346H39.1219C38.6615 20.1346 38.46 19.7317 38.46 19.4056C38.46 19.0602 38.6711 18.6669 39.1219 18.6669H42.3932C43.3717 18.6669 43.7651 19.1465 43.7651 19.8948V22.1013H40.724C40.5513 22.1013 40.3978 22.1876 40.3978 22.3986V22.437C40.3978 22.6385 40.5513 22.7152 40.724 22.7152H43.9186C44.379 22.7152 44.5805 23.1085 44.5805 23.4539C44.5805 23.7897 44.3982 24.1734 43.9186 24.1734ZM46.4032 27.3967H40.3211C39.2466 27.3967 38.9589 27.0226 38.9589 25.9961V25.3246C38.9589 24.749 39.4097 24.4516 39.947 24.4516C40.4842 24.4516 40.9063 24.7586 40.9063 25.3246V25.7563C40.9063 25.8906 40.9542 25.9289 41.0886 25.9289H46.4032C46.9596 25.9289 47.1803 26.2743 47.1803 26.658C47.1803 27.0514 46.95 27.3967 46.4032 27.3967Z" fill="white"/>
<path d="M31.5624 22.197C31.1019 22.8206 30.4016 23.2235 29.6341 23.2235C29.1065 23.2235 28.8283 22.9549 28.8283 22.5136C28.8283 22.1874 29.0777 21.9092 29.3847 21.8612C30.0371 21.7653 30.3824 21.3528 30.4016 20.4894H29.5766C29.1257 20.4894 28.8763 20.1345 28.8763 19.7891C28.8763 19.4438 29.0873 19.0696 29.5766 19.0696H30.3728C30.4112 18.5996 30.6798 18.3789 31.217 18.3789C31.7542 18.3789 32.0229 18.6091 32.0708 19.0696H32.8671C33.3563 19.0696 33.5674 19.4438 33.5674 19.7891C33.5674 20.1345 33.3179 20.4894 32.8671 20.4894H32.1188C32.1188 20.6333 32.1092 20.7676 32.09 20.9115C33.1165 21.0074 33.7305 21.7078 33.6345 23.1084H31.9941C32.09 22.6575 31.9365 22.3025 31.5624 22.197ZM35.9849 21.5735H35.5532V23.1755H33.8744V19.2135C33.8744 18.7147 34.2101 18.3885 34.7186 18.3885C35.227 18.3885 35.5532 18.7147 35.5532 19.2135V20.1249H35.9849V19.2135C35.9849 18.7147 36.3206 18.3885 36.8291 18.3885C37.3375 18.3885 37.6637 18.7147 37.6637 19.2135V23.1755H35.9849V21.5735ZM31.5816 26.2741H37.3759C37.7596 26.2741 37.9227 26.5619 37.9227 26.8497C37.9227 27.1183 37.7692 27.3965 37.3759 27.3965H30.6894C29.8164 27.3965 29.3463 26.8497 29.3463 26.1878V25.9671C29.3463 25.3244 29.8164 24.8927 30.6894 24.8927H35.7258V24.6817C35.7258 24.5665 35.6971 24.5186 35.5724 24.5186H29.9795C29.6054 24.5186 29.4519 24.25 29.4519 23.9622C29.4519 23.6936 29.615 23.4153 29.9795 23.4153H36.5509C37.3855 23.4153 37.6733 23.6648 37.6733 24.3939V25.8904H31.5816C31.4473 25.8904 31.3801 25.9767 31.3801 26.0631V26.1015C31.3801 26.1974 31.4473 26.2741 31.5816 26.2741Z" fill="white"/>
<path d="M63.0774 35.9327H61.7765L60.8498 34.2693H60.1764V35.9327H58.9964V31.7942C58.9964 31.1323 59.2036 30.8848 59.8943 30.8848H60.9534C61.9492 30.8848 62.6802 31.3568 62.6802 32.3871V32.7554C62.6802 33.3253 62.3694 33.757 61.9319 34.016L63.0774 35.9327ZM60.1764 32.0417V33.2965H60.9246C61.3103 33.2965 61.5117 33.049 61.5117 32.7554V32.4158C61.5117 32.1223 61.3103 31.8748 60.9246 31.8748H60.3433C60.2109 31.8748 60.1764 31.9036 60.1764 32.0417Z" fill="#4DEF57"/>
<path d="M57.1755 35.9311V33.8532H55.7192V35.9311H54.5335V31.3781C54.5335 30.9925 54.8155 30.791 55.1264 30.791C55.4372 30.791 55.7192 30.9925 55.7192 31.3781V32.8516H57.1755V31.3781C57.1755 30.9925 57.4575 30.791 57.7683 30.791C58.0792 30.791 58.3612 30.9925 58.3612 31.3781V35.9311H57.1755Z" fill="#4DEF57"/>
<path d="M51.1491 31.1479C51.2354 30.9119 51.4139 30.791 51.6556 30.791C51.9895 30.791 52.2312 30.9925 52.2312 31.3724V35.9311H51.08V32.5754H50.5965C50.2742 32.5754 50.0037 32.4084 50.0037 32.0919C50.0037 31.8271 50.1879 31.6544 50.4181 31.6199C50.7289 31.5796 51.0397 31.4529 51.1491 31.1479Z" fill="#4DEF57"/>
<path d="M80.2823 77.6425C81.2749 76.6791 82.8534 76.6791 83.8459 77.6425L86.3426 80.0659C86.8105 80.5201 87.4343 80.7785 88.0863 80.7882L91.5653 80.84C92.9484 80.8605 94.0646 81.9767 94.0852 83.3598L94.137 86.8388C94.1467 87.4909 94.405 88.1146 94.8592 88.5825L97.2827 91.0792C98.2461 92.0717 98.2461 93.6503 97.2827 94.6428L94.8592 97.1394C94.405 97.6074 94.1467 98.2311 94.137 98.8832L94.0852 102.362C94.0646 103.745 92.9484 104.861 91.5653 104.882L88.0863 104.934C87.4343 104.944 86.8105 105.202 86.3426 105.656L83.8459 108.079C82.8534 109.043 81.2749 109.043 80.2823 108.079L77.7857 105.656C77.3177 105.202 76.694 104.944 76.042 104.934L72.5629 104.882C71.1799 104.861 70.0637 103.745 70.0431 102.362L69.9913 98.8832C69.9816 98.2311 69.7232 97.6074 69.269 97.1394L66.8456 94.6428C65.8822 93.6503 65.8822 92.0717 66.8456 91.0792L69.269 88.5825C69.7232 88.1146 69.9816 87.4909 69.9913 86.8388L70.0431 83.3598C70.0637 81.9767 71.1799 80.8605 72.5629 80.84L76.042 80.7882C76.694 80.7785 77.3177 80.5201 77.7857 80.0659L80.2823 77.6425Z" fill="#2FD039"/>
<path d="M88.1491 96.3262H83.3653C82.5498 96.3262 82.0171 95.8587 82.0171 95.0432V94.9236C82.0171 93.4668 82.452 92.9123 83.3653 92.0751L85.1809 90.4008C85.6158 90.0094 85.8442 89.7158 85.8442 89.3027C85.8442 88.8243 85.431 88.596 85.0396 88.596C84.5069 88.596 84.2459 88.8243 84.0285 89.0635C83.8763 89.2374 83.6697 89.444 83.4631 89.4984C83.1696 89.5853 82.7673 89.5527 82.452 89.2918C82.0606 88.9765 82.0606 88.3894 82.3106 87.9762C82.8651 87.0738 83.8654 86.6172 85.2136 86.6172C86.7466 86.6172 88.0621 87.4652 88.0621 89.0852C88.0621 90.3029 87.388 90.9987 86.4856 91.8794L85.094 93.2276C84.6265 93.6842 84.3112 93.8038 84.3112 94.2061V94.2822C84.3112 94.3909 84.3546 94.4453 84.4742 94.4453H88.1491V96.3262Z" fill="#001953"/>
<path d="M79.6168 92.8162L81.9653 96.328H79.4864L78.2578 94.5558L77.1597 96.328H74.746L77.0836 92.8814L75.4527 90.5439C75.0831 90.022 75.3875 89.2936 75.9637 89.087C76.5291 88.8804 77.1053 89.087 77.5076 89.685L78.4752 91.1201L79.3233 89.6959C79.693 89.0761 80.2257 88.8913 80.7911 89.0761C81.3673 89.261 81.6282 90.022 81.2368 90.5656L79.6168 92.8162Z" fill="#001953"/>
</svg>
