<svg width="24" height="24" viewBox="0 0 24 24" fill="none" xmlns="http://www.w3.org/2000/svg">
<path d="M24 12.0034C24.0007 9.63002 23.2975 7.30974 21.9795 5.33598C20.6615 3.36222 18.7878 1.82362 16.5953 0.914752C14.4029 0.00588102 11.9901 -0.232445 9.66224 0.22992C7.33434 0.692285 5.19583 1.83457 3.51712 3.51232C1.83842 5.19008 0.694924 7.32795 0.231244 9.65559C-0.232436 11.9832 0.00452218 14.3961 0.912153 16.5891C1.81978 18.782 3.35732 20.6566 5.33034 21.9757C7.30335 23.2949 9.62324 23.9993 11.9966 24C13.5726 24.0009 15.1333 23.6913 16.5896 23.0888C18.0459 22.4863 19.3692 21.6028 20.4839 20.4887C21.5986 19.3746 22.4828 18.0518 23.0862 16.5959C23.6895 15.1399 24 13.5794 24 12.0034Z" fill="#4C7FF7"/>
<path d="M13.7553 12C15.3344 12 16.5751 10.79 16.5751 9.25C16.5751 7.71 15.3344 6.5 13.7553 6.5C12.1763 6.5 10.9356 7.71 10.9356 9.25C10.9356 10.79 12.1763 12 13.7553 12ZM19 16.84C18.2669 14.035 15.3344 12.275 12.4583 12.99C10.5409 13.485 9.01823 14.915 8.51069 16.84C8.45429 17.115 8.62348 17.445 8.96184 17.5C9.01823 17.5 9.07463 17.5 9.07463 17.5H18.4361C18.7744 17.5 19 17.28 19 16.95C19 16.895 19 16.84 19 16.84Z" fill="white"/>
<path d="M19.0004 16.8398C18.2672 14.0349 15.3344 12.2752 12.4584 12.9902C10.5412 13.4853 9.01869 14.915 8.51112 16.8398L8.50038 16.9453C8.49982 17.1578 8.62204 17.3778 8.84315 17.4668L8.9623 17.5H18.4369C18.7327 17.4998 18.9418 17.3314 18.9896 17.0684L19.0004 16.9502V16.8398ZM16.5756 9.25C16.5756 7.80612 15.4848 6.65208 14.0473 6.51367L13.7553 6.5C12.1764 6.50024 10.9359 7.71015 10.9359 9.25L10.9506 9.53418C11.0924 10.9361 12.275 11.9998 13.7553 12C15.2358 12 16.4191 10.9363 16.5609 9.53418L16.5756 9.25ZM17.5756 9.25C17.5756 10.5002 16.9771 11.5817 16.0531 12.2578C17.9245 12.9745 19.4342 14.544 19.9682 16.5869L20.0004 16.7119V16.9502C20.0003 17.35 19.8584 17.7571 19.5434 18.0645C19.2306 18.3695 18.8258 18.4999 18.4369 18.5H8.88124L8.80214 18.4873C7.82098 18.3278 7.3784 17.3859 7.53163 16.6387L7.53749 16.6123L7.54433 16.585C8.08137 14.5483 9.56853 12.9935 11.4633 12.2627C10.5361 11.5869 9.93593 10.5027 9.93593 9.25C9.93593 7.13442 11.6479 5.50024 13.7553 5.5C15.8628 5.5 17.5756 7.13427 17.5756 9.25Z" fill="#4C7FF7"/>
<path d="M10.2553 12C11.8344 12 13.0751 10.79 13.0751 9.25C13.0751 7.71 11.8344 6.5 10.2553 6.5C8.67631 6.5 7.43564 7.71 7.43564 9.25C7.43564 10.79 8.67631 12 10.2553 12ZM15.5 16.84C14.7669 14.035 11.8344 12.275 8.95828 12.99C7.04088 13.485 5.51823 14.915 5.01069 16.84C4.95429 17.115 5.12348 17.445 5.46184 17.5C5.51823 17.5 5.57463 17.5 5.57463 17.5H14.9361C15.2744 17.5 15.5 17.28 15.5 16.95C15.5 16.895 15.5 16.84 15.5 16.84Z" fill="white"/>
<path d="M15.5004 16.8398C14.7672 14.0349 11.8344 12.2752 8.95839 12.9902C7.04119 13.4853 5.51869 14.915 5.01112 16.8398L5.00038 16.9453C4.99982 17.1578 5.12204 17.3778 5.34315 17.4668L5.4623 17.5H14.9369C15.2327 17.4998 15.4418 17.3314 15.4896 17.0684L15.5004 16.9502V16.8398ZM13.0756 9.25C13.0756 7.80612 11.9848 6.65208 10.5473 6.51367L10.2553 6.5C8.67645 6.50024 7.43593 7.71015 7.43593 9.25L7.45058 9.53418C7.59244 10.9361 8.77497 11.9998 10.2553 12C11.7358 12 12.9191 10.9363 13.0609 9.53418L13.0756 9.25ZM14.0756 9.25C14.0756 10.5002 13.4771 11.5817 12.5531 12.2578C14.4245 12.9745 15.9342 14.544 16.4682 16.5869L16.5004 16.7119V16.9502C16.5003 17.35 16.3584 17.7571 16.0434 18.0645C15.7306 18.3695 15.3258 18.4999 14.9369 18.5H5.38124L5.30214 18.4873C4.32098 18.3278 3.8784 17.3859 4.03163 16.6387L4.03749 16.6123L4.04433 16.585C4.58137 14.5483 6.06853 12.9935 7.96327 12.2627C7.03611 11.5869 6.43593 10.5027 6.43593 9.25C6.43593 7.13442 8.1479 5.50024 10.2553 5.5C12.3628 5.5 14.0756 7.13427 14.0756 9.25Z" fill="#4C7FF7"/>
</svg>
